<svg fill="none" height="34" viewBox="0 0 34 34" width="34" xmlns="http://www.w3.org/2000/svg"><g fill="currentColor"><path d="m17.9997 5.66675h-3.0005c-1.5728 0-2.8795 1.28246-2.8795 2.87949v1.04049h-3.75055c-.24198 0-.43556.19358-.43556.43557v.0242l.60494 12.5342c.07259 1.718 1.50027 3.0731 3.21827 3.0731h6.9446c.9195 2.1536 3.4119 3.1457 5.5654 2.2262 2.1536-.9195 3.1457-3.4119 2.2262-5.5654-.3872-.8953-1.0647-1.6455-1.9358-2.081l.484-10.1871c0-.242-.1936-.43558-.4114-.43558h-3.7748v-1.04048c0-1.62123-1.2825-2.90369-2.8553-2.90369zm-5.0089 2.85529c0-1.11308.8954-2.03258 2.0326-2.03258h3.0005c1.1131 0 2.0326.8953 2.0326 2.03258v1.04049h-7.0657zm12.7279 16.79296c-.5324 1.2341-1.7664 2.0326-3.0973 2.0326-1.4518 0-2.7343-.9195-3.2182-2.2745-.121-.363-.1936-.726-.1936-1.1131 0-1.8632 1.5244-3.3877 3.3876-3.3877 2.4198-.0242 4.0894 2.4682 3.1215 4.7427zm-1.5245-14.9056-.4597 9.4612c-2.2504-.6291-4.5733.6775-5.2024 2.9279-.1694.6533-.2178 1.3309-.0726 1.9842h-6.6785c-1.2583 0-2.32297-.9921-2.37136-2.2504l-.58074-12.0987h3.315v1.4277c0 .242.1936.4355.4356.4355s.4355-.1935.4355-.4355v-1.4277h7.0415v1.4277c0 .242.1936.4355.4355.4355.242 0 .4356-.1935.4356-.4355v-1.4277h3.2666z"/><path d="m22.597 21.7097c-.2419 0-.4355.1936-.4355.4356v1.3792h-1.3793c-.2419 0-.4355.1936-.4355.4356 0 .2419.1936.4355.4355.4355h1.3793v1.3793c0 .242.1936.4355.4355.4355.242 0 .4356-.1935.4356-.4355v-1.3793h1.3792c.242 0 .4356-.1936.4356-.4355 0-.242-.1936-.4356-.4356-.4356h-1.3792v-1.3792c0-.242-.1936-.4356-.4356-.4356z"/></g></svg>