<svg fill="none" height="10" viewBox="0 0 10 10" width="10" xmlns="http://www.w3.org/2000/svg" xmlns:xlink="http://www.w3.org/1999/xlink"><clipPath id="a"><path d="m0 0h10v10h-10z"/></clipPath><g clip-path="url(#a)"><path d="m5.5863 5.00309 4.28659-4.28659c.16541-.159783.17001-.42342.01025-.588864-.15978-.1654439-.42342-.1700314-.58886-.010249-.00347.003344-.00688.00676-.01025.010249l-4.28662 4.286594-4.286603-4.286618c-.165444-.1597831-.429082-.1551955-.588865.010249-.1558789.161393-.1558789.417246 0 .578639l4.286598 4.28659-4.286598 4.28659c-.1625894.16261-.1625894.42625 0 .58886.162614.16256.426252.16256.588865 0l4.286603-4.28659 4.2866 4.28659c.16544.15976.42908.15516.58886-.01025.15583-.16139.15583-.41724 0-.57861z" fill="currentColor"/></g></svg>