<svg fill="none" height="34" viewBox="0 0 34 34" width="34" xmlns="http://www.w3.org/2000/svg"><g fill="currentColor" stroke="currentColor" stroke-width=".1"><path d="m17 7c-5.514 0-10 4.486-10 10s4.486 10 10 10 10-4.486 10-10-4.486-10-10-10zm0 19.3333c-5.1463 0-9.33333-4.187-9.33333-9.3333s4.18703-9.33333 9.33333-9.33333 9.3333 4.18703 9.3333 9.33333-4.187 9.3333-9.3333 9.3333z"/><path d="m17.3333 15.6737v-3.3806c0-.1844-.1493-.3334-.3333-.3334s-.3333.149-.3333.3334v3.3806c-.4664.1214-.8314.4864-.9527.9527h-2.3807c-.184 0-.3333.149-.3333.3333 0 .1844.1493.3334.3333.3334h2.3807c.149.5733.6667 1 1.286 1 .7353 0 1.3333-.598 1.3333-1.3334 0-.6196-.4266-1.137-1-1.286zm-.3333 1.9527c-.3677 0-.6667-.299-.6667-.6667 0-.3676.299-.6666.6667-.6666s.6667.299.6667.6666c0 .3677-.299.6667-.6667.6667z"/><path d="m17.0003 10.293c.184 0 .3334-.149.3334-.33336v-.33334c0-.18433-.1494-.33333-.3334-.33333s-.3333.149-.3333.33333v.33334c0 .18436.1493.33336.3333.33336z"/><path d="m17.0003 23.6265c-.184 0-.3333.149-.3333.3333v.3333c0 .1844.1493.3334.3333.3334s.3334-.149.3334-.3334v-.3333c0-.1843-.1494-.3333-.3334-.3333z"/><path d="m24.3327 16.6262h-.3334c-.184 0-.3333.149-.3333.3334 0 .1843.1493.3333.3333.3333h.3334c.184 0 .3333-.149.3333-.3333 0-.1844-.1493-.3334-.3333-.3334z"/><path d="m9.99967 16.6262h-.33333c-.184 0-.33333.149-.33333.3334 0 .1843.14933.3333.33333.3333h.33333c.18403 0 .33333-.149.33333-.3333 0-.1844-.1493-.3334-.33333-.3334z"/><path d="m21.9496 11.5383-.2356.2357c-.1304.1303-.1304.341 0 .4713.065.065.1503.0977.2356.0977.0854 0 .1707-.0327.2357-.0977l.2357-.2357c.1303-.1303.1303-.341 0-.4713-.1304-.1303-.341-.13-.4714 0z"/><path d="m11.8149 21.6738-.2357.2357c-.1303.1303-.1303.341 0 .4713.065.065.1503.0977.2357.0977.0853 0 .1706-.0327.2356-.0977l.2357-.2357c.1303-.1303.1303-.341 0-.4713s-.3413-.13-.4713 0z"/><path d="m22.1853 21.6737c-.1303-.1304-.341-.1304-.4713 0-.1304.1303-.1304.341 0 .4713l.2356.2357c.065.065.1504.0976.2357.0976s.1707-.0326.2357-.0976c.1303-.1304.1303-.341 0-.4714z"/><path d="m12.0505 11.5384c-.1303-.1303-.341-.1303-.4713 0-.1303.1304-.1303.341 0 .4714l.2357.2356c.065.065.1503.0977.2356.0977.0854 0 .1707-.0327.2357-.0977.1303-.1303.1303-.341 0-.4713z"/></g></svg>