<svg width="24" height="24" viewBox="0 0 24 24" fill="none" xmlns="http://www.w3.org/2000/svg">
<path d="M20.3555 14.5869C19.9995 14.5869 19.7109 14.8755 19.7109 15.2314V19.0664C19.7109 19.4218 19.4218 19.7109 19.0664 19.7109H6.43359C6.0782 19.7109 5.78906 19.4218 5.78906 19.0664V15.2314C5.78906 14.8755 5.5005 14.5869 5.14453 14.5869C4.78857 14.5869 4.5 14.8755 4.5 15.2314V19.0664C4.5 20.1326 5.36741 21 6.43359 21H19.0664C20.1326 21 21 20.1326 21 19.0664V15.2314C21 14.8755 20.7114 14.5869 20.3555 14.5869Z" fill="currentColor" stroke="white" stroke-width="0.4"/>
<path d="M16.2999 12.5521C16.0482 12.3004 15.6401 12.3004 15.3884 12.5521L13.3949 14.5455V5.14453C13.3949 4.78857 13.1063 4.5 12.7504 4.5C12.3944 4.5 12.1058 4.78857 12.1058 5.14453V14.5455L10.1124 12.5521C9.86066 12.3004 9.45257 12.3004 9.20087 12.5521C8.94916 12.8038 8.94916 13.2119 9.20087 13.4636L12.0433 16.306C12.4338 16.6965 13.0669 16.6965 13.4575 16.306L16.2999 13.4636C16.5516 13.2119 16.5516 12.8038 16.2999 12.5521Z" fill="currentColor" stroke="white" stroke-width="0.4"/>
</svg>
