<svg fill="none" height="24" viewBox="0 0 24 24" width="24" xmlns="http://www.w3.org/2000/svg"><path d="m20.125 4h-16.24999c-1.03394 0-1.87501.84107-1.87501 1.87501v11.24999c0 1.034.84107 1.875 1.87501 1.875h16.24999c1.0339 0 1.875-.841 1.875-1.875v-11.24999c0-1.03394-.8411-1.87501-1.875-1.87501zm0 1.24999c.0849 0 .1657.01762.2395.04839l-8.3645 7.24962-8.36458-7.24962c.07385-.03073.15463-.04839.23955-.04839zm0 12.50001h-16.24999c-.34484 0-.62502-.2801-.62502-.625v-10.50599l8.34041 7.22839c.1179.1019.2637.1526.4096.1526s.2917-.0506.4096-.1526l8.3404-7.22839v10.50599c0 .3449-.2802.625-.625.625z" fill="currentColor"/></svg>