<svg width="24" height="24" viewBox="0 0 24 24" fill="none" xmlns="http://www.w3.org/2000/svg">
<path d="M18.8581 7.57916C18.8393 7.57916 18.8393 7.56039 18.8205 7.54162C18.8017 7.52285 18.8017 7.50408 18.783 7.48531L15.5545 3.86262C15.5357 3.84385 15.4982 3.82508 15.4794 3.80631C15.4606 3.80631 15.4606 3.78754 15.4418 3.78754C15.4043 3.76877 15.348 3.75 15.2917 3.75H7.37057C6.2068 3.75 5.24951 4.70729 5.24951 5.87106V18.8789C5.24951 20.0427 6.2068 21 7.37057 21H16.7558C17.9195 21 18.8768 20.0427 18.8768 18.8789V7.71056C18.8768 7.67301 18.8581 7.6167 18.8581 7.57916ZM15.6483 5.02639L17.7318 7.37269H15.6483V5.02639ZM18.1635 18.8602C18.1635 19.6485 17.5441 20.2867 16.7558 20.2867H7.37057C6.58221 20.2867 5.96279 19.6485 5.96279 18.8789V5.85229C5.96279 5.06393 6.60098 4.4445 7.37057 4.4445H14.935V7.71056C14.935 7.89826 15.0852 8.06719 15.2917 8.06719H18.1635V18.8602Z" fill="currentColor" stroke="currentColor" stroke-width="0.3"/>
<path d="M7.7834 8.06728H10.9181C11.1058 8.06728 11.2747 7.91712 11.2747 7.71064C11.2747 7.50417 11.1245 7.354 10.9181 7.354H7.7834C7.59569 7.354 7.42676 7.50417 7.42676 7.71064C7.42676 7.91712 7.59569 8.06728 7.7834 8.06728Z" fill="currentColor" stroke="currentColor" stroke-width="0.3"/>
<path d="M10.9181 16.6829H7.7834C7.59569 16.6829 7.42676 16.833 7.42676 17.0395C7.42676 17.2272 7.57692 17.3961 7.7834 17.3961H10.9181C11.1058 17.3961 11.2747 17.246 11.2747 17.0395C11.2747 16.8518 11.1058 16.6829 10.9181 16.6829Z" fill="currentColor" stroke="currentColor" stroke-width="0.3"/>
<path d="M7.42676 10.0756C7.42676 10.2633 7.57692 10.4323 7.7834 10.4323H16.155C16.3427 10.4323 16.5116 10.2821 16.5116 10.0756C16.5116 9.88793 16.3615 9.71899 16.155 9.71899H7.7834C7.59569 9.71899 7.42676 9.86916 7.42676 10.0756Z" fill="currentColor" stroke="currentColor" stroke-width="0.3"/>
<path d="M16.155 11.4834H7.7834C7.59569 11.4834 7.42676 11.6336 7.42676 11.84C7.42676 12.0277 7.57692 12.1967 7.7834 12.1967H16.155C16.3427 12.1967 16.5116 12.0465 16.5116 11.84C16.5116 11.6336 16.3615 11.4834 16.155 11.4834Z" fill="currentColor" stroke="currentColor" stroke-width="0.3"/>
<path d="M16.155 13.229H7.7834C7.59569 13.229 7.42676 13.3792 7.42676 13.5856C7.42676 13.7733 7.57692 13.9423 7.7834 13.9423H16.155C16.3427 13.9423 16.5116 13.7921 16.5116 13.5856C16.5116 13.3792 16.3615 13.229 16.155 13.229Z" fill="currentColor" stroke="currentColor" stroke-width="0.3"/>
<path d="M16.155 14.9749H7.7834C7.59569 14.9749 7.42676 15.125 7.42676 15.3315C7.42676 15.5192 7.57692 15.6881 7.7834 15.6881H16.155C16.3427 15.6881 16.5116 15.538 16.5116 15.3315C16.5116 15.1438 16.3615 14.9749 16.155 14.9749Z" fill="currentColor" stroke="currentColor" stroke-width="0.3"/>
</svg>
