<svg fill="none" height="34" viewBox="0 0 34 34" width="34" xmlns="http://www.w3.org/2000/svg" xmlns:xlink="http://www.w3.org/1999/xlink"><clipPath id="a"><path d="m6.75 6.75h16.5v16.5h-16.5z"/></clipPath><g clip-path="url(#a)"><path d="m18.5715 8.17024c-1.3764-.00735-2.6849.59714-3.5715 1.64998-.8811-1.06003-2.1932-1.66625-3.5715-1.64998-2.58389 0-4.6785 2.09456-4.6785 4.67846 0 4.4279 7.7278 8.7513 8.0411 8.9184.1264.0844.2913.0844.4178 0 .0674-.036.4784-.2617 1.0819-.6385l.0907-1.0482 4.4588-2.5343c1.3502-1.4035 2.4097-3.0347 2.4097-4.6974 0-2.5839-2.0946-4.67846-4.6785-4.67846zm-3.5715 12.76136c-1.2114-.7101-7.41456-4.4905-7.41456-8.0829 0-2.1224 1.72058-3.84305 3.84306-3.84305 1.2997-.01708 2.5161.63851 3.2164 1.73355.1422.1961.4165.2398.6126.0975.0375-.0272.0704-.0601.0976-.0975 1.1615-1.77641 3.5432-2.27485 5.3196-1.11331 1.0874.71111 1.742 1.92351 1.7398 3.22281 0 1.5986-1.2003 3.2214-2.648 4.5966l1.0738.1008-4.4588 2.5343c-.6196.4068-1.1183.7015-1.3815.8512z" fill="currentColor"/></g><g fill="currentColor"><path d="m16.7008 22.6537c.9195 2.1536 3.4118 3.1457 5.5654 2.2262s3.1457-3.4119 2.2262-5.5654c-.3872-.8953-1.0647-1.6455-1.9358-2.081zm7.0173-.3388c-.5324 1.2341-1.7665 2.0326-3.0973 2.0326-1.4519 0-2.7343-.9195-3.2183-2.2745-.121-.363-.1935-.726-.1935-1.1131 0-1.8632 1.5244-3.3877 3.3876-3.3877 2.4197-.0242 4.0894 2.4682 3.1215 4.7427zm-7.0173.3388 5.8558-5.4202c-2.7252-1.3627-5.396.3145-6.0252 2.5649-.1694.6533-.1188 2.1802.1694 2.8553z"/><path d="m20.597 18.7095c-.2419 0-.4355.1936-.4355.4355v1.3793h-1.3793c-.2419 0-.4355.1936-.4355.4355 0 .242.1936.4356.4355.4356h1.3793v1.3792c0 .242.1936.4356.4355.4356.242 0 .4356-.1936.4356-.4356v-1.3792h1.3792c.242 0 .4356-.1936.4356-.4356 0-.2419-.1936-.4355-.4356-.4355h-1.3792v-1.3793c0-.2419-.1936-.4355-.4356-.4355z"/></g></svg>