<svg width="24" height="24" viewBox="0 0 24 24" fill="none" xmlns="http://www.w3.org/2000/svg">
<path d="M21 15.1816C21 12.558 19.2322 10.2657 16.7392 9.57491C16.5825 5.92291 13.5629 3 9.87305 3C6.08318 3 3 6.08318 3 9.87305C3 11.1082 3.32877 12.3108 3.95306 13.3666L3.02527 16.7207L6.37953 15.793C7.35004 16.3669 8.44482 16.6902 9.57477 16.739C10.2654 19.232 12.5578 21 15.1816 21C16.2289 21 17.2473 20.7211 18.1422 20.1911L20.9746 20.9746L20.1911 18.1422C20.7211 17.2473 21 16.2289 21 15.1816ZM6.54597 14.6526L4.53795 15.2081L5.09344 13.2001L4.96683 13.0021C4.37013 12.0685 4.05469 10.9865 4.05469 9.87305C4.05469 6.66476 6.66476 4.05469 9.87305 4.05469C13.0813 4.05469 15.6914 6.66476 15.6914 9.87305C15.6914 13.0813 13.0813 15.6914 9.87305 15.6914C8.75958 15.6914 7.6777 15.376 6.744 14.7793L6.54597 14.6526ZM19.4621 19.4621L17.972 19.0498L17.773 19.1793C17.0017 19.6804 16.1055 19.9453 15.1816 19.9453C13.1195 19.9453 11.3074 18.612 10.6654 16.7001C13.8232 16.336 16.336 13.8232 16.7002 10.6653C18.612 11.3074 19.9453 13.1195 19.9453 15.1816C19.9453 16.1055 19.6804 17.0017 19.1793 17.773L19.0498 17.972L19.4621 19.4621Z" fill="currentColor"/>
<path d="M9.3457 12.5273H10.4004V13.582H9.3457V12.5273Z" fill="currentColor"/>
<path d="M10.9277 8.27344C10.9277 8.57295 10.8058 8.8494 10.5844 9.05196L9.3457 10.1857V11.4727H10.4004V10.6502L11.2965 9.83006C11.7323 9.43112 11.9824 8.86382 11.9824 8.27344C11.9824 7.11026 11.0362 6.16406 9.87305 6.16406C8.70987 6.16406 7.76367 7.11026 7.76367 8.27344H8.81836C8.81836 7.69185 9.29146 7.21875 9.87305 7.21875C10.4546 7.21875 10.9277 7.69185 10.9277 8.27344Z" fill="currentColor"/>
</svg>
