<svg fill="none" height="24" viewBox="0 0 24 24" width="24" xmlns="http://www.w3.org/2000/svg"><path d="m3.47178 13.5544.72044-.2084zm0-6.64787-.72044-.20848zm17.05642.00001.7205-.20848zm0 6.64786-.7204-.2084zm-3.7134 3.4531-.1401-.7368zm-9.62958 0 .14009-.7368zm0-13.55406-.14009-.7368zm9.62958 0 .1401-.7368zm-13.29475 10.26776-.72044.2085zm16.95995 0 .7204.2085zm0-6.98147-.7205.20849zm-16.95995 0 .72044.20849zm9.22995 11.18327c0-.4142-.3358-.75-.75-.75s-.75.3358-.75.75zm-1.5 3.077c0 .4142.3358.75.75.75s.75-.3358.75-.75zm-1.88614-.75c-.41422 0-.75.3358-.75.75s.33578.75.75.75zm5.27224 1.5c.4143 0 .75-.3358.75-.75s-.3357-.75-.75-.75zm5.1234-14.80178.0483.16681 1.4409-.41697-.0483-.16681zm.0483 6.39778-.0483.1668 1.4409.4169.0483-.1668zm-15.56731.1668-.04827-.1668-1.44088.4169.04827.1668zm-.04827-6.39778.04827-.1668-1.44088-.41697-.04827.1668zm0 6.23098c-.58963-2.0376-.58963-4.19344 0-6.23098l-1.44088-.41697c-.66845 2.30993-.66845 4.75495 0 7.06485zm15.61558-6.23098c.5896 2.03754.5896 4.19338 0 6.23098l1.4409.4169c.6684-2.3099.6684-4.75492 0-7.06484zm-3.1331 9.15568c-3.0872.587-6.2622.587-9.34939 0l-.28018 1.4736c3.27237.6222 6.63737.6222 9.90977 0zm-9.34939-12.08046c3.08719-.58699 6.26219-.58699 9.34939 0l.2802-1.4736c-3.2724-.62219-6.6374-.62219-9.90977 0zm0 12.08046c-1.49264-.2838-2.6795-1.3573-3.08482-2.7579l-1.44088.4169c.56725 1.9602 2.21539 3.4286 4.24552 3.8146zm9.62959 1.4736c2.0301-.386 3.6782-1.8544 4.2455-3.8146l-1.4409-.4169c-.4053 1.4006-1.5922 2.4741-3.0848 2.7579zm-.2802-13.55406c1.4926.28381 2.6795 1.35736 3.0848 2.75798l1.4409-.41697c-.5673-1.96022-2.2154-3.42861-4.2455-3.81461zm-9.62957-1.4736c-2.03013.386-3.67827 1.85439-4.24552 3.81461l1.44088.41697c.40532-1.40062 1.59218-2.47417 3.08482-2.75798zm4.20487 15.20636v3.077h1.5v-3.077zm-1.88614 3.827h5.27224v-1.5h-5.27224z" fill="currentColor"/></svg>