<svg fill="none" height="24" viewBox="0 0 24 24" width="24" xmlns="http://www.w3.org/2000/svg"><g stroke="currentColor" stroke-width="1.5"><path d="m3.68764 9.06849c.62627-2.6699 2.71095-4.75458 5.38085-5.38085 1.92821-.45229 3.93481-.45229 5.86301 0 2.6699.62627 4.7546 2.71095 5.3809 5.38086.4522 1.9282.4522 3.9348 0 5.863-.6263 2.6699-2.711 4.7546-5.3809 5.3809-1.9282.4522-3.9348.4522-5.863 0-2.6699-.6263-4.75459-2.711-5.38086-5.3809-.45229-1.9282-.45229-3.9348 0-5.86301z"/><path d="m14.1618 10.8707c.7843.5019.7843 1.7567 0 2.2586l-2.6471 1.694c-.7843.502-1.7647-.1254-1.7647-1.1293v-3.388c0-1.00386.9804-1.63127 1.7647-1.12935z"/></g></svg>