<svg fill="none" height="24" viewBox="0 0 24 24" width="24" xmlns="http://www.w3.org/2000/svg"><path d="m3.31573 13.7811.73018-.1713zm0-5.4571.73018.17128zm15.47357 0 .7302-.17127zm0 5.457.7302.1713zm-5.0083 5.0083-.1712-.7302zm-5.457 0-.17127.7302zm0-15.47357-.17128-.73018zm5.457 0 .1713-.73018zm6.6887 18.21457c.2929.2929.7677.2929 1.0606 0s.2929-.7677 0-1.0606zm-16.42379-7.9205c-.39455-1.682-.39455-3.4325 0-5.11452l-1.46036-.34256c-.4474 1.90728-.4474 3.89228 0 5.79958zm14.01319-5.11452c.3946 1.68202.3946 3.43252 0 5.11452l1.4604.3425c.4474-1.9073.4474-3.8923 0-5.79957zm-4.4493 9.56382c-1.682.3946-3.4325.3946-5.11452 0l-.34255 1.4604c1.90727.4474 3.89227.4474 5.79957 0zm-5.11452-14.01319c1.68202-.39455 3.43252-.39455 5.11452 0l.3425-1.46036c-1.9073-.4474-3.8923-.4474-5.79958 0zm0 14.01319c-2.20771-.5178-3.93151-2.2416-4.44937-4.4493l-1.46036.3425c.64796 2.7624 2.80483 4.9192 5.56718 5.5672zm5.45702 1.4604c2.7624-.648 4.9192-2.8048 5.5672-5.5672l-1.4604-.3425c-.5178 2.2077-2.2416 3.9315-4.4493 4.4493zm-.3425-15.47359c2.2077.51786 3.9315 2.24166 4.4493 4.44937l1.4604-.34255c-.648-2.76236-2.8048-4.91922-5.5672-5.56718zm-5.45708-1.46036c-2.76235.64796-4.91921 2.80482-5.56717 5.56717l1.46036.34256c.51786-2.20772 2.24166-3.93151 4.44937-4.44937zm8.65208 15.27995 3.6649 3.6648 1.0606-1.0606-3.6648-3.6649z" fill="currentColor"/></svg>