<svg fill="none" height="34" viewBox="0 0 34 34" width="34" xmlns="http://www.w3.org/2000/svg"><g fill="currentColor"><path d="m10.5431 15.5929c.2519.2519.6618.2519.9138 0l.8354-.8354c.2519-.2519.2519-.6619 0-.9138l-.8354-.8355h11.4972c1.0689 0 1.9385.8696 1.9385 1.9385 0 .5345.4349.9693.9693.9693h.6462c.5344 0 .9692-.4348.9692-.9693 0-2.4941-2.0291-4.5232-4.5232-4.5232h-11.4972l.8354-.83538c.2519-.25193.2519-.66189 0-.91381l-.8354-.83546c-.252-.25193-.6619-.25193-.9138 0l-3.64864 3.64865c-.12621.1261-.12621.3307 0 .4568zm.4569-7.29713.8354.83542-1.387 1.38701c-.203.2029-.059.5515.2285.5515h12.2772c2.1378 0 3.8771 1.7392 3.8771 3.877 0 .1782-.145.3231-.3231.3231h-.6462c-.1781 0-.3231-.1449-.3231-.3231 0-1.4252-1.1595-2.5846-2.5847-2.5846h-12.2772c-.2869 0-.4319.3481-.2285.5515l1.387 1.387-.8354.8354-3.42015-3.4201z"/><path d="m27.3827 22.4724-3.6486-3.6486c-.2519-.2518-.6618-.2519-.9139.0001l-.8354.8354c-.2525.2525-.2526.6613 0 .9138l.8355.8354h-11.4973c-1.0689 0-1.93851-.8696-1.93851-1.9385 0-.5345-.43479-.9693-.96926-.9693h-.64617c-.53446 0-.96926.4348-.96926.9693 0 2.4941 2.02911 4.5232 4.5232 4.5232h11.4973l-.8354.8354c-.2526.2525-.2526.6613-.0001.9139l.8355.8355c.2519.2518.6618.2518.9138-.0001l3.6486-3.6486c.1261-.1262.1261-.3307 0-.4569zm-4.1055 3.6486-.8354-.8355 1.387-1.3869c.2031-.2032.0586-.5516-.2285-.5516h-12.2773c-2.13781 0-3.87702-1.7392-3.87702-3.877 0-.1782.14494-.3231.32308-.3231h.64617c.17815 0 .32309.1449.32309.3231 0 1.4252 1.15947 2.5847 2.58468 2.5847h12.2773c.2873 0 .4315-.3486.2284-.5516l-1.3869-1.3869.8354-.8355 3.4201 3.4201z"/></g></svg>