<svg width="24" height="24" viewBox="0 0 24 24" fill="none" xmlns="http://www.w3.org/2000/svg">
<path d="M5.63604 20C4.37737 18.719 3.52021 17.087 3.17294 15.3102C2.82567 13.5334 3.0039 11.6917 3.68509 10.0181C4.36627 8.34438 5.51983 6.91386 6.99987 5.9074C8.47991 4.90094 10.22 4.36375 12 4.36375C13.78 4.36374 15.5201 4.90094 17.0001 5.9074C18.4802 6.91385 19.6337 8.34437 20.3149 10.0181C20.9961 11.6917 21.1743 13.5334 20.8271 15.3102C20.4798 17.0869 19.6226 18.719 18.364 20" stroke="currentColor" stroke-width="1.5" stroke-linecap="round"/>
<path d="M7.75736 18C6.91825 17.1808 6.3468 16.137 6.11529 15.0007C5.88378 13.8644 6.0026 12.6865 6.45672 11.6162C6.91085 10.5458 7.67988 9.6309 8.66658 8.98723C9.65327 8.34356 10.8133 8 12 8C13.1867 8 14.3467 8.34356 15.3334 8.98722C16.3201 9.63089 17.0891 10.5458 17.5433 11.6162C17.9974 12.6865 18.1162 13.8644 17.8847 15.0007C17.6532 16.137 17.0818 17.1808 16.2426 18" stroke="currentColor" stroke-width="1.5" stroke-linecap="round"/>
<path d="M9.87868 16C9.45913 15.5904 9.1734 15.0685 9.05765 14.5003C8.94189 13.9322 9.0013 13.3433 9.22836 12.8081C9.45543 12.2729 9.83994 11.8154 10.3333 11.4936C10.8266 11.1718 11.4067 11 12 11C12.5933 11 13.1734 11.1718 13.6667 11.4936C14.1601 11.8154 14.5446 12.2729 14.7716 12.8081C14.9987 13.3433 15.0581 13.9322 14.9424 14.5003C14.8266 15.0685 14.5409 15.5904 14.1213 16" stroke="currentColor" stroke-width="1.5" stroke-linecap="round"/>
</svg>
