<svg fill="none" height="24" viewBox="0 0 24 24" width="24" xmlns="http://www.w3.org/2000/svg"><g stroke="currentColor" stroke-width="1.5"><path d="m21 12h-4m2 2v-4" stroke-linecap="round"/><path d="m3 19.1115c0-2.4131 1.69732-4.4685 4.00404-4.8488l.20778-.0343c1.8471-.3045 3.72928-.3045 5.57638 0l.2078.0343c2.3067.3803 4.004 2.4357 4.004 4.8488 0 1.043-.8185 1.8885-1.8281 1.8885h-10.34377c-1.00965 0-1.82813-.8455-1.82813-1.8885z"/><path d="m14.0834 6.9375c0 2.17462-1.8282 3.9375-4.0834 3.9375-2.25514 0-4.08331-1.76288-4.08331-3.9375s1.82817-3.9375 4.08331-3.9375c2.2552 0 4.0834 1.76288 4.0834 3.9375z"/></g></svg>