<svg fill="none" height="34" viewBox="0 0 34 34" width="34" xmlns="http://www.w3.org/2000/svg"><path d="m17 6c-6.0654 0-11 4.9346-11 11 0 2.6565.94673 5.0959 2.52047 6.9989.00403.0055.0044.0125.0088.0176 1.1363 1.3703 2.56333 2.4208 4.15363 3.0995.0183.0077.0363.0161.0546.0238.1287.0543.2589.1045.3894.1536.0513.0195.1027.0393.1547.058.1126.0403.2259.0784.3399.1151.073.0235.146.0466.2197.0686.1008.03.202.059.3039.0865.0895.0242.1797.0466.2699.0682.0913.022.183.044.275.0634.1027.022.2064.0415.3106.0605.0836.0154.1668.0316.2511.0451.1155.0187.2318.0334.3484.0484.0751.0096.1499.0206.2255.0286.132.014.2651.0239.3985.033.062.0044.1236.011.1859.0143.1947.011.3916.0169.59.0169s.3953-.0059.5907-.0161c.0623-.0033.1239-.0099.1859-.0143.1335-.0096.2666-.0191.3986-.033.0755-.0081.1503-.0191.2255-.0286.1166-.0151.2328-.0297.3483-.0484.084-.0136.1676-.0297.2512-.0451.1037-.0191.2075-.0385.3105-.0605.0921-.0198.1834-.0415.275-.0635.0902-.022.1804-.0443.2699-.0682.1019-.0271.2031-.0564.304-.0865.0737-.022.1466-.0451.2196-.0686.114-.0366.2273-.0748.3399-.1151.0517-.0187.103-.0385.1547-.0579.1309-.0492.2607-.0998.3894-.1537.0184-.0077.0363-.0161.0547-.0238 1.5898-.6787 3.0173-1.7292 4.1536-3.0994.0044-.0052.0047-.0125.0088-.0176 1.573-1.9038 2.5197-4.3432 2.5197-6.9997 0-6.0654-4.9346-11-11-11zm4.4576 20.2473c-.0055.0026-.0107.0055-.0162.0081-.1309.0631-.264.1225-.3982.1804-.0304.0128-.0605.026-.0909.0389-.1173.0491-.2361.0957-.3557.1404-.0498.0187-.0997.037-.1499.0546-.106.0378-.2123.0741-.3198.1086-.0667.0212-.1338.0414-.2009.0612-.0953.0286-.191.0561-.2878.0818-.0814.0216-.1636.0414-.2457.0608-.0862.0206-.172.0415-.2589.0598-.0949.0202-.1906.0374-.286.0546-.0773.0143-.1543.0294-.2324.0418-.1075.0169-.216.0305-.3242.044-.0685.0088-.1367.0191-.206.0264-.1236.0132-.2483.0217-.3726.0305-.0553.0036-.1103.0099-.1664.0128-.1815.0095-.3634.0147-.546.0147s-.3645-.0052-.5456-.0147c-.0557-.0029-.1107-.0088-.1665-.0128-.1246-.0085-.2489-.0173-.3725-.0305-.0693-.0073-.1375-.0176-.2061-.0264-.1081-.0135-.2167-.0271-.3241-.044-.0781-.0124-.1551-.0275-.2325-.0418-.0957-.0172-.1914-.0348-.286-.0546-.0869-.0183-.173-.0392-.2588-.0598-.0822-.0198-.1643-.0392-.2457-.0608-.0964-.0257-.1925-.0536-.2878-.0818-.0671-.0198-.1342-.04-.201-.0612-.1074-.0345-.2141-.0708-.3197-.1086-.0502-.0179-.1001-.0363-.15-.0546-.1195-.0447-.2383-.0913-.3556-.1404-.0305-.0125-.0602-.0257-.0906-.0385-.1342-.0576-.2673-.1174-.3986-.1804-.0055-.0026-.0106-.0052-.0161-.0081-1.2793-.6189-2.4094-1.4975-3.3264-2.5645.70877-2.6099 2.7152-4.7138 5.2965-5.5509.051.0311.1041.059.1566.0883.0308.0173.0612.0356.0924.0521.1092.0579.22.1122.3333.161.0869.0381.1767.0704.2662.1034.0176.0062.0352.0132.0528.0194.4972.176 1.0292.2768 1.5858.2768s1.0886-.1008 1.5855-.2768c.0176-.0062.0352-.0132.0528-.0194.0894-.033.1793-.0653.2662-.1034.1133-.0488.224-.1031.3333-.161.0311-.0169.0616-.0348.0924-.0521.0524-.0293.1059-.0572.1573-.0887 2.5813.8375 4.5873 2.9414 5.2965 5.551-.9171 1.0666-2.0471 1.9451-3.3264 2.5644zm-8.4909-12.1806c0-2.2239 1.8095-4.0334 4.0333-4.0334s4.0333 1.8095 4.0333 4.0334c0 1.4146-.7337 2.6594-1.8392 3.3795-.1444.0939-.2948.1779-.4491.2512-.0184.0088-.0363.018-.0547.0264-1.0618.4829-2.3188.4829-3.3806 0-.0184-.0084-.0367-.0176-.0547-.0264-.1547-.0733-.3047-.1573-.4491-.2512-1.1055-.7201-1.8392-1.9649-1.8392-3.3795zm12.3673 8.9184c-.8313-2.4545-2.7277-4.4381-5.1506-5.3805.9691-.873 1.5833-2.1336 1.5833-3.5379 0-2.6283-2.1384-4.7667-4.7667-4.7667s-4.7667 2.1384-4.7667 4.7667c0 1.4043.6142 2.6649 1.5837 3.5379-2.423.9427-4.31937 2.926-5.1506 5.3805-1.21477-1.6863-1.93307-3.7528-1.93307-5.9851 0-5.661 4.60567-10.26667 10.26667-10.26667s10.2667 4.60567 10.2667 10.26667c0 2.2323-.7183 4.2988-1.9327 5.9851z" fill="currentColor" stroke="currentColor" stroke-width=".2"/></svg>