<svg fill="none" height="24" viewBox="0 0 24 24" width="24" xmlns="http://www.w3.org/2000/svg"><g stroke="currentColor" stroke-width="1.5"><path d="m2.94414 8.28418c.37333-1.65921 1.66034-2.96536 3.32239-3.3718 2.26565-.55404 4.65867-.54771 6.92437.00633 1.6411.40134 2.9452 1.67472 3.3581 3.30264l.025.09856c.6128 2.41569.6128 4.94449 0 7.36019l-.025.0986c-.4129 1.6279-1.717 2.9013-3.3581 3.3026-2.2657.554-4.65872.5604-6.92437.0063-1.66204-.4064-2.94906-1.7126-3.32239-3.3718l-.06164-.2739c-.51-2.2667-.51-4.6171 0-6.88375z"/><path d="m16.6633 15.3084.197.0652c.0512.0169.1011.0375.1494.0615l1.6839.8362c1.2893.6404 2.8064-.2909 2.8064-1.7228v-4.73837c0-1.51284-1.6754-2.43515-2.967-1.63334l-1.4856.92229c-.0732.04544-.141.099-.2021.15963l-.0549.05454c.3622 1.98445.3198 4.02335-.1271 5.99515z"/></g></svg>