<svg fill="none" height="13" viewBox="0 0 12 13" width="12" xmlns="http://www.w3.org/2000/svg"><path d="m6.27483 6.35932 5.66847-5.734427c.0756-.076445.0756-.200362 0-.276806-.0755-.076421-.198-.076421-.2736 0l-5.66849 5.734423-5.668512-5.734423c-.076872-.075099-.199364-.072946-.2736238.00482-.0724214.075858-.0724214.196128 0 .271986l5.6685058 5.734427-5.6685058 5.73438c-.0768721.0752-.0790007.1991-.004741.2768.0742598.0778.1967518.08.2736238.0048.001621-.0015.003193-.0031.004741-.0048l5.668512-5.73438 5.66849 5.73438c.0769.0752.1994.073.2736-.0047.0725-.0759.0725-.1962 0-.2721z" fill="#232220"/></svg>