<svg width="144" height="167" fill="none" xmlns="http://www.w3.org/2000/svg"><g opacity=".7" filter="url(#filter0_f)"><path d="M39.662 58.202c0-10.562 8.563-19.125 19.126-19.125 10.562 0 19.125 8.563 19.125 19.125v14.66c0 7.353-5.961 13.314-13.315 13.314H52.977c-7.354 0-13.315-5.961-13.315-13.314v-14.66z" fill="#06DD69"/></g><g opacity=".7" filter="url(#filter1_f)"><path d="M104.479 108.747c0 10.633-8.62 19.253-19.253 19.253-10.633 0-19.253-8.62-19.253-19.253V93.239c0-7.353 5.96-13.314 13.314-13.314h11.877c7.353 0 13.315 5.96 13.315 13.314v15.508z" fill="#00A7EF"/></g><defs><filter id="filter0_f" x=".669" y=".084" width="116.237" height="125.085" filterUnits="userSpaceOnUse" color-interpolation-filters="sRGB"><feFlood flood-opacity="0" result="BackgroundImageFix"/><feBlend in="SourceGraphic" in2="BackgroundImageFix" result="shape"/><feGaussianBlur stdDeviation="19.497" result="effect1_foregroundBlur"/></filter><filter id="filter1_f" x="26.98" y="40.932" width="116.492" height="126.061" filterUnits="userSpaceOnUse" color-interpolation-filters="sRGB"><feFlood flood-opacity="0" result="BackgroundImageFix"/><feBlend in="SourceGraphic" in2="BackgroundImageFix" result="shape"/><feGaussianBlur stdDeviation="19.497" result="effect1_foregroundBlur"/></filter></defs></svg>