<svg fill="none" height="393" width="320" xmlns="http://www.w3.org/2000/svg"><filter id="a" color-interpolation-filters="sRGB" filterUnits="userSpaceOnUse" height="293.483" width="271.772" x=".562" y=".985"><feFlood flood-opacity="0" result="BackgroundImageFix"/><feBlend in="SourceGraphic" in2="BackgroundImageFix" result="shape"/><feGaussianBlur result="effect1_foregroundBlur" stdDeviation="45.811"/></filter><filter id="b" color-interpolation-filters="sRGB" filterUnits="userSpaceOnUse" height="295.768" width="272.362" x="46.946" y="96.592"><feFlood flood-opacity="0" result="BackgroundImageFix"/><feBlend in="SourceGraphic" in2="BackgroundImageFix" result="shape"/><feGaussianBlur result="effect1_foregroundBlur" stdDeviation="45.811"/></filter><g filter="url(#a)" opacity=".7"><path d="M92.184 136.871c0-24.446 19.817-44.264 44.264-44.264 24.446 0 44.263 19.818 44.263 44.264v34.69c0 17.278-14.007 31.285-31.285 31.285h-25.957c-17.278 0-31.285-14.007-31.285-31.285z" fill="#06dd69"/></g><g filter="url(#b)" opacity=".7"><path d="M227.686 256.179c0 24.609-19.95 44.559-44.559 44.559-24.61 0-44.559-19.95-44.559-44.559V219.5c0-17.279 14.007-31.286 31.285-31.286H196.4c17.279 0 31.286 14.007 31.286 31.286z" fill="#00a7ef"/></g></svg>