<svg width="22" height="22" fill="none" xmlns="http://www.w3.org/2000/svg"><path d="M11.646 3.667H9.705c-1.018 0-1.864.83-1.864 1.863v.673H5.415a.28.28 0 00-.282.282v.016l.391 8.11A2.084 2.084 0 007.607 16.6H12.1a2.742 2.742 0 105.042-2.16 2.691 2.691 0 00-1.253-1.347l.313-6.591c0-.157-.125-.282-.266-.282h-2.442v-.673c0-1.05-.83-1.88-1.848-1.88zm-3.24 1.847c0-.72.578-1.315 1.314-1.315h1.942c.72 0 1.315.58 1.315 1.315v.674H8.405v-.674zM16.64 16.38a2.192 2.192 0 01-2.004 1.316c-.94 0-1.77-.595-2.083-1.472a2.247 2.247 0 01-.125-.72c0-1.206.986-2.192 2.192-2.192 1.566-.016 2.646 1.597 2.02 3.068zm-.987-9.644l-.297 6.122a2.727 2.727 0 00-3.366 1.894c-.11.423-.141.861-.047 1.284H7.622c-.814 0-1.503-.642-1.534-1.456l-.376-7.83h2.145v.924a.28.28 0 00.282.282.28.28 0 00.282-.282V6.75h4.556v.924a.28.28 0 00.282.282.28.28 0 00.282-.282V6.75h2.113v-.015z" fill="#fff"/><path d="M14.62 14.047a.28.28 0 00-.282.282v.893h-.892a.28.28 0 00-.282.282.28.28 0 00.282.281h.892v.893a.28.28 0 00.282.282.28.28 0 00.282-.282v-.893h.893a.28.28 0 00.281-.281.28.28 0 00-.282-.282h-.892v-.893a.28.28 0 00-.282-.282z" fill="#fff"/></svg>