<svg width="120" height="40" fill="none" xmlns="http://www.w3.org/2000/svg"><g clip-path="url(#clip0)"><path d="M109.693 0H9.496c-.365 0-.726 0-1.09.002-.305.002-.607.008-.915.013a13.11 13.11 0 00-1.996.177A6.413 6.413 0 00.816 3.619a6.62 6.62 0 00-.622 1.903c-.111.661-.171 1.33-.179 2.002-.01.306-.01.614-.015.92V31.56c.005.31.006.611.015.922.008.67.068 1.34.179 2.002.11.663.319 1.305.622 1.904a6.208 6.208 0 001.174 1.614 6.253 6.253 0 001.612 1.179 6.657 6.657 0 001.893.63c.66.11 1.327.169 1.996.178.308.006.61.01.915.01.364.002.725.002 1.09.002h100.197c.358 0 .721 0 1.079-.002.304 0 .615-.004.918-.01a13.167 13.167 0 001.992-.177 6.756 6.756 0 001.901-.631 6.266 6.266 0 001.611-1.179 6.413 6.413 0 001.177-1.614c.3-.6.508-1.242.616-1.904a13.57 13.57 0 00.185-2.002c.004-.31.004-.612.004-.922.008-.363.008-.725.008-1.094V9.536c0-.366 0-.73-.008-1.091 0-.307 0-.615-.004-.921a13.57 13.57 0 00-.185-2.002 6.642 6.642 0 00-.616-1.904 6.455 6.455 0 00-2.788-2.8 6.726 6.726 0 00-1.901-.626 12.93 12.93 0 00-1.992-.177c-.303-.005-.614-.01-.918-.013C110.414 0 110.051 0 109.693 0z" fill="#3C4858"/><path d="M8.41 39.125c-.303 0-.599-.004-.9-.01a12.596 12.596 0 01-1.862-.163 5.844 5.844 0 01-1.65-.548 5.385 5.385 0 01-1.391-1.017A5.319 5.319 0 011.59 35.99a5.738 5.738 0 01-.54-1.657 12.463 12.463 0 01-.166-1.875c-.007-.21-.015-.913-.015-.913v-23.1s.009-.692.015-.895c.007-.627.062-1.253.165-1.872a5.772 5.772 0 01.54-1.662c.26-.518.602-.99 1.012-1.398a5.544 5.544 0 013.043-1.566A12.486 12.486 0 017.512.888l.899-.013h102.356l.909.013c.621.007 1.239.062 1.851.163.579.098 1.14.283 1.665.547a5.588 5.588 0 012.405 2.42c.259.52.439 1.076.533 1.65.103.623.161 1.254.173 1.887.003.283.003.587.003.89.008.375.008.732.008 1.091v20.93c0 .362 0 .717-.008 1.074 0 .326 0 .623-.004.93-.012.621-.068 1.24-.17 1.854a5.772 5.772 0 01-.538 1.67c-.263.512-.604.98-1.012 1.385-.406.414-.877.76-1.393 1.023a5.814 5.814 0 01-1.662.55c-.615.1-1.238.155-1.861.163a44 44 0 01-.894.01l-1.08.002-101.281-.002z" fill="#3C4858"/><path d="M24.67 20.3a4.941 4.941 0 012.347-4.152 5.03 5.03 0 00-3.975-2.158c-1.673-.175-3.294 1.006-4.147 1.006-.868 0-2.18-.987-3.594-.958a5.278 5.278 0 00-2.585.774 5.306 5.306 0 00-1.87 1.954c-1.926 3.348-.49 8.27 1.356 10.976.923 1.325 2.002 2.806 3.414 2.753 1.381-.057 1.897-.884 3.565-.884 1.652 0 2.136.884 3.577.85 1.482-.023 2.416-1.33 3.307-2.668a10.98 10.98 0 001.512-3.093 4.767 4.767 0 01-2.113-1.76 4.797 4.797 0 01-.794-2.64zm-2.722-8.089a4.886 4.886 0 001.11-3.49 4.931 4.931 0 00-3.194 1.66 4.64 4.64 0 00-1.14 3.36 4.069 4.069 0 003.224-1.53zM42.132 27.14h-4.714l-1.132 3.356h-1.997l4.465-12.418h2.075l4.465 12.418h-2.03l-1.132-3.356zm-4.226-1.549h3.737l-1.842-5.447h-.052l-1.843 5.447zm17.032.379c0 2.814-1.5 4.621-3.764 4.621a3.048 3.048 0 01-2.837-1.584h-.043v4.485h-1.85v-12.05h1.791v1.506h.034a3.189 3.189 0 012.871-1.6c2.289 0 3.797 1.816 3.797 4.622zm-1.903 0c0-1.833-.943-3.038-2.383-3.038-1.414 0-2.366 1.23-2.366 3.038 0 1.824.952 3.046 2.366 3.046 1.44 0 2.383-1.196 2.383-3.046zm11.828 0c0 2.813-1.5 4.62-3.763 4.62a3.047 3.047 0 01-2.837-1.583h-.043v4.484h-1.85V21.442h1.79v1.506h.035a3.189 3.189 0 012.871-1.6c2.289 0 3.797 1.816 3.797 4.622zm-1.902 0c0-1.833-.944-3.038-2.383-3.038-1.414 0-2.366 1.23-2.366 3.038 0 1.824.952 3.046 2.366 3.046 1.44 0 2.383-1.197 2.383-3.046zm8.461 1.066c.137 1.232 1.329 2.04 2.957 2.04 1.56 0 2.682-.808 2.682-1.919 0-.963-.677-1.54-2.28-1.936l-1.602-.388c-2.271-.55-3.326-1.617-3.326-3.348 0-2.142 1.86-3.614 4.5-3.614 2.614 0 4.406 1.472 4.466 3.614h-1.868c-.112-1.239-1.133-1.987-2.624-1.987-1.49 0-2.511.757-2.511 1.859 0 .878.652 1.394 2.246 1.79l1.362.336c2.538.602 3.592 1.626 3.592 3.442 0 2.323-1.843 3.778-4.774 3.778-2.743 0-4.595-1.42-4.715-3.667h1.895zM83.01 19.3v2.143h1.715v1.471h-1.714v4.991c0 .776.343 1.137 1.097 1.137a5.74 5.74 0 00.609-.043v1.463a5.064 5.064 0 01-1.028.086c-1.826 0-2.538-.688-2.538-2.444v-5.19H79.84v-1.471h1.31V19.3h1.86zm2.709 6.67c0-2.849 1.67-4.639 4.277-4.639 2.614 0 4.277 1.79 4.277 4.639 0 2.856-1.654 4.639-4.277 4.639s-4.277-1.783-4.277-4.639zm6.668 0c0-1.954-.892-3.107-2.392-3.107s-2.39 1.162-2.39 3.107c0 1.962.89 3.106 2.39 3.106s2.392-1.144 2.392-3.106zm3.413-4.527h1.766v1.54h.043c.12-.48.4-.906.795-1.204.395-.298.88-.45 1.374-.431.213 0 .426.023.634.07v1.738a2.575 2.575 0 00-.832-.113 1.857 1.857 0 00-1.441.596 1.874 1.874 0 00-.487 1.487v5.37H95.8v-9.053zm13.145 6.394c-.249 1.644-1.843 2.772-3.883 2.772-2.623 0-4.251-1.765-4.251-4.596 0-2.84 1.636-4.682 4.173-4.682 2.495 0 4.064 1.721 4.064 4.466v.637h-6.369v.112a2.369 2.369 0 00.636 1.832 2.351 2.351 0 001.79.733 2.043 2.043 0 002.082-1.274h1.758zm-6.257-2.702h4.508a2.183 2.183 0 00-1.34-2.134 2.157 2.157 0 00-.872-.164 2.277 2.277 0 00-2.123 1.416 2.3 2.3 0 00-.173.882zM36.591 11.254h.795a.993.993 0 001.02-.553c.06-.125.094-.26.1-.399 0-.55-.412-.905-1.111-.905a1.055 1.055 0 00-1.07.533c-.07.124-.114.26-.13.401h-.872a1.878 1.878 0 01.672-1.33 1.86 1.86 0 011.428-.415c1.17 0 1.994.658 1.994 1.605a1.39 1.39 0 01-1.08 1.364v.07a1.386 1.386 0 011.322 1.444 1.999 1.999 0 01-.739 1.355 1.98 1.98 0 01-1.48.419 1.97 1.97 0 01-2-1.011 1.989 1.989 0 01-.233-.755h.886c.054.57.576.939 1.346.939.77 0 1.273-.414 1.273-.997 0-.59-.473-.955-1.301-.955h-.82v-.81zm4.075 2.171c0-.81.602-1.278 1.668-1.345l1.215-.07v-.389c0-.475-.312-.744-.918-.744-.494 0-.836.182-.935.5h-.857c.09-.773.816-1.269 1.834-1.269 1.124 0 1.758.562 1.758 1.513v3.077h-.853v-.633h-.07a1.512 1.512 0 01-1.347.707 1.349 1.349 0 01-1.376-.796 1.367 1.367 0 01-.119-.551zm2.883-.385v-.377l-1.095.07c-.618.042-.898.253-.898.65 0 .405.35.641.832.641a1.052 1.052 0 001.05-.576c.063-.127.101-.266.11-.408zm3.231-2.097v3.755h-.886v-4.503h2.953v.748H46.78zm7.432 1.502c0 1.43-.721 2.327-1.853 2.327a1.456 1.456 0 01-1.38-.756h-.07v2.18h-.886v-6h.852v.743h.067a1.562 1.562 0 011.408-.819c1.14 0 1.862.894 1.862 2.325zm-.91 0c0-.952-.45-1.526-1.199-1.526-.745 0-1.211.587-1.211 1.53 0 .938.466 1.525 1.207 1.525.754 0 1.202-.574 1.202-1.53zm2.088 3.865v-.764c.097.012.193.017.29.016a.765.765 0 00.81-.628l.067-.22-1.623-4.519h.964l1.124 3.577h.07l1.12-3.577h.939l-1.672 4.689c-.383 1.096-.807 1.447-1.721 1.447-.075 0-.285-.008-.367-.02zm4.45-2.89h.881c.087.397.457.604.976.604.589 0 .95-.26.95-.666 0-.434-.324-.641-.95-.641h-.672v-.69h.66c.535 0 .807-.207.807-.583 0-.331-.263-.583-.807-.583-.495 0-.857.21-.914.566h-.853a1.575 1.575 0 011.767-1.319c1.066 0 1.676.484 1.676 1.245a.928.928 0 01-.708.922v.07a1.004 1.004 0 01.877 1.013c0 .856-.726 1.422-1.833 1.422-.98 0-1.775-.45-1.857-1.36zm4.965 1.278v-4.503h.877v3.097h.07l2.067-3.097h.877v4.503h-.877v-3.114h-.066l-2.071 3.114h-.877zm8.724-3.755h-1.412v3.755h-.886v-3.755h-1.413v-.748h3.711v.748zm4.768 2.539a1.83 1.83 0 01-.737 1.006 1.817 1.817 0 01-1.207.297 2.03 2.03 0 01-1.572-.68 2.046 2.046 0 01-.5-1.644 2.085 2.085 0 011.207-2.173 2.09 2.09 0 01.86-.18c1.249 0 2.002.856 2.002 2.27v.31h-3.166v.05a1.191 1.191 0 00.713 1.194c.152.065.316.098.48.096a1.07 1.07 0 001.067-.546h.853zm-3.114-1.45h2.265a1.09 1.09 0 00-.663-1.084 1.078 1.078 0 00-.44-.083 1.141 1.141 0 00-1.078.717 1.153 1.153 0 00-.084.45zm6.867-1.837h2.023c.877 0 1.392.446 1.392 1.145a.97.97 0 01-.758.951v.07a1.022 1.022 0 01.96 1.039c0 .785-.59 1.298-1.574 1.298h-2.042v-4.503zm.878.682v1.166h.877c.535 0 .791-.206.791-.587 0-.351-.222-.579-.692-.579h-.976zm0 1.82v1.319h1.05c.523 0 .803-.232.803-.658 0-.45-.317-.662-.914-.662h-.939z" fill="#fff"/></g><defs><clipPath id="clip0"><rect width="119.184" height="40" rx="8" fill="#fff"/></clipPath></defs></svg>