<svg width="24" height="24" fill="none" xmlns="http://www.w3.org/2000/svg"><path d="M8 11a1 1 0 011 1 3 3 0 106 0 1 1 0 112 0 5 5 0 01-10 0 1 1 0 011-1z" fill="#fff"/><path fill-rule="evenodd" clip-rule="evenodd" d="M17 7h2.137a3 3 0 012.992 2.786l.562 7.858A5 5 0 0117.703 23H6.295a5 5 0 01-4.987-5.356l.561-7.858A3 3 0 014.862 7h2.137V6a5 5 0 0110 0v1zM9 7h6V6a3 3 0 00-6 0v1zM4.861 9a1 1 0 00-.998.929l-.561 7.857A3 3 0 006.295 21h11.408a3 3 0 002.993-3.214l-.562-7.857A1 1 0 0019.137 9H4.862z" fill="#fff"/></svg>