<svg width="24" height="24" fill="none" xmlns="http://www.w3.org/2000/svg"><g clip-path="url(#clip0)" fill="#fff"><path d="M15.618 5.392A8.209 8.209 0 008.25.797C3.701.797 0 4.477 0 9c0 1.229.264 2.407.785 3.505l-.771 3.857a.703.703 0 00.826.827l3.903-.772c.526.25 1.07.44 1.628.57-1.252-5.931 3.244-11.5 9.247-11.595z"/><path d="M23.215 18.505a8.18 8.18 0 00.352-.867h-.026c1.756-5.153-1.936-10.568-7.386-10.831v-.001c-4.689-.216-8.585 3.538-8.585 8.193 0 4.52 3.673 8.197 8.191 8.203a8.114 8.114 0 003.495-.785c4.276.845 3.942.785 4.04.785a.703.703 0 00.69-.84l-.771-3.857z"/></g><defs><clipPath id="clip0"><path fill="#fff" d="M0 0h24v24H0z"/></clipPath></defs></svg>