<svg width="21" height="20" fill="none" xmlns="http://www.w3.org/2000/svg"><mask id="a" fill="#fff"><path d="M5.369 8.94a.525.525 0 00.74 0l.678-.677a.524.524 0 000-.741l-.677-.677h9.322c.867 0 1.572.705 1.572 1.571 0 .434.352.786.785.786h.524a.787.787 0 00.786-.786 3.672 3.672 0 00-3.667-3.667H6.11l.677-.677a.524.524 0 000-.741l-.677-.678a.525.525 0 00-.741 0L2.411 5.611a.262.262 0 000 .37l2.958 2.96zm.37-5.916l.678.677-1.125 1.125a.262.262 0 00.186.447h9.954a3.147 3.147 0 013.143 3.143.262.262 0 01-.262.262h-.523a.262.262 0 01-.262-.262c0-1.155-.94-2.095-2.096-2.095H5.478a.262.262 0 00-.186.447l1.125 1.124-.678.678-2.773-2.773L5.74 3.024z"/></mask><path d="M5.369 8.94a.525.525 0 00.74 0l.678-.677a.524.524 0 000-.741l-.677-.677h9.322c.867 0 1.572.705 1.572 1.571 0 .434.352.786.785.786h.524a.787.787 0 00.786-.786 3.672 3.672 0 00-3.667-3.667H6.11l.677-.677a.524.524 0 000-.741l-.677-.678a.525.525 0 00-.741 0L2.411 5.611a.262.262 0 000 .37l2.958 2.96zm.37-5.916l.678.677-1.125 1.125a.262.262 0 00.186.447h9.954a3.147 3.147 0 013.143 3.143.262.262 0 01-.262.262h-.523a.262.262 0 01-.262-.262c0-1.155-.94-2.095-2.096-2.095H5.478a.262.262 0 00-.186.447l1.125 1.124-.678.678-2.773-2.773L5.74 3.024z" fill="#0095FF"/><path d="M5.369 8.94l.812-.812-.812.812zm.74 0l.813.812-.812-.812zm.678-.677l-.812-.812.812.812zm0-.741l-.812.812.812-.812zm-.677-.677v-1.15H3.337l1.96 1.962.813-.812zm0-2.096l-.812-.812-1.961 1.96H6.11V4.75zm.677-.677l.813.812-.813-.813zm0-.741l-.812.812.812-.812zm-.677-.678l.812-.812-.812.812zm-.741 0l-.812-.812.812.812zM2.411 5.611l.812.813-.812-.813zm0 .37l.812-.811-.812.812zm3.328-2.957l.813-.813-.813-.812-.812.812.812.813zm.678.677l.812.812.812-.812-.812-.812-.812.812zM5.292 4.826l.812.812-.812-.812zm0 1.942l-.812.812.812-.812zm1.125 1.124l.812.813.812-.813-.812-.812-.812.812zm-.678.678l-.812.812.812.812.813-.812-.813-.812zM2.966 5.797l-.812-.813-.812.813.812.812.812-.812zm1.59 3.955a1.673 1.673 0 002.366 0L5.298 8.128a.624.624 0 01.883 0L4.557 9.752zm2.366 0l.678-.677-1.625-1.624-.677.677 1.624 1.624zm.678-.677a1.673 1.673 0 000-2.365L5.974 8.334a.624.624 0 010-.883L7.6 9.075zm0-2.365l-.678-.678-1.624 1.625.677.677L7.6 6.71zM6.11 7.993h9.322V5.696H6.11v2.297zm9.322 0c.232 0 .423.191.423.423h2.297c0-1.5-1.22-2.72-2.72-2.72v2.297zm.423.423c0 1.068.867 1.935 1.934 1.935V8.054a.36.36 0 01.363.362h-2.297zm1.934 1.935h.524V8.054h-.523v2.297zm.524 0a1.935 1.935 0 001.935-1.935H17.95c0-.2.161-.362.362-.362v2.297zm1.935-1.935A4.82 4.82 0 0015.432 3.6v2.297a2.523 2.523 0 012.519 2.52h2.297zM15.432 3.6H6.11v2.297h9.322V3.6zm-8.51 1.961l.678-.677-1.625-1.625-.677.678L6.922 5.56zm.678-.677a1.673 1.673 0 000-2.366L5.974 4.143a.624.624 0 010-.884L7.6 4.884zm0-2.366l-.678-.677-1.624 1.624.677.678L7.6 2.518zm-.678-.677a1.673 1.673 0 00-2.365 0L6.18 3.465a.624.624 0 01-.883 0l1.624-1.624zm-2.365 0L1.599 4.799l1.624 1.625L6.18 3.465 4.557 1.841zM1.599 4.799a1.41 1.41 0 000 1.995L3.223 5.17a.887.887 0 010 1.254L1.599 4.799zm0 1.995l2.958 2.958L6.18 8.128 3.223 5.17 1.599 6.794zm3.328-2.958l.678.677L7.229 2.89l-.677-.678-1.625 1.625zm.678-.947L4.48 4.013l1.624 1.625L7.23 4.513 5.605 2.89zM4.48 4.013c-.887.888-.26 2.408.997 2.408V4.124c.792 0 1.186.956.627 1.514L4.48 4.013zm.997 2.408h9.955V4.124H5.477v2.297zm9.955 0c1.099 0 1.995.896 1.995 1.995h2.297a4.296 4.296 0 00-4.292-4.292v2.297zm1.995 1.995c0-.49.396-.886.886-.886v2.297a1.41 1.41 0 001.411-1.41h-2.297zm.886-.886h-.523v2.297h.523V7.53zm-.523 0c.49 0 .886.396.886.886H16.38c0 .78.632 1.41 1.41 1.41V7.53zm.886.886a3.247 3.247 0 00-3.244-3.244v2.297a.95.95 0 01.947.947h2.297zm-3.244-3.244H5.478v2.297h9.954V5.172zm-9.954 0c-1.253 0-1.889 1.517-.998 2.408l1.624-1.624c.561.56.161 1.513-.627 1.513V5.172zM4.48 7.58l1.125 1.125L7.229 7.08 6.104 5.956 4.48 7.58zm1.125-.5l-.678.678 1.625 1.624.677-.677L5.605 7.08zm.947.678L3.779 4.984 2.154 6.61l2.773 2.773 1.625-1.624zm-2.773-1.15l2.773-2.772L4.927 2.21 2.154 4.984 3.78 6.61z" fill="#0095FF" mask="url(#a)"/><mask id="b" fill="#fff"><path d="M19.023 14.518l-2.959-2.958a.525.525 0 00-.74 0l-.678.677a.524.524 0 000 .741l.677.677H6.001a1.573 1.573 0 01-1.571-1.571.787.787 0 00-.786-.786H3.12a.787.787 0 00-.786.786 3.672 3.672 0 003.667 3.667h9.322l-.677.677a.524.524 0 000 .741l.677.678a.525.525 0 00.741 0l2.959-2.959a.262.262 0 000-.37zm-3.33 2.958l-.676-.677 1.124-1.125a.262.262 0 00-.185-.447H6a3.147 3.147 0 01-3.143-3.143c0-.145.117-.262.262-.262h.524c.144 0 .262.117.262.262 0 1.155.94 2.095 2.095 2.095h9.955c.233 0 .35-.282.185-.447l-1.124-1.124.677-.678 2.773 2.773-2.773 2.773z"/></mask><path d="M19.023 14.518l-2.959-2.958a.525.525 0 00-.74 0l-.678.677a.524.524 0 000 .741l.677.677H6.001a1.573 1.573 0 01-1.571-1.571.787.787 0 00-.786-.786H3.12a.787.787 0 00-.786.786 3.672 3.672 0 003.667 3.667h9.322l-.677.677a.524.524 0 000 .741l.677.678a.525.525 0 00.741 0l2.959-2.959a.262.262 0 000-.37zm-3.33 2.958l-.676-.677 1.124-1.125a.262.262 0 00-.185-.447H6a3.147 3.147 0 01-3.143-3.143c0-.145.117-.262.262-.262h.524c.144 0 .262.117.262.262 0 1.155.94 2.095 2.095 2.095h9.955c.233 0 .35-.282.185-.447l-1.124-1.124.677-.678 2.773 2.773-2.773 2.773z" fill="#0095FF"/><path d="M19.023 14.518l.812-.812-.812.812zm-2.959-2.958l.813-.813-.813.813zm-.74 0l-.813-.813.812.813zm-.678.677l.812.812-.812-.812zm0 .741l.812-.812-.812.812zm.677.677v1.149h2.774l-1.962-1.96-.812.811zm0 2.096l.813.812 1.96-1.96h-2.773v1.148zm-.677.677l.812.813-.812-.813zm0 .741l.812-.812-.812.812zm.677.678l-.812.812.812-.812zm.741 0l.812.812-.812-.812zm2.959-2.959l.812.813-.812-.813zm-3.33 2.588l-.811.812.812.813.812-.813-.812-.812zm-.676-.677l-.813-.812-.812.812.812.812.813-.812zm1.124-1.125l-.812-.812.812.812zm0-1.942l-.812.812.812-.812zm-1.124-1.124l-.813-.813-.812.813.812.812.813-.813zm.677-.678l.812-.812-.812-.812-.812.812.812.812zm2.773 2.773l.812.812.812-.812-.812-.812-.812.812zm1.368-.997l-2.959-2.958-1.624 1.624 2.958 2.958 1.625-1.624zm-2.959-2.959a1.673 1.673 0 00-2.365 0l1.624 1.625a.624.624 0 01-.883 0l1.624-1.625zm-2.365 0l-.677.678 1.624 1.624.678-.677-1.625-1.624zm-.677.678a1.672 1.672 0 000 2.365l1.624-1.624a.625.625 0 010 .883l-1.624-1.624zm0 2.365l.677.678 1.625-1.625-.678-.677-1.624 1.624zm1.49-1.283H6v2.297h9.322v-2.297zm-9.323 0a.425.425 0 01-.423-.423H3.281c0 1.5 1.22 2.72 2.72 2.72v-2.297zm-.423-.423a1.935 1.935 0 00-1.934-1.935v2.297a.362.362 0 01-.363-.362h2.297zm-1.934-1.935H3.12v2.297h.524V10.15zm-.524 0a1.935 1.935 0 00-1.935 1.935h2.298a.362.362 0 01-.363.362V10.15zm-1.935 1.935A4.82 4.82 0 006.001 16.9v-2.298a2.523 2.523 0 01-2.518-2.518H1.185zM6.001 16.9h9.322v-2.298H6.001V16.9zm8.51-1.961l-.677.677 1.624 1.625.678-.678-1.625-1.624zm-.677.677a1.672 1.672 0 000 2.366l1.624-1.625a.625.625 0 010 .884l-1.624-1.625zm0 2.366l.677.677 1.625-1.624-.678-.678-1.624 1.625zm.677.677a1.673 1.673 0 002.365 0l-1.624-1.625a.624.624 0 01.883 0l-1.624 1.625zm2.366 0l2.958-2.958-1.625-1.625-2.958 2.959 1.625 1.624zm2.958-2.959a1.41 1.41 0 000-1.994L18.21 15.33a.887.887 0 010-1.254l1.625 1.624zm-3.329.964l-.677-.677-1.625 1.624.678.677 1.624-1.624zm-.677.947l1.124-1.125-1.624-1.624-1.125 1.125 1.625 1.624zm1.124-1.125c.89-.888.258-2.408-.997-2.408v2.298c-.79 0-1.187-.954-.627-1.514l1.624 1.624zm-.997-2.408H6v2.298h9.955v-2.298zm-9.955 0a1.998 1.998 0 01-1.994-1.994H1.709a4.296 4.296 0 004.292 4.292v-2.298zm-1.994-1.994c0 .49-.397.886-.887.886v-2.297a1.41 1.41 0 00-1.41 1.41h2.297zm-.887.886h.524v-2.297H3.12v2.297zm.524 0a.886.886 0 01-.887-.886h2.297a1.41 1.41 0 00-1.41-1.411v2.297zm-.887-.886a3.247 3.247 0 003.244 3.244V13.03a.95.95 0 01-.947-.947H2.757zm3.244 3.244h9.955V13.03H6v2.297zm9.955 0c1.257 0 1.885-1.52.997-2.408l-1.624 1.624c-.559-.558-.164-1.513.627-1.513v2.297zm.997-2.408l-1.124-1.125-1.625 1.625 1.125 1.124 1.624-1.624zm-1.124.5l.677-.678-1.624-1.624-.678.677 1.625 1.625zm-.947-.678l2.773 2.773 1.624-1.624-2.773-2.773-1.624 1.624zm2.773 1.149l-2.773 2.773 1.624 1.624 2.773-2.773-1.624-1.624z" fill="#0095FF" mask="url(#b)"/></svg>