<svg fill="none" height="10" width="10" xmlns="http://www.w3.org/2000/svg"><path d="M9.123 1.345a2.992 2.992 0 00-4.234 0L.682 5.552c-.91.91-.91 2.39 0 3.299.91.91 2.39.909 3.298 0l4.208-4.208a1.673 1.673 0 000-2.363 1.673 1.673 0 00-2.364 0L2.236 5.868a.349.349 0 00.493.494l3.589-3.589A.974.974 0 017.694 4.15L3.487 8.357a1.634 1.634 0 11-2.312-2.311l4.208-4.208a2.294 2.294 0 013.246 0 2.298 2.298 0 010 3.247l-1.87 1.87a.349.349 0 00.494.493l1.87-1.87a2.992 2.992 0 000-4.233z" fill="#fff"/></svg>