<svg width="15" height="14" fill="none" xmlns="http://www.w3.org/2000/svg"><path d="M11.995 0h-8.99A2.507 2.507 0 00.5 2.505v8.99A2.507 2.507 0 003.005 14h8.99a2.507 2.507 0 002.505-2.505v-8.99A2.507 2.507 0 0011.995 0zm1.685 11.495c0 .93-.756 1.685-1.685 1.685h-8.99a1.686 1.686 0 01-1.685-1.685v-8.99c0-.93.756-1.685 1.685-1.685h8.99c.93 0 1.685.756 1.685 1.685v8.99z" fill="#008CEF"/><path d="M12.333 3.075H6.086a1.29 1.29 0 00-1.221-.878 1.29 1.29 0 00-1.222.878h-.975a.41.41 0 000 .82h.975c.172.51.654.88 1.222.88a1.29 1.29 0 001.221-.88h6.247a.41.41 0 000-.82zm-7.468.879a.469.469 0 110-.938.469.469 0 010 .938zm7.468 2.636h-.975a1.29 1.29 0 00-1.222-.879 1.29 1.29 0 00-1.221.879H2.668a.41.41 0 000 .82h6.247c.172.51.654.879 1.221.879a1.29 1.29 0 001.222-.879h.975a.41.41 0 000-.82zm-2.197.878a.469.469 0 11.002-.938.469.469 0 01-.002.938zm2.197 2.636h-4.49a1.29 1.29 0 00-1.221-.878 1.29 1.29 0 00-1.222.878H2.668a.41.41 0 100 .82H5.4c.172.51.655.88 1.222.88a1.29 1.29 0 001.221-.88h4.49a.41.41 0 000-.82zm-5.711.88a.469.469 0 110-.939.469.469 0 010 .938z" fill="#008CEF"/></svg>