<svg width="135" height="40" fill="none" xmlns="http://www.w3.org/2000/svg"><g clip-path="url(#clip0)"><path d="M129.889 40H5.172C2.38 40 .184 37.7.184 35V5c0-2.8 2.294-5 4.988-5H129.89c2.793 0 4.988 2.3 4.988 5v30c0 2.8-2.195 5-4.988 5z" fill="#3C4858"/><path d="M129.889.8c2.295 0 4.19 1.9 4.19 4.2v30c0 2.3-1.895 4.2-4.19 4.2H5.172c-2.295 0-4.19-1.9-4.19-4.2V5c0-2.3 1.895-4.2 4.19-4.2H129.89zm0-.8H5.172C2.478 0 .184 2.3.184 5v30c0 2.8 2.294 5 4.988 5H129.89c2.793 0 4.988-2.3 4.988-5V5c0-2.7-2.195-5-4.988-5z" fill="#3C4858"/><path d="M68.128 21.8c-2.394 0-4.29 1.8-4.29 4.3 0 2.4 1.896 4.3 4.29 4.3 2.395 0 4.29-1.8 4.29-4.3 0-2.6-1.895-4.3-4.29-4.3zm0 6.8c-1.297 0-2.394-1.1-2.394-2.6s1.097-2.6 2.394-2.6c1.297 0 2.395 1 2.395 2.6 0 1.5-1.098 2.6-2.395 2.6zm-9.279-6.8c-2.394 0-4.29 1.8-4.29 4.3 0 2.4 1.896 4.3 4.29 4.3 2.395 0 4.29-1.8 4.29-4.3 0-2.6-1.895-4.3-4.29-4.3zm0 6.8c-1.297 0-2.394-1.1-2.394-2.6s1.097-2.6 2.394-2.6c1.297 0 2.395 1 2.395 2.6 0 1.5-1.098 2.6-2.395 2.6zm-11.074-5.5v1.8h4.29c-.1 1-.5 1.8-.998 2.3-.599.6-1.596 1.3-3.292 1.3-2.694 0-4.69-2.1-4.69-4.8 0-2.7 2.095-4.8 4.69-4.8 1.396 0 2.494.6 3.292 1.3l1.297-1.3c-1.097-1-2.494-1.8-4.49-1.8-3.592 0-6.684 3-6.684 6.6 0 3.6 3.092 6.6 6.684 6.6 1.996 0 3.393-.6 4.59-1.9 1.197-1.2 1.596-2.9 1.596-4.2 0-.4 0-.8-.1-1.1h-6.185zm45.297 1.4c-.4-1-1.397-2.7-3.592-2.7-2.195 0-3.991 1.7-3.991 4.3 0 2.4 1.796 4.3 4.19 4.3 1.896 0 3.093-1.2 3.492-1.9l-1.397-1c-.498.7-1.097 1.2-2.095 1.2-.998 0-1.596-.4-2.095-1.3l5.687-2.4-.2-.5zm-5.787 1.4c0-1.6 1.297-2.5 2.195-2.5.698 0 1.396.4 1.596.9l-3.791 1.6zm-4.69 4.1h1.896V17.5h-1.896V30zm-2.993-7.3c-.499-.5-1.297-1-2.295-1-2.095 0-4.09 1.9-4.09 4.3s1.895 4.2 4.09 4.2c.998 0 1.796-.5 2.195-1h.1v.6c0 1.6-.898 2.5-2.295 2.5-1.097 0-1.895-.8-2.095-1.5l-1.596.7c.499 1.1 1.696 2.5 3.791 2.5 2.195 0 3.991-1.3 3.991-4.4V22h-1.796v.7zm-2.195 5.9c-1.297 0-2.394-1.1-2.394-2.6s1.097-2.6 2.394-2.6c1.297 0 2.295 1.1 2.295 2.6s-.998 2.6-2.295 2.6zm24.345-11.1h-4.49V30h1.896v-4.7h2.594c2.095 0 4.091-1.5 4.091-3.9s-1.996-3.9-4.091-3.9zm.1 6h-2.694v-4.3h2.694c1.396 0 2.195 1.2 2.195 2.1-.1 1.1-.898 2.2-2.195 2.2zm11.474-1.8c-1.397 0-2.794.6-3.293 1.9l1.696.7c.399-.7.998-.9 1.696-.9.998 0 1.896.6 1.996 1.6v.1c-.3-.2-1.098-.5-1.896-.5-1.796 0-3.592 1-3.592 2.8 0 1.7 1.497 2.8 3.093 2.8 1.297 0 1.896-.6 2.395-1.2h.1v1h1.795v-4.8c-.199-2.2-1.895-3.5-3.99-3.5zm-.2 6.9c-.599 0-1.497-.3-1.497-1.1 0-1 1.098-1.3 1.996-1.3.798 0 1.197.2 1.696.4-.2 1.2-1.197 2-2.195 2zm10.476-6.6l-2.095 5.4h-.1l-2.195-5.4h-1.995l3.292 7.6-1.895 4.2h1.895l5.089-11.8h-1.996zm-16.762 8h1.896V17.5h-1.896V30z" fill="#fff"/><path d="M10.56 7.5c-.3.3-.4.8-.4 1.4V31c0 .6.2 1.1.499 1.4l.1.1L23.13 20.1v-.2L10.559 7.5z" fill="url(#paint0_linear)"/><path d="M27.122 24.3l-4.09-4.1v-.3l4.09-4.1.1.1 4.889 2.8c1.396.8 1.396 2.1 0 2.9l-4.989 2.7z" fill="url(#paint1_linear)"/><path d="M27.22 24.2L23.03 20 10.56 32.5c.498.5 1.197.5 2.095.1l14.567-8.4z" fill="url(#paint2_linear)"/><path d="M27.22 15.8L12.655 7.5c-.898-.5-1.597-.4-2.095.1L23.03 20l4.19-4.2z" fill="url(#paint3_linear)"/><path opacity=".25" d="M12.655 7.6L32.11 18.7c.599.4.998.8.998 1.3 0-.5-.3-1-.998-1.4L12.654 7.5c-1.396-.8-2.494-.2-2.494 1.4V9c0-1.5 1.098-2.2 2.495-1.4z" fill="#fff"/><path d="M42.189 14.3h-.699v-2h.599c.499-.4.798-1.2.798-2.3V7h3.991v5.3h.698v2h-.698V13h-4.59v1.3h-.1zm1.397-4.3c0 .9-.2 1.7-.6 2.3h2.994V7.7h-2.494V10h.1zm9.878 2.2c-.599.6-1.297.9-2.195.9-.898 0-1.597-.3-2.195-.9-.599-.6-.898-1.3-.898-2.2 0-.9.3-1.6.898-2.2.598-.6 1.297-.9 2.195-.9.898 0 1.596.3 2.195.9.598.6.898 1.3.898 2.2 0 .9-.3 1.6-.898 2.2zm-3.792-.5c.4.4.998.7 1.597.7.598 0 1.197-.2 1.596-.7.4-.4.699-1 .699-1.7s-.2-1.3-.699-1.7c-.399-.4-.998-.7-1.596-.7-.599 0-1.197.2-1.597.7-.399.4-.698 1-.698 1.7s.2 1.3.698 1.7zm8.579 1.4c-.898 0-1.596-.3-2.195-.9-.598-.6-.898-1.3-.898-2.2 0-.9.3-1.6.898-2.2.599-.6 1.297-.9 2.195-.9.898 0 1.596.3 2.195 1l-.499.5c-.399-.5-.997-.8-1.696-.8-.698 0-1.197.2-1.696.7-.499.4-.698 1-.698 1.7s.2 1.3.698 1.7c.4.4.998.7 1.696.7.699 0 1.297-.3 1.796-.9l.499.5c-.3.3-.599.6-.998.8-.399.2-.798.3-1.297.3zm5.489-.1h-.798V7.7h-1.696V7h4.09v.7h-1.695V13h.1zm6.883-6l-2.295 5.1c-.299.7-.798 1.1-1.397 1.1-.2 0-.399 0-.598-.1l.2-.7c.1.1.299.1.398.1.2 0 .3 0 .4-.1.1-.1.2-.2.299-.4l.2-.5-1.996-4.4h.898l1.496 3.4L69.725 7h.898zm.899 6V7h4.29v6h-.799V7.7H72.22V13h-.698zm5.687 0V7h.798v2.6H81V7h.799v6H81v-2.7h-2.993V13h-.798zm10.876-.8c-.599.6-1.297.9-2.195.9-.898 0-1.597-.3-2.195-.9-.599-.6-.898-1.3-.898-2.2 0-.9.3-1.6.898-2.2.599-.6 1.297-.9 2.195-.9.898 0 1.596.3 2.195.9.599.6.898 1.3.898 2.2-.1.9-.4 1.6-.898 2.2zm-3.891-.5c.399.4.997.7 1.596.7.599 0 1.197-.2 1.596-.7.4-.4.699-1 .699-1.7s-.2-1.3-.698-1.7c-.4-.4-.998-.7-1.597-.7s-1.197.2-1.596.7a2.415 2.415 0 000 3.4zm7.882 1.3V7h2.195c.5 0 .898.2 1.198.5.299.3.498.7.498 1.1 0 .3-.1.5-.2.8-.099.2-.298.4-.598.5.3.1.499.3.699.5.2.2.299.5.299.9 0 .5-.2.9-.499 1.2-.4.3-.798.5-1.297.5h-2.295zm.798-3.4h1.397c.3 0 .5-.1.699-.3.2-.2.299-.4.299-.6 0-.2-.2-.5-.3-.7-.199-.2-.398-.3-.698-.3h-1.397v1.9zm0 2.7h1.597c.3 0 .499-.1.698-.3.2-.2.3-.4.3-.7 0-.2-.1-.5-.3-.7-.2-.2-.399-.3-.698-.3h-1.497v2h-.1z" fill="#fff" stroke="#fff" stroke-width=".2" stroke-miterlimit="10"/></g><defs><linearGradient id="paint0_linear" x1="21.933" y1="8.71" x2="5.151" y2="25.454" gradientUnits="userSpaceOnUse"><stop stop-color="#00A0FF"/><stop offset=".007" stop-color="#00A1FF"/><stop offset=".26" stop-color="#00BEFF"/><stop offset=".512" stop-color="#00D2FF"/><stop offset=".76" stop-color="#00DFFF"/><stop offset="1" stop-color="#00E3FF"/></linearGradient><linearGradient id="paint1_linear" x1="33.941" y1="20.002" x2="9.799" y2="20.002" gradientUnits="userSpaceOnUse"><stop stop-color="#FFE000"/><stop offset=".409" stop-color="#FFBD00"/><stop offset=".775" stop-color="orange"/><stop offset="1" stop-color="#FF9C00"/></linearGradient><linearGradient id="paint2_linear" x1="24.953" y1="22.296" x2="2.195" y2="45.003" gradientUnits="userSpaceOnUse"><stop stop-color="#FF3A44"/><stop offset="1" stop-color="#C31162"/></linearGradient><linearGradient id="paint3_linear" x1="7.463" y1=".177" x2="17.625" y2="10.316" gradientUnits="userSpaceOnUse"><stop stop-color="#32A071"/><stop offset=".069" stop-color="#2DA771"/><stop offset=".476" stop-color="#15CF74"/><stop offset=".801" stop-color="#06E775"/><stop offset="1" stop-color="#00F076"/></linearGradient><clipPath id="clip0"><rect x=".184" width="134.694" height="40" rx="8" fill="#fff"/></clipPath></defs></svg>