<svg width="24" height="24" fill="none" xmlns="http://www.w3.org/2000/svg"><path d="M20.29 9.719a1 1 0 10-2 0h2zm-14.58 0a1 1 0 10-2 0h2zm8.803 10.988l-.23-.973.23.973zm-5.026 0l.23-.973-.23.973zm5.341-15.693l-.71.705.71-.705zm5.462 6.92a1 1 0 001.42-1.409l-1.42 1.41zM9.172 5.014l.71.705-.71-.705zM2.29 10.525a1 1 0 001.42 1.41l-1.42-1.41zm7.428 7.795l-.982-.184.982.184zm.02-.103l.983.185-.983-.185zm4.524 0l-.983.185.983-.185zm.02.103l.982-.184-.982.184zm-.29 2.232l-.903-.43.903.43zm-1.02-.184a1 1 0 001.806.859l-1.806-.86zm-2.964.184l-.903.43.903-.43zm-.786.675a1 1 0 101.806-.86l-1.806.86zm2.14-4.784l-.268-.964.267.964zm1.277 0l.267-.964-.267.964zm5.651-6.724v4.918h2V9.72h-2zM5.71 14.637V9.72h-2v4.918h2zm8.573 5.097a9.93 9.93 0 01-4.566 0l-.46 1.946c1.804.427 3.682.427 5.486 0l-.46-1.946zm-4.566 0c-2.343-.554-4.007-2.661-4.007-5.097h-2c0 3.354 2.293 6.275 5.547 7.043l.46-1.946zm5.026 1.946c3.254-.768 5.547-3.689 5.547-7.043h-2c0 2.436-1.664 4.543-4.007 5.097l.46 1.946zM14.12 5.72l6.171 6.215 1.42-1.409-6.172-6.215-1.42 1.409zM8.463 4.31L2.29 10.526l1.42 1.41 6.17-6.218-1.419-1.41zm7.076 0c-.647-.65-1.201-1.212-1.704-1.598C13.31 2.307 12.723 2 12 2v2c.105 0 .267.029.616.296.37.286.816.731 1.503 1.423l1.419-1.41zM9.881 5.72c.687-.692 1.132-1.137 1.503-1.423.349-.267.51-.296.616-.296V2c-.723 0-1.309.307-1.834.71-.503.387-1.057.948-1.704 1.6l1.42 1.409zm.82 12.786l.02-.103-1.966-.37-.02.104 1.966.369zm2.578-.103l.02.103 1.965-.37-.019-.102-1.966.369zm-.19 1.72l-.117.246 1.806.859.117-.245-1.806-.86zm-3.984.86l.117.245 1.806-.86-.117-.245-1.806.86zm4.194-2.477a2.633 2.633 0 01-.21 1.617l1.806.86c.421-.886.55-1.882.37-2.846l-1.966.369zm-4.563-.37a4.632 4.632 0 00.37 2.847l1.805-.86a2.635 2.635 0 01-.21-1.617l-1.965-.37zm2.892-.729c.244-.067.5-.067.744 0l.534-1.927a3.388 3.388 0 00-1.812 0l.534 1.927zm3.617.627a3.274 3.274 0 00-2.339-2.554l-.534 1.927c.462.129.817.513.907.996l1.966-.37zm-4.524.369c.09-.483.445-.867.907-.996l-.534-1.927a3.274 3.274 0 00-2.34 2.554l1.967.369z" fill="#fff"/></svg>