<svg width="126" height="26" fill="none" xmlns="http://www.w3.org/2000/svg"><path d="M0 2.542C0 1.042 1.06 0 2.545 0 4.09 0 5.15 1.041 5.15 2.542c0 1.409-1.06 2.45-2.605 2.45C1.06 4.992 0 3.95 0 2.542zm.545 5.114h4V25.51h-4V7.656zm27.205 0L20.267 25.51h-4.301L8.482 7.656h4.363l2.454 6.125 2.817 7.564 2.879-7.564 2.453-6.125h4.302zm3.303-5.114c0-1.47 1.06-2.542 2.545-2.542 1.545 0 2.605 1.041 2.605 2.542 0 1.409-1.06 2.45-2.605 2.45-1.455 0-2.545-1.041-2.545-2.45zm.545 5.114h4V25.51h-4V7.656zM59.046.214V25.51h-3.575l-.03-2.389c-1.363 1.746-3.727 2.787-6.514 2.787-4.998 0-8.695-3.675-8.695-9.31 0-5.634 3.697-9.31 8.695-9.31 2.545 0 4.727.858 6.12 2.328V.214h4zm-3.999 16.384c0-3.338-2.211-5.634-5.393-5.634-3.18 0-5.392 2.327-5.392 5.634 0 3.308 2.211 5.635 5.392 5.635 3.181 0 5.393-2.327 5.393-5.635zm26.843 1.501H67.771c.333 2.603 2.453 4.257 5.574 4.257 2 0 3.999-.735 5.09-1.838l2.423 2.389C79.102 24.837 76.285 26 73.255 26c-5.817 0-9.573-3.736-9.573-9.432 0-5.543 3.696-9.28 9.149-9.28 6.21 0 9.634 4.135 9.058 10.81zm-14.088-3.124h10.27c-.273-2.541-2.212-4.165-5.15-4.165-2.787 0-4.605 1.501-5.12 4.165zm17.481 1.623c0-5.359 3.696-9.31 9.453-9.31 5.726 0 9.391 3.982 9.391 9.31 0 5.329-3.696 9.31-9.391 9.31-5.757 0-9.453-3.981-9.453-9.31zm14.845 0c0-3.093-2.12-5.634-5.392-5.634-3.333 0-5.423 2.541-5.423 5.634 0 3.093 2.12 5.635 5.422 5.635 3.272 0 5.393-2.542 5.393-5.635zM126 15.649v9.861h-3.999v-9.616c0-3.154-1.606-4.961-4.302-4.961-2.939 0-4.969 2.174-4.969 5.175v9.402h-3.968V7.656h3.575l.03 2.358c1.515-1.807 3.605-2.695 6.12-2.695 4.514-.03 7.513 3.246 7.513 8.33z" fill="#1F2D3D"/></svg>