<svg width="20" height="20" fill="none" xmlns="http://www.w3.org/2000/svg"><path d="M13.658 2.5a4.477 4.477 0 00-3.656 1.903A4.477 4.477 0 006.346 2.5c-2.38 0-4.47 2.215-4.47 4.74.001 2.46 1.39 4.994 4.019 7.328a21.612 21.612 0 003.983 2.798c.078.04.17.04.248 0a21.612 21.612 0 003.982-2.798c2.63-2.334 4.019-4.868 4.019-7.328 0-2.525-2.088-4.74-4.469-4.74zm-3.656 14.317c-.995-.549-7.583-4.384-7.583-9.577 0-2.237 1.834-4.198 3.927-4.198a3.935 3.935 0 013.42 2.001.282.282 0 00.472 0 3.935 3.935 0 013.42-2.001c2.092 0 3.927 1.961 3.927 4.198 0 5.193-6.588 9.028-7.583 9.577z" fill="#008CEF" stroke="#008CEF" stroke-width=".083"/></svg>