<svg width="13" height="13" fill="none" xmlns="http://www.w3.org/2000/svg"><g clip-path="url(#clip0)" fill="#fff"><path d="M8.301 10.365l-.638-.722-.526.466L8.278 11.4l1.85-1.916-.505-.489-1.323 1.37z"/><path d="M8.66 7.218c-.063 0-.127.002-.19.006l-.203-3.49H6.603v-.678A2.06 2.06 0 004.547.998a2.06 2.06 0 00-2.058 2.057v.679H.825l-.37 6.325c-.029.492.142.961.48 1.32a1.76 1.76 0 001.29.557h4.198A2.886 2.886 0 008.66 13a2.894 2.894 0 002.891-2.89 2.894 2.894 0 00-2.89-2.891zM3.193 3.055a1.355 1.355 0 012.708.001v.678H3.192v-.679zm-.967 8.178a1.06 1.06 0 01-.778-.337 1.06 1.06 0 01-.29-.796l.331-5.663h1v.88l.704.001v-.881H5.9v.881h.703v-.88h1l.17 2.92a2.896 2.896 0 00-1.775 3.875H2.225zm6.435 1.063a2.19 2.19 0 01-2.187-2.188 2.19 2.19 0 012.188-2.187 2.19 2.19 0 012.187 2.188 2.19 2.19 0 01-2.188 2.187z"/></g><defs><clipPath id="clip0"><path fill="#fff" transform="rotate(.009 -6663.825 26.587)" d="M0 0h12v12H0z"/></clipPath></defs></svg>