<svg width="13" height="13" fill="none" xmlns="http://www.w3.org/2000/svg"><g clip-path="url(#clip0)" fill="#fff"><path d="M11.135 2.474H5.33a.875.875 0 00-.87.774l-.614 5.327c-.06.52.346.976.869.976l5.806.001a.875.875 0 00.87-.775l.614-5.327a.876.876 0 00-.869-.976zm-2.206.703l-.177 1.258h-1.31l.176-1.258H8.93zm2.377.193l-.615 5.327a.172.172 0 01-.17.152H4.713a.172.172 0 01-.17-.193l.614-5.327a.172.172 0 01.171-.152h1.58l-.22 1.56a.351.351 0 00.348.401h2.02a.35.35 0 00.349-.302l.233-1.659h1.496c.103 0 .183.09.17.193zM2.82 7.163H.36a.352.352 0 000 .703h2.46a.352.352 0 000-.703zm0-1.5H.758a.352.352 0 000 .703H2.82a.352.352 0 000-.703zm0-1.5H1.133a.352.352 0 000 .703H2.82a.352.352 0 000-.703z"/></g><defs><clipPath id="clip0"><path fill="#fff" transform="rotate(.009 -78.26 52.182)" d="M0 0h12v12H0z"/></clipPath></defs></svg>