<svg width="13" height="13" fill="none" xmlns="http://www.w3.org/2000/svg"><g clip-path="url(#clip0)" fill="#fff" stroke="#008CEF" stroke-width=".3"><path d="M1.105 11.862c.082-2.567 2.246-4.635 4.9-4.635 2.655 0 4.819 2.069 4.9 4.636h-.916c-.082-2.069-1.84-3.72-3.984-3.72-2.143 0-3.902 1.65-3.984 3.719h-.916zm1.716-8.515h0A3.188 3.188 0 016.006.162 3.189 3.189 0 019.19 3.348a3.189 3.189 0 01-3.186 3.184A3.19 3.19 0 012.82 3.347zm3.185-2.269a2.27 2.27 0 00-2.27 2.269 2.27 2.27 0 002.27 2.269 2.271 2.271 0 002.269-2.269 2.272 2.272 0 00-2.27-2.269z"/></g><defs><clipPath id="clip0"><path fill="#fff" transform="rotate(.009 -78.262 26.094)" d="M0 0h12v12H0z"/></clipPath></defs></svg>