<svg width="32" height="32" fill="none" xmlns="http://www.w3.org/2000/svg"><path d="M21.167 25.983l.24-.166c.754-.521 1.13-.782 1.468-1.061a9.994 9.994 0 003.47-5.969c.075-.43.114-.884.193-1.794l.04-.47c.13-1.505.117-3.02-.039-4.523l-.048-.465a7.668 7.668 0 00-4.272-6.1 14.19 14.19 0 00-12.439 0 7.668 7.668 0 00-4.272 6.1L5.46 12a23.992 23.992 0 00-.039 4.523l.04.47c.08.91.118 1.365.194 1.794a9.994 9.994 0 003.47 5.969c.337.28.713.54 1.467 1.06l.24.167c1.025.708 1.537 1.063 2.05 1.309a7.215 7.215 0 006.235 0c.514-.247 1.026-.6 2.05-1.309z" stroke="#008CEF" stroke-width="1.5"/><path d="M12.333 15.667L15 18.334l4.666-5" stroke="#008CEF" stroke-width="1.5" stroke-linecap="round" stroke-linejoin="round"/></svg>