<svg width="32" height="32" fill="none" xmlns="http://www.w3.org/2000/svg"><path d="M11.333 20.988c0-1.311.945-2.428 2.229-2.635 1.615-.26 3.26-.26 4.876 0a2.662 2.662 0 012.228 2.635v.29c0 .767-.616 1.389-1.377 1.389h-6.58c-.76 0-1.376-.622-1.376-1.389v-.29zm7.389-8.909c0 1.515-1.219 2.745-2.722 2.745-1.504 0-2.723-1.23-2.723-2.745 0-1.517 1.22-2.746 2.723-2.746s2.722 1.23 2.722 2.745z" stroke="#008CEF" stroke-width="1.5"/><path d="M28 9.333C28 6.388 25.015 4 21.333 4M4 21.333C4 25.015 6.388 28 9.333 28m0-24A5.333 5.333 0 004 9.333M21.333 28A6.667 6.667 0 0028 21.333" stroke="#008CEF" stroke-width="1.5" stroke-linecap="round"/></svg>