<svg width="24" height="24" fill="none" xmlns="http://www.w3.org/2000/svg"><g clip-path="url(#clip0)" fill="#fff"><path d="M22.276 12.398a.73.73 0 010-.796l.876-1.348a2.297 2.297 0 00-1.104-3.398l-1.5-.574a.731.731 0 01-.47-.645l-.082-1.605a2.297 2.297 0 00-2.89-2.1l-1.553.417a.731.731 0 01-.757-.246l-1.01-1.25a2.297 2.297 0 00-3.574 0l-1.01 1.25a.731.731 0 01-.758.246l-1.552-.417a2.297 2.297 0 00-2.89 2.1l-.083 1.605a.731.731 0 01-.469.645l-1.5.574a2.297 2.297 0 00-1.105 3.399l.877 1.347a.731.731 0 010 .796l-.877 1.348a2.297 2.297 0 001.104 3.398l1.501.574c.27.104.454.357.469.645L4 19.968a2.297 2.297 0 002.891 2.1l1.552-.417a.731.731 0 01.758.246l1.01 1.25a2.297 2.297 0 003.573 0l1.01-1.25a.731.731 0 01.758-.246l1.552.417a2.297 2.297 0 002.891-2.1l.083-1.605a.731.731 0 01.468-.645l1.501-.574a2.297 2.297 0 001.104-3.398l-.876-1.348zm-.788 3.283l-1.501.574a2.299 2.299 0 00-1.473 2.027l-.082 1.605a.73.73 0 01-.92.668l-1.552-.417a2.299 2.299 0 00-2.383.774l-1.01 1.25a.73.73 0 01-1.136 0l-1.01-1.25a2.3 2.3 0 00-2.384-.774l-1.552.417a.73.73 0 01-.92-.668l-.082-1.605a2.299 2.299 0 00-1.473-2.027l-1.5-.574a.73.73 0 01-.352-1.081l.877-1.347a2.299 2.299 0 000-2.506L2.158 9.4a.73.73 0 01.352-1.08l1.5-.575a2.299 2.299 0 001.473-2.027l.083-1.605a.73.73 0 01.92-.668l1.551.417a2.299 2.299 0 002.383-.774l1.01-1.25a.73.73 0 011.137 0l1.01 1.25a2.298 2.298 0 002.383.774l1.552-.417a.73.73 0 01.92.668l.082 1.605a2.299 2.299 0 001.473 2.027l1.5.574A.73.73 0 0121.84 9.4l-.876 1.347a2.299 2.299 0 000 2.506l.876 1.347a.73.73 0 01-.351 1.08z"/><path d="M15.912 8.008a.783.783 0 00-1.108 0l-7.31 7.311A.783.783 0 108.6 16.427l7.31-7.311a.783.783 0 000-1.108zm-7.08-.229c-.864 0-1.566.703-1.566 1.567 0 .863.702 1.566 1.566 1.566.864 0 1.567-.703 1.567-1.566 0-.864-.703-1.567-1.567-1.567zm5.744 5.744c-.864 0-1.566.703-1.566 1.567s.703 1.566 1.566 1.566c.864 0 1.567-.702 1.567-1.566 0-.864-.703-1.567-1.567-1.567z"/></g><defs><clipPath id="clip0"><path fill="#fff" d="M0 0h24v24H0z"/></clipPath></defs></svg>