<svg fill="none" height="25" width="24" xmlns="http://www.w3.org/2000/svg"><path d="M3.316 14.225l.73-.17zm0-5.457l.73.172zm15.473 0l.73-.17zm0 5.457l.73.172zm-5.008 5.009l-.171-.73zm-5.457 0l-.171.73zm0-15.474l-.171-.73zm5.457 0l.171-.73zm6.689 18.215a.75.75 0 101.06-1.061zm-16.424-7.92a11.198 11.198 0 010-5.115l-1.46-.343a12.698 12.698 0 000 5.8zM18.059 8.94a11.196 11.196 0 010 5.114l1.46.343a12.698 12.698 0 000-5.8zm-4.45 9.563a11.2 11.2 0 01-5.114 0l-.342 1.46c1.907.448 3.892.448 5.8 0zM8.496 4.49a11.198 11.198 0 015.115 0l.342-1.46a12.698 12.698 0 00-5.8 0zm0 14.013a5.97 5.97 0 01-4.45-4.449l-1.46.343a7.47 7.47 0 005.568 5.567zm5.457 1.46a7.47 7.47 0 005.568-5.566l-1.46-.343a5.97 5.97 0 01-4.45 4.45zM13.61 4.49a5.97 5.97 0 014.45 4.45l1.46-.343a7.47 7.47 0 00-5.568-5.567zM8.153 3.03a7.47 7.47 0 00-5.567 5.567l1.46.343a5.97 5.97 0 014.45-4.45zm8.652 15.28l3.665 3.665 1.06-1.061-3.665-3.665z" fill="#fff"/></svg>