<svg width="24" height="24" fill="none" xmlns="http://www.w3.org/2000/svg"><path d="M6.789 13.069l.73-.171-.73.17zm0-3.275l.73.172-.73-.171zm9.284 0l.73-.17-.73.17zm0 3.275l.73.171-.73-.171zm-3.005 3.005l-.171-.73.171.73zm-3.274 0l-.171.73.171-.73zm0-9.284l-.171-.73.171.73zm3.274 0l.171-.73-.17.73zm3.801 11.14a.75.75 0 101.06-1.06l-1.06 1.06zm-9.35-5.032a6.419 6.419 0 010-2.932l-1.46-.343a7.919 7.919 0 000 3.617l1.46-.342zm7.824-2.932a6.417 6.417 0 010 2.931l1.46.343a7.919 7.919 0 000-3.617l-1.46.343zm-2.446 5.378a6.418 6.418 0 01-2.932 0l-.342 1.46a7.919 7.919 0 003.617 0l-.343-1.46zM9.965 7.52a6.419 6.419 0 012.932 0l.342-1.46a7.919 7.919 0 00-3.616 0l.342 1.46zm0 7.824a3.282 3.282 0 01-2.446-2.446l-1.46.342a4.782 4.782 0 003.564 3.564l.342-1.46zm3.274 1.46a4.782 4.782 0 003.564-3.564l-1.46-.343a3.282 3.282 0 01-2.446 2.447l.342 1.46zm-.342-9.284a3.282 3.282 0 012.446 2.446l1.46-.343A4.782 4.782 0 0013.24 6.06l-.342 1.46zM9.623 6.06a4.782 4.782 0 00-3.564 3.563l1.46.343A3.282 3.282 0 019.965 7.52l-.342-1.46zm5.047 9.672l2.2 2.198 1.06-1.06-2.199-2.2-1.06 1.062z" fill="#008CEF"/></svg>