<svg fill="none" height="12" width="12" xmlns="http://www.w3.org/2000/svg"><path d="M1.658 6.89l.73-.17zm0-2.728l.73.171zm7.737 0l.73-.171zm0 2.729l.73.17zM6.89 9.395l-.172-.73zm-2.729 0l-.171.73zm0-7.737L3.99.928zm2.729 0l.17-.73zm3.08 9.372a.75.75 0 101.06-1.06zM2.388 6.72a5.224 5.224 0 010-2.387l-1.46-.342a6.724 6.724 0 000 3.07zm6.276-2.387a5.224 5.224 0 010 2.386l1.46.343a6.721 6.721 0 000-3.071zM6.72 8.664a5.224 5.224 0 01-2.386 0l-.342 1.46a6.721 6.721 0 003.07 0zM4.333 2.388a5.224 5.224 0 012.386 0l.343-1.46a6.724 6.724 0 00-3.071 0zm0 6.276A2.61 2.61 0 012.388 6.72l-1.46.343a4.11 4.11 0 003.063 3.063zm2.729 1.46a4.11 4.11 0 003.063-3.062l-1.46-.343a2.61 2.61 0 01-1.946 1.945zm-.343-7.736a2.61 2.61 0 011.945 1.945l1.46-.342A4.11 4.11 0 007.063.928zM3.991.928A4.11 4.11 0 00.928 3.99l1.46.342a2.61 2.61 0 011.945-1.945zm4.146 8.27L9.97 11.03l1.06-1.06-1.832-1.833z" fill="#008cef"/></svg>