<svg width="40" height="40" fill="none" xmlns="http://www.w3.org/2000/svg"><path d="M26.46 32.479l.3-.208c.942-.651 1.413-.977 1.834-1.326a12.492 12.492 0 004.338-7.46c.094-.538.143-1.107.24-2.243l.051-.588A29.993 29.993 0 0033.175 15l-.06-.581a9.584 9.584 0 00-5.34-7.625 17.737 17.737 0 00-15.549 0 9.584 9.584 0 00-5.34 7.625l-.06.581a29.988 29.988 0 00-.049 5.654l.051.588c.098 1.136.147 1.705.241 2.242a12.492 12.492 0 004.338 7.461c.42.35.892.675 1.833 1.326l.301.208c1.28.885 1.92 1.328 2.562 1.636a9.018 9.018 0 007.794 0c.642-.308 1.282-.75 2.562-1.636z" stroke="#fff" stroke-width="1.5"/><path d="M15.417 19.584l3.333 3.333 5.834-6.25" stroke="#fff" stroke-width="1.5" stroke-linecap="round" stroke-linejoin="round"/></svg>