<svg width="126" height="55" fill="none" xmlns="http://www.w3.org/2000/svg"><g clip-path="url(#clip0)" fill="#8492A6"><path d="M64.777 28.928c-.167-.655-.555-2.02-2.498-2.02-1.166 0-2.886.819-2.886 3.985 0 2.02.888 3.875 2.886 3.875 1.332 0 2.22-.764 2.498-2.183h2.387c-.445 2.456-2.11 4.148-4.94 4.148-3.053 0-5.218-2.02-5.218-5.895 0-3.93 2.276-5.895 5.218-5.895 3.385 0 4.773 2.293 4.884 3.985h-2.331zm5.271 2.402l2.776-3.166h2.72l-2.942 3.22 3.052 5.076H72.99l-1.998-3.548-.944.928v2.62h-2.22v-8.296h2.22v3.165z"/><path d="M83.703 32.312c0 3.002-2.054 4.366-4.274 4.366-2.276 0-4.33-1.364-4.33-4.366s2.054-4.367 4.33-4.367c2.276 0 4.274 1.365 4.274 4.367zm-6.328 0c0 1.092.333 2.565 2.054 2.565 1.72 0 1.998-1.474 1.998-2.51 0-1.038-.333-2.511-1.998-2.511-1.72-.055-2.054 1.364-2.054 2.456zm14.655-4.148v8.296h-2.22v-6.55h-2.387v2.566c0 3.165-1 4.202-2.554 4.202-.388 0-.999-.054-1.332-.163v-1.638c.056.055.333.055.666.055.666 0 1-.328 1-2.839v-3.875h6.827v-.054zm3.386 3.166l2.775-3.166h2.72l-2.998 3.22 3.053 5.076h-2.664l-1.998-3.548-.888.928v2.62h-2.22v-8.296h2.22v3.165z"/><path d="M109.071 32.312c0 3.002-2.054 4.366-4.329 4.366-2.276 0-4.33-1.364-4.33-4.366s2.054-4.367 4.33-4.367c2.275 0 4.329 1.365 4.329 4.367zm-6.328 0c0 1.092.333 2.565 2.054 2.565 1.721 0 1.998-1.474 1.998-2.51 0-1.038-.333-2.511-1.998-2.511-1.721-.055-2.054 1.364-2.054 2.456zm7.05-4.148h3.83c1.887 0 3.275.764 3.275 2.128 0 .983-.666 1.583-1.554 1.801.832.219 1.831.765 1.831 2.075 0 1.528-1.165 2.292-3.108 2.292h-4.219v-8.296h-.055zm2.22 3.384h1.443c.722 0 1.277-.273 1.277-.928 0-.71-.5-.928-1.221-.928h-1.443v1.856h-.056zm0 3.438h1.61c.833 0 1.332-.273 1.332-1.091 0-.71-.555-1.092-1.332-1.092h-1.61v2.183zM126 32.312c0 3.002-2.054 4.366-4.274 4.366-2.276 0-4.33-1.364-4.33-4.366s2.054-4.367 4.33-4.367c2.22 0 4.274 1.365 4.274 4.367zm-6.383 0c0 1.092.333 2.565 2.053 2.565 1.721 0 1.999-1.474 1.999-2.51 0-1.038-.333-2.511-1.999-2.511-1.72-.055-2.053 1.364-2.053 2.456zM15.43 37.333c1.888 0 6.55-.327 9.992-2.838v1.91h6.994V28.11l2.942-3.002 6.383 11.299h8.382l-9.659-16.102 9.38-10.152h-8.603l-8.825 9.934V.928h-6.994v3.056C23.257 1.692 19.816 0 14.432 0 2.72 0 .555 6.986.555 10.916c0 5.404 2.942 8.351 8.049 9.606l7.27 1.747c3.83.928 6.55 1.637 6.55 4.421 0 3.712-3.996 4.585-7.548 4.585-6.55-.055-7.66-3.82-7.66-5.786H0c0 4.367 2.276 11.844 15.43 11.844zm4.774-21.177l-8.77-2.129c-1.498-.327-3.83-.928-3.83-3.711 0-3.166 3.442-4.258 6.328-4.258 6.55 0 7.16 3.767 7.327 5.35h4.163v6.604c-1.554-.819-3.386-1.365-5.218-1.856z"/></g><path d="M58.2 44.6h2.88c.552 0 1.032.064 1.44.192.408.128.744.308 1.008.54.272.224.472.496.6.816.128.312.192.656.192 1.032s-.064.724-.192 1.044a2.123 2.123 0 01-.6.816c-.264.224-.6.4-1.008.528-.408.128-.888.192-1.44.192h-1.752V53H58.2v-8.4zm2.82 4.176c.4 0 .736-.036 1.008-.108.28-.08.504-.188.672-.324.176-.136.3-.304.372-.504.08-.2.12-.42.12-.66 0-.24-.04-.46-.12-.66a1.098 1.098 0 00-.372-.504 1.75 1.75 0 00-.672-.312 3.623 3.623 0 00-1.008-.12h-1.692v3.192h1.692zm7.326 4.344c-.408 0-.796-.064-1.164-.192a2.687 2.687 0 01-.972-.588 2.983 2.983 0 01-.672-1.02c-.168-.408-.252-.888-.252-1.44v-.24c0-.528.08-.984.24-1.368.16-.392.372-.716.636-.972.272-.264.584-.46.936-.588.36-.128.736-.192 1.128-.192.936 0 1.66.256 2.172.768.512.512.768 1.236.768 2.172v.672h-4.824c0 .376.06.692.18.948a1.78 1.78 0 001.104.972c.24.072.48.108.72.108.48 0 .848-.08 1.104-.24.264-.16.452-.38.564-.66h1.032c-.064.304-.18.572-.348.804a2.21 2.21 0 01-.6.588c-.232.152-.5.268-.804.348a3.62 3.62 0 01-.948.12zm-.06-5.64c-.248 0-.488.036-.72.108a1.663 1.663 0 00-1.056.876 1.78 1.78 0 00-.168.804h3.828a2.084 2.084 0 00-.168-.828 1.363 1.363 0 00-.396-.552 1.535 1.535 0 00-.6-.312 2.61 2.61 0 00-.72-.096zm6.541 5.64c-.8 0-1.428-.168-1.884-.504-.456-.336-.708-.808-.756-1.416h1.056c.056.312.22.552.492.72.28.16.644.24 1.092.24.552 0 .952-.092 1.2-.276.256-.192.384-.42.384-.684 0-.312-.104-.556-.312-.732-.208-.184-.568-.276-1.08-.276h-1.092v-.864h1.02c.44 0 .752-.084.936-.252.192-.168.288-.404.288-.708 0-.24-.112-.448-.336-.624-.224-.176-.56-.264-1.008-.264-.488 0-.844.08-1.068.24a.962.962 0 00-.396.66h-1.056c.024-.264.096-.508.216-.732.128-.232.3-.432.516-.6.216-.168.472-.296.768-.384a3.379 3.379 0 011.02-.144c.408 0 .76.048 1.056.144.304.088.556.216.756.384.2.16.348.352.444.576.096.224.144.472.144.744 0 .304-.076.572-.228.804-.152.224-.396.4-.732.528.448.12.76.312.936.576.176.264.264.572.264.924 0 .264-.056.512-.168.744-.112.232-.28.436-.504.612a2.582 2.582 0 01-.828.408 3.777 3.777 0 01-1.14.156zm4.145-6.48h1.056v4.8l3.288-4.8h1.056V53h-1.056v-4.8L80.028 53h-1.056v-6.36zm6.604 5.424h.78c.088-.12.168-.304.24-.552.072-.248.136-.54.192-.876.056-.336.096-.7.12-1.092.032-.4.048-.808.048-1.224v-1.68h4.44v5.424h.9V54.5h-1.008V53h-4.704v1.5h-1.008v-2.436zm4.764 0v-4.488h-2.352v.984c0 .336-.012.672-.036 1.008-.024.328-.06.644-.108.948a8.89 8.89 0 01-.18.852 4.18 4.18 0 01-.228.696h2.904zm5.862 1.056c-.408 0-.796-.064-1.164-.192a2.687 2.687 0 01-.972-.588 2.983 2.983 0 01-.672-1.02c-.168-.408-.252-.888-.252-1.44v-.24c0-.528.08-.984.24-1.368.16-.392.372-.716.636-.972.272-.264.584-.46.936-.588.36-.128.736-.192 1.128-.192.936 0 1.66.256 2.172.768.512.512.768 1.236.768 2.172v.672h-4.824c0 .376.06.692.18.948a1.78 1.78 0 001.104.972c.24.072.48.108.72.108.48 0 .848-.08 1.104-.24.264-.16.452-.38.564-.66h1.032c-.064.304-.18.572-.348.804a2.21 2.21 0 01-.6.588c-.232.152-.5.268-.804.348a3.62 3.62 0 01-.948.12zm-.06-5.64c-.248 0-.488.036-.72.108a1.663 1.663 0 00-1.056.876 1.78 1.78 0 00-.168.804h3.828a2.084 2.084 0 00-.168-.828 1.363 1.363 0 00-.396-.552 1.535 1.535 0 00-.6-.312 2.61 2.61 0 00-.72-.096zm4.381-.84h1.056v2.652h3.288V46.64h1.056V53h-1.056v-2.772h-3.288V53h-1.056v-6.36zm8.776.936h-2.172v-.936h5.4v.936h-2.172V53h-1.056v-5.424z" fill="#8492A6"/><defs><clipPath id="clip0"><path fill="#fff" d="M0 0h126v37.333H0z"/></clipPath></defs></svg>