<svg width="17" height="9" fill="none" xmlns="http://www.w3.org/2000/svg"><path fill-rule="evenodd" clip-rule="evenodd" d="M7.135.005c.74 0 1.266-.001 2.09-.005.178 0 .41.03.555.132a.127.127 0 01.01.007c.107.073.24.165.242.491.002.432.001.843 0 1.25-.001.63-.002 1.253.008 1.937.022.234.175.332.318.331.144 0 .309-.09.432-.211.668-.656 1.437-2.233 1.908-3.267.166-.363.427-.363.725-.362h.055c.65 0 1.065.004 1.515.01l.999.009c.184 0 .344.156.396.268.045.097.077.379-.168.776-.753 1.224-1.445 2.21-2.284 3.372-.052.074-.102.161-.1.252a.348.348 0 00.1.224l.544.568c.577.602 1.168 1.217 1.749 1.875.225.254.085.648.023.758-.047.083-.259.297-.402.299a70.89 70.89 0 01-.825.001l-1.873-.001c-.322 0-.451-.095-.621-.274-.585-.613-.66-.694-1.048-1.11l-.442-.472c-.107-.115-.32-.26-.524-.168l-.04.017c-.177.079-.45.2-.45.495v1.111c0 .202-.317.352-.507.352H8.038c-.696 0-1.3-.168-1.634-.33-1.442-.7-2.299-1.674-3.236-3.297A60.526 60.526 0 01.987.863c-.077-.16-.132-.51.44-.51.27 0 .534-.002.824-.005C2.609.344 3.009.34 3.517.34c.269 0 .438.054.55.137.109.078.163.18.216.278l.009.017c.234.436.42.788.576 1.082.602 1.138.737 1.393 1.385 2.233.077.099.188.114.27.114a.412.412 0 00.274-.08c.164-.133.211-.275.211-.48V1.49c0-.247-.168-.612-.353-.727C6.608.736 6.552.71 6.497.681c-.17-.085-.348-.173-.34-.276.01-.15.358-.4.978-.4z" fill="#fff"/></svg>