<svg width="17" height="12" fill="none" xmlns="http://www.w3.org/2000/svg"><path d="M8.95 11.2h-.017c-.05 0-5.007-.01-6.258-.349a1.998 1.998 0 01-1.41-1.41A21.177 21.177 0 01.94 5.594a21.33 21.33 0 01.333-3.85A2.05 2.05 0 012.685.32C3.902 0 8.723 0 8.928 0h.017c.05 0 5.021.01 6.26.35a2.002 2.002 0 011.408 1.409c.232 1.273.34 2.567.325 3.861a21.235 21.235 0 01-.334 3.846 2.006 2.006 0 01-1.413 1.409c-1.215.322-6.037.325-6.242.325zm-1.6-7.999l-.003 4.796L11.513 5.6 7.35 3.201z" fill="#fff"/></svg>