<svg width="15" height="12" fill="none" xmlns="http://www.w3.org/2000/svg"><path fill-rule="evenodd" clip-rule="evenodd" d="M7.478 2.965C7.391 1.715 8.16.574 9.376.13c.447-.157 1.207-.177 1.703-.04.195.06.564.257.827.434l.477.325.525-.168c.292-.088.681-.236.856-.334.166-.089.312-.138.312-.108 0 .167-.36.738-.662 1.052-.409.443-.292.482.535.187.496-.167.506-.167.409.02-.059.098-.36.443-.681.757-.545.541-.574.6-.574 1.053 0 .698-.33 2.154-.662 2.95-.614 1.496-1.927 3.041-3.24 3.818-1.85 1.092-4.311 1.368-6.384.728C2.127 10.59.94 10.038.94 9.94c0-.03.36-.07.799-.08a5.456 5.456 0 002.608-.727l.525-.315-.603-.206C3.41 8.317 2.643 7.638 2.448 7c-.058-.208-.039-.217.506-.217l.564-.01-.477-.226c-.564-.286-1.08-.767-1.333-1.26-.185-.354-.418-1.249-.35-1.318.02-.03.224.03.457.108.671.246.76.187.37-.226-.73-.748-.953-1.86-.603-2.912l.165-.472.642.64C3.703 2.393 5.25 3.16 7.021 3.387l.487.059-.03-.482z" fill="#fff"/></svg>