<svg width="12" height="18" fill="none" xmlns="http://www.w3.org/2000/svg"><path fill-rule="evenodd" clip-rule="evenodd" d="M10.326 8.8c-.195 0-.456.13-.804.304-.696.348-1.738.87-3.303.87-1.564 0-2.607-.522-3.302-.87-.348-.174-.609-.304-.804-.304-.646 0-1.174.528-1.174 1.173 0 .587.352.88.587.998.704.41 2.933 1.349 2.933 1.349l-2.522 3.168s-.47.528-.47.939c0 .645.528 1.173 1.174 1.173.586 0 .88-.41.88-.41l2.698-3.11 2.64 3.11s.294.41.88.41c.646 0 1.174-.528 1.174-1.173 0-.352-.47-.939-.47-.939L7.98 12.32s2.23-.939 2.934-1.35l.032-.023c.234-.174.554-.413.554-.974 0-.645-.527-1.173-1.173-1.173zM2.113 4.107A4.081 4.081 0 016.22 0a4.081 4.081 0 014.107 4.107A4.081 4.081 0 016.22 8.213a4.081 4.081 0 01-4.107-4.106z" fill="#fff"/><path fill-rule="evenodd" clip-rule="evenodd" d="M4.166 4.107c0 1.114.939 2.053 2.053 2.053 1.115 0 2.054-.939 2.054-2.053 0-1.115-.939-2.054-2.054-2.054-1.114 0-2.053.939-2.053 2.054z" fill="#8492A6"/></svg>