<svg fill="none" height="19" width="19" xmlns="http://www.w3.org/2000/svg"><g fill="#3c4858"><path d="M6.531 6.531a.594.594 0 01.594.594v7.125a.594.594 0 11-1.188 0V7.125a.594.594 0 01.594-.594zm2.969 0a.594.594 0 01.594.594v7.125a.594.594 0 01-1.188 0V7.125a.594.594 0 01.594-.594zm3.563.594a.594.594 0 00-1.188 0v7.125a.594.594 0 001.188 0z"/><path clip-rule="evenodd" d="M17.219 3.563A1.188 1.188 0 0116.03 4.75h-.593v10.688a2.375 2.375 0 01-2.375 2.374H5.938a2.375 2.375 0 01-2.375-2.374V4.75h-.594A1.188 1.188 0 011.78 3.563V2.375a1.188 1.188 0 011.19-1.187h4.156A1.187 1.187 0 018.313 0h2.375a1.188 1.188 0 011.187 1.188h4.156a1.185 1.185 0 011.188 1.188zM4.89 4.75l-.14.07v10.617a1.191 1.191 0 001.188 1.188h7.125a1.188 1.188 0 001.187-1.188V4.82l-.14-.07zM2.97 3.562V2.375h13.06v1.188z" fill-rule="evenodd"/></g></svg>