<svg width="40" height="40" fill="none" xmlns="http://www.w3.org/2000/svg"><path d="M14.167 26.235a3.327 3.327 0 012.786-3.294 19.175 19.175 0 016.095 0 3.327 3.327 0 012.786 3.294v.363c0 .958-.77 1.735-1.721 1.735h-8.225c-.95 0-1.721-.777-1.721-1.735v-.363zm9.236-11.137c0 1.895-1.523 3.431-3.403 3.431-1.879 0-3.402-1.536-3.402-3.43 0-1.896 1.523-3.432 3.402-3.432 1.88 0 3.403 1.536 3.403 3.431z" stroke="#fff" stroke-width="1.5"/><path d="M35 11.667C35 7.985 31.269 5 26.667 5M5 26.667C5 31.269 7.985 35 11.667 35m0-30A6.667 6.667 0 005 11.667M26.667 35A8.333 8.333 0 0035 26.667" stroke="#fff" stroke-width="1.5" stroke-linecap="round"/></svg>