<svg fill="none" height="16" width="16" xmlns="http://www.w3.org/2000/svg"><clipPath id="a"><path d="M0 0h16v16H0z"/></clipPath><g clip-path="url(#a)" fill="#008cef"><path d="M8 5.425A2.577 2.577 0 005.427 8 2.577 2.577 0 008 10.575 2.577 2.577 0 0010.576 8 2.577 2.577 0 008 5.425zm-.195 1.811a.591.591 0 00-.586.586h-.852c.018-.799.657-1.438 1.438-1.438z"/><path d="M15.813 7.467C14.944 6.384 11.836 2.85 8 2.85S1.057 6.384.186 7.467a.854.854 0 000 1.066C1.056 9.616 4.164 13.15 8 13.15s6.943-3.534 7.813-4.617a.854.854 0 000-1.066zM8 11.73a3.729 3.729 0 110-7.457 3.729 3.729 0 010 7.457z"/></g></svg>