<svg width="36" height="36" viewBox="0 0 36 36" fill="none" xmlns="http://www.w3.org/2000/svg">
<g opacity="0.8" clip-path="url(#clip0)">
<path d="M11.3275 12.1995H5.27458C4.54467 12.1995 3.95081 12.7933 3.95081 13.5232V18.3018C3.95081 19.0317 4.54467 19.6256 5.27458 19.6256H11.3274C12.0573 19.6256 12.6512 19.0317 12.6512 18.3018V13.5232C12.6512 12.7933 12.0574 12.1995 11.3275 12.1995ZM11.5965 13.5232V15.3852H8.82831V13.2541H11.3274C11.4759 13.2542 11.5965 13.3749 11.5965 13.5232ZM5.00549 18.3018V13.5232C5.00549 13.3749 5.12622 13.2542 5.27458 13.2542H7.77363V18.5709H5.27458C5.12622 18.5709 5.00549 18.4502 5.00549 18.3018ZM11.3275 18.5709H8.82838V16.4399H11.5966V18.3017C11.5965 18.4502 11.4759 18.5709 11.3275 18.5709Z" fill="#008CEF"/>
<path d="M3.95081 25.7178C3.95081 26.0091 4.18692 26.2451 4.47815 26.2451H19.9963C20.2875 26.2451 20.5236 26.0091 20.5236 25.7178C20.5236 25.4265 20.2875 25.1904 19.9963 25.1904H4.47815C4.18692 25.1904 3.95081 25.4265 3.95081 25.7178Z" fill="#008CEF"/>
<path d="M4.47815 27.1992C4.18692 27.1992 3.95081 27.4353 3.95081 27.7266C3.95081 28.0179 4.18692 28.2539 4.47815 28.2539H12.2372C12.5284 28.2539 12.7645 28.0179 12.7645 27.7266C12.7645 27.4353 12.5284 27.1992 12.2372 27.1992H4.47815Z" fill="#008CEF"/>
<path d="M13.843 23.2019V21.927C13.843 21.6357 13.6069 21.3997 13.3157 21.3997C13.0244 21.3997 12.7883 21.6357 12.7883 21.927V23.2019C12.7883 23.4932 13.0244 23.7293 13.3157 23.7293C13.6069 23.7293 13.843 23.4932 13.843 23.2019Z" fill="#008CEF"/>
<path d="M16.2532 23.2019V21.927C16.2532 21.6357 16.0171 21.3997 15.7258 21.3997C15.4346 21.3997 15.1985 21.6357 15.1985 21.927V23.2019C15.1985 23.4932 15.4346 23.7293 15.7258 23.7293C16.0171 23.7293 16.2532 23.4932 16.2532 23.2019Z" fill="#008CEF"/>
<path d="M18.6633 23.2019V21.927C18.6633 21.6357 18.4272 21.3997 18.136 21.3997C17.8447 21.3997 17.6086 21.6357 17.6086 21.927V23.2019C17.6086 23.4932 17.8447 23.7293 18.136 23.7293C18.4272 23.7293 18.6633 23.4932 18.6633 23.2019Z" fill="#008CEF"/>
<path d="M21.0742 23.2019V21.927C21.0742 21.6357 20.8381 21.3997 20.5469 21.3997C20.2556 21.3997 20.0195 21.6357 20.0195 21.927V23.2019C20.0195 23.4932 20.2556 23.7293 20.5469 23.7293C20.8381 23.7293 21.0742 23.4932 21.0742 23.2019Z" fill="#008CEF"/>
<path d="M24.0367 21.927V23.2019C24.0367 23.4932 24.2729 23.7293 24.5641 23.7293C24.8553 23.7293 25.0914 23.4932 25.0914 23.2019V21.927C25.0914 21.6357 24.8553 21.3997 24.5641 21.3997C24.2729 21.3997 24.0367 21.6358 24.0367 21.927Z" fill="#008CEF"/>
<path d="M26.4469 21.927V23.2019C26.4469 23.4932 26.683 23.7293 26.9742 23.7293C27.2655 23.7293 27.5016 23.4932 27.5016 23.2019V21.927C27.5016 21.6357 27.2655 21.3997 26.9742 21.3997C26.683 21.3997 26.4469 21.6358 26.4469 21.927Z" fill="#008CEF"/>
<path d="M28.8571 21.927V23.2019C28.8571 23.4932 29.0932 23.7293 29.3844 23.7293C29.6756 23.7293 29.9117 23.4932 29.9117 23.2019V21.927C29.9117 21.6357 29.6756 21.3997 29.3844 21.3997C29.0932 21.3997 28.8571 21.6358 28.8571 21.927Z" fill="#008CEF"/>
<path d="M4.47815 23.7293C4.76938 23.7293 5.00549 23.4932 5.00549 23.2019V21.927C5.00549 21.6357 4.76938 21.3997 4.47815 21.3997C4.18691 21.3997 3.95081 21.6357 3.95081 21.927V23.2019C3.95081 23.4932 4.18691 23.7293 4.47815 23.7293Z" fill="#008CEF"/>
<path d="M7.41565 23.2019V21.927C7.41565 21.6357 7.17954 21.3997 6.88831 21.3997C6.59707 21.3997 6.36096 21.6357 6.36096 21.927V23.2019C6.36096 23.4932 6.59707 23.7293 6.88831 23.7293C7.17954 23.7293 7.41565 23.4932 7.41565 23.2019Z" fill="#008CEF"/>
<path d="M9.82568 23.2019V21.927C9.82568 21.6357 9.58957 21.3997 9.29834 21.3997C9.0071 21.3997 8.771 21.6357 8.771 21.927V23.2019C8.771 23.4932 9.0071 23.7293 9.29834 23.7293C9.58957 23.7293 9.82568 23.4932 9.82568 23.2019Z" fill="#008CEF"/>
<path d="M35.9997 9.97189C35.9997 7.01778 33.5964 4.6145 30.6423 4.6145C27.9964 4.6145 25.7939 6.54303 25.3628 9.06796H11.7173C11.4261 9.06796 11.1899 9.30399 11.1899 9.5953C11.1899 9.8866 11.4261 10.1226 11.7173 10.1226H25.2871C25.3677 13.0258 27.7638 15.3282 30.6403 15.3292C30.641 15.3292 30.6416 15.3293 30.6423 15.3293C30.643 15.3293 30.6423 15.3293 30.6423 15.3293C30.6429 15.3293 30.6435 15.3292 30.6441 15.3292C31.4144 15.3289 32.1613 15.1595 32.8073 14.8737V23.742C32.8073 24.0333 33.0434 24.2693 33.3347 24.2693C33.6259 24.2693 33.862 24.0333 33.862 23.742V14.2507C35.1594 13.2721 35.9997 11.7184 35.9997 9.97189ZM30.6423 5.66919C33.0149 5.66919 34.945 7.59941 34.945 9.97189C34.945 12.3489 33.0094 14.2745 30.6423 14.2745C28.2234 14.2745 26.2453 12.2611 26.3441 9.79759C26.4544 7.42806 28.3899 5.66919 30.6423 5.66919Z" fill="#008CEF"/>
<path d="M29.1835 12.0015C29.362 12.2908 29.7642 12.3383 30.0051 12.0975L33.416 8.68659C33.6219 8.48057 33.6219 8.14673 33.416 7.94078C33.2101 7.73491 32.8761 7.73491 32.6703 7.94078L29.7309 10.8803L28.5935 9.03724C28.4406 8.78939 28.1156 8.71253 27.8678 8.86539C27.6199 9.01839 27.543 9.34331 27.6959 9.59109L29.1835 12.0015Z" fill="#008CEF"/>
<path d="M33.3349 25.6755C33.0437 25.6755 32.8076 25.9115 32.8076 26.2028V28.3777C32.8076 29.4544 31.9317 30.3304 30.8549 30.3304H3.00741C1.93064 30.3304 1.05469 29.4544 1.05469 28.3777V12.0753C1.05469 10.9986 1.93064 10.1226 3.00741 10.1226H9.25664C9.54787 10.1226 9.78398 9.88652 9.78398 9.59521C9.78398 9.30391 9.54787 9.06787 9.25664 9.06787H3.00741C1.34916 9.06787 0 10.417 0 12.0753V28.3776C0 30.0359 1.34916 31.385 3.00741 31.385H30.8549C32.5131 31.385 33.8623 30.0358 33.8623 28.3776V26.2027C33.8623 25.9115 33.6262 25.6755 33.3349 25.6755Z" fill="#008CEF"/>
<path d="M30.5497 18.8147V17.2558C30.5497 16.8088 30.186 16.4451 29.739 16.4451H24.3537C23.9067 16.4451 23.543 16.8088 23.543 17.2558V18.8147C23.543 19.2617 23.9067 19.6254 24.3537 19.6254H29.739C30.186 19.6254 30.5497 19.2617 30.5497 18.8147ZM29.4951 18.5708H24.5976V17.4998H29.4951V18.5708Z" fill="#008CEF"/>
</g>
<defs>
<clipPath id="clip0">
<rect width="36" height="36" fill="white"/>
</clipPath>
</defs>
</svg>
