<svg width="36" height="36" viewBox="0 0 36 36" fill="none" xmlns="http://www.w3.org/2000/svg">
<g opacity="0.8">
<path d="M33.5573 14.1038L27.6933 9.1384V8.21225C27.6936 8.0693 27.6366 7.9326 27.5355 7.83193L20.9678 1.27751C20.9662 1.27607 20.9645 1.27511 20.963 1.27367C20.8619 1.16724 20.7211 1.10693 20.5746 1.10693C20.5541 1.10693 20.534 1.10813 20.514 1.11054L20.5047 1.10958C20.4866 1.10789 20.4686 1.10693 20.4506 1.10693H11.1629C9.52175 1.10862 8.19223 2.43862 8.19006 4.07951V9.14176L2.35782 14.0882C2.16851 14.1764 2.04766 14.3659 2.04742 14.5747V31.2481C2.04983 33.2402 3.66405 34.8545 5.65618 34.8569H30.2272C32.2193 34.8545 33.834 33.2402 33.836 31.2481V14.5747C33.836 14.3787 33.7293 14.198 33.5573 14.1038ZM32.467 14.5891L27.6933 18.638V10.547L32.467 14.5891ZM21.112 2.93978L25.8703 7.68827H23.0095C21.962 7.68707 21.1132 6.83827 21.112 5.79055V2.93978ZM11.1629 2.1818H20.0371V5.79079C20.0388 7.43168 21.3686 8.76169 23.0095 8.76337H26.6182V19.5498L19.585 25.5151C18.6415 26.3197 17.2529 26.3204 16.3087 25.5165L9.26517 19.5526V4.07951C9.26637 3.03203 10.1154 2.183 11.1629 2.1818ZM8.19006 10.5511V18.6423L3.41635 14.5999L8.19006 10.5511ZM5.65618 33.782C5.10169 33.7822 4.56233 33.5999 4.12196 33.2628L11.4702 25.7467C11.6748 25.5338 11.6693 25.1963 11.4586 24.9899C11.2477 24.7838 10.9097 24.7862 10.7018 24.9952L3.42188 32.4412C3.22488 32.0743 3.12205 31.6645 3.12229 31.2481V15.7596L8.38539 20.2164L8.38587 20.2169L15.6139 26.3372C16.9588 27.4822 18.9363 27.4815 20.28 26.3351L32.7611 15.7498V31.2481C32.7616 31.6659 32.6583 32.0774 32.4598 32.4455L25.1366 24.994C24.9286 24.7826 24.5881 24.7797 24.3762 24.9877C24.1648 25.1958 24.1617 25.536 24.37 25.7479L31.7586 33.2647C31.3187 33.6009 30.7805 33.7822 30.2272 33.782H5.65618Z" fill="#008CEF"/>
<path d="M16.5496 17.4298C16.7391 17.6518 17.0712 17.6818 17.2977 17.4975L20.7443 14.6933C20.8945 14.5725 20.9685 14.3805 20.9387 14.1903C20.9082 13.9998 20.7784 13.8402 20.5982 13.7718C20.4178 13.7033 20.2146 13.7369 20.0658 13.8597L17.0262 16.3326L15.887 14.9985C15.7628 14.8502 15.5687 14.7803 15.3786 14.8149C15.1888 14.8498 15.032 14.9836 14.968 15.1659C14.9039 15.3483 14.9428 15.5508 15.0694 15.6964L16.5496 17.4298Z" fill="#008CEF"/>
<path d="M17.9415 21.5907C20.7066 21.5907 23.1023 19.674 23.7094 16.9765C24.3165 14.2788 22.9728 11.5207 20.4742 10.3361C17.9761 9.15166 14.9901 9.85654 13.2858 12.0337C11.8914 13.8144 11.6353 16.2346 12.6261 18.2676C13.6164 20.3011 15.6801 21.5909 17.9415 21.5907ZM14.1319 12.697C15.5883 10.8356 18.1767 10.2986 20.2532 11.4275C22.3297 12.5562 23.2868 15.0202 22.5166 17.2547C21.7463 19.4893 19.4743 20.8402 17.1434 20.45C14.8123 20.0596 13.1044 18.0418 13.1042 15.6782C13.1022 14.5973 13.4641 13.5472 14.1319 12.697Z" fill="#008CEF"/>
</g>
</svg>
