<svg width="36" height="36" viewBox="0 0 36 36" fill="none" xmlns="http://www.w3.org/2000/svg">
<g opacity="0.8">
<path d="M18.0001 35.0186C15.7642 35.0226 13.5496 34.5849 11.4834 33.7305C9.41714 32.8761 7.5401 31.6219 5.96005 30.0399C5.87143 29.9481 5.8224 29.8252 5.8235 29.6977C5.82461 29.5701 5.87578 29.4481 5.96597 29.3579C6.05617 29.2677 6.17819 29.2166 6.30575 29.2154C6.4333 29.2143 6.55619 29.2634 6.64794 29.352C9.2931 31.996 12.7782 33.6336 16.5019 33.9824C20.2256 34.3312 23.9542 33.3692 27.0444 31.2625C30.1345 29.1557 32.3923 26.0364 33.4282 22.4427C34.4641 18.8491 34.213 15.0065 32.7183 11.5782C32.6923 11.5196 32.6782 11.4564 32.6767 11.3923C32.6753 11.3283 32.6865 11.2645 32.7098 11.2048C32.733 11.145 32.7678 11.0905 32.8123 11.0443C32.8567 10.998 32.9098 10.961 32.9685 10.9354C33.0273 10.9097 33.0905 10.896 33.1546 10.8948C33.2187 10.8937 33.2824 10.9053 33.342 10.9289C33.4016 10.9524 33.456 10.9875 33.502 11.0322C33.5479 11.0768 33.5847 11.1301 33.61 11.189C34.7408 13.7801 35.2084 16.612 34.9707 19.429C34.7329 22.2461 33.7972 24.9595 32.248 27.3244C30.6989 29.6892 28.5852 31.631 26.0976 32.9743C23.6101 34.3176 20.8272 35.0202 18.0001 35.0186Z" fill="#008CEF"/>
<path d="M2.43991 24.1088C2.33979 24.1088 2.2421 24.0779 2.16017 24.0204C2.07824 23.9628 2.01606 23.8814 1.98212 23.7872C0.666697 20.1451 0.631848 16.1634 1.88332 12.4988C3.1348 8.83423 5.59786 5.7056 8.86629 3.6289C12.1347 1.55219 16.0133 0.651443 19.8625 1.0752C23.7116 1.49895 27.3014 3.2219 30.0397 5.9599C30.1284 6.05165 30.1774 6.17454 30.1763 6.30209C30.1752 6.42965 30.124 6.55166 30.0338 6.64186C29.9436 6.73206 29.8216 6.78322 29.694 6.78433C29.5665 6.78544 29.4436 6.73641 29.3519 6.64779C26.3411 3.63708 22.2577 1.94568 17.9999 1.94568C13.7421 1.94568 9.65873 3.63708 6.64802 6.64779C4.4984 8.80887 3.00519 11.5349 2.34143 14.5098C1.67768 17.4848 1.87054 20.587 2.89769 23.4569C2.92426 23.5304 2.93273 23.6092 2.9224 23.6866C2.91206 23.7641 2.88322 23.8379 2.83831 23.9019C2.7934 23.9658 2.73375 24.018 2.6644 24.054C2.59505 24.09 2.51805 24.1088 2.43991 24.1088Z" fill="#008CEF"/>
<path d="M29.6964 6.79042H26.47C26.341 6.79042 26.2172 6.73916 26.126 6.64793C26.0348 6.5567 25.9835 6.43296 25.9835 6.30393C25.9835 6.17491 26.0348 6.05117 26.126 5.95993C26.2172 5.8687 26.341 5.81745 26.47 5.81745H29.2099V3.07755C29.2099 2.94853 29.2611 2.82479 29.3524 2.73355C29.4436 2.64232 29.5674 2.59106 29.6964 2.59106C29.8254 2.59106 29.9491 2.64232 30.0404 2.73355C30.1316 2.82479 30.1829 2.94853 30.1829 3.07755V6.30393C30.1829 6.43296 30.1316 6.5567 30.0404 6.64793C29.9491 6.73916 29.8254 6.79042 29.6964 6.79042Z" fill="#008CEF"/>
<path d="M6.30399 33.4091C6.17497 33.4091 6.05123 33.3578 5.95999 33.2666C5.86876 33.1754 5.8175 33.0516 5.8175 32.9226V29.6962C5.8175 29.5672 5.86876 29.4434 5.95999 29.3522C6.05123 29.261 6.17497 29.2097 6.30399 29.2097H9.53037C9.6594 29.2097 9.78314 29.261 9.87437 29.3522C9.96561 29.4434 10.0169 29.5672 10.0169 29.6962C10.0169 29.8252 9.96561 29.949 9.87437 30.0402C9.78314 30.1314 9.6594 30.1827 9.53037 30.1827H6.79048V32.9226C6.79048 33.0516 6.73922 33.1754 6.64799 33.2666C6.55676 33.3578 6.43302 33.4091 6.30399 33.4091Z" fill="#008CEF"/>
<path d="M25.7261 23.3145H15.3795C14.7571 23.3118 14.1542 23.0972 13.6701 22.706C13.186 22.3148 12.8497 21.7703 12.7165 21.1623L10.4903 10.7947H8.32743C8.1984 10.7947 8.07466 10.7435 7.98343 10.6523C7.8922 10.561 7.84094 10.4373 7.84094 10.3083C7.84094 10.1792 7.8922 10.0555 7.98343 9.96427C8.07466 9.87303 8.1984 9.82178 8.32743 9.82178H10.8839C10.9952 9.82174 11.1032 9.85988 11.1898 9.92982C11.2763 9.99976 11.3363 10.0973 11.3597 10.2061L13.6681 20.9574C13.7538 21.3482 13.97 21.6981 14.2812 21.9496C14.5924 22.201 14.98 22.3389 15.38 22.3405H25.7261C25.8552 22.3405 25.9789 22.3918 26.0701 22.483C26.1614 22.5742 26.2126 22.698 26.2126 22.827C26.2126 22.956 26.1614 23.0798 26.0701 23.171C25.9789 23.2622 25.8552 23.3135 25.7261 23.3135V23.3145Z" fill="#008CEF"/>
<path d="M23.3429 19.9692H12.8509C12.7219 19.9692 12.5981 19.9179 12.5069 19.8267C12.4157 19.7355 12.3644 19.6117 12.3644 19.4827C12.3644 19.3537 12.4157 19.2299 12.5069 19.1387C12.5981 19.0475 12.7219 18.9962 12.8509 18.9962H23.3429C23.5766 18.9975 23.8029 18.9146 23.9805 18.7627C24.158 18.6109 24.275 18.4002 24.3101 18.1692L25.051 13.3831H11.4377C11.3086 13.3831 11.1849 13.3319 11.0937 13.2406C11.0024 13.1494 10.9512 13.0257 10.9512 12.8966C10.9512 12.7676 11.0024 12.6439 11.0937 12.5526C11.1849 12.4614 11.3086 12.4102 11.4377 12.4102H25.6187C25.6889 12.4102 25.7582 12.4254 25.822 12.4547C25.8857 12.484 25.9424 12.5268 25.988 12.5801C26.0337 12.6334 26.0673 12.6959 26.0865 12.7634C26.1057 12.8309 26.1101 12.9017 26.0994 12.9711L25.2723 18.3181C25.2026 18.7791 24.9693 19.1996 24.615 19.5028C24.2608 19.806 23.8092 19.9715 23.3429 19.9692Z" fill="#008CEF"/>
<path d="M23.2027 28.1245C22.8097 28.1244 22.4255 28.0078 22.0988 27.7893C21.7721 27.5709 21.5174 27.2605 21.3671 26.8974C21.2167 26.5342 21.1775 26.1347 21.2542 25.7492C21.3309 25.3637 21.5202 25.0097 21.7982 24.7318C22.0761 24.4539 22.4302 24.2647 22.8157 24.1881C23.2012 24.1114 23.6007 24.1508 23.9639 24.3012C24.327 24.4517 24.6373 24.7064 24.8556 25.0332C25.074 25.36 25.1905 25.7442 25.1905 26.1372C25.1899 26.6642 24.9802 27.1693 24.6076 27.5419C24.2349 27.9145 23.7297 28.124 23.2027 28.1245ZM23.2027 25.1224C23.0022 25.1225 22.8061 25.1821 22.6394 25.2936C22.4726 25.4051 22.3427 25.5635 22.266 25.7489C22.1893 25.9342 22.1693 26.1382 22.2085 26.3349C22.2477 26.5316 22.3443 26.7123 22.4862 26.8541C22.628 26.9959 22.8088 27.0925 23.0055 27.1316C23.2023 27.1707 23.4062 27.1506 23.5915 27.0738C23.7768 26.997 23.9352 26.867 24.0466 26.7002C24.1581 26.5334 24.2176 26.3373 24.2176 26.1367C24.2172 25.8677 24.1101 25.6099 23.9199 25.4197C23.7296 25.2296 23.4717 25.1226 23.2027 25.1224Z" fill="#008CEF"/>
<path d="M16.4156 28.1245C16.0226 28.1245 15.6384 28.0079 15.3116 27.7896C14.9847 27.5712 14.73 27.2608 14.5796 26.8977C14.4292 26.5346 14.3899 26.135 14.4665 25.7495C14.5432 25.364 14.7325 25.0099 15.0104 24.732C15.2883 24.454 15.6424 24.2648 16.0279 24.1881C16.4134 24.1114 16.813 24.1508 17.1761 24.3012C17.5393 24.4516 17.8496 24.7063 18.068 25.0331C18.2864 25.3599 18.4029 25.7441 18.4029 26.1372C18.4023 26.6641 18.1927 27.1692 17.8202 27.5417C17.4476 27.9143 16.9425 28.1238 16.4156 28.1245ZM16.4156 25.1224C16.215 25.1224 16.0189 25.1819 15.8521 25.2933C15.6853 25.4048 15.5553 25.5632 15.4785 25.7485C15.4018 25.9339 15.3817 26.1378 15.4208 26.3346C15.4599 26.5314 15.5565 26.7121 15.6984 26.8539C15.8403 26.9958 16.021 27.0924 16.2178 27.1315C16.4145 27.1707 16.6185 27.1506 16.8038 27.0738C16.9891 26.997 17.1476 26.867 17.259 26.7002C17.3705 26.5334 17.43 26.3373 17.43 26.1367C17.4296 25.8678 17.3226 25.61 17.1324 25.4199C16.9423 25.2298 16.6845 25.1228 16.4156 25.1224Z" fill="#008CEF"/>
</g>
</svg>
