<svg width="36" height="36" viewBox="0 0 36 36" fill="none" xmlns="http://www.w3.org/2000/svg">
<g opacity="0.8">
<path d="M5.63024 16.3919H9.66794C9.83089 16.3917 9.98712 16.3269 10.1024 16.2117C10.2176 16.0965 10.2825 15.9403 10.2827 15.7773V14.4123C10.2827 14.3004 10.2382 14.1931 10.1591 14.114C10.08 14.0349 9.97269 13.9904 9.86081 13.9904C9.74892 13.9904 9.64161 14.0349 9.5625 14.114C9.48338 14.1931 9.43893 14.3004 9.43893 14.4123V15.5481H5.85925V11.9741H7.64906C7.76095 11.9741 7.86825 11.9297 7.94737 11.8506C8.02648 11.7714 8.07093 11.6641 8.07093 11.5522C8.07093 11.4404 8.02648 11.3331 7.94737 11.2539C7.86825 11.1748 7.76095 11.1304 7.64906 11.1304H5.63024C5.46729 11.1305 5.31104 11.1953 5.1958 11.3105C5.08055 11.4257 5.01571 11.5819 5.0155 11.7449V15.7773C5.01573 15.9403 5.08057 16.0965 5.19582 16.2117C5.31106 16.3269 5.46729 16.3917 5.63024 16.3919Z" fill="#008CEF"/>
<path d="M10.6313 10.8937C10.5887 10.8583 10.5396 10.8316 10.4867 10.8152C10.4338 10.7987 10.3781 10.7928 10.323 10.7979C10.2678 10.803 10.2142 10.8188 10.1651 10.8446C10.1161 10.8704 10.0726 10.9056 10.0372 10.9482L8.02468 13.3664L7.37894 12.8439C7.33595 12.8083 7.28632 12.7816 7.23292 12.7653C7.17953 12.749 7.12343 12.7435 7.06788 12.749C7.01233 12.7546 6.95844 12.7711 6.90932 12.7976C6.8602 12.8241 6.81683 12.8602 6.78174 12.9036C6.74664 12.947 6.72051 12.9969 6.70485 13.0505C6.6892 13.1041 6.68434 13.1603 6.69055 13.2157C6.69676 13.2712 6.71391 13.3249 6.74103 13.3737C6.76814 13.4225 6.80467 13.4654 6.8485 13.5L7.62475 14.128C7.7523 14.233 7.91416 14.287 8.07916 14.2797C8.24416 14.2724 8.40062 14.2043 8.51842 14.0885L8.53536 14.0723L10.6858 11.488C10.7213 11.4454 10.748 11.3963 10.7644 11.3433C10.7809 11.2904 10.7867 11.2348 10.7817 11.1796C10.7766 11.1244 10.7607 11.0708 10.7349 11.0217C10.7091 10.9727 10.6739 10.9292 10.6313 10.8937Z" fill="#008CEF"/>
<path d="M31.0854 11.4246H14.6235C14.5116 11.4246 14.4043 11.469 14.3252 11.5481C14.2461 11.6272 14.2017 11.7345 14.2017 11.8464C14.2017 11.9583 14.2461 12.0656 14.3252 12.1447C14.4043 12.2239 14.5116 12.2683 14.6235 12.2683H31.0854C31.1973 12.2683 31.3046 12.2239 31.3838 12.1447C31.4629 12.0656 31.5073 11.9583 31.5073 11.8464C31.5073 11.7345 31.4629 11.6272 31.3838 11.5481C31.3046 11.469 31.1973 11.4246 31.0854 11.4246Z" fill="#008CEF"/>
<path d="M31.0854 14.9199H14.6235C14.5116 14.9199 14.4043 14.9644 14.3252 15.0435C14.2461 15.1226 14.2017 15.2299 14.2017 15.3418C14.2017 15.4537 14.2461 15.561 14.3252 15.6401C14.4043 15.7192 14.5116 15.7637 14.6235 15.7637H31.0854C31.1973 15.7637 31.3046 15.7192 31.3838 15.6401C31.4629 15.561 31.5073 15.4537 31.5073 15.3418C31.5073 15.2299 31.4629 15.1226 31.3838 15.0435C31.3046 14.9644 31.1973 14.9199 31.0854 14.9199Z" fill="#008CEF"/>
<path d="M9.86081 22.9321C9.74892 22.9321 9.64161 22.9765 9.5625 23.0556C9.48338 23.1347 9.43893 23.242 9.43893 23.3539V24.4899H5.85925V20.9158H7.64906C7.76095 20.9158 7.86825 20.8713 7.94737 20.7922C8.02648 20.7131 8.07093 20.6058 8.07093 20.4939C8.07093 20.382 8.02648 20.2747 7.94737 20.1956C7.86825 20.1165 7.76095 20.072 7.64906 20.072H5.63024C5.46729 20.0722 5.31106 20.137 5.19582 20.2522C5.08057 20.3674 5.01573 20.5236 5.0155 20.6866V24.719C5.01571 24.8819 5.08055 25.0382 5.19579 25.1534C5.31104 25.2686 5.46728 25.3334 5.63024 25.3336H9.66794C9.8309 25.3334 9.98715 25.2686 10.1024 25.1534C10.2176 25.0382 10.2825 24.8819 10.2827 24.719V23.3539C10.2827 23.242 10.2382 23.1347 10.1591 23.0556C10.08 22.9765 9.97269 22.9321 9.86081 22.9321Z" fill="#008CEF"/>
<path d="M10.631 19.8351C10.5884 19.7997 10.5392 19.773 10.4863 19.7565C10.4334 19.7401 10.3778 19.7343 10.3226 19.7393C10.2674 19.7444 10.2138 19.7602 10.1648 19.786C10.1157 19.8118 10.0723 19.847 10.0368 19.8896L8.02456 22.3078L7.37881 21.7854C7.33583 21.7498 7.28622 21.7232 7.23286 21.7069C7.1795 21.6907 7.12345 21.6852 7.06795 21.6907C7.01245 21.6963 6.95861 21.7128 6.90953 21.7393C6.86045 21.7658 6.81712 21.8018 6.78203 21.8451C6.74694 21.8885 6.7208 21.9384 6.70512 21.9919C6.68944 22.0454 6.68453 22.1015 6.69068 22.157C6.69682 22.2124 6.7139 22.2661 6.74092 22.3149C6.76794 22.3637 6.80437 22.4066 6.8481 22.4413L7.62435 23.0693C7.7519 23.1742 7.91375 23.2282 8.07875 23.2209C8.24374 23.2137 8.40021 23.1456 8.51802 23.0298L8.53496 23.0135L10.6854 20.4293C10.7208 20.3867 10.7475 20.3375 10.764 20.2846C10.7804 20.2317 10.7863 20.1761 10.7812 20.1209C10.7762 20.0657 10.7603 20.0121 10.7345 19.9631C10.7088 19.914 10.6736 19.8706 10.631 19.8351Z" fill="#008CEF"/>
<path d="M31.0855 20.366H27.6579C27.546 20.366 27.4387 20.4104 27.3596 20.4895C27.2805 20.5686 27.236 20.676 27.236 20.7878C27.236 20.8997 27.2805 21.007 27.3596 21.0862C27.4387 21.1653 27.546 21.2097 27.6579 21.2097H31.0855C31.1974 21.2097 31.3047 21.1653 31.3838 21.0862C31.4629 21.007 31.5074 20.8997 31.5074 20.7878C31.5074 20.676 31.4629 20.5686 31.3838 20.4895C31.3047 20.4104 31.1974 20.366 31.0855 20.366Z" fill="#008CEF"/>
<path d="M19.97 20.366H14.6235C14.5116 20.366 14.4043 20.4104 14.3252 20.4895C14.2461 20.5686 14.2017 20.676 14.2017 20.7878C14.2017 20.8997 14.2461 21.007 14.3252 21.0862C14.4043 21.1653 14.5116 21.2097 14.6235 21.2097H19.97C20.0819 21.2097 20.1892 21.1653 20.2683 21.0862C20.3475 21.007 20.3919 20.8997 20.3919 20.7878C20.3919 20.676 20.3475 20.5686 20.2683 20.4895C20.1892 20.4104 20.0819 20.366 19.97 20.366Z" fill="#008CEF"/>
<path d="M16.0644 23.8613H14.6235C14.5116 23.8613 14.4043 23.9058 14.3252 23.9849C14.2461 24.064 14.2017 24.1713 14.2017 24.2832C14.2017 24.3951 14.2461 24.5024 14.3252 24.5815C14.4043 24.6606 14.5116 24.7051 14.6235 24.7051H16.0644C16.1763 24.7051 16.2836 24.6606 16.3628 24.5815C16.4419 24.5024 16.4863 24.3951 16.4863 24.2832C16.4863 24.1713 16.4419 24.064 16.3628 23.9849C16.2836 23.9058 16.1763 23.8613 16.0644 23.8613Z" fill="#008CEF"/>
<path d="M33.2131 0.703125H2.78691C2.27176 0.703665 1.77787 0.908524 1.41358 1.27276C1.0493 1.63699 0.844364 2.13086 0.84375 2.646V27.8601C0.844214 28.3747 1.04869 28.8682 1.41238 29.2324C1.77606 29.5966 2.26928 29.8017 2.78395 29.8029L18.8741 29.9167L19.6891 33.1196C19.6905 33.1253 19.6921 33.131 19.6938 33.1367C19.8781 33.7625 20.2607 34.3115 20.784 34.7011C21.3073 35.0907 21.943 35.2998 22.5953 35.2969H28.4776C29.2809 35.2958 30.051 34.9761 30.6189 34.408C31.1868 33.8399 31.5062 33.0697 31.507 32.2664V29.8969L33.2254 29.8031C33.7384 29.7993 34.2291 29.5931 34.5908 29.2292C34.9524 28.8653 35.1556 28.3733 35.1562 27.8603V2.646C35.1556 2.13086 34.9507 1.63699 34.5864 1.27276C34.2221 0.908524 33.7282 0.703665 33.2131 0.703125ZM2.78691 1.54688H33.2131C33.5045 1.54715 33.784 1.66304 33.9901 1.86909C34.1962 2.07515 34.3121 2.35455 34.3125 2.646V6.91741H1.6875V2.646C1.68785 2.35455 1.80381 2.07515 2.00992 1.86909C2.21603 1.66304 2.49546 1.54715 2.78691 1.54688ZM30.6633 32.2664C30.6627 32.846 30.4323 33.4017 30.0226 33.8117C29.6128 34.2216 29.0572 34.4523 28.4776 34.4531H22.5953C22.1261 34.4552 21.6689 34.3053 21.292 34.0258C20.9151 33.7463 20.6388 33.3523 20.5045 32.9027L19.6116 29.3933C19.401 28.5669 19.1202 27.7601 18.7722 26.9816L18.7031 26.8177C19.1527 26.8177 19.5955 26.9269 19.9936 27.1358C20.3916 27.3448 20.733 27.6473 20.9883 28.0173L21.7138 29.0684V30.6352C21.7138 30.747 21.7582 30.8543 21.8373 30.9335C21.9164 31.0126 22.0238 31.057 22.1356 31.057C22.2475 31.057 22.3548 31.0126 22.434 30.9335C22.5131 30.8543 22.5575 30.747 22.5575 30.6352V19.1692C22.5575 18.9588 22.6411 18.7569 22.7899 18.6081C22.9388 18.4593 23.1406 18.3757 23.3511 18.3757C23.5615 18.3757 23.7634 18.4593 23.9122 18.6081C24.061 18.7569 24.1446 18.9588 24.1446 19.1692V26.658C24.1446 26.6992 24.1507 26.7402 24.1626 26.7796V28.4994C24.1626 28.6113 24.2071 28.7186 24.2862 28.7977C24.3653 28.8768 24.4726 28.9213 24.5845 28.9213C24.6964 28.9213 24.8037 28.8768 24.8828 28.7977C24.9619 28.7186 25.0064 28.6113 25.0064 28.4994V26.1432C25.0064 25.9763 25.0727 25.8162 25.1907 25.6982C25.3087 25.5802 25.4688 25.5139 25.6357 25.5139C25.8026 25.5139 25.9626 25.5802 26.0806 25.6982C26.1987 25.8162 26.265 25.9763 26.265 26.1432V26.6213C26.2541 26.6949 26.2486 26.7693 26.2485 26.8437V28.4997C26.2485 28.6116 26.2929 28.7189 26.3721 28.798C26.4512 28.8771 26.5585 28.9216 26.6704 28.9216H26.6786C26.6786 28.9216 26.684 28.9216 26.6868 28.9216C26.7987 28.9216 26.906 28.8771 26.9851 28.798C27.0643 28.7189 27.1087 28.6116 27.1087 28.4997V26.6967C27.1446 26.5337 27.2395 26.3896 27.3751 26.2923C27.5108 26.1949 27.6776 26.1511 27.8436 26.1693C28.0096 26.1875 28.163 26.2664 28.2743 26.3908C28.3857 26.5152 28.4471 26.6764 28.4468 26.8434V28.937C28.4468 29.0489 28.4913 29.1562 28.5704 29.2353C28.6495 29.3144 28.7568 29.3588 28.8687 29.3588C28.9806 29.3588 29.0879 29.3144 29.167 29.2353C29.2461 29.1562 29.2906 29.0489 29.2906 28.937V27.5046C29.2897 27.4139 29.3067 27.3239 29.3408 27.2399C29.3749 27.1558 29.4253 27.0793 29.4891 27.0148C29.5529 26.9504 29.6289 26.8992 29.7126 26.8643C29.7963 26.8293 29.8861 26.8114 29.9769 26.8114C30.0676 26.8114 30.1574 26.8293 30.2411 26.8643C30.3248 26.8992 30.4008 26.9504 30.4646 27.0148C30.5284 27.0793 30.5788 27.1558 30.6129 27.2399C30.647 27.3239 30.6641 27.4139 30.6631 27.5046L30.6633 32.2664ZM33.2132 28.9597C33.2056 28.9597 33.1979 28.9597 33.1902 28.9604L31.507 29.0518V27.5049C31.5074 27.2305 31.4339 26.961 31.2942 26.7248C31.1545 26.4886 30.9538 26.2944 30.7132 26.1625C30.4725 26.0305 30.2008 25.9658 29.9266 25.9751C29.6523 25.9844 29.3856 26.0674 29.1544 26.2153C29.0658 26.0193 28.9365 25.8443 28.7752 25.702C28.6138 25.5597 28.4241 25.4532 28.2185 25.3897C28.013 25.3262 27.7962 25.3071 27.5827 25.3337C27.3692 25.3602 27.1638 25.4317 26.98 25.5436C26.9 25.3626 26.7842 25.1996 26.6396 25.0645C26.4949 24.9294 26.3244 24.825 26.1384 24.7576C25.9523 24.6901 25.7545 24.661 25.5569 24.6721C25.3593 24.6831 25.1659 24.734 24.9885 24.8217V19.1692C24.9885 18.735 24.816 18.3185 24.5089 18.0115C24.2019 17.7044 23.7854 17.5319 23.3512 17.5319C22.917 17.5319 22.5005 17.7044 22.1935 18.0115C21.8864 18.3185 21.7139 18.735 21.7139 19.1692V27.583L21.6828 27.538C21.3499 27.0555 20.9048 26.6611 20.3858 26.3887C19.8668 26.1162 19.2893 25.9739 18.7031 25.974C18.5619 25.974 18.4229 26.0094 18.2988 26.0769C18.1747 26.1443 18.0694 26.2418 17.9926 26.3604C17.9158 26.4789 17.8699 26.6148 17.859 26.7556C17.8481 26.8965 17.8727 27.0378 17.9304 27.1667L18.0015 27.3258C18.2548 27.8929 18.4704 28.476 18.6469 29.0715L2.78663 28.959C2.49529 28.9587 2.21598 28.8428 2.00994 28.6369C1.8039 28.4309 1.68795 28.1516 1.6875 27.8603V7.76116H34.3125V27.8603C34.3121 28.1517 34.1962 28.4311 33.9901 28.6371C33.784 28.8432 33.5045 28.959 33.2131 28.9593L33.2132 28.9597Z" fill="#008CEF"/>
<path d="M4.37329 5.7959C4.69314 5.7959 5.00581 5.70105 5.27175 5.52335C5.5377 5.34566 5.74497 5.09309 5.86737 4.79758C5.98978 4.50208 6.0218 4.17692 5.9594 3.86321C5.897 3.54951 5.74298 3.26136 5.51681 3.03519C5.29065 2.80902 5.00249 2.655 4.68879 2.5926C4.37508 2.5302 4.04992 2.56222 3.75442 2.68463C3.45892 2.80703 3.20635 3.01431 3.02865 3.28025C2.85095 3.5462 2.7561 3.85886 2.7561 4.17871C2.75655 4.60748 2.92708 5.01856 3.23026 5.32174C3.53344 5.62493 3.94452 5.79545 4.37329 5.7959ZM4.37329 3.40584C4.52626 3.40584 4.6758 3.4512 4.80299 3.53618C4.93018 3.62117 5.02931 3.74197 5.08785 3.88329C5.14639 4.02462 5.16171 4.18013 5.13187 4.33017C5.10202 4.4802 5.02836 4.61801 4.92019 4.72618C4.81202 4.83435 4.67421 4.90801 4.52418 4.93785C4.37415 4.96769 4.21864 4.95238 4.07731 4.89384C3.93598 4.8353 3.81519 4.73616 3.7302 4.60897C3.64521 4.48178 3.59985 4.33225 3.59985 4.17927C3.60004 3.9742 3.68159 3.77758 3.82659 3.63258C3.9716 3.48757 4.16822 3.40602 4.37329 3.40584Z" fill="#008CEF"/>
<path d="M8.63672 5.7959C8.95657 5.7959 9.26924 5.70105 9.53518 5.52335C9.80113 5.34566 10.0084 5.09309 10.1308 4.79758C10.2532 4.50208 10.2852 4.17692 10.2228 3.86321C10.1604 3.54951 10.0064 3.26136 9.78024 3.03519C9.55408 2.80902 9.26592 2.655 8.95222 2.5926C8.63851 2.5302 8.31335 2.56222 8.01785 2.68463C7.72235 2.80703 7.46978 3.01431 7.29208 3.28025C7.11438 3.5462 7.01953 3.85886 7.01953 4.17871C7.01998 4.60748 7.1905 5.01856 7.49369 5.32174C7.79687 5.62493 8.20795 5.79545 8.63672 5.7959ZM8.63672 3.40584C8.78969 3.40584 8.93923 3.4512 9.06642 3.53618C9.19361 3.62117 9.29274 3.74197 9.35128 3.88329C9.40982 4.02462 9.42514 4.18013 9.3953 4.33017C9.36545 4.4802 9.29179 4.61801 9.18362 4.72618C9.07546 4.83435 8.93764 4.90801 8.78761 4.93785C8.63758 4.96769 8.48206 4.95238 8.34074 4.89384C8.19941 4.8353 8.07862 4.73616 7.99363 4.60897C7.90864 4.48178 7.86328 4.33225 7.86328 4.17927C7.86347 3.9742 7.94501 3.77758 8.09002 3.63258C8.23503 3.48757 8.43165 3.40602 8.63672 3.40584Z" fill="#008CEF"/>
<path d="M12.9001 5.7959C13.22 5.7959 13.5327 5.70105 13.7986 5.52335C14.0646 5.34566 14.2718 5.09309 14.3942 4.79758C14.5166 4.50208 14.5487 4.17692 14.4863 3.86321C14.4239 3.54951 14.2698 3.26136 14.0437 3.03519C13.8175 2.80902 13.5293 2.655 13.2156 2.5926C12.9019 2.5302 12.5768 2.56222 12.2813 2.68463C11.9858 2.80703 11.7332 3.01431 11.5555 3.28025C11.3778 3.5462 11.283 3.85886 11.283 4.17871C11.2834 4.60748 11.4539 5.01856 11.7571 5.32174C12.0603 5.62493 12.4714 5.79545 12.9001 5.7959ZM12.9001 3.40584C13.0531 3.40584 13.2027 3.4512 13.3298 3.53618C13.457 3.62117 13.5562 3.74197 13.6147 3.88329C13.6732 4.02462 13.6886 4.18013 13.6587 4.33017C13.6289 4.4802 13.5552 4.61801 13.447 4.72618C13.3389 4.83435 13.2011 4.90801 13.051 4.93785C12.901 4.96769 12.7455 4.95238 12.6042 4.89384C12.4628 4.8353 12.342 4.73616 12.2571 4.60897C12.1721 4.48178 12.1267 4.33225 12.1267 4.17927C12.1269 3.9742 12.2084 3.77758 12.3534 3.63258C12.4985 3.48757 12.6951 3.40602 12.9001 3.40584Z" fill="#008CEF"/>
<path d="M19.1953 4.521H32.9015C33.0134 4.521 33.1207 4.47655 33.1999 4.39743C33.279 4.31832 33.3234 4.21101 33.3234 4.09912C33.3234 3.98723 33.279 3.87993 33.1999 3.80081C33.1207 3.72169 33.0134 3.67725 32.9015 3.67725H19.1953C19.0834 3.67725 18.9761 3.72169 18.897 3.80081C18.8179 3.87993 18.7734 3.98723 18.7734 4.09912C18.7734 4.21101 18.8179 4.31832 18.897 4.39743C18.9761 4.47655 19.0834 4.521 19.1953 4.521Z" fill="#008CEF"/>
</g>
</svg>
