<svg width="90" height="106" viewBox="0 0 90 106" fill="none" xmlns="http://www.w3.org/2000/svg">
<circle cx="45" cy="58" r="44.3" stroke="#A5ABB1" stroke-width="1.4"/>
<circle cx="22" cy="15" r="15" fill="#008CEF"/>
<circle cx="55" cy="100" r="6" fill="#008CEF"/>
<path d="M39.1327 69.3585H22.9463V68.7099C22.9463 66.5634 23.799 64.5049 25.3167 62.9871C26.8345 61.4694 28.893 60.6167 31.0395 60.6167C33.1859 60.6167 35.2445 61.4694 36.7622 62.9871C38.28 64.5049 39.1327 66.5634 39.1327 68.7099V69.3585ZM24.2741 68.0612H37.8049C37.641 66.3807 36.8574 64.8214 35.6069 63.6869C34.3563 62.5524 32.7283 61.9239 31.0398 61.9239C29.3513 61.9239 27.7233 62.5524 26.4727 63.6869C25.2222 64.8214 24.4386 66.3807 24.2747 68.0612H24.2741Z" fill="#A5ABB1"/>
<path d="M31.0477 75.4584C29.2594 75.4557 27.5451 74.744 26.2806 73.4795C25.0161 72.215 24.3045 70.5008 24.3018 68.7125H25.5991C25.5991 70.1559 26.1725 71.5402 27.1931 72.5609C28.2138 73.5815 29.5981 74.1549 31.0415 74.1549C32.485 74.1549 33.8693 73.5815 34.89 72.5609C35.9106 71.5402 36.484 70.1559 36.484 68.7125H37.7813C37.7813 70.4995 37.0723 72.2135 35.8098 73.4782C34.5474 74.743 32.8347 75.4551 31.0477 75.4584Z" fill="#008CEF"/>
<path d="M31.0481 72.6251C30.01 72.6239 29.0149 72.211 28.2809 71.477C27.5469 70.743 27.134 69.7479 27.1328 68.7098H28.4301C28.4301 69.4018 28.705 70.0653 29.1942 70.5546C29.6835 71.0438 30.3471 71.3187 31.039 71.3187C31.7309 71.3187 32.3945 71.0438 32.8837 70.5546C33.373 70.0653 33.6478 69.4018 33.6478 68.7098H34.9451C34.9464 69.7454 34.5367 70.7393 33.8061 71.4732C33.0756 72.2072 32.0837 72.6215 31.0481 72.6251Z" fill="#008CEF"/>
<path d="M42.9785 46.6213H39.9883V45.324H42.9779C43.0622 45.3295 43.1467 45.3176 43.2262 45.2891C43.3057 45.2606 43.3785 45.2161 43.4402 45.1584C43.5018 45.1006 43.5509 45.0308 43.5845 44.9533C43.6181 44.8758 43.6354 44.7922 43.6354 44.7078C43.6354 44.6233 43.6181 44.5398 43.5845 44.4623C43.5509 44.3848 43.5018 44.315 43.4402 44.2572C43.3785 44.1995 43.3057 44.155 43.2262 44.1265C43.1467 44.098 43.0622 44.0861 42.9779 44.0916H39.9883V42.7943H42.9779C43.2351 42.7848 43.4916 42.8273 43.732 42.9192C43.9724 43.0111 44.1919 43.1505 44.3772 43.3291C44.5625 43.5077 44.7099 43.7219 44.8106 43.9588C44.9113 44.1956 44.9632 44.4504 44.9632 44.7078C44.9632 44.9652 44.9113 45.2199 44.8106 45.4568C44.7099 45.6937 44.5625 45.9078 44.3772 46.0864C44.1919 46.2651 43.9724 46.4045 43.732 46.4964C43.4916 46.5883 43.2351 46.6308 42.9779 46.6213H42.9785Z" fill="#A5ABB1"/>
<path d="M54.9603 75.4596C53.9281 75.4558 52.9104 75.216 51.985 74.7585C51.0597 74.3011 50.2512 73.6381 49.6213 72.8203C48.9915 72.0025 48.557 71.0515 48.351 70.04C48.145 69.0285 48.1731 67.9834 48.433 66.9844L49.6874 67.3171C49.4901 68.0668 49.4548 68.8499 49.584 69.6143C49.7132 70.3787 50.0039 71.1068 50.4366 71.7499C50.8694 72.3931 51.4342 72.9367 52.0936 73.3443C52.753 73.752 53.4917 74.0144 54.2605 74.1141C55.0293 74.2137 55.8105 74.1484 56.552 73.9223C57.2935 73.6962 57.9783 73.3147 58.5608 72.8031C59.1432 72.2915 59.6099 71.6616 59.9297 70.9555C60.2495 70.2493 60.4151 69.483 60.4154 68.7078C60.4138 68.236 60.3544 67.7661 60.2384 67.3087L61.4967 66.9941C61.6386 67.5546 61.7111 68.1303 61.7127 68.7085C61.7103 70.4985 60.9981 72.2145 59.7323 73.4801C58.4664 74.7457 56.7503 75.4576 54.9603 75.4596Z" fill="#008CEF"/>
<path d="M54.9604 72.5713C54.2889 72.5692 53.6295 72.3924 53.0471 72.058C52.4647 71.7237 51.9794 71.2435 51.639 70.6646C51.2986 70.0858 51.1149 69.4283 51.1058 68.7568C51.0968 68.0853 51.2628 67.4231 51.5874 66.8353L52.7213 67.4658C52.5062 67.8555 52.3966 68.2945 52.403 68.7395C52.4095 69.1846 52.5319 69.6202 52.7582 70.0035C52.9845 70.3868 53.3068 70.7044 53.6933 70.9251C54.0799 71.1458 54.5173 71.2618 54.9623 71.2618C55.4074 71.2618 55.8448 71.1458 56.2314 70.9251C56.6179 70.7044 56.9402 70.3868 57.1665 70.0035C57.3927 69.6202 57.5152 69.1846 57.5216 68.7395C57.5281 68.2945 57.4184 67.8555 57.2034 67.4658L58.3373 66.8353C58.6617 67.4231 58.8276 68.0853 58.8184 68.7567C58.8093 69.4281 58.6255 70.0855 58.2851 70.6643C57.9448 71.2431 57.4596 71.7233 56.8773 72.0577C56.295 72.392 55.6357 72.569 54.9643 72.5713H54.9604Z" fill="#008CEF"/>
<path d="M62.9835 67.8023H38.3193V66.505H61.5805C61.3027 64.2537 60.4566 62.1102 59.1221 60.276C57.7875 58.4418 56.0083 56.9773 53.9518 56.0202L53.8292 55.9605L54.3935 54.793L54.5174 54.8526C56.8885 55.9569 58.9201 57.6767 60.4008 59.8328C61.8814 61.989 62.757 64.5027 62.9362 67.1121L62.9835 67.8023Z" fill="#A5ABB1"/>
<path d="M29.9311 61.4846H28.6338V58.5586C28.6392 54.5444 29.996 50.6488 32.4855 47.4998L33.245 46.5411L34.2615 47.3467L33.5019 48.3054C31.1936 51.225 29.9355 54.8367 29.9304 58.5586L29.9311 61.4846Z" fill="#A5ABB1"/>
<path d="M40.3854 61.9093C39.7903 61.9059 39.1964 61.8571 38.6087 61.7634C37.7948 61.6704 37.0086 61.4116 36.2986 61.003C35.5887 60.5943 34.97 60.0445 34.4807 59.3874C31.4016 54.9305 35.3026 48.2151 35.4699 47.931L36.5869 48.5906C36.5499 48.6555 32.9408 54.8767 35.5491 58.6499C35.9389 59.1607 36.4289 59.5865 36.989 59.9014C37.5491 60.2162 38.1676 60.4135 38.8066 60.481C40.8446 60.7937 42.3359 60.5459 43.3672 59.7234C44.3674 58.9249 44.9447 57.5413 45.0816 55.6123L46.3789 55.7044C46.2148 58.0103 45.4747 59.7039 44.1793 60.7372C43.0896 61.5576 41.7479 61.9721 40.3854 61.9093Z" fill="#A5ABB1"/>
<path d="M36.7573 48.9105H35.3809V40.5021H36.7573C37.8385 40.5033 38.8751 40.9333 39.6396 41.6978C40.4041 42.4624 40.8341 43.4989 40.8353 44.5801V44.8325C40.8341 45.9137 40.4041 46.9502 39.6396 47.7147C38.8751 48.4793 37.8385 48.9093 36.7573 48.9105ZM36.6782 47.6132H36.7573C37.4945 47.6124 38.2012 47.3191 38.7224 46.7978C39.2436 46.2764 39.5367 45.5696 39.5374 44.8325V44.5801C39.5367 43.8428 39.2435 43.1359 38.7222 42.6146C38.2008 42.0933 37.4939 41.8001 36.7566 41.7994H36.6782V47.6132Z" fill="#008CEF"/>
<path d="M35.4 47.9901C34.5291 47.9901 33.6938 47.6441 33.078 47.0283C32.4622 46.4125 32.1162 45.5772 32.1162 44.7063C32.1162 43.8354 32.4622 43.0002 33.078 42.3843C33.6938 41.7685 34.5291 41.4225 35.4 41.4225C35.6713 41.4244 35.9411 41.4624 36.2024 41.5354L35.8605 42.7873C35.7105 42.7457 35.5557 42.7239 35.4 42.7224C34.8731 42.7224 34.3679 42.9317 33.9953 43.3043C33.6228 43.6768 33.4135 44.1821 33.4135 44.7089C33.4135 45.2358 33.6228 45.741 33.9953 46.1136C34.3679 46.4861 34.8731 46.6954 35.4 46.6954C35.5557 46.6939 35.7105 46.6721 35.8605 46.6305L36.2024 47.8824C35.9409 47.9537 35.671 47.99 35.4 47.9901Z" fill="#008CEF"/>
<path d="M53.6268 56.0236H45.6847C45.0866 56.0236 44.5131 55.786 44.0902 55.3631C43.6673 54.9402 43.4297 54.3666 43.4297 53.7686C43.4297 53.1705 43.6673 52.5969 44.0902 52.174C44.5131 51.7511 45.0866 51.5135 45.6847 51.5135H53.6268C54.2248 51.5135 54.7984 51.7511 55.2213 52.174C55.6442 52.5969 55.8818 53.1705 55.8818 53.7686C55.8818 54.3666 55.6442 54.9402 55.2213 55.3631C54.7984 55.786 54.2248 56.0236 53.6268 56.0236ZM45.6847 52.8108C45.4307 52.8108 45.1871 52.9118 45.0075 53.0914C44.8279 53.271 44.727 53.5146 44.727 53.7686C44.727 54.0226 44.8279 54.2662 45.0075 54.4458C45.1871 54.6254 45.4307 54.7263 45.6847 54.7263H53.6268C53.8808 54.7263 54.1244 54.6254 54.304 54.4458C54.4836 54.2662 54.5845 54.0226 54.5845 53.7686C54.5845 53.5146 54.4836 53.271 54.304 53.0914C54.1244 52.9118 53.8808 52.8108 53.6268 52.8108H45.6847Z" fill="#A5ABB1"/>
<path d="M60.3068 60.4785L59.3721 59.5788L64.9128 53.8182V52.1622H66.2101V54.341L60.3068 60.4785Z" fill="#A5ABB1"/>
<path d="M53.626 51.5135H56.9289V52.8108H53.626V51.5135Z" fill="#A5ABB1"/>
<path d="M68.3517 52.8107H56.0273V41.7837H68.3517V52.8107ZM57.3246 51.5134H67.0544V43.081H57.3246V51.5134Z" fill="#008CEF"/>
<path d="M61.8652 42.4324H63.1625V45.027H61.8652V42.4324Z" fill="#008CEF"/>
</svg>
