<svg fill="none" height="95" viewBox="0 0 98 95" width="98" xmlns="http://www.w3.org/2000/svg" xmlns:xlink="http://www.w3.org/1999/xlink"><clipPath id="a"><path d="m25.3633 42.5818h19.875v19.875h-19.875z"/></clipPath><circle cx="45" cy="50" r="44.3" stroke="#a5abb1" stroke-width="1.4"/><circle cx="83" cy="15" fill="#008cef" r="15"/><circle cx="15" cy="86" fill="#008cef" r="6"/><path d="m63.75 30.5h-37.5c-1.1437 0-2.2406.4544-3.0494 1.2631-.8087.8088-1.2631 1.9057-1.2631 3.0494v30.375c0 1.1437.4544 2.2406 1.2631 3.0494.8088.8088 1.9057 1.2631 3.0494 1.2631h37.5c1.1437 0 2.2406-.4543 3.0494-1.2631s1.2631-1.9057 1.2631-3.0494v-30.375c0-1.1437-.4543-2.2406-1.2631-3.0494-.8088-.8087-1.9057-1.2631-3.0494-1.2631zm-40.6875 4.3296c.0004-.8469.3359-1.6591.933-2.2595.5972-.6004 1.4077-.9401 2.2545-.9451h10.5v3.0815c.0014.2602-.0488.5181-.1477.7588-.0988.2407-.2443.4595-.4282.6437-.1838.1842-.4023.3301-.6428.4294s-.4984.15-.7586.1491h-11.7102zm43.875 30.3408c-.0004.8469-.3359 1.6591-.933 2.2595-.5972.6004-1.4077.9401-2.2545.9451h-37.5c-.8468-.005-1.6573-.3447-2.2545-.9451-.5971-.6004-.9326-1.4126-.933-2.2595v-27.3579h43.875zm0-28.4829h-29.7665c.462-.5561.7115-1.2582.704-1.9811v-3.0814h25.875c.8468.005 1.6573.3447 2.2545.9451.5971.6004.9326 1.4126.933 2.2595z" fill="#a5abb1"/><path d="m26.6988 33.9492c.0438-.0293.0953-.0449.1481-.045l.2673.2671c0 .0528-.0157.1045-.045.1484l.4157.2778-.4157-.2778c-.0293.0439-.0711.0781-.1199.0983s-.1025.0255-.1543.0152-.0994-.0357-.1367-.0731c-.0374-.0373-.0628-.0849-.0731-.1367s-.005-.1055.0152-.1543.0545-.0905.0984-.1199z" fill="#008cef" stroke="#008cef"/><g clip-path="url(#a)" fill="#a5abb1"><path d="m35.3008 59.1443c-4.5663 0-8.2813-3.7149-8.2813-8.2812s3.715-8.2813 8.2813-8.2813 8.2812 3.715 8.2812 8.2813-3.7149 8.2812-8.2812 8.2812zm0-15.7343c-4.1092 0-7.4531 3.3439-7.4531 7.4531s3.3439 7.4531 7.4531 7.4531c4.1091 0 7.4531-3.3439 7.4531-7.4531s-3.344-7.4531-7.4531-7.4531z"/><path d="m35.3008 56.66c-2.2832 0-4.1406-1.8575-4.1406-4.1407 0-2.2831 1.8574-4.1406 4.1406-4.1406 2.2831 0 4.1406 1.8575 4.1406 4.1406 0 2.2832-1.8575 4.1407-4.1406 4.1407zm0-7.4532c-1.8269 0-3.3125 1.4857-3.3125 3.3125 0 1.8269 1.4856 3.3125 3.3125 3.3125 1.8268 0 3.3125-1.4856 3.3125-3.3125 0-1.8268-1.4857-3.3125-3.3125-3.3125z"/><path d="m35.3008 54.1756c-.9134 0-1.6563-.7428-1.6563-1.6563 0-.9134.7429-1.6562 1.6563-1.6562s1.6562.7428 1.6562 1.6562c0 .9135-.7428 1.6563-1.6562 1.6563zm0-2.4844c-.4563 0-.8281.3719-.8281.8281 0 .4563.3718.8282.8281.8282s.8281-.3719.8281-.8282c0-.4562-.3718-.8281-.8281-.8281z"/><path d="m36.8022 46.7224h-3.0019c-.7594 0-1.4551-.414-1.8178-1.079l-.7718-1.4145c-.1093-.2004-.0356-.4521.1656-.5614.1996-.1093.4522-.0356.5615.1656l.7718 1.4144c.217.3992.6352.6468 1.0907.6468h3.0019c.4547 0 .8729-.2476 1.0907-.6476l.7718-1.4144c.1093-.2013.3627-.275.5614-.1657.2013.1094.275.3611.1657.5615l-.7719 1.4145c-.3635.6658-1.0591 1.0798-1.8177 1.0798z"/><path d="m30.3322 62.4568c-.1309 0-.2592-.0612-.3396-.1763-.1308-.1872-.0853-.4456.1019-.5764l.2045-.1433c1.0576-.7412 1.6894-1.9535 1.6894-3.2446 0-.2285.1855-.414.4141-.414.2285 0 .414.1855.414.414 0 1.561-.7635 3.0276-2.0421 3.9229l-.2046.1432c-.0728.0505-.1548.0745-.2376.0745z"/><path d="m40.2695 62.4568c-.082 0-.1648-.024-.2368-.0745l-.2046-.1432c-1.2794-.8953-2.0429-2.3619-2.0429-3.9229 0-.2285.1855-.414.414-.414.2286 0 .4141.1855.4141.414 0 1.2911.6318 2.5034 1.6894 3.2438l.2045.1433c.1872.1308.2327.3892.1019.5763-.0804.116-.2096.1772-.3396.1772z"/><path d="m41.5117 62.4569h-12.4219c-.2285 0-.414-.1856-.414-.4141 0-.2286.1855-.4141.414-.4141h12.4219c.2286 0 .4141.1855.4141.4141 0 .2285-.1855.4141-.4141.4141z"/></g><g fill="#008cef" stroke="#008cef" stroke-width=".6"><rect height=".436361" rx=".218181" width="9.16364" x="51.8574" y="55.4857"/><rect height=".436359" rx=".21818" width="9.16364" x="51.8574" y="58.1039"/><rect height=".436363" rx=".218182" width="9.16364" x="51.8574" y="60.722"/></g></svg>