<svg width="105" height="96" viewBox="0 0 105 96" fill="none" xmlns="http://www.w3.org/2000/svg">
<circle cx="45" cy="51" r="44.3" stroke="#A5ABB1" stroke-width="1.4"/>
<circle cx="90" cy="75" r="15" fill="#008CEF"/>
<circle cx="41" cy="6" r="6" fill="#008CEF"/>
<path d="M60.4333 41.575C60.1823 41.1917 60.0599 40.7384 60.084 40.2808L60.1938 38.2862C60.2286 37.6533 60.0783 37.024 59.7612 36.4752C59.4442 35.9264 58.9741 35.4818 58.4085 35.1958L56.6432 34.3026C56.2358 34.0975 55.9053 33.7666 55.7008 33.3589L54.8091 31.5912C54.5239 31.0255 54.0799 30.5553 53.5316 30.2379C52.9833 29.9206 52.3544 29.7699 51.7218 29.8043L49.7306 29.9141C49.2739 29.9379 48.8216 29.8151 48.4397 29.5637L46.7928 28.4762C46.261 28.1245 45.6375 27.937 44.9998 27.937C44.3622 27.937 43.7387 28.1245 43.2069 28.4762L41.5599 29.5637C41.1783 29.8152 40.7262 29.9379 40.2698 29.9138L38.2777 29.8041C37.6451 29.7693 37.0161 29.9198 36.4677 30.2371C35.9194 30.5545 35.4755 31.0249 35.1906 31.5907L34.2988 33.3586C34.0944 33.7663 33.764 34.0972 33.3568 34.3025L31.5913 35.1956C31.026 35.482 30.5563 35.9267 30.2396 36.4756C29.9228 37.0244 29.7727 37.6536 29.8076 38.2863L29.9173 40.2807C29.9415 40.7383 29.8191 41.1917 29.568 41.575L28.4818 43.2246C28.1305 43.7575 27.9434 44.3817 27.9434 45.02C27.9434 45.6582 28.1305 46.2824 28.4818 46.8153L29.5676 48.4646C29.8185 48.8478 29.9409 49.3009 29.9169 49.7584L29.8071 51.7532C29.7723 52.3859 29.9225 53.0151 30.2393 53.5639C30.5561 54.1127 31.0259 54.5575 31.5912 54.8438L33.3564 55.7366C33.7638 55.9417 34.0943 56.2727 34.2988 56.6804L35.1905 58.4483C35.2272 58.5212 35.2663 58.5922 35.3079 58.6612L29.6381 67.6866C29.5827 67.7746 29.5529 67.8763 29.5519 67.9803C29.5509 68.0843 29.5787 68.1865 29.6323 68.2756C29.6859 68.3648 29.7631 68.4373 29.8554 68.4852C29.9478 68.533 30.0516 68.5544 30.1553 68.5468L36.1579 68.1087L38.3687 73.7063C38.4069 73.8031 38.4712 73.8873 38.5544 73.9497C38.6376 74.0121 38.7364 74.0503 38.84 74.0599C38.8574 74.0614 38.8748 74.0622 38.892 74.0622C38.9872 74.0622 39.0808 74.038 39.1641 73.9919C39.2473 73.9459 39.3176 73.8795 39.3682 73.7989L45.0005 64.8339L50.6328 73.7992C50.6834 73.8798 50.7537 73.9463 50.8369 73.9923C50.9202 74.0384 51.0138 74.0625 51.109 74.0626C51.1262 74.0626 51.1436 74.0617 51.161 74.0602C51.2646 74.0506 51.3634 74.0125 51.4466 73.9501C51.5298 73.8877 51.5941 73.8034 51.6323 73.7067L53.8431 68.1087L59.8457 68.5468C59.9494 68.5544 60.0532 68.533 60.1456 68.4852C60.2379 68.4373 60.3151 68.3648 60.3687 68.2756C60.4223 68.1865 60.4501 68.0843 60.4491 67.9803C60.4481 67.8763 60.4183 67.7746 60.3629 67.6866L54.6931 58.6614C54.7347 58.5923 54.7738 58.5214 54.8104 58.4487L55.7022 56.6806C55.9066 56.2729 56.237 55.942 56.6443 55.7369L58.4102 54.8438C58.9755 54.5574 59.4451 54.1127 59.7618 53.5639C60.0785 53.015 60.2287 52.3859 60.1938 51.7532L60.084 49.7585C60.06 49.301 60.1823 48.8479 60.4333 48.4647L61.5193 46.8148C61.8705 46.2819 62.0576 45.6577 62.0576 45.0195C62.0576 44.3813 61.8705 43.7571 61.5193 43.2242L60.4333 41.575ZM39.0069 72.2598L37.0524 67.311C37.0084 67.1995 36.9299 67.1051 36.8284 67.0413C36.727 66.9776 36.6078 66.9479 36.4883 66.9566L31.182 67.3439L36.0837 59.5415C36.7063 60.032 37.4865 60.2787 38.278 60.2352L40.2691 60.1252C40.7257 60.1016 41.178 60.2244 41.56 60.4757L42.7607 61.2685L44.3363 63.7765L39.0069 72.2598ZM58.8193 67.3439L53.513 66.9563C53.3935 66.9476 53.2743 66.9773 53.1729 67.041C53.0714 67.1048 52.9929 67.1993 52.9489 67.3107L50.9941 72.2598L44.5965 62.0763C45.367 62.1767 46.1478 61.9944 46.7942 61.5633L48.4414 60.4758C48.8231 60.2247 49.275 60.1019 49.7313 60.1255L51.7233 60.2355C52.5148 60.2791 53.295 60.0324 53.9175 59.5417L58.8193 67.3439ZM60.5797 46.1964L59.4939 47.8458C59.1108 48.4305 58.9241 49.1222 58.9609 49.8202L59.0707 51.8151C59.0936 52.2296 58.9952 52.6418 58.7878 53.0014C58.5803 53.361 58.2726 53.6524 57.9023 53.8401L56.1369 54.733C55.5148 55.0462 55.0102 55.5515 54.6979 56.174L53.8061 57.9424C53.6197 58.3129 53.3292 58.621 52.9702 58.8287C52.6112 59.0365 52.1994 59.1349 51.7853 59.1119L49.7929 59.002C49.0955 58.9656 48.4048 59.1531 47.8214 59.5371L46.1743 60.6246C45.8263 60.855 45.4181 60.9779 45.0006 60.9779C44.5832 60.9779 44.175 60.855 43.8269 60.6246L42.1802 59.5371C41.6457 59.1854 41.02 58.9978 40.3802 58.9972C40.3228 58.9972 40.2651 58.9987 40.2076 59.0019L38.216 59.1118C37.8018 59.1347 37.39 59.0362 37.0309 58.8284C36.6719 58.6206 36.3814 58.3126 36.1949 57.942L35.3032 56.1739C34.9909 55.5513 34.4863 55.046 33.8641 54.7328L32.0992 53.8407C31.7288 53.6531 31.4211 53.3617 31.2136 53.0021C31.0061 52.6425 30.9077 52.2303 30.9305 51.8157L31.0403 49.8209C31.077 49.1228 30.8903 48.4312 30.5073 47.8464L29.4215 46.1965C29.1915 45.8472 29.0689 45.4382 29.0689 45.02C29.0689 44.6017 29.1915 44.1927 29.4215 43.8434L30.5073 42.1939C30.8905 41.6089 31.0772 40.9171 31.0403 40.2188L30.9305 38.2242C30.9076 37.8097 31.006 37.3975 31.2134 37.0379C31.4209 36.6783 31.7286 36.3869 32.0989 36.1992L33.8644 35.3063C34.4864 34.9932 34.991 34.4879 35.3033 33.8654L36.1951 32.0973C36.3815 31.7267 36.6721 31.4187 37.031 31.2109C37.39 31.0032 37.8019 30.9047 38.216 30.9276L40.2083 31.0372C40.9056 31.0733 41.5963 30.8859 42.1798 30.5023L43.8267 29.4148C44.1746 29.1846 44.5826 29.0619 44.9998 29.0619C45.417 29.0619 45.825 29.1846 46.1729 29.4148L47.8197 30.5023C48.4032 30.8865 49.0943 31.074 49.792 31.0375L51.7836 30.9278C52.1977 30.9051 52.6095 31.0036 52.9685 31.2114C53.3275 31.4192 53.618 31.7272 53.8046 32.0976L54.6963 33.8655C55.0086 34.488 55.5132 34.9932 56.1353 35.3063L57.9005 36.1997C58.2711 36.3871 58.579 36.6785 58.7868 37.0381C58.9945 37.3977 59.093 37.81 59.0702 38.2247L58.9607 40.2188C58.924 40.9169 59.1106 41.6085 59.4937 42.1933L60.5795 43.8427C60.8097 44.1921 60.9323 44.6012 60.9323 45.0196C60.9323 45.4379 60.8097 45.8471 60.5795 46.1964H60.5797Z" fill="#008CEF"/>
<path d="M45 33.0492C38.4094 33.0492 33.0469 38.4189 33.0469 45.019C33.0469 51.6191 38.4094 56.9888 45 56.9888C51.5906 56.9888 56.9531 51.6188 56.9531 45.0188C56.9531 38.4188 51.5906 33.0492 45 33.0492ZM45 55.8638C39.0293 55.8638 34.1719 50.9988 34.1719 45.019C34.1719 39.0392 39.0293 34.1742 45 34.1742C50.9707 34.1742 55.8281 39.0392 55.8281 45.0188C55.8281 50.9985 50.9707 55.8638 45 55.8638Z" fill="#A5ABB1"/>
<path d="M51.1061 42.6498L47.2361 42.0866L45.5054 38.5743C45.459 38.4801 45.3871 38.4008 45.298 38.3453C45.2088 38.2898 45.1059 38.2604 45.0008 38.2604C44.8958 38.2604 44.7929 38.2898 44.7037 38.3453C44.6146 38.4008 44.5427 38.4801 44.4963 38.5743L42.7653 42.0866L38.8956 42.6498C38.7917 42.6649 38.6942 42.7088 38.614 42.7764C38.5338 42.844 38.4741 42.9327 38.4416 43.0325C38.4092 43.1323 38.4053 43.2391 38.4304 43.341C38.4555 43.4429 38.5086 43.5357 38.5836 43.609L41.3844 46.343L40.7231 50.2038C40.7054 50.3073 40.717 50.4136 40.7566 50.5109C40.7962 50.6081 40.8622 50.6923 40.9471 50.754C41.0321 50.8156 41.1326 50.8523 41.2373 50.8598C41.342 50.8673 41.4467 50.8454 41.5396 50.7965L45.0008 48.9742L48.4618 50.7964C48.5547 50.8453 48.6594 50.8672 48.7641 50.8597C48.8688 50.8522 48.9693 50.8155 49.0542 50.7539C49.1392 50.6922 49.2052 50.608 49.2448 50.5108C49.2844 50.4136 49.296 50.3073 49.2783 50.2038L48.6173 46.343L51.418 43.609C51.4931 43.5357 51.5462 43.4429 51.5713 43.341C51.5964 43.2391 51.5925 43.1323 51.56 43.0325C51.5276 42.9327 51.4679 42.844 51.3877 42.7764C51.3075 42.7088 51.2099 42.6649 51.1061 42.6498ZM47.62 45.7442C47.5548 45.8079 47.5061 45.8864 47.478 45.9731C47.4498 46.0597 47.4432 46.1519 47.4586 46.2417L47.977 49.2699L45.2633 47.8406C45.1826 47.798 45.0926 47.7757 45.0013 47.7757C44.91 47.7757 44.8201 47.798 44.7393 47.8406L42.0249 49.2697L42.5436 46.2416C42.559 46.1518 42.5523 46.0596 42.5242 45.9729C42.4961 45.8862 42.4473 45.8077 42.3821 45.744L40.1845 43.5989L43.2205 43.1571C43.3108 43.144 43.3965 43.1091 43.4703 43.0554C43.5441 43.0018 43.6038 42.931 43.6441 42.8491L45.0008 40.0955L46.3578 42.8493C46.3981 42.9311 46.4577 43.0019 46.5315 43.0556C46.6053 43.1092 46.6911 43.1441 46.7813 43.1573L49.8176 43.5991L47.62 45.7442Z" fill="#008CEF"/>
<path d="M43.1973 36.851C43.235 36.851 43.2727 36.8472 43.3098 36.8397C43.4512 36.8109 43.5962 36.7855 43.7405 36.764C43.8881 36.7419 44.0209 36.6622 44.1096 36.5423C44.1984 36.4223 44.2358 36.2721 44.2138 36.1245C44.1918 35.977 44.112 35.8442 43.9921 35.7554C43.8721 35.6667 43.7219 35.6292 43.5743 35.6513C43.4108 35.6757 43.2462 35.7046 43.0863 35.737C42.9495 35.7646 42.8278 35.842 42.7449 35.9542C42.6619 36.0664 42.6237 36.2055 42.6375 36.3443C42.6514 36.4832 42.7164 36.6119 42.8199 36.7056C42.9233 36.7992 43.0579 36.851 43.1974 36.851H43.1973Z" fill="#A5ABB1"/>
<path d="M41.6856 37.3435C41.8218 37.2845 41.9292 37.1739 41.9843 37.0359C42.0393 36.8979 42.0375 36.7438 41.9794 36.6071C41.9212 36.4705 41.8113 36.3624 41.6737 36.3064C41.5361 36.2504 41.382 36.2512 41.2449 36.3084C39.5114 37.044 38.0329 38.274 36.9942 39.8448C35.9555 41.4155 35.4025 43.2575 35.4043 45.1406C35.4043 45.2898 35.4636 45.4329 35.5691 45.5384C35.6745 45.6439 35.8176 45.7031 35.9668 45.7031C36.116 45.7031 36.2591 45.6439 36.3645 45.5384C36.47 45.4329 36.5293 45.2898 36.5293 45.1406C36.5277 43.4782 37.0159 41.8521 37.9329 40.4654C38.8499 39.0787 40.1551 37.9929 41.6856 37.3435Z" fill="#A5ABB1"/>
</svg>
