<svg width="104" height="94" viewBox="0 0 104 94" fill="none" xmlns="http://www.w3.org/2000/svg">
<circle cx="51" cy="45" r="44.3" stroke="#A5ABB1" stroke-width="1.4"/>
<circle cx="89" cy="79" r="15" fill="#008CEF"/>
<circle cx="6" cy="50" r="6" fill="#008CEF"/>
<path d="M39.3242 37.774C39.239 37.7755 39.1543 37.7602 39.0751 37.729C38.9958 37.6977 38.9235 37.6512 38.8622 37.592C38.7384 37.4725 38.6672 37.3087 38.6642 37.1367C38.6612 36.9647 38.7266 36.7985 38.8461 36.6747C38.9656 36.5509 39.1294 36.4797 39.3015 36.4767C42.4842 36.4411 45.6601 36.1723 48.8035 35.6724C48.8593 35.6607 48.9165 35.6568 48.9734 35.6607C49.7614 35.7024 50.5258 35.9434 51.1951 36.3612C51.3056 36.4415 51.3879 36.5547 51.4304 36.6845C51.4728 36.8144 51.4732 36.9543 51.4314 37.0844C51.3896 37.2144 51.3078 37.328 51.1977 37.4088C51.0876 37.4897 50.9548 37.5337 50.8182 37.5346C50.6654 37.5346 50.5173 37.4822 50.3985 37.3861C49.9613 37.1355 49.4715 36.9904 48.9683 36.9625C45.7827 37.463 42.5654 37.7342 39.341 37.774H39.3242Z" fill="#A5ABB1"/>
<path d="M63.0521 53.2054C62.4987 53.2061 61.9593 53.0312 61.5116 52.7059L61.3721 52.6093C61.354 52.5969 61.3235 52.5723 61.295 52.5444L53.6597 47.0458C53.5884 46.9972 53.5276 46.9348 53.4807 46.8623C53.4338 46.7898 53.4019 46.7087 53.3868 46.6238C53.3717 46.5388 53.3736 46.4517 53.3926 46.3675C53.4116 46.2833 53.4472 46.2037 53.4973 46.1334C53.5474 46.0632 53.611 46.0036 53.6844 45.9582C53.7579 45.9129 53.8396 45.8826 53.9249 45.8692C54.0101 45.8559 54.0972 45.8596 54.181 45.8803C54.2648 45.901 54.3436 45.9383 54.4128 45.9898L54.9317 46.3595L62.0766 51.5118C62.098 51.5271 62.1183 51.5438 62.1376 51.5617L62.2614 51.648C62.5428 51.8496 62.8908 51.9356 63.2337 51.8882C63.5766 51.8407 63.8882 51.6635 64.1043 51.393C64.2368 51.2258 64.3271 51.0291 64.3677 50.8195C64.4082 50.61 64.3977 50.3938 64.3371 50.1892C64.2643 49.9314 64.1136 49.7024 63.9058 49.5334L53.6934 41.2132C49.7827 43.2888 47.0124 42.2212 45.6898 41.376C45.4712 41.2337 45.2937 41.0366 45.1751 40.8044C45.0564 40.5722 45.0007 40.3129 45.0135 40.0524C45.0263 39.7919 45.1072 39.5393 45.248 39.3199C45.3889 39.1004 45.5848 38.9216 45.8163 38.8015L51.6619 35.6971C52.035 35.5019 52.4431 35.3825 52.8625 35.3457C53.282 35.309 53.7046 35.3556 54.106 35.483L57.5639 36.6052C58.582 36.94 59.6861 36.9002 60.6774 36.493L62.1836 35.8761C62.2624 35.8438 62.3469 35.8273 62.4321 35.8276C62.5173 35.8279 62.6016 35.845 62.6802 35.8779C62.7588 35.9107 62.8302 35.9588 62.8902 36.0193C62.9502 36.0797 62.9978 36.1514 63.0301 36.2303C63.0624 36.3091 63.0789 36.3935 63.0786 36.4787C63.0783 36.5639 63.0612 36.6482 63.0283 36.7268C62.9954 36.8054 62.9474 36.8768 62.8869 36.9368C62.8265 36.9969 62.7548 37.0444 62.6759 37.0767L61.1711 37.693C59.8946 38.2184 58.4723 38.2699 57.1611 37.8382L53.7064 36.7167C53.4698 36.6424 53.2208 36.6156 52.9738 36.6379C52.7268 36.6601 52.4866 36.731 52.2671 36.8465L46.4202 39.9515C46.3876 39.9669 46.3599 39.9909 46.3402 40.0211C46.3206 40.0512 46.3096 40.0862 46.3086 40.1221C46.3059 40.1547 46.3122 40.1873 46.3269 40.2165C46.3415 40.2457 46.3639 40.2703 46.3916 40.2875C47.7538 41.158 50.0922 41.7963 53.4398 39.8731C53.5537 39.8076 53.6847 39.7783 53.8156 39.789C53.9465 39.7996 54.071 39.8498 54.1728 39.9327L64.7198 48.5273C65.1334 48.861 65.4342 49.314 65.5812 49.8246C65.6977 50.2266 65.7173 50.6504 65.6384 51.0614C65.5595 51.4723 65.3843 51.8587 65.1272 52.1889C64.8822 52.506 64.5678 52.7625 64.208 52.9387C63.8482 53.115 63.4528 53.2062 63.0521 53.2054Z" fill="#A5ABB1"/>
<path d="M60.3678 56.2119C59.8182 56.2125 59.2819 56.0417 58.8338 55.7235L51.8219 50.7483C51.6849 50.6475 51.5929 50.497 51.5659 50.329C51.5388 50.1611 51.5788 49.9893 51.6772 49.8505C51.7756 49.7118 51.9246 49.6173 52.092 49.5873C52.2595 49.5574 52.432 49.5944 52.5724 49.6904L59.5843 54.6649C59.8785 54.857 60.2355 54.9281 60.5809 54.8631C60.9262 54.7982 61.2331 54.6023 61.4374 54.3165C61.6417 54.0306 61.7276 53.6768 61.6772 53.3291C61.6269 52.9813 61.444 52.6665 61.167 52.4504L54.1784 47.4136C54.0496 47.3094 53.9656 47.1599 53.9435 46.9957C53.9215 46.8315 53.9631 46.6651 54.0598 46.5306C54.1566 46.3961 54.3011 46.3037 54.4638 46.2724C54.6265 46.2411 54.795 46.2732 54.9348 46.3622L61.9252 51.3996C62.3803 51.729 62.7193 52.1941 62.8937 52.7281C63.0681 53.2621 63.0689 53.8376 62.8961 54.3721C62.7232 54.9066 62.3855 55.3726 61.9315 55.7034C61.4774 56.0341 60.9303 56.2126 60.3685 56.2132L60.3678 56.2119Z" fill="#A5ABB1"/>
<path d="M57.3405 58.811C56.8184 58.8108 56.3088 58.6508 55.8804 58.3524L49.5969 54C49.4554 53.902 49.3586 53.7518 49.3278 53.5825C49.2971 53.4132 49.3348 53.2385 49.4328 53.097C49.5308 52.9555 49.6809 52.8588 49.8503 52.828C50.0196 52.7972 50.1942 52.835 50.3357 52.9329L56.6192 57.2854C56.7571 57.3808 56.9126 57.4481 57.0766 57.4835C57.2406 57.5188 57.41 57.5215 57.575 57.4914C57.7401 57.4613 57.8976 57.399 58.0385 57.308C58.1795 57.217 58.3011 57.0991 58.3965 56.961C58.5863 56.6843 58.66 56.3442 58.6018 56.0137C58.5436 55.6832 58.3581 55.3887 58.0851 55.1935L51.8321 50.758C51.7611 50.7094 51.7003 50.6471 51.6536 50.5748C51.6068 50.5025 51.5749 50.4216 51.5597 50.3368C51.5446 50.252 51.5465 50.1651 51.5652 50.081C51.584 49.997 51.6194 49.9175 51.6692 49.8473C51.719 49.777 51.7824 49.7174 51.8555 49.6719C51.9286 49.6264 52.01 49.5959 52.0951 49.5822C52.1801 49.5685 52.267 49.5718 52.3507 49.5921C52.4344 49.6123 52.5133 49.649 52.5826 49.7001L58.8356 54.1355C59.386 54.5289 59.7602 55.1224 59.8777 55.7887C59.9952 56.4549 59.8467 57.1406 59.4641 57.6986C59.273 57.9774 59.0284 58.2156 58.7446 58.3993C58.4608 58.583 58.1434 58.7086 57.8107 58.7688C57.6556 58.7971 57.4982 58.8113 57.3405 58.811Z" fill="#A5ABB1"/>
<path d="M53.634 60.9437C53.1802 60.9415 52.7349 60.8203 52.3426 60.5922L48.8548 58.5813C48.707 58.4947 48.5995 58.3532 48.5557 58.1876C48.5119 58.022 48.5354 57.8458 48.6211 57.6974C48.7067 57.5491 48.8476 57.4407 49.0129 57.3958C49.1782 57.3509 49.3545 57.3732 49.5034 57.4579L52.9906 59.4687C53.2854 59.6351 53.6335 59.6797 53.9607 59.5929C54.288 59.5061 54.5683 59.2949 54.7419 59.0043C54.9068 58.7257 54.9593 58.3947 54.8885 58.0787C54.8178 57.7628 54.6292 57.4858 54.3612 57.3042L49.9049 54.2172C49.8349 54.1687 49.7751 54.1069 49.729 54.0353C49.6829 53.9637 49.6513 53.8837 49.6361 53.7999C49.6209 53.7161 49.6224 53.6301 49.6404 53.5468C49.6584 53.4636 49.6926 53.3847 49.7412 53.3146C49.7897 53.2446 49.8515 53.1848 49.9231 53.1387C49.9947 53.0926 50.0747 53.061 50.1585 53.0458C50.2423 53.0306 50.3283 53.0321 50.4116 53.0501C50.4948 53.0681 50.5737 53.1024 50.6437 53.1509L55.0993 56.2371C55.5516 56.5503 55.8921 56.9996 56.0713 57.5198C56.2504 58.0399 56.2588 58.6037 56.0952 59.1289C55.9316 59.6541 55.6046 60.1134 55.1618 60.4399C54.719 60.7663 54.1835 60.9428 53.6334 60.9437H53.634Z" fill="#A5ABB1"/>
<path d="M46.2893 60.5565C45.7586 60.5573 45.2403 60.3962 44.8037 60.0947C44.367 59.7931 44.0327 59.3656 43.8455 58.869C43.6582 58.3725 43.6269 57.8307 43.7557 57.3159C43.8846 56.8011 44.1674 56.3379 44.5665 55.9881L46.299 54.4702C46.5565 54.2442 46.8559 54.0711 47.1803 53.9608C47.5046 53.8505 47.8476 53.8052 48.1894 53.8274C48.5313 53.8496 48.8655 53.939 49.1728 54.0903C49.4802 54.2417 49.7547 54.4521 49.9807 54.7096C50.2067 54.9671 50.3798 55.2666 50.49 55.591C50.6003 55.9153 50.6455 56.2583 50.6233 56.6002C50.601 56.942 50.5116 57.2762 50.3601 57.5835C50.2087 57.8908 49.9982 58.1653 49.7407 58.3913L48.0082 59.9124C47.5327 60.3291 46.9215 60.5581 46.2893 60.5565ZM48.0192 55.1189C47.7011 55.1181 47.3937 55.2334 47.1546 55.4432L45.4214 56.963C45.2919 57.0766 45.1861 57.2146 45.1099 57.369C45.0338 57.5235 44.9888 57.6915 44.9776 57.8634C44.9663 58.0353 44.9891 58.2077 45.0444 58.3708C45.0998 58.5338 45.1868 58.6844 45.3004 58.8139C45.5298 59.0754 45.8537 59.235 46.2008 59.2577C46.3727 59.269 46.5451 59.2462 46.7082 59.1908C46.8713 59.1354 47.0219 59.0485 47.1513 58.9349L48.8839 57.4138C49.0837 57.2379 49.2253 57.0053 49.2897 56.7469C49.3541 56.4886 49.3383 56.2168 49.2444 55.9676C49.1506 55.7185 48.983 55.5038 48.7642 55.3522C48.5453 55.2006 48.2855 55.1192 48.0192 55.1189Z" fill="#A5ABB1"/>
<path d="M42.3621 58.7896C42.3044 58.7896 42.2467 58.7896 42.189 58.7844C41.8469 58.763 41.5124 58.674 41.2049 58.5226C40.8974 58.3712 40.6229 58.1603 40.3974 57.9022C40.1683 57.6447 39.9923 57.3445 39.8795 57.0188C39.7667 56.693 39.7193 56.3483 39.7401 56.0042C39.7609 55.6601 39.8494 55.3236 40.0006 55.0138C40.1518 54.704 40.3627 54.4272 40.6212 54.1991L43.5154 51.6583C43.7729 51.4323 44.0724 51.2592 44.3967 51.1489C44.7211 51.0386 45.064 50.9933 45.4059 51.0155C45.7478 51.0377 46.0819 51.1271 46.3893 51.2784C46.6966 51.4298 46.9711 51.6402 47.1972 51.8977L46.7282 52.3472L47.2153 51.9191C47.4414 52.1765 47.6146 52.476 47.725 52.8003C47.8353 53.1247 47.8807 53.4677 47.8584 53.8096C47.8362 54.1515 47.7468 54.4856 47.5954 54.793C47.444 55.1003 47.2335 55.3749 46.976 55.6008L44.0791 58.1416C43.6052 58.5601 42.9944 58.7906 42.3621 58.7896ZM45.2324 52.307C44.9147 52.3061 44.6076 52.4215 44.3691 52.6313L41.4748 55.1721C41.281 55.347 41.143 55.5751 41.0778 55.8279C41.0127 56.0807 41.0233 56.3471 41.1084 56.5939C41.1935 56.8407 41.3494 57.057 41.5565 57.216C41.7636 57.3749 42.0129 57.4694 42.2733 57.4878C42.4453 57.4996 42.6179 57.477 42.7811 57.4213C42.9442 57.3656 43.0946 57.2779 43.2235 57.1634L46.1178 54.6227C46.2473 54.5091 46.3532 54.371 46.4293 54.2165C46.5055 54.062 46.5504 53.894 46.5616 53.722C46.5728 53.5501 46.5501 53.3777 46.4946 53.2146C46.4392 53.0515 46.3521 52.9009 46.2385 52.7714L46.2197 52.75C46.1065 52.621 45.9689 52.5157 45.8148 52.4401C45.6607 52.3645 45.4932 52.3202 45.3219 52.3096C45.2914 52.3083 45.261 52.3076 45.2318 52.3076L45.2324 52.307Z" fill="#A5ABB1"/>
<path d="M39.0898 56.4084C39.0327 56.4084 38.975 56.4085 38.9166 56.4033C38.5745 56.3818 38.2401 56.2929 37.9326 56.1414C37.6251 55.99 37.3506 55.7792 37.1251 55.5211L37.0544 55.4368C36.5984 54.9167 36.3677 54.2369 36.4128 53.5467C36.4579 52.8566 36.7752 52.2126 37.295 51.7563L40.6505 48.8108C40.9079 48.5847 41.2073 48.4115 41.5317 48.3012C41.8561 48.1909 42.199 48.1455 42.5409 48.1677C42.8828 48.19 43.217 48.2793 43.5243 48.4307C43.8317 48.5822 44.1062 48.7926 44.3322 49.0502L44.4055 49.1339C44.8616 49.6538 45.0925 50.3337 45.0473 51.0239C45.0022 51.7141 44.6848 52.3581 44.1648 52.8143L40.8094 55.7598C40.3348 56.179 39.723 56.4098 39.0898 56.4084ZM42.3674 49.4601C42.0497 49.4593 41.7427 49.5747 41.5041 49.7845L38.1486 52.73C37.8869 52.9596 37.7271 53.2837 37.7044 53.6311C37.6816 53.9785 37.7978 54.3207 38.0273 54.5825L38.1006 54.6662C38.3303 54.9272 38.6543 55.0864 39.0012 55.1087C39.3482 55.1311 39.6899 55.0149 39.9512 54.7855L43.3067 51.84C43.4362 51.7264 43.542 51.5884 43.6182 51.4339C43.6943 51.2793 43.7393 51.1113 43.7505 50.9394C43.7617 50.7675 43.7389 50.595 43.6835 50.4319C43.628 50.2688 43.541 50.1182 43.4273 49.9888L43.3553 49.9064C43.242 49.7769 43.1042 49.6711 42.9498 49.5951C42.7954 49.5192 42.6274 49.4746 42.4557 49.464C42.4252 49.4614 42.3966 49.4601 42.3674 49.4601Z" fill="#A5ABB1"/>
<path d="M36.2695 53.5213C36.2124 53.5213 36.154 53.5213 36.0963 53.5155C35.5782 53.4829 35.0813 53.2973 34.6686 52.9824C34.2559 52.6674 33.9458 52.2372 33.7775 51.746C33.6092 51.2549 33.5903 50.7249 33.7232 50.223C33.8561 49.7211 34.1347 49.2699 34.524 48.9263L36.625 47.0822C36.8824 46.8561 37.1818 46.6829 37.5062 46.5726C37.8306 46.4622 38.1735 46.4169 38.5154 46.4391C38.8573 46.4613 39.1915 46.5507 39.4989 46.7021C39.8062 46.8535 40.0807 47.064 40.3067 47.3215L40.3294 47.3475C40.5555 47.6049 40.7287 47.9044 40.839 48.2287C40.9494 48.5531 40.9947 48.896 40.9725 49.238C40.9503 49.5799 40.8609 49.914 40.7095 50.2214C40.5581 50.5287 40.3476 50.8032 40.09 51.0292L37.9891 52.8733C37.5144 53.2924 36.9027 53.5229 36.2695 53.5213ZM38.3452 47.7308C38.0275 47.73 37.7204 47.8454 37.4818 48.0552L35.3809 49.8993C35.2514 50.0129 35.1455 50.1509 35.0693 50.3054C34.9932 50.46 34.9482 50.628 34.937 50.7999C34.9258 50.9718 34.9486 51.1443 35.0041 51.3074C35.0595 51.4705 35.1465 51.6211 35.2602 51.7505C35.373 51.8841 35.5111 51.9939 35.6666 52.0737C35.8222 52.1534 35.992 52.2015 36.1662 52.2151C36.3405 52.2288 36.5157 52.2077 36.6818 52.1531C36.8478 52.0985 37.0013 52.0115 37.1335 51.8971L39.2345 50.053C39.364 49.9394 39.4698 49.8014 39.546 49.6469C39.6221 49.4923 39.6671 49.3243 39.6783 49.1524C39.6895 48.9805 39.6667 48.808 39.6113 48.6449C39.5558 48.4818 39.4688 48.3312 39.3551 48.2018L39.3324 48.1758C39.2191 48.0461 39.0812 47.9401 38.9267 47.8641C38.7721 47.788 38.604 47.7434 38.4321 47.7328C38.4003 47.7321 38.3711 47.7308 38.3419 47.7308H38.3452Z" fill="#A5ABB1"/>
<path d="M35.093 49.9376C34.9526 49.9378 34.816 49.8923 34.7038 49.8078L32.4874 48.1213C32.4196 48.0698 32.3626 48.0053 32.3197 47.9317C32.2768 47.8581 32.2488 47.7768 32.2374 47.6924C32.2259 47.608 32.2311 47.5221 32.2529 47.4398C32.2746 47.3574 32.3123 47.2801 32.3638 47.2123C32.468 47.0753 32.6223 46.9854 32.7928 46.9622C32.8772 46.9507 32.9631 46.956 33.0454 46.9777C33.1278 46.9994 33.2051 47.0371 33.2729 47.0887L35.4894 48.7752C35.5985 48.8571 35.6791 48.9713 35.7196 49.1016C35.7601 49.232 35.7585 49.3717 35.7149 49.5011C35.6714 49.6304 35.5882 49.7427 35.4771 49.822C35.366 49.9013 35.2328 49.9436 35.0963 49.9427L35.093 49.9376Z" fill="#A5ABB1"/>
<path d="M64.9581 50.6562C64.8298 50.6562 64.7044 50.6181 64.5978 50.5468C64.4911 50.4756 64.408 50.3743 64.3589 50.2558C64.3099 50.1372 64.297 50.0068 64.322 49.881C64.347 49.7552 64.4088 49.6397 64.4995 49.549L68.1391 45.9081C68.2614 45.7899 68.4253 45.7246 68.5953 45.726C68.7654 45.7275 68.9281 45.7957 69.0484 45.916C69.1686 46.0363 69.2368 46.199 69.2383 46.369C69.2398 46.5391 69.1744 46.7029 69.0563 46.8253L65.4167 50.4648C65.3566 50.5253 65.2851 50.5733 65.2064 50.6062C65.1277 50.639 65.0433 50.656 64.9581 50.6562Z" fill="#A5ABB1"/>
<path d="M69.9208 49.3102C69.8098 49.3103 69.7007 49.282 69.6038 49.228C69.507 49.1739 69.4256 49.0959 69.3675 49.0014L61.4475 36.1193C61.3638 35.983 61.3334 35.8206 61.3621 35.6633C61.3909 35.506 61.4767 35.3649 61.6031 35.267L69.4472 29.1917C69.5333 29.125 69.6349 29.0811 69.7424 29.064C69.85 29.0469 69.9601 29.0571 70.0627 29.0937C70.1652 29.1304 70.2569 29.1922 70.3293 29.2736C70.4016 29.3551 70.4523 29.4534 70.4766 29.5595L74.3342 46.39C74.3662 46.5269 74.3528 46.6706 74.2961 46.7993C74.2393 46.928 74.1423 47.0348 74.0196 47.1035L70.2373 49.2291C70.1405 49.2829 70.0315 49.3108 69.9208 49.3102ZM62.8576 35.9351L70.1458 47.7891L72.9616 46.2064L69.4395 30.8386L62.8576 35.9351Z" fill="#008CEF"/>
<path d="M32.0785 49.5406C31.9674 49.5406 31.8582 49.512 31.7613 49.4576L27.9791 47.3352C27.8564 47.2665 27.7593 47.1597 27.7026 47.031C27.6458 46.9023 27.6325 46.7587 27.6645 46.6217L31.5226 29.7932C31.547 29.687 31.5977 29.5887 31.67 29.5073C31.7424 29.4259 31.8341 29.364 31.9366 29.3274C32.0392 29.2907 32.1493 29.2805 32.2569 29.2976C32.3644 29.3148 32.4659 29.3587 32.5521 29.4254L40.3968 35.5C40.5233 35.5979 40.6091 35.739 40.6378 35.8963C40.6666 36.0536 40.6362 36.216 40.5525 36.3523L32.6318 49.2345C32.5734 49.3285 32.4919 49.4059 32.395 49.4595C32.2982 49.5131 32.1892 49.541 32.0785 49.5406ZM29.0377 46.4414L31.8535 48.0234L39.1417 36.1687L32.5598 31.0723L29.0377 46.4414Z" fill="#008CEF"/>
</svg>
