<svg width="104" height="94" fill="none" xmlns="http://www.w3.org/2000/svg"><circle cx="51" cy="45" r="44.3" stroke="#A5ABB1" stroke-width="1.4"/><circle cx="89" cy="79" r="15" fill="#008CEF"/><circle cx="6" cy="50" r="6" fill="#008CEF"/><path d="M39.324 37.774a.649.649 0 11-.023-1.297 65.14 65.14 0 009.502-.805c.056-.011.114-.015.17-.011a4.66 4.66 0 012.222.7.65.65 0 11-.797 1.025 3.236 3.236 0 00-1.43-.424 67.336 67.336 0 01-9.627.812h-.017z" fill="#A5ABB1"/><path d="M63.052 53.205a2.615 2.615 0 01-1.54-.5l-.14-.096a.645.645 0 01-.077-.065l-7.635-5.498a.648.648 0 11.753-1.056l.519.37 7.145 5.152a.62.62 0 01.06.05l.124.086a1.352 1.352 0 001.843-.255 1.33 1.33 0 00.233-1.204 1.301 1.301 0 00-.431-.656l-10.213-8.32c-3.91 2.076-6.68 1.008-8.003.163a1.492 1.492 0 01.126-2.575l5.846-3.104a3.192 3.192 0 012.444-.214l3.458 1.122a4.497 4.497 0 003.113-.112l1.507-.617a.65.65 0 01.492 1.2l-1.505.617a5.784 5.784 0 01-4.01.145l-3.455-1.121a1.88 1.88 0 00-1.439.13l-5.847 3.105a.195.195 0 00-.111.17.177.177 0 00.083.166c1.362.87 3.7 1.508 7.048-.415a.648.648 0 01.733.06l10.547 8.594c.413.334.714.787.861 1.298a2.649 2.649 0 01-1.373 3.114c-.36.176-.755.267-1.156.266z" fill="#A5ABB1"/><path d="M60.368 56.212c-.55 0-1.086-.17-1.534-.489l-7.012-4.975a.648.648 0 01.75-1.058l7.012 4.975a1.362 1.362 0 001.583-2.215l-6.989-5.036a.649.649 0 01.757-1.052l6.99 5.038a2.659 2.659 0 01-1.556 4.813l-.001-.001z" fill="#A5ABB1"/><path d="M57.34 58.811c-.522 0-1.031-.16-1.46-.459L49.597 54a.65.65 0 01.739-1.067l6.283 4.352a1.278 1.278 0 001.778-.324 1.282 1.282 0 00-.312-1.767l-6.253-4.436a.649.649 0 11.75-1.058l6.254 4.435a2.584 2.584 0 01-.091 4.264 2.556 2.556 0 01-1.404.412z" fill="#A5ABB1"/><path d="M53.634 60.944a2.594 2.594 0 01-1.291-.352l-3.488-2.01a.648.648 0 01.648-1.124l3.488 2.01a1.297 1.297 0 001.75-.464 1.271 1.271 0 00-.38-1.7l-4.456-3.087a.648.648 0 11.739-1.066l4.455 3.086a2.584 2.584 0 01-1.466 4.707h.001z" fill="#A5ABB1"/><path d="M46.29 60.556a2.607 2.607 0 01-1.724-4.568L46.3 54.47a2.61 2.61 0 113.442 3.921l-1.733 1.521a2.598 2.598 0 01-1.719.645zm1.73-5.437c-.319 0-.626.114-.865.324l-1.734 1.52a1.313 1.313 0 00.78 2.295 1.31 1.31 0 00.95-.323l1.733-1.521a1.311 1.311 0 00-.865-2.295z" fill="#A5ABB1"/><path d="M42.362 58.79c-.058 0-.115 0-.173-.006a2.595 2.595 0 01-1.792-.882 2.618 2.618 0 01.224-3.703l2.894-2.54a2.61 2.61 0 013.682.239l-.469.45.487-.429a2.61 2.61 0 01-.239 3.682l-2.897 2.54a2.588 2.588 0 01-1.717.649zm2.87-6.483c-.317 0-.624.114-.863.324l-2.894 2.541a1.331 1.331 0 00.798 2.316 1.297 1.297 0 00.95-.325l2.895-2.54a1.311 1.311 0 00.12-1.852l-.018-.021a1.301 1.301 0 00-.988-.442v-.001z" fill="#A5ABB1"/><path d="M39.09 56.408c-.057 0-.115 0-.173-.005a2.594 2.594 0 01-1.792-.882l-.07-.084a2.609 2.609 0 01.24-3.68l3.355-2.946a2.607 2.607 0 013.682.24l.074.083a2.608 2.608 0 01-.241 3.68l-3.356 2.946a2.585 2.585 0 01-1.72.648zm3.277-6.948c-.317 0-.624.115-.863.325L38.15 52.73a1.313 1.313 0 00-.122 1.853l.074.083a1.312 1.312 0 001.85.12l3.356-2.946a1.312 1.312 0 00.12-1.851l-.072-.083a1.304 1.304 0 00-.988-.446z" fill="#A5ABB1"/><path d="M36.27 53.521c-.058 0-.116 0-.174-.005a2.626 2.626 0 01-1.572-4.59l2.101-1.844a2.607 2.607 0 013.682.24l.022.025a2.608 2.608 0 01-.239 3.682l-2.1 1.844c-.476.42-1.087.65-1.72.648zm2.075-5.79a1.3 1.3 0 00-.863.324L35.38 49.9a1.313 1.313 0 00-.12 1.852 1.321 1.321 0 001.872.146l2.101-1.844a1.312 1.312 0 00.121-1.851l-.023-.026a1.302 1.302 0 00-.9-.443l-.09-.002h.003z" fill="#A5ABB1"/><path d="M35.093 49.938a.645.645 0 01-.39-.13l-2.216-1.687a.648.648 0 11.786-1.032l2.216 1.686a.65.65 0 01-.393 1.168l-.003-.005zm29.865.718a.648.648 0 01-.459-1.107l3.64-3.64a.649.649 0 01.917.916l-3.64 3.64a.65.65 0 01-.458.191z" fill="#A5ABB1"/><path d="M69.92 49.31a.65.65 0 01-.552-.309l-7.92-12.882a.649.649 0 01.155-.852l7.844-6.075a.648.648 0 011.03.367l3.857 16.831a.649.649 0 01-.314.713l-3.783 2.126a.644.644 0 01-.316.081zm-7.062-13.375l7.288 11.854 2.816-1.583-3.523-15.367-6.581 5.096zM32.078 49.54a.648.648 0 01-.317-.082l-3.782-2.123a.648.648 0 01-.314-.713l3.858-16.829a.65.65 0 011.03-.368l7.844 6.075a.648.648 0 01.156.852l-7.921 12.883a.648.648 0 01-.553.306zm-3.04-3.099l2.816 1.582 7.288-11.854-6.582-5.097-3.522 15.37z" fill="#008CEF"/></svg>