<svg fill="none" height="95" width="98" xmlns="http://www.w3.org/2000/svg"><clipPath id="a"><path d="M25.363 42.582h19.875v19.875H25.363z"/></clipPath><circle cx="45" cy="50" r="44.3" stroke="#a5abb1" stroke-width="1.4"/><circle cx="83" cy="15" fill="#008cef" r="15"/><circle cx="15" cy="86" fill="#008cef" r="6"/><path d="M63.75 30.5h-37.5a4.313 4.313 0 00-4.313 4.313v30.374A4.313 4.313 0 0026.25 69.5h37.5a4.312 4.312 0 004.313-4.313V34.814A4.312 4.312 0 0063.75 30.5zm-40.688 4.33a3.206 3.206 0 013.188-3.205h10.5v3.081a1.969 1.969 0 01-1.977 1.981h-11.71zm43.876 30.34a3.206 3.206 0 01-3.188 3.205h-37.5a3.207 3.207 0 01-3.188-3.205V37.812h43.875zm0-28.483H37.17a3.05 3.05 0 00.704-1.98v-3.082H63.75a3.207 3.207 0 013.188 3.205z" fill="#a5abb1"/><path d="M26.699 33.95a.267.267 0 01.148-.046l.267.267a.268.268 0 01-.045.149l.416.277-.416-.277a.267.267 0 11-.37-.37z" fill="#008cef" stroke="#008cef"/><g clip-path="url(#a)" fill="#a5abb1"><path d="M35.3 59.144c-4.565 0-8.28-3.715-8.28-8.28s3.715-8.282 8.28-8.282 8.282 3.715 8.282 8.281-3.715 8.281-8.281 8.281zm0-15.734c-4.108 0-7.452 3.344-7.452 7.453s3.344 7.453 7.453 7.453 7.453-3.344 7.453-7.453S39.41 43.41 35.3 43.41z"/><path d="M35.3 56.66a4.145 4.145 0 01-4.14-4.14 4.145 4.145 0 014.14-4.141 4.145 4.145 0 014.141 4.14 4.145 4.145 0 01-4.14 4.141zm0-7.453a3.316 3.316 0 00-3.312 3.312 3.316 3.316 0 003.313 3.313 3.316 3.316 0 003.312-3.313 3.316 3.316 0 00-3.312-3.312z"/><path d="M35.3 54.176a1.658 1.658 0 01-1.655-1.657c0-.913.742-1.656 1.656-1.656a1.657 1.657 0 010 3.313zm0-2.485a.83.83 0 00-.827.828c0 .457.372.829.828.829s.828-.372.828-.829a.83.83 0 00-.828-.828zm1.502-4.969H33.8c-.76 0-1.455-.414-1.817-1.079l-.772-1.414a.414.414 0 11.727-.396l.772 1.415c.217.399.635.646 1.09.646h3.002a1.24 1.24 0 001.09-.647l.773-1.415a.414.414 0 01.727.396l-.772 1.415a2.07 2.07 0 01-1.818 1.08zm-6.47 15.735a.413.413 0 01-.238-.753l.205-.143a3.965 3.965 0 001.69-3.245.414.414 0 01.827 0 4.793 4.793 0 01-2.042 3.923l-.204.143a.413.413 0 01-.238.075zm9.938 0a.41.41 0 01-.237-.075l-.205-.143a4.792 4.792 0 01-2.043-3.923.414.414 0 01.828 0c0 1.291.632 2.504 1.69 3.244l.204.143a.414.414 0 01-.237.754z"/><path d="M41.512 62.457H29.09a.414.414 0 010-.828h12.422a.414.414 0 010 .828z"/></g><g fill="#008cef" stroke="#008cef" stroke-width=".6"><rect height=".436" rx=".218" width="9.164" x="51.857" y="55.486"/><rect height=".436" rx=".218" width="9.164" x="51.857" y="58.104"/><rect height=".436" rx=".218" width="9.164" x="51.857" y="60.722"/></g></svg>