<svg width="90" height="106" fill="none" xmlns="http://www.w3.org/2000/svg"><circle cx="45" cy="58" r="44.3" stroke="#A5ABB1" stroke-width="1.4"/><circle cx="22" cy="15" r="15" fill="#008CEF"/><circle cx="55" cy="100" r="6" fill="#008CEF"/><path d="M39.133 69.359H22.946v-.65a8.094 8.094 0 0116.187 0v.65zM24.274 68.06h13.53a6.797 6.797 0 00-13.53 0z" fill="#A5ABB1"/><path d="M31.048 75.458a6.756 6.756 0 01-6.746-6.745h1.297a5.443 5.443 0 0010.885 0h1.297a6.746 6.746 0 01-6.733 6.745z" fill="#008CEF"/><path d="M31.048 72.625a3.92 3.92 0 01-3.915-3.915h1.297a2.61 2.61 0 005.218 0h1.297a3.91 3.91 0 01-3.897 3.915z" fill="#008CEF"/><path d="M42.978 46.621h-2.99v-1.297h2.99a.617.617 0 100-1.232h-2.99v-1.298h2.99a1.914 1.914 0 110 3.827z" fill="#A5ABB1"/><path d="M54.96 75.46a6.77 6.77 0 01-6.527-8.476l1.254.333a5.454 5.454 0 1010.728 1.39 5.771 5.771 0 00-.177-1.398l1.259-.315c.142.56.214 1.136.216 1.715a6.76 6.76 0 01-6.753 6.75z" fill="#008CEF"/><path d="M54.96 72.571a3.867 3.867 0 01-3.373-5.736l1.134.63a2.56 2.56 0 104.482 0l1.134-.63a3.867 3.867 0 01-3.373 5.736h-.004z" fill="#008CEF"/><path d="M62.983 67.802H38.32v-1.297h23.26a13.371 13.371 0 00-7.628-10.485l-.123-.06.565-1.167.123.06a14.63 14.63 0 018.42 12.26l.047.69zm-33.052-6.317h-1.297v-2.926a17.87 17.87 0 013.852-11.06l.759-.958 1.017.806-.76.958A16.569 16.569 0 0029.93 58.56l.001 2.926zm10.454.425a11.709 11.709 0 01-1.776-.147 5.996 5.996 0 01-4.128-2.376c-3.08-4.456.822-11.172.989-11.456l1.117.66c-.037.065-3.646 6.286-1.038 10.059a4.722 4.722 0 003.258 1.831c2.038.313 3.529.065 4.56-.758 1-.798 1.578-2.182 1.715-4.11l1.297.091c-.164 2.306-.904 4-2.2 5.033a5.86 5.86 0 01-3.794 1.172z" fill="#A5ABB1"/><path d="M36.757 48.91h-1.376v-8.408h1.376a4.083 4.083 0 014.078 4.078v.253a4.082 4.082 0 01-4.078 4.078zm-.079-1.297h.08a2.783 2.783 0 002.78-2.78v-.253a2.783 2.783 0 00-2.781-2.78h-.079v5.813z" fill="#008CEF"/><path d="M35.4 47.99a3.284 3.284 0 010-6.568c.271.002.541.04.802.113l-.341 1.252a1.787 1.787 0 00-.461-.065 1.986 1.986 0 100 3.973c.156-.001.31-.023.46-.065l.342 1.252a3.055 3.055 0 01-.802.108z" fill="#008CEF"/><path d="M53.627 56.024h-7.942a2.255 2.255 0 010-4.51h7.942a2.255 2.255 0 010 4.51zm-7.942-3.213a.958.958 0 000 1.915h7.942a.958.958 0 100-1.915h-7.942zm14.622 7.667l-.935-.9 5.54-5.76v-1.656h1.298v2.179l-5.903 6.137z" fill="#A5ABB1"/><path d="M53.626 51.514h3.303v1.297h-3.303v-1.297z" fill="#A5ABB1"/><path d="M68.352 52.81H56.027V41.785h12.325V52.81zm-11.027-1.297h9.73v-8.432h-9.73v8.432z" fill="#008CEF"/><path d="M61.865 42.432h1.297v2.595h-1.297v-2.595z" fill="#008CEF"/></svg>