<svg width="105" height="96" fill="none" xmlns="http://www.w3.org/2000/svg"><circle cx="45" cy="51" r="44.3" stroke="#A5ABB1" stroke-width="1.4"/><circle cx="90" cy="75" r="15" fill="#008CEF"/><circle cx="41" cy="6" r="6" fill="#008CEF"/><path d="M60.433 41.575a2.155 2.155 0 01-.349-1.294l.11-1.995a3.262 3.262 0 00-1.786-3.09l-1.765-.893a2.122 2.122 0 01-.942-.944l-.892-1.768a3.26 3.26 0 00-3.087-1.787l-1.991.11a2.145 2.145 0 01-1.291-.35l-1.647-1.088a3.25 3.25 0 00-3.586 0l-1.647 1.088a2.14 2.14 0 01-1.29.35l-1.992-.11a3.257 3.257 0 00-3.087 1.787l-.892 1.768a2.123 2.123 0 01-.942.944l-1.766.893a3.263 3.263 0 00-1.783 3.09l.11 1.995c.024.457-.099.91-.35 1.294l-1.086 1.65a3.262 3.262 0 000 3.59l1.086 1.65c.25.383.373.836.349 1.293l-.11 1.995a3.263 3.263 0 001.784 3.09l1.765.894c.408.205.738.536.943.943l.892 1.768c.036.073.075.144.117.213l-5.67 9.026a.561.561 0 00.517.86l6.003-.438 2.21 5.597a.562.562 0 001 .093l5.633-8.965 5.632 8.965a.562.562 0 001-.092l2.21-5.598 6.003.438a.563.563 0 00.517-.86l-5.67-9.026c.042-.069.08-.14.117-.212l.892-1.768a2.12 2.12 0 01.942-.944l1.766-.893a3.263 3.263 0 001.784-3.09l-.11-1.995a2.148 2.148 0 01.35-1.294l1.085-1.65a3.262 3.262 0 000-3.59l-1.086-1.65zM39.007 72.26l-1.955-4.949a.562.562 0 00-.564-.354l-5.306.387 4.902-7.802c.622.49 1.402.737 2.194.693l1.991-.11c.457-.023.909.1 1.291.35l1.2.794 1.576 2.508-5.33 8.483zm19.812-4.916l-5.306-.388a.563.563 0 00-.564.355l-1.955 4.949-6.398-10.184c.771.1 1.552-.082 2.198-.513l1.647-1.087a2.145 2.145 0 011.29-.35l1.992.11a3.255 3.255 0 002.194-.694l4.902 7.802zm1.76-21.148l-1.085 1.65a3.287 3.287 0 00-.533 1.974l.11 1.995a2.138 2.138 0 01-1.169 2.025l-1.765.893a3.24 3.24 0 00-1.44 1.441l-.89 1.768a2.13 2.13 0 01-2.022 1.17l-1.992-.11a3.275 3.275 0 00-1.972.535l-1.647 1.088a2.126 2.126 0 01-2.347 0l-1.647-1.088a3.28 3.28 0 00-1.972-.535l-1.992.11a2.131 2.131 0 01-2.021-1.17l-.892-1.768a3.24 3.24 0 00-1.439-1.441L32.1 53.84a2.138 2.138 0 01-1.168-2.025l.11-1.995a3.289 3.289 0 00-.534-1.975l-1.085-1.65a2.14 2.14 0 010-2.353l1.085-1.65c.383-.584.57-1.276.533-1.974l-.11-1.995A2.138 2.138 0 0132.1 36.2l1.765-.893a3.24 3.24 0 001.44-1.44l.891-1.769a2.13 2.13 0 012.021-1.17l1.992.11a3.28 3.28 0 001.972-.535l1.647-1.087a2.126 2.126 0 012.346 0l1.647 1.087a3.275 3.275 0 001.972.536l1.992-.11a2.132 2.132 0 012.02 1.17l.892 1.767a3.239 3.239 0 001.44 1.441l1.764.894a2.138 2.138 0 011.17 2.025l-.11 1.994c-.036.698.15 1.39.534 1.974l1.086 1.65a2.139 2.139 0 010 2.353z" fill="#008CEF"/><path d="M45 33.05c-6.59 0-11.953 5.369-11.953 11.969S38.409 56.989 45 56.989c6.59 0 11.953-5.37 11.953-11.97 0-6.6-5.362-11.97-11.953-11.97zm0 22.814c-5.97 0-10.828-4.865-10.828-10.845S39.029 34.174 45 34.174c5.97 0 10.828 4.865 10.828 10.845S50.971 55.864 45 55.864z" fill="#A5ABB1"/><path d="M51.106 42.65l-3.87-.563-1.73-3.513a.563.563 0 00-1.01 0l-1.73 3.513-3.87.563a.562.562 0 00-.312.959l2.8 2.734-.66 3.86a.563.563 0 00.816.593L45 48.974l3.462 1.822a.563.563 0 00.816-.592l-.66-3.861 2.8-2.734a.562.562 0 00-.312-.96zm-3.486 3.094a.562.562 0 00-.161.498l.518 3.028-2.714-1.43a.561.561 0 00-.524 0l-2.714 1.43.519-3.028a.563.563 0 00-.162-.498l-2.197-2.145 3.035-.442a.562.562 0 00.424-.308l1.357-2.753 1.357 2.753a.563.563 0 00.423.308l3.037.442-2.198 2.145z" fill="#008CEF"/><path d="M43.197 36.851a.568.568 0 00.113-.011c.141-.03.286-.055.43-.076a.563.563 0 00-.166-1.113 9.626 9.626 0 00-.488.086.563.563 0 00.111 1.114zm-1.511.492a.562.562 0 00-.441-1.035 9.585 9.585 0 00-5.84 8.833.563.563 0 001.124 0 8.461 8.461 0 015.157-7.797z" fill="#A5ABB1"/></svg>