<?xml version="1.0" encoding="utf-8"?><svg xmlns="http://www.w3.org/2000/svg" xmlns:xlink="http://www.w3.org/1999/xlink"><symbol fill="none" viewBox="0 0 24 24" id="cloud" xmlns="http://www.w3.org/2000/svg"><path d="M12 4c3.549 0 6.466 2.527 6.809 5.762A5.337 5.337 0 0122 14.667C22 17.612 19.644 20 16.737 20h-10C4.12 20 2 17.851 2 15.2a4.798 4.798 0 013.164-4.529 6.095 6.095 0 01-.006-.271C5.158 6.865 8.22 4 12 4z" stroke="currentColor" stroke-width="1.5"/></symbol><symbol fill="none" viewBox="0 0 24 24" id="envelope" xmlns="http://www.w3.org/2000/svg"><path d="M20.125 4H3.875A1.877 1.877 0 002 5.875v11.25C2 18.159 2.841 19 3.875 19h16.25A1.877 1.877 0 0022 17.125V5.875A1.877 1.877 0 0020.125 4zm0 1.25a.62.62 0 01.24.048L12 12.548l-8.365-7.25a.622.622 0 01.24-.048zm0 12.5H3.875a.625.625 0 01-.625-.625V6.619l8.34 7.228a.625.625 0 00.82 0l8.34-7.228v10.506c0 .345-.28.625-.625.625z" fill="currentColor"/></symbol><symbol fill="none" viewBox="0 0 24 24" id="export" xmlns="http://www.w3.org/2000/svg"><g stroke="currentColor" stroke-linecap="round" stroke-width="1.5"><path d="M12 3c-1.023 0-2.047.118-3.05.353A7.511 7.511 0 003.353 8.95a13.354 13.354 0 000 6.1 7.511 7.511 0 005.597 5.597c2.006.47 4.094.47 6.1 0a7.511 7.511 0 005.597-5.597c.235-1.003.353-2.027.353-3.05"/><path d="M17 3h4m0 0v4.667M21 3l-6 7" stroke-linejoin="round"/></g></symbol><symbol fill="none" viewBox="0 0 24 24" id="globe" xmlns="http://www.w3.org/2000/svg"><path d="M12 21a9 9 0 100-18 9 9 0 000 18z" stroke="currentColor" stroke-width="1.5" stroke-miterlimit="10"/><path d="M3.512 9h16.975M3.514 15h16.974" stroke="currentColor" stroke-width="1.5" stroke-linecap="round" stroke-linejoin="round"/><path d="M12 20.759c2.071 0 3.75-3.922 3.75-8.759S14.071 3.242 12 3.242c-2.071 0-3.75 3.921-3.75 8.758s1.679 8.76 3.75 8.76z" stroke="currentColor" stroke-width="1.5" stroke-miterlimit="10"/></symbol><symbol fill="none" viewBox="0 0 24 24" id="header-search" xmlns="http://www.w3.org/2000/svg"><path d="M3.316 13.781l.73-.171-.73.171zm0-5.457l.73.171-.73-.171zm15.473 0l.73-.171-.73.171zm0 5.457l.73.171-.73-.171zm-5.008 5.008l-.171-.73.171.73zm-5.457 0l-.171.73.171-.73zm0-15.473l-.171-.73.171.73zm5.457 0l.171-.73-.171.73zM20.47 21.53a.75.75 0 101.06-1.06l-1.06 1.06zM4.046 13.61a11.198 11.198 0 010-5.115l-1.46-.342a12.698 12.698 0 000 5.8l1.46-.343zm14.013-5.115a11.196 11.196 0 010 5.115l1.46.342a12.698 12.698 0 000-5.8l-1.46.343zm-4.45 9.564a11.196 11.196 0 01-5.114 0l-.342 1.46c1.907.448 3.892.448 5.8 0l-.343-1.46zM8.496 4.046a11.198 11.198 0 015.115 0l.342-1.46a12.698 12.698 0 00-5.8 0l.343 1.46zm0 14.013a5.97 5.97 0 01-4.45-4.45l-1.46.343a7.47 7.47 0 005.568 5.568l.342-1.46zm5.457 1.46a7.47 7.47 0 005.568-5.567l-1.46-.342a5.97 5.97 0 01-4.45 4.45l.342 1.46zM13.61 4.046a5.97 5.97 0 014.45 4.45l1.46-.343a7.47 7.47 0 00-5.568-5.567l-.342 1.46zm-5.457-1.46a7.47 7.47 0 00-5.567 5.567l1.46.342a5.97 5.97 0 014.45-4.45l-.343-1.46zm8.652 15.28l3.665 3.664 1.06-1.06-3.665-3.665-1.06 1.06z" fill="currentColor"/></symbol><symbol fill="none" viewBox="0 0 24 22" id="menu-icon" xmlns="http://www.w3.org/2000/svg"><path d="M5.71 20.334h16.955m0-9.333H1.332m21.333-9.334h-9.37" stroke="currentColor" stroke-linecap="round" stroke-width="1.5"/></symbol><symbol fill="none" viewBox="0 0 24 24" id="monitor" xmlns="http://www.w3.org/2000/svg"><path d="M3.472 13.554l.72-.208zm0-6.647l-.72-.209zm17.056 0l.72-.209zm0 6.647l-.72-.208zm-3.713 3.453l-.14-.736zm-9.63 0l.14-.736zm0-13.554l-.14-.736zm9.63 0l.14-.736zM3.52 13.721l-.72.209zm16.96 0l.72.209zm0-6.981l-.72.208zm-16.96 0l.72.208zm9.23 11.183a.75.75 0 00-1.5 0zM11.25 21a.75.75 0 001.5 0zm-1.886-.75a.75.75 0 000 1.5zm5.272 1.5a.75.75 0 100-1.5zM19.76 6.948l.049.167 1.44-.417-.048-.167zm.049 6.398l-.048.167 1.44.417.049-.167zm-15.568.167l-.048-.167-1.44.417.048.167zm-.048-6.398l.048-.167-1.44-.417-.049.167zm0 6.231a11.196 11.196 0 010-6.231l-1.44-.417a12.695 12.695 0 000 7.065zm15.616-6.231c.59 2.038.59 4.193 0 6.231l1.44.417c.67-2.31.67-4.755 0-7.065zm-3.133 9.156a25.039 25.039 0 01-9.35 0l-.28 1.473c3.273.623 6.638.623 9.91 0zM7.325 4.19a25.04 25.04 0 019.35 0l.28-1.474a26.54 26.54 0 00-9.91 0zm0 12.08c-1.492-.284-2.68-1.358-3.085-2.758l-1.44.417c.567 1.96 2.215 3.428 4.245 3.814zm9.63 1.473c2.03-.386 3.678-1.854 4.245-3.814l-1.44-.417c-.406 1.4-1.593 2.474-3.085 2.758zm-.28-13.554c1.492.284 2.68 1.358 3.085 2.758l1.44-.417c-.567-1.96-2.215-3.428-4.245-3.814zm-9.63-1.473C5.015 3.103 3.367 4.57 2.8 6.53l1.44.417c.406-1.4 1.593-2.474 3.085-2.758zm4.205 15.206V21h1.5v-3.077zM9.364 21.75h5.272v-1.5H9.364z" fill="currentColor"/></symbol><symbol fill="none" viewBox="0 0 24 24" id="play" xmlns="http://www.w3.org/2000/svg"><g stroke="currentColor" stroke-width="1.5"><path d="M3.688 9.068a7.22 7.22 0 015.38-5.38 12.837 12.837 0 015.864 0 7.22 7.22 0 015.38 5.38 12.839 12.839 0 010 5.864 7.22 7.22 0 01-5.38 5.38 12.839 12.839 0 01-5.864 0 7.22 7.22 0 01-5.38-5.38 12.837 12.837 0 010-5.864z"/><path d="M14.162 10.87c.784.503.784 1.757 0 2.26l-2.647 1.693c-.785.502-1.765-.125-1.765-1.129v-3.388c0-1.004.98-1.631 1.765-1.13z"/></g></symbol><symbol fill="none" viewBox="0 0 24 24" id="search" xmlns="http://www.w3.org/2000/svg"><path d="M3.316 13.781l.73-.171zm0-5.457l.73.171zm15.473 0l.73-.171zm0 5.457l.73.171zm-5.008 5.008l-.171-.73zm-5.457 0l-.171.73zm0-15.473l-.171-.73zm5.457 0l.171-.73zM20.47 21.53a.75.75 0 101.06-1.06zM4.046 13.61a11.198 11.198 0 010-5.115l-1.46-.342a12.698 12.698 0 000 5.8zm14.013-5.115a11.196 11.196 0 010 5.115l1.46.342a12.698 12.698 0 000-5.8zm-4.45 9.564a11.196 11.196 0 01-5.114 0l-.342 1.46c1.907.448 3.892.448 5.8 0zM8.496 4.046a11.198 11.198 0 015.115 0l.342-1.46a12.698 12.698 0 00-5.8 0zm0 14.013a5.97 5.97 0 01-4.45-4.45l-1.46.343a7.47 7.47 0 005.568 5.568zm5.457 1.46a7.47 7.47 0 005.568-5.567l-1.46-.342a5.97 5.97 0 01-4.45 4.45zM13.61 4.047a5.97 5.97 0 014.45 4.45l1.46-.343a7.47 7.47 0 00-5.568-5.567zm-5.457-1.46a7.47 7.47 0 00-5.567 5.567l1.46.342a5.97 5.97 0 014.45-4.45zm8.652 15.28l3.665 3.664 1.06-1.06-3.665-3.665z" fill="currentColor"/></symbol><symbol fill="none" viewBox="0 0 24 24" id="user-plus" xmlns="http://www.w3.org/2000/svg"><g stroke="currentColor" stroke-width="1.5"><path d="M21 12h-4m2 2v-4" stroke-linecap="round"/><path d="M3 19.111c0-2.413 1.697-4.468 4.004-4.848l.208-.035a17.134 17.134 0 015.576 0l.208.035c2.307.38 4.004 2.435 4.004 4.848C17 20.154 16.181 21 15.172 21H4.828C3.818 21 3 20.154 3 19.111zM14.083 6.938c0 2.174-1.828 3.937-4.083 3.937S5.917 9.112 5.917 6.937 7.745 3 10 3s4.083 1.763 4.083 3.938z"/></g></symbol><symbol fill="none" viewBox="0 0 24 24" id="video" xmlns="http://www.w3.org/2000/svg"><g stroke="currentColor" stroke-width="1.5"><path d="M2.944 8.284a4.493 4.493 0 013.323-3.372 14.631 14.631 0 016.924.007c1.641.401 2.945 1.674 3.358 3.302l.025.099a14.963 14.963 0 010 7.36l-.025.099c-.413 1.628-1.717 2.901-3.358 3.302a14.63 14.63 0 01-6.924.007 4.493 4.493 0 01-3.323-3.372l-.062-.274a15.677 15.677 0 010-6.884z"/><path d="M16.663 15.308l.197.066c.051.017.101.037.15.061l1.684.836c1.289.64 2.806-.29 2.806-1.722V9.81c0-1.513-1.675-2.435-2.967-1.633l-1.486.922a1.142 1.142 0 00-.202.16l-.055.054c.363 1.985.32 4.024-.127 5.995z"/></g></symbol></svg>