<?xml version="1.0" encoding="utf-8"?><svg xmlns="http://www.w3.org/2000/svg" xmlns:xlink="http://www.w3.org/1999/xlink"><symbol fill="none" viewBox="0 0 34 34" id="add-header" xmlns="http://www.w3.org/2000/svg"><g fill="currentColor"><path d="M18 5.667h-3a2.886 2.886 0 00-2.88 2.88v1.04H8.37a.434.434 0 00-.436.435v.025l.605 12.534a3.22 3.22 0 003.218 3.073H18.7a4.237 4.237 0 005.566 2.226 4.237 4.237 0 002.226-5.565c-.387-.896-1.065-1.646-1.936-2.081l.484-10.188c0-.241-.193-.435-.411-.435h-3.775V8.57c0-1.622-1.283-2.904-2.855-2.904zm-5.01 2.855a2.03 2.03 0 012.033-2.033h3a2.03 2.03 0 012.034 2.033v1.04H12.99zM25.72 25.315a3.388 3.388 0 01-3.098 2.033 3.421 3.421 0 01-3.218-2.275 3.473 3.473 0 01-.193-1.113 3.398 3.398 0 013.387-3.388c2.42-.024 4.09 2.469 3.122 4.743zm-1.525-14.906l-.46 9.462a4.214 4.214 0 00-5.202 2.928c-.17.653-.218 1.33-.073 1.984h-6.678c-1.258 0-2.323-.992-2.371-2.25l-.581-12.1h3.315v1.428c0 .242.193.436.435.436s.436-.194.436-.436v-1.427h7.041v1.427c0 .242.194.436.436.436a.434.434 0 00.436-.436v-1.427h3.266z"/><path d="M22.597 21.71a.434.434 0 00-.435.435v1.38h-1.38a.434.434 0 00-.435.435c0 .242.193.436.435.436h1.38v1.379c0 .242.193.435.435.435a.434.434 0 00.436-.435v-1.38h1.379a.434.434 0 00.435-.435.434.434 0 00-.435-.435h-1.38v-1.38a.434.434 0 00-.435-.435z"/></g></symbol><symbol fill="none" viewBox="0 0 10 10" id="cancel" xmlns="http://www.w3.org/2000/svg"><clipPath id="ba"><path d="M0 0h10v10H0z"/></clipPath><g clip-path="url(#ba)"><path d="M5.586 5.003L9.873.716a.416.416 0 10-.589-.588L4.997 4.414.711.128a.416.416 0 00-.59.589L4.41 5.002.122 9.29a.416.416 0 00.589.589l4.286-4.287 4.287 4.287a.416.416 0 00.589-.59z" fill="currentColor"/></g></symbol><symbol fill="none" viewBox="0 0 34 34" id="clock-header" xmlns="http://www.w3.org/2000/svg"><g fill="currentColor" stroke="currentColor" stroke-width=".1"><path d="M17 7C11.486 7 7 11.486 7 17s4.486 10 10 10 10-4.486 10-10S22.514 7 17 7zm0 19.333c-5.146 0-9.333-4.187-9.333-9.333S11.854 7.667 17 7.667s9.333 4.187 9.333 9.333-4.187 9.333-9.333 9.333z"/><path d="M17.333 15.674v-3.38a.333.333 0 10-.666 0v3.38a1.332 1.332 0 00-.953.952h-2.38a.333.333 0 100 .667h2.38c.149.573.667 1 1.286 1 .735 0 1.333-.598 1.333-1.333 0-.62-.426-1.137-1-1.286zM17 17.626a.667.667 0 11.001-1.334.667.667 0 01-.001 1.334zM17 10.293a.333.333 0 00.334-.333v-.334a.333.333 0 10-.667 0v.334c0 .184.15.333.333.333zM17 23.627a.333.333 0 00-.333.333v.333a.333.333 0 10.667 0v-.333a.333.333 0 00-.334-.333zM24.333 16.626h-.334a.333.333 0 100 .667h.334a.333.333 0 100-.667zM10 16.626h-.334a.333.333 0 100 .667H10a.333.333 0 100-.667zM21.95 11.538l-.236.236a.333.333 0 10.471.471l.236-.235a.333.333 0 10-.471-.472zM11.815 21.674l-.236.236a.333.333 0 10.471.47l.236-.235a.333.333 0 10-.471-.471zM22.185 21.674a.333.333 0 10-.471.471l.236.236a.332.332 0 00.471 0 .333.333 0 000-.472zM12.05 11.538a.333.333 0 10-.47.472l.235.235a.332.332 0 00.471 0 .333.333 0 000-.47z"/></g></symbol><symbol fill="none" viewBox="0 0 24 24" id="cloud" xmlns="http://www.w3.org/2000/svg"><path d="M12 4c3.549 0 6.466 2.527 6.809 5.762A5.337 5.337 0 0122 14.667C22 17.612 19.644 20 16.737 20h-10C4.12 20 2 17.851 2 15.2a4.798 4.798 0 013.164-4.529 6.095 6.095 0 01-.006-.271C5.158 6.865 8.22 4 12 4z" stroke="currentColor" stroke-width="1.5"/></symbol><symbol fill="none" viewBox="0 0 24 24" id="down-arrow" xmlns="http://www.w3.org/2000/svg"><path d="M20.355 14.587a.645.645 0 00-.644.644v3.835c0 .356-.29.645-.645.645H6.434a.645.645 0 01-.645-.645v-3.835a.645.645 0 00-1.289 0v3.835C4.5 20.133 5.367 21 6.434 21h12.632A1.936 1.936 0 0021 19.066v-3.835a.645.645 0 00-.645-.644z" fill="currentColor" stroke="#fff" stroke-width=".4"/><path d="M16.3 12.552a.645.645 0 00-.912 0l-1.993 1.994V5.145a.645.645 0 00-1.29 0v9.4l-1.993-1.993a.645.645 0 00-.911.912l2.842 2.842a1 1 0 001.415 0l2.842-2.842a.645.645 0 000-.912z" fill="currentColor" stroke="#fff" stroke-width=".4"/></symbol><symbol fill="none" viewBox="0 0 24 24" id="envelope" xmlns="http://www.w3.org/2000/svg"><path d="M20.125 4H3.875A1.877 1.877 0 002 5.875v11.25C2 18.159 2.841 19 3.875 19h16.25A1.877 1.877 0 0022 17.125V5.875A1.877 1.877 0 0020.125 4zm0 1.25a.62.62 0 01.24.048L12 12.548l-8.365-7.25a.622.622 0 01.24-.048zm0 12.5H3.875a.625.625 0 01-.625-.625V6.619l8.34 7.228a.625.625 0 00.82 0l8.34-7.228v10.506c0 .345-.28.625-.625.625z" fill="currentColor"/></symbol><symbol fill="none" viewBox="0 0 24 24" id="export" xmlns="http://www.w3.org/2000/svg"><g stroke="currentColor" stroke-linecap="round" stroke-width="1.5"><path d="M12 3c-1.023 0-2.047.118-3.05.353A7.511 7.511 0 003.353 8.95a13.354 13.354 0 000 6.1 7.511 7.511 0 005.597 5.597c2.006.47 4.094.47 6.1 0a7.511 7.511 0 005.597-5.597c.235-1.003.353-2.027.353-3.05"/><path d="M17 3h4m0 0v4.667M21 3l-6 7" stroke-linejoin="round"/></g></symbol><symbol fill="none" viewBox="0 0 24 24" id="file" xmlns="http://www.w3.org/2000/svg"><path d="M18.858 7.58c-.019 0-.019-.02-.038-.038-.018-.02-.018-.038-.037-.057l-3.229-3.622c-.018-.02-.056-.038-.075-.057-.018 0-.018-.018-.037-.018a.353.353 0 00-.15-.038H7.37A2.13 2.13 0 005.25 5.871V18.88c0 1.164.957 2.121 2.12 2.121h9.386a2.131 2.131 0 002.12-2.121V7.71c0-.038-.018-.094-.018-.132zm-3.21-2.554l2.084 2.347h-2.084V5.026zm2.515 13.834a1.41 1.41 0 01-1.407 1.427H7.37a1.406 1.406 0 01-1.408-1.408V5.852c0-.788.638-1.408 1.408-1.408h7.564v3.267c0 .187.15.356.357.356h2.871V18.86z" fill="currentColor" stroke="currentColor" stroke-width=".3"/><path d="M7.783 8.067h3.135c.188 0 .357-.15.357-.356a.345.345 0 00-.357-.357H7.783a.356.356 0 100 .713zM10.918 16.683H7.783a.356.356 0 100 .713h3.135c.188 0 .357-.15.357-.357a.37.37 0 00-.357-.356zM7.427 10.076c0 .187.15.356.356.356h8.372a.356.356 0 100-.713H7.783a.356.356 0 00-.356.357zM16.155 11.483H7.783a.356.356 0 100 .714h8.372c.188 0 .357-.15.357-.357a.345.345 0 00-.357-.357zM16.155 13.229H7.783a.356.356 0 100 .713h8.372c.188 0 .357-.15.357-.356a.345.345 0 00-.357-.357zM16.155 14.975H7.783a.356.356 0 100 .713h8.372a.356.356 0 100-.713z" fill="currentColor" stroke="currentColor" stroke-width=".3"/></symbol><symbol fill="none" viewBox="0 0 24 24" id="globe" xmlns="http://www.w3.org/2000/svg"><path d="M12 21a9 9 0 100-18 9 9 0 000 18z" stroke="currentColor" stroke-width="1.5" stroke-miterlimit="10"/><path d="M3.512 9h16.975M3.514 15h16.974" stroke="currentColor" stroke-width="1.5" stroke-linecap="round" stroke-linejoin="round"/><path d="M12 20.759c2.071 0 3.75-3.922 3.75-8.759S14.071 3.242 12 3.242c-2.071 0-3.75 3.921-3.75 8.758s1.679 8.76 3.75 8.76z" stroke="currentColor" stroke-width="1.5" stroke-miterlimit="10"/></symbol><symbol fill="none" viewBox="0 0 24 24" id="header-search" xmlns="http://www.w3.org/2000/svg"><path d="M3.316 13.781l.73-.171-.73.171zm0-5.457l.73.171-.73-.171zm15.473 0l.73-.171-.73.171zm0 5.457l.73.171-.73-.171zm-5.008 5.008l-.171-.73.171.73zm-5.457 0l-.171.73.171-.73zm0-15.473l-.171-.73.171.73zm5.457 0l.171-.73-.171.73zM20.47 21.53a.75.75 0 101.06-1.06l-1.06 1.06zM4.046 13.61a11.198 11.198 0 010-5.115l-1.46-.342a12.698 12.698 0 000 5.8l1.46-.343zm14.013-5.115a11.196 11.196 0 010 5.115l1.46.342a12.698 12.698 0 000-5.8l-1.46.343zm-4.45 9.564a11.196 11.196 0 01-5.114 0l-.342 1.46c1.907.448 3.892.448 5.8 0l-.343-1.46zM8.496 4.046a11.198 11.198 0 015.115 0l.342-1.46a12.698 12.698 0 00-5.8 0l.343 1.46zm0 14.013a5.97 5.97 0 01-4.45-4.45l-1.46.343a7.47 7.47 0 005.568 5.568l.342-1.46zm5.457 1.46a7.47 7.47 0 005.568-5.567l-1.46-.342a5.97 5.97 0 01-4.45 4.45l.342 1.46zM13.61 4.046a5.97 5.97 0 014.45 4.45l1.46-.343a7.47 7.47 0 00-5.568-5.567l-.342 1.46zm-5.457-1.46a7.47 7.47 0 00-5.567 5.567l1.46.342a5.97 5.97 0 014.45-4.45l-.343-1.46zm8.652 15.28l3.665 3.664 1.06-1.06-3.665-3.665-1.06 1.06z" fill="currentColor"/></symbol><symbol fill="none" viewBox="0 0 34 34" id="heart-header" xmlns="http://www.w3.org/2000/svg"><clipPath id="ka"><path d="M6.75 6.75h16.5v16.5H6.75z"/></clipPath><g clip-path="url(#ka)"><path d="M18.572 8.17A4.637 4.637 0 0015 9.82a4.574 4.574 0 00-3.571-1.65A4.678 4.678 0 006.75 12.85c0 4.428 7.728 8.751 8.041 8.918a.376.376 0 00.418 0c.067-.036.478-.262 1.082-.638l.09-1.049 4.46-2.534c1.35-1.403 2.409-3.035 2.409-4.697a4.678 4.678 0 00-4.678-4.679zM15 20.932c-1.211-.71-7.415-4.49-7.415-8.083a3.843 3.843 0 013.844-3.843 3.76 3.76 0 013.216 1.733.439.439 0 00.71 0 3.843 3.843 0 017.06 2.11c0 1.598-1.2 3.221-2.648 4.596l1.073.101-4.459 2.534c-.62.407-1.118.702-1.381.852z" fill="currentColor"/></g><g fill="currentColor"><path d="M16.7 22.654c.92 2.153 3.413 3.145 5.566 2.226s3.146-3.412 2.226-5.566c-.387-.895-1.064-1.645-1.935-2.08zm7.018-.34a3.388 3.388 0 01-3.097 2.034 3.421 3.421 0 01-3.218-2.275 3.473 3.473 0 01-.194-1.113 3.398 3.398 0 013.388-3.388c2.42-.024 4.089 2.468 3.121 4.743zm-7.017.34l5.856-5.42c-2.726-1.363-5.396.314-6.026 2.564-.169.654-.118 2.18.17 2.856z"/><path d="M20.597 18.71a.434.434 0 00-.435.435v1.38h-1.38a.434.434 0 00-.435.435c0 .242.193.435.435.435h1.38v1.38c0 .242.193.435.435.435a.434.434 0 00.436-.435v-1.38h1.379a.434.434 0 00.435-.435.434.434 0 00-.435-.436h-1.38v-1.379a.434.434 0 00-.435-.435z"/></g></symbol><symbol fill="none" viewBox="0 0 24 24" id="help" xmlns="http://www.w3.org/2000/svg"><path d="M21 15.182a5.832 5.832 0 00-4.26-5.607C16.582 5.923 13.562 3 9.872 3A6.88 6.88 0 003 9.873c0 1.235.329 2.438.953 3.494l-.928 3.354 3.355-.928c.97.574 2.065.897 3.195.946A5.832 5.832 0 0015.182 21a5.797 5.797 0 002.96-.809l2.833.784-.784-2.833c.53-.895.809-1.913.809-2.96zm-14.454-.53l-2.008.556.555-2.008-.126-.198a5.799 5.799 0 01-.912-3.129 5.825 5.825 0 015.818-5.818 5.825 5.825 0 015.818 5.818 5.825 5.825 0 01-5.818 5.818 5.799 5.799 0 01-3.129-.912l-.198-.126zm12.916 4.81l-1.49-.412-.199.13a4.745 4.745 0 01-2.591.765 4.776 4.776 0 01-4.517-3.245 6.886 6.886 0 006.035-6.035 4.776 4.776 0 013.245 4.517c0 .923-.265 1.82-.766 2.591l-.13.199.413 1.49z" fill="currentColor"/><path d="M9.346 12.527H10.4v1.055H9.346v-1.055zM10.928 8.273c0 .3-.122.576-.344.779l-1.238 1.134v1.287H10.4v-.823l.896-.82a2.112 2.112 0 00-1.423-3.666c-1.163 0-2.11.946-2.11 2.11h1.055a1.056 1.056 0 012.11 0z" fill="currentColor"/></symbol><symbol fill="none" viewBox="0 0 24 22" id="menu-icon" xmlns="http://www.w3.org/2000/svg"><path d="M5.71 20.334h16.955m0-9.333H1.332m21.333-9.334h-9.37" stroke="currentColor" stroke-linecap="round" stroke-width="1.5"/></symbol><symbol fill="none" viewBox="0 0 24 24" id="monitor" xmlns="http://www.w3.org/2000/svg"><path d="M3.472 13.554l.72-.208zm0-6.647l-.72-.209zm17.056 0l.72-.209zm0 6.647l-.72-.208zm-3.713 3.453l-.14-.736zm-9.63 0l.14-.736zm0-13.554l-.14-.736zm9.63 0l.14-.736zM3.52 13.721l-.72.209zm16.96 0l.72.209zm0-6.981l-.72.208zm-16.96 0l.72.208zm9.23 11.183a.75.75 0 00-1.5 0zM11.25 21a.75.75 0 001.5 0zm-1.886-.75a.75.75 0 000 1.5zm5.272 1.5a.75.75 0 100-1.5zM19.76 6.948l.049.167 1.44-.417-.048-.167zm.049 6.398l-.048.167 1.44.417.049-.167zm-15.568.167l-.048-.167-1.44.417.048.167zm-.048-6.398l.048-.167-1.44-.417-.049.167zm0 6.231a11.196 11.196 0 010-6.231l-1.44-.417a12.695 12.695 0 000 7.065zm15.616-6.231c.59 2.038.59 4.193 0 6.231l1.44.417c.67-2.31.67-4.755 0-7.065zm-3.133 9.156a25.039 25.039 0 01-9.35 0l-.28 1.473c3.273.623 6.638.623 9.91 0zM7.325 4.19a25.04 25.04 0 019.35 0l.28-1.474a26.54 26.54 0 00-9.91 0zm0 12.08c-1.492-.284-2.68-1.358-3.085-2.758l-1.44.417c.567 1.96 2.215 3.428 4.245 3.814zm9.63 1.473c2.03-.386 3.678-1.854 4.245-3.814l-1.44-.417c-.406 1.4-1.593 2.474-3.085 2.758zm-.28-13.554c1.492.284 2.68 1.358 3.085 2.758l1.44-.417c-.567-1.96-2.215-3.428-4.245-3.814zm-9.63-1.473C5.015 3.103 3.367 4.57 2.8 6.53l1.44.417c.406-1.4 1.593-2.474 3.085-2.758zm4.205 15.206V21h1.5v-3.077zM9.364 21.75h5.272v-1.5H9.364z" fill="currentColor"/></symbol><symbol fill="none" viewBox="0 0 24 24" id="play" xmlns="http://www.w3.org/2000/svg"><g stroke="currentColor" stroke-width="1.5"><path d="M3.688 9.068a7.22 7.22 0 015.38-5.38 12.837 12.837 0 015.864 0 7.22 7.22 0 015.38 5.38 12.839 12.839 0 010 5.864 7.22 7.22 0 01-5.38 5.38 12.839 12.839 0 01-5.864 0 7.22 7.22 0 01-5.38-5.38 12.837 12.837 0 010-5.864z"/><path d="M14.162 10.87c.784.503.784 1.757 0 2.26l-2.647 1.693c-.785.502-1.765-.125-1.765-1.129v-3.388c0-1.004.98-1.631 1.765-1.13z"/></g></symbol><symbol fill="none" viewBox="0 0 50 50" id="plus" xmlns="http://www.w3.org/2000/svg"><path d="M48.047 23.047H26.953V1.953a1.953 1.953 0 10-3.906 0v21.094H1.953a1.953 1.953 0 100 3.906h21.094v21.094a1.953 1.953 0 103.906 0V26.953h21.094a1.953 1.953 0 100-3.906z" fill="currentColor"/></symbol><symbol fill="none" viewBox="0 0 24 24" id="search" xmlns="http://www.w3.org/2000/svg"><path d="M3.316 13.781l.73-.171zm0-5.457l.73.171zm15.473 0l.73-.171zm0 5.457l.73.171zm-5.008 5.008l-.171-.73zm-5.457 0l-.171.73zm0-15.473l-.171-.73zm5.457 0l.171-.73zM20.47 21.53a.75.75 0 101.06-1.06zM4.046 13.61a11.198 11.198 0 010-5.115l-1.46-.342a12.698 12.698 0 000 5.8zm14.013-5.115a11.196 11.196 0 010 5.115l1.46.342a12.698 12.698 0 000-5.8zm-4.45 9.564a11.196 11.196 0 01-5.114 0l-.342 1.46c1.907.448 3.892.448 5.8 0zM8.496 4.046a11.198 11.198 0 015.115 0l.342-1.46a12.698 12.698 0 00-5.8 0zm0 14.013a5.97 5.97 0 01-4.45-4.45l-1.46.343a7.47 7.47 0 005.568 5.568zm5.457 1.46a7.47 7.47 0 005.568-5.567l-1.46-.342a5.97 5.97 0 01-4.45 4.45zM13.61 4.047a5.97 5.97 0 014.45 4.45l1.46-.343a7.47 7.47 0 00-5.568-5.567zm-5.457-1.46a7.47 7.47 0 00-5.567 5.567l1.46.342a5.97 5.97 0 014.45-4.45zm8.652 15.28l3.665 3.664 1.06-1.06-3.665-3.665z" fill="currentColor"/></symbol><symbol fill="none" viewBox="0 0 34 34" id="swap-header" xmlns="http://www.w3.org/2000/svg"><g fill="currentColor"><path d="M10.543 15.593a.647.647 0 00.914 0l.835-.835a.647.647 0 000-.914l-.835-.836h11.497a1.94 1.94 0 011.939 1.939c0 .534.435.969.969.969h.646a.97.97 0 00.97-.97 4.528 4.528 0 00-4.524-4.522H11.457l.835-.836a.647.647 0 000-.914l-.835-.835a.647.647 0 00-.914 0l-3.649 3.648a.323.323 0 000 .457zM11 8.296l.835.835-1.387 1.387a.323.323 0 00.229.552h12.277a3.881 3.881 0 013.877 3.877.323.323 0 01-.323.323h-.646a.323.323 0 01-.323-.323 2.588 2.588 0 00-2.585-2.585H10.677a.323.323 0 00-.229.552l1.387 1.387-.835.835-3.42-3.42zM27.383 22.472l-3.649-3.648a.647.647 0 00-.914 0l-.835.835a.646.646 0 000 .914l.835.835H11.323a1.94 1.94 0 01-1.939-1.938.97.97 0 00-.969-.97H7.77a.97.97 0 00-.97.97 4.528 4.528 0 004.524 4.523H22.82l-.835.836a.646.646 0 000 .913l.835.836a.647.647 0 00.914 0l3.649-3.649a.323.323 0 000-.457zm-4.106 3.649l-.835-.835 1.387-1.387a.323.323 0 00-.229-.552H11.323a3.881 3.881 0 01-3.877-3.877c0-.178.145-.323.323-.323h.646c.178 0 .323.145.323.323a2.588 2.588 0 002.585 2.585H23.6a.323.323 0 00.229-.552l-1.387-1.387.835-.835 3.42 3.42z"/></g></symbol><symbol fill="none" viewBox="0 0 24 24" id="turn-off" xmlns="http://www.w3.org/2000/svg"><path d="M5.636 20a9.21 9.21 0 01-2.463-4.69 9.31 9.31 0 01.512-5.292A9.127 9.127 0 017 5.908a8.889 8.889 0 015-1.544c1.78 0 3.52.537 5 1.543a9.126 9.126 0 013.315 4.111 9.31 9.31 0 01.512 5.292A9.212 9.212 0 0118.364 20" stroke="currentColor" stroke-width="1.5" stroke-linecap="round"/><path d="M7.757 18a5.816 5.816 0 01-1.642-3 5.729 5.729 0 01.342-3.384 5.89 5.89 0 012.21-2.629A6.104 6.104 0 0112 8c1.187 0 2.347.344 3.333.987a5.891 5.891 0 012.21 2.63A5.73 5.73 0 0117.885 15 5.815 5.815 0 0116.243 18" stroke="currentColor" stroke-width="1.5" stroke-linecap="round"/><path d="M9.879 16a2.908 2.908 0 01-.821-1.5 2.864 2.864 0 01.17-1.692 2.945 2.945 0 011.105-1.314A3.052 3.052 0 0112 11c.593 0 1.173.172 1.667.494.493.321.878.779 1.105 1.314.227.535.286 1.124.17 1.692a2.908 2.908 0 01-.82 1.5" stroke="currentColor" stroke-width="1.5" stroke-linecap="round"/></symbol><symbol fill="none" viewBox="0 0 34 34" id="user-header" xmlns="http://www.w3.org/2000/svg"><path d="M17 6C10.935 6 6 10.935 6 17c0 2.656.947 5.096 2.52 6.999.004.005.005.012.01.018a10.996 10.996 0 004.153 3.099l.055.024c.128.054.258.104.389.153a11.125 11.125 0 001.874.52c.083.016.166.032.25.046.116.019.233.033.35.048l.225.029c.132.014.265.024.398.033l.186.014a10.463 10.463 0 001.18 0c.063-.002.125-.009.187-.013.133-.01.266-.02.398-.033.076-.008.15-.02.226-.029.116-.015.232-.03.348-.048.084-.014.168-.03.251-.045a11.193 11.193 0 00.586-.124 12.83 12.83 0 00.574-.155 10.755 10.755 0 00.56-.184l.154-.058c.13-.049.26-.1.39-.154.018-.007.035-.016.054-.023a11 11 0 004.153-3.1c.005-.005.005-.012.01-.017A10.955 10.955 0 0028 17c0-6.065-4.935-11-11-11zm4.458 20.247l-.017.008c-.13.063-.264.123-.398.18l-.09.04a9.874 9.874 0 01-1.027.364 9.327 9.327 0 01-.534.143c-.086.02-.172.042-.258.06-.095.02-.191.037-.286.054-.078.015-.155.03-.233.042-.107.017-.216.03-.324.044-.069.01-.137.02-.206.027-.124.013-.248.021-.373.03-.055.004-.11.01-.166.013a10.44 10.44 0 01-1.092 0c-.055-.003-.11-.009-.166-.013a9.77 9.77 0 01-.373-.03c-.069-.008-.137-.018-.206-.027a10.297 10.297 0 01-.324-.044c-.078-.012-.155-.027-.232-.042a10.239 10.239 0 01-.286-.054c-.087-.018-.173-.04-.26-.06l-.245-.06a11.03 11.03 0 01-.808-.252l-.15-.055a9.943 9.943 0 01-.356-.14l-.09-.039a10.435 10.435 0 01-.415-.188 10.316 10.316 0 01-3.327-2.565 8.093 8.093 0 015.297-5.55c.05.03.104.058.157.088l.092.052c.11.058.22.112.333.16.087.039.177.071.266.104l.053.02c.497.176 1.03.276 1.586.276s1.089-.1 1.585-.276l.053-.02c.09-.033.18-.065.266-.103a4.6 4.6 0 00.334-.161l.092-.052c.053-.03.106-.058.158-.09a8.095 8.095 0 015.296 5.552 10.328 10.328 0 01-3.326 2.564zm-8.491-12.18c0-2.224 1.81-4.034 4.033-4.034s4.033 1.81 4.033 4.034a4.03 4.03 0 01-2.288 3.63c-.018.01-.036.018-.055.027a4.125 4.125 0 01-3.38 0l-.055-.027a4.03 4.03 0 01-2.288-3.63zm12.367 8.918a8.835 8.835 0 00-5.15-5.38 4.751 4.751 0 001.583-3.538c0-2.629-2.139-4.767-4.767-4.767s-4.767 2.138-4.767 4.767a4.75 4.75 0 001.584 3.538 8.836 8.836 0 00-5.15 5.38A10.206 10.206 0 016.732 17C6.733 11.339 11.34 6.733 17 6.733S27.267 11.34 27.267 17c0 2.232-.719 4.299-1.933 5.985z" fill="currentColor" stroke="currentColor" stroke-width=".2"/></symbol><symbol fill="none" viewBox="0 0 24 24" id="user-plus" xmlns="http://www.w3.org/2000/svg"><g stroke="currentColor" stroke-width="1.5"><path d="M21 12h-4m2 2v-4" stroke-linecap="round"/><path d="M3 19.111c0-2.413 1.697-4.468 4.004-4.848l.208-.035a17.134 17.134 0 015.576 0l.208.035c2.307.38 4.004 2.435 4.004 4.848C17 20.154 16.181 21 15.172 21H4.828C3.818 21 3 20.154 3 19.111zM14.083 6.938c0 2.174-1.828 3.937-4.083 3.937S5.917 9.112 5.917 6.937 7.745 3 10 3s4.083 1.763 4.083 3.938z"/></g></symbol><symbol fill="none" viewBox="0 0 24 24" id="video" xmlns="http://www.w3.org/2000/svg"><g stroke="currentColor" stroke-width="1.5"><path d="M2.944 8.284a4.493 4.493 0 013.323-3.372 14.631 14.631 0 016.924.007c1.641.401 2.945 1.674 3.358 3.302l.025.099a14.963 14.963 0 010 7.36l-.025.099c-.413 1.628-1.717 2.901-3.358 3.302a14.63 14.63 0 01-6.924.007 4.493 4.493 0 01-3.323-3.372l-.062-.274a15.677 15.677 0 010-6.884z"/><path d="M16.663 15.308l.197.066c.051.017.101.037.15.061l1.684.836c1.289.64 2.806-.29 2.806-1.722V9.81c0-1.513-1.675-2.435-2.967-1.633l-1.486.922a1.142 1.142 0 00-.202.16l-.055.054c.363 1.985.32 4.024-.127 5.995z"/></g></symbol></svg>