<svg width="314" height="393" viewBox="0 0 314 393" fill="none" xmlns="http://www.w3.org/2000/svg">
<g opacity="0.7" filter="url(#filter0_f)">
<path d="M73 122.533C73 95.1767 95.1767 73 122.533 73H133.243C160.6 73 182.777 95.1767 182.777 122.533V178.857C182.777 192.535 171.688 203.623 158.01 203.623H97.7665C84.0884 203.623 73 192.535 73 178.856V122.533Z" fill="#06DD69"/>
</g>
<g opacity="0.7" filter="url(#filter1_f)">
<path d="M241.029 270.082C241.029 297.439 218.853 319.616 191.496 319.616L180.054 319.616C152.698 319.616 130.521 297.439 130.521 270.082L130.521 211.052C130.521 197.374 141.609 186.285 155.288 186.285L216.263 186.285C229.941 186.285 241.029 197.374 241.029 211.052L241.029 270.082Z" fill="#00A7EF"/>
</g>
<defs>
<filter id="filter0_f" x="0.469368" y="0.469368" width="254.838" height="275.684" filterUnits="userSpaceOnUse" color-interpolation-filters="sRGB">
<feFlood flood-opacity="0" result="BackgroundImageFix"/>
<feBlend mode="normal" in="SourceGraphic" in2="BackgroundImageFix" result="shape"/>
<feGaussianBlur stdDeviation="36.2653" result="effect1_foregroundBlur"/>
</filter>
<filter id="filter1_f" x="57.9909" y="113.755" width="255.57" height="278.392" filterUnits="userSpaceOnUse" color-interpolation-filters="sRGB">
<feFlood flood-opacity="0" result="BackgroundImageFix"/>
<feBlend mode="normal" in="SourceGraphic" in2="BackgroundImageFix" result="shape"/>
<feGaussianBlur stdDeviation="36.2653" result="effect1_foregroundBlur"/>
</filter>
</defs>
</svg>
