<svg width="350" height="381" fill="none" xmlns="http://www.w3.org/2000/svg"><g opacity=".7" filter="url(#filter0_f)"><path d="M101.203 149.802c0-26.805 21.73-48.536 48.536-48.536s48.536 21.731 48.536 48.536v14.489c0 17.403-14.108 31.512-31.512 31.512h-34.048c-17.403 0-31.512-14.109-31.512-31.512v-14.489z" fill="#9C5BFF"/></g><g opacity=".7" filter="url(#filter1_f)"><path d="M248.57 230.891c0 26.985-21.875 48.86-48.859 48.86-26.985 0-48.86-21.875-48.86-48.86V215.42c0-17.764 14.401-32.165 32.165-32.165h33.389c17.764 0 32.165 14.401 32.165 32.165v15.471z" fill="#00A7EF"/></g><defs><filter id="filter0_f" x=".126" y=".189" width="299.227" height="296.692" filterUnits="userSpaceOnUse" color-interpolation-filters="sRGB"><feFlood flood-opacity="0" result="BackgroundImageFix"/><feBlend in="SourceGraphic" in2="BackgroundImageFix" result="shape"/><feGaussianBlur stdDeviation="50.539" result="effect1_foregroundBlur"/></filter><filter id="filter1_f" x="49.774" y="82.177" width="299.874" height="298.651" filterUnits="userSpaceOnUse" color-interpolation-filters="sRGB"><feFlood flood-opacity="0" result="BackgroundImageFix"/><feBlend in="SourceGraphic" in2="BackgroundImageFix" result="shape"/><feGaussianBlur stdDeviation="50.539" result="effect1_foregroundBlur"/></filter></defs></svg>