<svg width="24" height="24" fill="none" xmlns="http://www.w3.org/2000/svg"><path d="M23.794 18.54l-2.576-2.577a2.1 2.1 0 01-1.419 1.142l-.35.083-.084.352c-.143.6-.813 1.73-2.223 1.615l-.36-.03-.188.309a2.123 2.123 0 01-1.437.978l3.383 3.382a.703.703 0 001.164-.275l.954-2.861 2.861-.954a.703.703 0 00.275-1.164zm-16.388.894l-.187-.309-.36.03c-1.41.114-2.08-1.015-2.223-1.616l-.084-.35-.35-.084a2.099 2.099 0 01-1.42-1.142L.207 18.54a.703.703 0 00.275 1.164l2.862.954.953 2.861a.703.703 0 001.165.275l3.382-3.382a2.124 2.124 0 01-1.437-.978zm7.987-.732l.639-1.048 1.224.099c.345.028.66-.2.74-.538l.284-1.195 1.194-.283a.703.703 0 00.538-.741l-.099-1.223 1.048-.64a.703.703 0 00.283-.87l-.472-1.133.8-.931a.703.703 0 000-.916l-.8-.932.472-1.133a.703.703 0 00-.283-.87l-1.048-.64.1-1.223a.703.703 0 00-.539-.74L18.28 3.46l-.284-1.194a.704.704 0 00-.74-.539l-1.224.1-.639-1.049a.703.703 0 00-.87-.283L13.388.97l-.93-.8a.703.703 0 00-.917 0l-.93.8L9.477.496a.703.703 0 00-.87.283l-.64 1.048-1.223-.099a.703.703 0 00-.741.538L5.72 3.461l-1.194.283a.703.703 0 00-.538.741l.1 1.224-1.049.638a.703.703 0 00-.283.871l.473 1.133-.8.932a.703.703 0 000 .916l.8.931-.473 1.133a.703.703 0 00.284.87l1.048.64-.1 1.223c-.028.346.2.66.539.74l1.193.284.284 1.195c.08.337.395.566.741.538l1.224-.1.638 1.049a.705.705 0 00.871.283l1.133-.473.931.8a.703.703 0 00.916 0l.931-.8 1.133.473c.32.133.69.013.871-.283zm-3.649-3.945a.703.703 0 01-.994 0l-4.142-4.143a.703.703 0 010-.994l2.13-2.13a.703.703 0 01.994 0l1.515 1.515 3.398-3.398a.703.703 0 01.994 0l2.13 2.13a.703.703 0 010 .995l-6.025 6.025z" fill="#008CEF"/><path d="M11.744 10.496a.703.703 0 01-.995 0L9.236 8.981 8.1 10.117l3.148 3.148 5.03-5.03-1.136-1.136-3.397 3.397z" fill="#008CEF"/></svg>