<svg width="24" height="24" fill="none" xmlns="http://www.w3.org/2000/svg"><path d="M23.924 10.668c-.038-.338-.431-.591-.772-.591-1.1 0-2.075-.646-2.484-1.645a2.673 2.673 0 01.67-2.967.667.667 0 00.074-.905 11.882 11.882 0 00-1.901-1.92.668.668 0 00-.912.074c-.715.792-2 1.087-2.993.672a2.665 2.665 0 01-1.62-2.605.666.666 0 00-.59-.701 11.95 11.95 0 00-2.7-.007.668.668 0 00-.594.687A2.67 2.67 0 018.46 3.32c-.98.4-2.257.108-2.97-.677a.669.669 0 00-.906-.076c-.72.565-1.373 1.21-1.941 1.92a.668.668 0 00.071.911 2.66 2.66 0 01.671 2.995c-.414.986-1.438 1.622-2.61 1.622a.653.653 0 00-.694.59 12.03 12.03 0 00-.005 2.728c.038.338.443.59.787.59 1.045-.027 2.048.62 2.47 1.644a2.67 2.67 0 01-.672 2.968.666.666 0 00-.073.904c.557.71 1.198 1.356 1.898 1.92.275.222.675.19.914-.072.718-.794 2.002-1.088 2.991-.673a2.662 2.662 0 011.624 2.605.666.666 0 00.589.7 11.907 11.907 0 002.7.008.668.668 0 00.593-.687 2.668 2.668 0 011.642-2.56c.988-.402 2.258-.107 2.972.677a.67.67 0 00.906.076 11.952 11.952 0 001.941-1.92.666.666 0 00-.072-.912 2.659 2.659 0 01-.672-2.993 2.686 2.686 0 012.455-1.627l.148.004a.668.668 0 00.703-.589c.106-.902.107-1.82.005-2.728zm-11.925 8.25a6.918 6.918 0 115.94-3.37l-3.03-3.03c.22-.517.336-1.078.336-1.656a4.213 4.213 0 00-1.242-3 4.213 4.213 0 00-3-1.241c-.377 0-.753.05-1.117.15a.48.48 0 00-.333.334.469.469 0 00.134.458s1.495 1.507 1.995 2.008c.053.052.053.177.045.222l-.004.033c-.05.55-.148 1.21-.228 1.464l-.032.031-.033.034c-.258.083-.928.181-1.487.231v-.003l-.025.006a.32.32 0 01-.254-.096c-.52-.52-1.957-1.948-1.957-1.948a.488.488 0 00-.35-.155.475.475 0 00-.447.361 4.255 4.255 0 001.095 4.11 4.214 4.214 0 002.999 1.242c.579 0 1.14-.116 1.656-.335l3.062 3.062A6.883 6.883 0 0112 18.918z" fill="#008CEF"/></svg>