<svg width="80" height="80" viewBox="0 0 80 80" fill="none" xmlns="http://www.w3.org/2000/svg">
<g filter="url(#filter0_b)">
<rect width="80" height="80" rx="24" fill="white" fill-opacity="0.2"/>
<path d="M32.1407 40.016L33.1407 40.0153L32.1407 40.016ZM45.431 42.7151L44.9613 41.8323L45.431 42.7151ZM45.431 42.7151L44.9613 41.8323L45.431 42.7151ZM45.4348 37.3087L44.9637 38.1908L45.4348 37.3087ZM45.4348 37.3087L44.9637 38.1908L45.4348 37.3087ZM35.6398 33.2113C36.7617 33.8105 39.0927 35.0553 41.1432 36.1504C42.1684 36.698 43.1236 37.208 43.8224 37.5813C44.1718 37.7679 44.4571 37.9202 44.6551 38.026C44.7541 38.0788 44.8313 38.1201 44.8837 38.148C44.9099 38.162 44.9299 38.1727 44.9434 38.1799C44.9501 38.1835 44.9552 38.1862 44.9586 38.1881C44.9603 38.189 44.9616 38.1897 44.9625 38.1901C44.9628 38.1903 44.9633 38.1905 44.9634 38.1906C44.9635 38.1907 44.9636 38.1907 44.9637 38.1908C44.9637 38.1908 44.9637 38.1908 45.4348 37.3087C45.9059 36.4266 45.9059 36.4266 45.9058 36.4266C45.9058 36.4265 45.9057 36.4265 45.9056 36.4264C45.9053 36.4263 45.9052 36.4262 45.9046 36.4259C45.9038 36.4255 45.9025 36.4248 45.9008 36.4239C45.8974 36.4221 45.8923 36.4193 45.8855 36.4157C45.8721 36.4085 45.8521 36.3979 45.8258 36.3839C45.7734 36.3559 45.6963 36.3147 45.5973 36.2618C45.3993 36.1561 45.114 36.0037 44.7646 35.8171C44.0657 35.4439 43.1106 34.9338 42.0854 34.3862C40.0348 33.2911 37.7039 32.0463 36.582 31.4471L35.6398 33.2113ZM44.9613 41.8323C44.9613 41.8323 43.1928 42.7732 41.1436 43.8633C39.0945 44.9535 36.7648 46.193 35.6423 46.7902L36.5817 48.5558C38.8266 47.3615 45.9007 43.5979 45.9007 43.5979L44.9613 41.8323ZM33.1439 45.4011C33.1426 43.1578 33.1412 40.7799 33.1407 40.0153L31.1407 40.0168C31.1412 40.7812 31.1426 43.1588 31.1439 45.4022L33.1439 45.4011ZM33.1407 40.0153C33.1401 39.2439 33.1401 36.8556 33.1402 34.6043L31.1402 34.6042C31.1401 36.855 31.1401 39.2444 31.1407 40.0168L33.1407 40.0153ZM44.9637 38.1908C46.3468 38.9294 46.3449 41.0961 44.9613 41.8323L45.9007 43.5979C48.6976 42.1099 48.7003 37.919 45.9059 36.4266L44.9637 38.1908ZM31.1439 45.4022C31.1455 48.1986 34.2349 49.8044 36.5817 48.5558L35.6423 46.7902C34.5043 47.3956 33.1446 46.552 33.1439 45.4011L31.1439 45.4022ZM45.9007 43.5979L45.9007 43.5979L44.9613 41.8323L45.9007 43.5979ZM33.1402 34.6043C33.1403 33.4465 34.502 32.6036 35.6398 33.2113L36.582 31.4471C34.2294 30.1907 31.1404 31.8049 31.1402 34.6042L33.1402 34.6043ZM45.4348 37.3087C44.9585 38.188 44.9621 38.1899 44.9657 38.1918C44.9646 38.1913 44.9648 38.1913 44.9659 38.1919C44.9631 38.1904 44.964 38.1909 44.9635 38.1907C44.9639 38.1909 44.9637 38.1908 44.9638 38.1908C44.9637 38.1908 44.9637 38.1908 44.9638 38.1908C44.9637 38.1908 44.9638 38.1908 44.9638 38.1908C44.9637 38.1908 44.9638 38.1908 44.9637 38.1908C44.9637 38.1908 44.9637 38.1908 44.9637 38.1908C44.9637 38.1908 44.9637 38.1908 44.9637 38.1908C44.9637 38.1908 44.9637 38.1908 44.9637 38.1908C44.9637 38.1908 44.9637 38.1908 44.9637 38.1908C44.9637 38.1908 44.9637 38.1908 44.9637 38.1908C44.9637 38.1908 44.9637 38.1908 44.9637 38.1908L45.9059 36.4266C45.9059 36.4266 45.9059 36.4266 45.9059 36.4266C45.9059 36.4266 45.9059 36.4266 45.9059 36.4266C45.9059 36.4266 45.9059 36.4266 45.9059 36.4266C45.9059 36.4266 45.9059 36.4266 45.9059 36.4266C45.9059 36.4266 45.9059 36.4266 45.9059 36.4266C45.9059 36.4266 45.9059 36.4266 45.9059 36.4266C45.9059 36.4266 45.9059 36.4266 45.9059 36.4266C45.9059 36.4266 45.9059 36.4266 45.9059 36.4266C45.9059 36.4266 45.9059 36.4266 45.9059 36.4266C45.9059 36.4266 45.9059 36.4266 45.9059 36.4266C45.9059 36.4266 45.9058 36.4265 45.9056 36.4265C45.9057 36.4265 45.9066 36.427 45.9074 36.4274C45.9049 36.4261 45.905 36.4261 45.904 36.4256C45.9075 36.4275 45.9111 36.4294 45.4348 37.3087Z" fill="white"/>
</g>
<defs>
<filter id="filter0_b" x="-32" y="-32" width="144" height="144" filterUnits="userSpaceOnUse" color-interpolation-filters="sRGB">
<feFlood flood-opacity="0" result="BackgroundImageFix"/>
<feGaussianBlur in="BackgroundImage" stdDeviation="16"/>
<feComposite in2="SourceAlpha" operator="in" result="effect1_backgroundBlur"/>
<feBlend mode="normal" in="SourceGraphic" in2="effect1_backgroundBlur" result="shape"/>
</filter>
</defs>
</svg>
