<svg fill="none" height="101" viewBox="0 0 88 101" width="88" xmlns="http://www.w3.org/2000/svg" xmlns:xlink="http://www.w3.org/1999/xlink"><filter id="a" color-interpolation-filters="sRGB" filterUnits="userSpaceOnUse" height="75.419" width="70.0839" x=".932871" y=".125864"><feFlood flood-opacity="0" result="BackgroundImageFix"/><feBlend in="SourceGraphic" in2="BackgroundImageFix" mode="normal" result="shape"/><feGaussianBlur result="effect1_foregroundBlur" stdDeviation="11.7552"/></filter><filter id="b" color-interpolation-filters="sRGB" filterUnits="userSpaceOnUse" height="76.0076" width="70.2377" x="16.7962" y="24.7546"><feFlood flood-opacity="0" result="BackgroundImageFix"/><feBlend in="SourceGraphic" in2="BackgroundImageFix" mode="normal" result="shape"/><feGaussianBlur result="effect1_foregroundBlur" stdDeviation="11.7552"/></filter><g filter="url(#a)" opacity=".7"><path d="m24.4434 35.1678c0-6.3686 5.1628-11.5314 11.5314-11.5314 6.3687 0 11.5315 5.1628 11.5315 11.5314v8.8387c0 4.4337-3.5942 8.0279-8.028 8.0279h-7.007c-4.4337 0-8.0279-3.5942-8.0279-8.0279z" fill="#06dd69"/></g><g filter="url(#b)" opacity=".7"><path d="m63.5234 65.6434c0 6.4111-5.1972 11.6083-11.6083 11.6083s-11.6084-5.1972-11.6084-11.6083v-9.3504c0-4.4337 3.5943-8.0279 8.028-8.0279h7.1608c4.4337 0 8.0279 3.5942 8.0279 8.028z" fill="#00a7ef"/></g></svg>