<svg width="16" height="16" viewBox="0 0 16 16" fill="none" xmlns="http://www.w3.org/2000/svg">
<g clip-path="url(#clip0)">
<path d="M13.8182 5.09084H11.6364V2.18176H1.45456C0.650898 2.18176 0 2.83266 0 3.63632V11.6363H1.45456C1.45456 12.84 2.43273 13.8182 3.63638 13.8182C4.84003 13.8182 5.8182 12.84 5.8182 11.6363H10.1818C10.1818 12.84 11.16 13.8182 12.3637 13.8182C13.5673 13.8182 14.5455 12.84 14.5455 11.6363H16V7.99996L13.8182 5.09084ZM3.63638 12.7272C3.03273 12.7272 2.54547 12.24 2.54547 11.6363C2.54547 11.0327 3.03273 10.5454 3.63638 10.5454C4.24003 10.5454 4.72729 11.0327 4.72729 11.6363C4.72729 12.24 4.23999 12.7272 3.63638 12.7272ZM12.3637 12.7272C11.76 12.7272 11.2727 12.24 11.2727 11.6363C11.2727 11.0327 11.76 10.5454 12.3637 10.5454C12.9673 10.5454 13.4546 11.0327 13.4546 11.6363C13.4546 12.24 12.9673 12.7272 12.3637 12.7272ZM11.6364 7.99996V6.18179H13.4545L14.8836 7.99996H11.6364Z" fill="#008CEF"/>
</g>
<defs>
<clipPath id="clip0">
<rect width="16" height="16" fill="white"/>
</clipPath>
</defs>
</svg>
