<svg width="32" height="32" viewBox="0 0 32 32" fill="none" xmlns="http://www.w3.org/2000/svg">
<path d="M7.51472 26.6665C5.83649 24.9585 4.69361 22.7824 4.23058 20.4134C3.76756 18.0444 4.0052 15.5888 4.91345 13.3573C5.8217 11.1257 7.35977 9.21832 9.33315 7.87638C11.3065 6.53443 13.6266 5.81817 16 5.81816C18.3734 5.81816 20.6934 6.53442 22.6668 7.87636C24.6402 9.21831 26.1783 11.1257 27.0865 13.3572C27.9948 15.5888 28.2324 18.0444 27.7694 20.4134C27.3064 22.7824 26.1635 24.9585 24.4853 26.6665" stroke="#3C4858" stroke-width="1.5" stroke-linecap="round"/>
<path d="M10.3431 24C9.22433 22.9077 8.4624 21.516 8.15372 20.0009C7.84504 18.4858 8.00347 16.9154 8.60897 15.4882C9.21447 14.061 10.2398 12.8412 11.5554 11.983C12.871 11.1247 14.4177 10.6667 16 10.6667C17.5822 10.6667 19.129 11.1247 20.4446 11.983C21.7601 12.8412 22.7855 14.061 23.391 15.4882C23.9965 16.9154 24.155 18.4858 23.8463 20.0009C23.5376 21.516 22.7757 22.9077 21.6569 24" stroke="#3C4858" stroke-width="1.5" stroke-linecap="round"/>
<path d="M13.1716 21.3335C12.6122 20.7873 12.2312 20.0915 12.0769 19.3339C11.9225 18.5764 12.0017 17.7912 12.3045 17.0776C12.6072 16.364 13.1199 15.7541 13.7777 15.325C14.4355 14.8959 15.2089 14.6668 16 14.6668C16.7911 14.6668 17.5645 14.8959 18.2223 15.325C18.8801 15.7541 19.3928 16.364 19.6955 17.0776C19.9983 17.7912 20.0775 18.5764 19.9231 19.3339C19.7688 20.0915 19.3878 20.7873 18.8284 21.3335" stroke="#3C4858" stroke-width="1.5" stroke-linecap="round"/>
</svg>
