<svg width="36" height="36" fill="none" xmlns="http://www.w3.org/2000/svg"><g opacity=".8" clip-path="url(#clip0)" fill="#008CEF"><path d="M11.328 12.2H5.275c-.73 0-1.324.593-1.324 1.323v4.779c0 .73.594 1.324 1.324 1.324h6.052c.73 0 1.324-.594 1.324-1.324v-4.779c0-.73-.594-1.323-1.323-1.323zm.269 1.323v1.862H8.828v-2.13h2.5c.148 0 .269.12.269.268zm-6.592 4.779v-4.779a.27.27 0 01.27-.269h2.499v5.317h-2.5a.27.27 0 01-.269-.27zm6.323.269h-2.5V16.44h2.769v1.862a.27.27 0 01-.27.269zM3.95 25.718c0 .291.237.527.528.527h15.518a.527.527 0 100-1.055H4.478a.527.527 0 00-.527.528zm.528 1.482a.527.527 0 000 1.054h7.76a.527.527 0 100-1.055h-7.76zm9.365-3.998v-1.275a.527.527 0 10-1.055 0v1.275a.527.527 0 101.055 0zm2.41 0v-1.275a.527.527 0 10-1.055 0v1.275a.527.527 0 101.055 0zm2.41 0v-1.275a.527.527 0 10-1.054 0v1.275a.527.527 0 101.054 0zm2.411 0v-1.275a.527.527 0 10-1.055 0v1.275a.527.527 0 101.055 0zm2.963-1.275v1.275a.527.527 0 001.054 0v-1.275a.527.527 0 10-1.054 0zm2.41 0v1.275a.527.527 0 101.055 0v-1.275a.527.527 0 10-1.055 0zm2.41 0v1.275a.527.527 0 101.055 0v-1.275a.527.527 0 10-1.055 0zM4.478 23.73a.527.527 0 00.527-.528v-1.275a.527.527 0 10-1.054 0v1.275c0 .291.236.527.527.527zm2.938-.528v-1.275a.527.527 0 10-1.055 0v1.275a.527.527 0 101.055 0zm2.41 0v-1.275a.527.527 0 10-1.055 0v1.275a.527.527 0 101.055 0z"/><path d="M36 9.972a5.363 5.363 0 00-5.358-5.357 5.365 5.365 0 00-5.28 4.453H11.718a.527.527 0 100 1.055h13.57c.08 2.903 2.477 5.205 5.353 5.206h.002c.001 0 0 0 0 0h.002c.77 0 1.517-.17 2.163-.455v8.868a.527.527 0 101.055 0v-9.491A5.352 5.352 0 0036 9.97zm-5.358-4.303a4.308 4.308 0 014.303 4.303 4.308 4.308 0 01-4.303 4.303 4.305 4.305 0 01-4.298-4.477 4.306 4.306 0 014.298-4.129z"/><path d="M29.183 12.002a.528.528 0 00.822.095l3.411-3.41a.527.527 0 00-.746-.746l-2.94 2.94-1.137-1.844a.527.527 0 00-.897.554l1.487 2.41zm4.152 13.673a.527.527 0 00-.527.528v2.175a1.955 1.955 0 01-1.953 1.952H3.007a1.955 1.955 0 01-1.952-1.952V12.075c0-1.076.876-1.952 1.952-1.952h6.25a.527.527 0 000-1.055h-6.25A3.01 3.01 0 000 12.075v16.303a3.01 3.01 0 003.007 3.007h27.848a3.01 3.01 0 003.007-3.007v-2.175a.527.527 0 00-.527-.527z"/><path d="M30.55 18.815v-1.56a.812.812 0 00-.811-.81h-5.385a.812.812 0 00-.811.81v1.56c0 .447.364.81.81.81h5.386a.81.81 0 00.81-.81zm-1.055-.244h-4.897V17.5h4.897v1.07z"/></g><defs><clipPath id="clip0"><path fill="#fff" d="M0 0h36v36H0z"/></clipPath></defs></svg>