<svg width="36" height="36" fill="none" xmlns="http://www.w3.org/2000/svg"><g opacity=".8" fill="#008CEF"><path d="M33.557 14.104l-5.864-4.966v-.926a.535.535 0 00-.158-.38l-6.567-6.554-.005-.004a.536.536 0 00-.449-.163l-.01-.001a.581.581 0 00-.053-.003h-9.288A2.976 2.976 0 008.19 4.08v5.062l-5.832 4.946a.537.537 0 00-.31.487v16.673a3.613 3.613 0 003.608 3.609h24.571a3.613 3.613 0 003.609-3.609V14.575a.537.537 0 00-.279-.471zm-1.09.485l-4.774 4.049v-8.091l4.774 4.042zM21.112 2.94l4.758 4.75h-2.86a1.9 1.9 0 01-1.898-1.898V2.94zm-9.95-.757h8.875V5.79a2.976 2.976 0 002.973 2.972h3.608V19.55l-7.033 5.965a2.526 2.526 0 01-3.276.002l-7.044-5.964V4.08a1.9 1.9 0 011.898-1.898zm-2.972 8.37v8.09L3.416 14.6l4.774-4.05zm-2.534 23.23a2.523 2.523 0 01-1.534-.52l7.348-7.515a.538.538 0 00-.768-.752l-7.28 7.446a2.519 2.519 0 01-.3-1.193V15.76l5.263 4.456 7.229 6.121a3.597 3.597 0 004.666-.002L32.761 15.75v15.498c0 .418-.103.83-.301 1.198l-7.323-7.452a.538.538 0 00-.767.754l7.389 7.517a2.52 2.52 0 01-1.532.517H5.657z"/><path d="M16.55 17.43c.19.222.521.252.748.067l3.446-2.804a.539.539 0 10-.678-.833l-3.04 2.473-1.139-1.334a.537.537 0 10-.818.697l1.48 1.734z"/><path d="M17.942 21.59a5.912 5.912 0 100-11.824 5.912 5.912 0 000 11.825zm-3.81-8.893a4.838 4.838 0 117.621 5.963 4.838 4.838 0 01-7.621-5.963z"/></g></svg>