<svg fill="none" height="67" width="67" xmlns="http://www.w3.org/2000/svg"><rect height="22" rx="1.5" stroke="#1a96e5" width="15" x="26.5" y="22.5"/><g fill="#1a96e5"><rect height=".622" rx=".311" width="4.308" x="32.154" y="28.216"/><rect height=".622" rx=".311" width="3.692" x="29.692" y="38.784"/><rect height=".622" rx=".311" width="3.692" x="35.231" y="38.784"/><rect height=".622" rx=".311" width="9.231" x="29.692" y="30.703"/><rect height=".622" rx=".311" width="9.231" x="29.692" y="33.189"/><rect height=".622" rx=".311" width="9.231" x="29.692" y="36.297"/></g><path d="M41.891 12.585a6.5 6.5 0 015.63 3.25l8.043 13.933a6.5 6.5 0 010 6.5L47.52 50.201a6.5 6.5 0 01-5.629 3.25H25.803a6.5 6.5 0 01-5.629-3.25L12.13 36.268a6.5 6.5 0 010-6.5l8.044-13.933a6.5 6.5 0 015.63-3.25z" stroke="#1a96e5"/></svg>