<svg width="36" height="36" fill="none" xmlns="http://www.w3.org/2000/svg"><g opacity=".8" fill="#008CEF"><path d="M18 35.019a16.974 16.974 0 01-12.04-4.98.487.487 0 01.688-.687 16.057 16.057 0 0026.07-17.774.486.486 0 11.892-.389A17.022 17.022 0 0118 35.019zM2.44 24.109a.487.487 0 01-.458-.322A17.03 17.03 0 0130.04 5.96a.486.486 0 01-.688.688 16.054 16.054 0 00-22.704 0 16.129 16.129 0 00-3.75 16.809.486.486 0 01-.458.652z"/><path d="M29.696 6.79H26.47a.486.486 0 010-.973h2.74v-2.74a.486.486 0 11.973 0v3.227a.487.487 0 01-.487.486zM6.304 33.41a.487.487 0 01-.487-.487v-3.227a.486.486 0 01.487-.486H9.53a.487.487 0 010 .973H6.79v2.74a.486.486 0 01-.486.486zm19.422-10.096H15.38a2.739 2.739 0 01-2.664-2.152L10.49 10.795H8.327a.487.487 0 110-.973h2.557a.487.487 0 01.476.384l2.308 10.751a1.76 1.76 0 001.712 1.383h10.346a.486.486 0 110 .974z"/><path d="M23.343 19.97H12.85a.487.487 0 010-.974h10.492a.973.973 0 00.967-.827l.741-4.786H11.438a.486.486 0 110-.973h14.18a.487.487 0 01.481.561l-.827 5.347a1.941 1.941 0 01-1.93 1.651zm-.14 8.155a1.987 1.987 0 110-3.974 1.987 1.987 0 010 3.974zm0-3.003a1.014 1.014 0 100 2.029 1.014 1.014 0 000-2.029zm-6.787 3.003a1.988 1.988 0 110-3.976 1.988 1.988 0 010 3.976zm0-3.003a1.015 1.015 0 100 2.03 1.015 1.015 0 000-2.03z"/></g></svg>