<svg width="36" height="36" fill="none" xmlns="http://www.w3.org/2000/svg"><g opacity=".8" fill="#008CEF"><path d="M5.63 16.392h4.038a.616.616 0 00.615-.615v-1.365a.422.422 0 00-.844 0v1.136h-3.58v-3.574h1.79a.422.422 0 100-.844H5.63a.615.615 0 00-.614.615v4.032a.615.615 0 00.614.615z"/><path d="M10.631 10.894a.422.422 0 00-.594.054l-2.012 2.418-.646-.522a.422.422 0 10-.53.656l.776.628a.668.668 0 00.893-.04l.017-.016 2.15-2.584a.42.42 0 00-.054-.594zm20.454.531H14.623a.422.422 0 100 .843h16.462a.422.422 0 100-.843zm0 3.495H14.623a.422.422 0 000 .844h16.462a.422.422 0 000-.844zM9.86 22.932a.422.422 0 00-.421.422v1.136h-3.58v-3.574h1.79a.422.422 0 000-.844H5.63a.616.616 0 00-.614.615v4.032a.615.615 0 00.614.615h4.038a.616.616 0 00.615-.615v-1.365a.422.422 0 00-.422-.422z"/><path d="M10.631 19.835a.424.424 0 00-.594.055l-2.012 2.418-.646-.523a.422.422 0 00-.146-.078c-.053-.016-.11-.022-.165-.016a.423.423 0 00-.22.75l.776.628a.669.669 0 00.894-.04l.017-.015 2.15-2.585a.424.424 0 00-.054-.594zm20.454.531h-3.427a.422.422 0 100 .844h3.427a.422.422 0 100-.844zm-11.115 0h-5.346a.422.422 0 100 .844h5.346a.422.422 0 100-.844zm-3.906 3.495h-1.44a.422.422 0 000 .844h1.44a.422.422 0 000-.844z"/><path d="M33.213.703H2.787A1.945 1.945 0 00.844 2.646V27.86a1.945 1.945 0 001.94 1.943l16.09.114.815 3.203a3.01 3.01 0 002.906 2.177h5.883a3.034 3.034 0 003.029-3.03v-2.37l1.718-.094a1.945 1.945 0 001.931-1.943V2.646A1.945 1.945 0 0033.213.703zm-30.426.844h30.426a1.1 1.1 0 011.1 1.099v4.271H1.687V2.646a1.1 1.1 0 011.1-1.1zm27.876 30.72a2.19 2.19 0 01-2.185 2.186h-5.883a2.172 2.172 0 01-2.09-1.55l-.893-3.51a14.965 14.965 0 00-.84-2.411l-.069-.164a2.777 2.777 0 012.285 1.2l.726 1.05v1.567a.422.422 0 00.844 0V19.17a.794.794 0 011.587 0v7.489a.42.42 0 00.018.122v1.72a.422.422 0 00.843 0v-2.357a.63.63 0 111.259 0v.478c-.01.074-.016.148-.017.223V28.5a.421.421 0 00.422.422h.017a.422.422 0 00.422-.422v-1.803a.677.677 0 011.338.146v2.094a.422.422 0 00.844 0v-1.432a.686.686 0 111.372 0v4.761zm2.55-3.307h-.023l-1.683.092v-1.547a1.528 1.528 0 00-2.353-1.29 1.519 1.519 0 00-2.174-.671 1.468 1.468 0 00-1.992-.722v-5.653a1.637 1.637 0 10-3.274 0v8.414l-.031-.045a3.62 3.62 0 00-2.98-1.564.846.846 0 00-.773 1.193l.072.159c.253.567.468 1.15.645 1.745l-15.86-.112a1.1 1.1 0 01-1.1-1.099V7.761h32.626v20.1a1.1 1.1 0 01-1.1 1.098z"/><path d="M4.373 5.796a1.617 1.617 0 100-3.234 1.617 1.617 0 000 3.234zm0-2.39a.773.773 0 110 1.547.773.773 0 010-1.547zm4.264 2.39a1.617 1.617 0 100-3.234 1.617 1.617 0 000 3.234zm0-2.39a.773.773 0 110 1.547.773.773 0 010-1.547zm4.263 2.39a1.617 1.617 0 100-3.234 1.617 1.617 0 000 3.234zm0-2.39a.773.773 0 110 1.546.773.773 0 010-1.546zm6.295 1.115h13.706a.422.422 0 000-.844H19.195a.422.422 0 100 .844z"/></g></svg>