<svg fill="none" height="34" width="34" xmlns="http://www.w3.org/2000/svg"><g fill="currentColor"><path d="M18 5.667h-3a2.886 2.886 0 00-2.88 2.88v1.04H8.37a.434.434 0 00-.436.435v.025l.605 12.534a3.22 3.22 0 003.218 3.073H18.7a4.237 4.237 0 005.566 2.226 4.237 4.237 0 002.226-5.565c-.387-.896-1.065-1.646-1.936-2.081l.484-10.188c0-.241-.193-.435-.411-.435h-3.775V8.57c0-1.622-1.283-2.904-2.855-2.904zm-5.01 2.855a2.03 2.03 0 012.033-2.033h3a2.03 2.03 0 012.034 2.033v1.04H12.99zm12.73 16.793a3.388 3.388 0 01-3.098 2.033 3.421 3.421 0 01-3.218-2.275 3.473 3.473 0 01-.193-1.113 3.398 3.398 0 013.387-3.388c2.42-.024 4.09 2.469 3.122 4.743zm-1.525-14.906l-.46 9.462a4.214 4.214 0 00-5.202 2.928c-.17.653-.218 1.33-.073 1.984h-6.678c-1.258 0-2.323-.992-2.371-2.25l-.581-12.1h3.315v1.428a.434.434 0 10.871 0v-1.427h7.041v1.427c0 .242.194.436.436.436a.434.434 0 00.436-.436v-1.427h3.266z"/><path d="M22.597 21.71a.434.434 0 00-.435.435v1.38h-1.38a.434.434 0 00-.435.435c0 .242.193.436.435.436h1.38v1.379c0 .242.193.435.435.435a.434.434 0 00.436-.435v-1.38h1.379a.434.434 0 00.435-.435.434.434 0 00-.435-.435h-1.38v-1.38a.434.434 0 00-.435-.435z"/></g></svg>