<svg fill="none" height="34" width="34" xmlns="http://www.w3.org/2000/svg"><g fill="currentColor" stroke="currentColor" stroke-width=".1"><path d="M17 7C11.486 7 7 11.486 7 17s4.486 10 10 10 10-4.486 10-10S22.514 7 17 7zm0 19.333c-5.146 0-9.333-4.187-9.333-9.333S11.854 7.667 17 7.667s9.333 4.187 9.333 9.333-4.187 9.333-9.333 9.333z"/><path d="M17.333 15.674v-3.38a.333.333 0 10-.666 0v3.38a1.332 1.332 0 00-.953.952h-2.38a.333.333 0 100 .667h2.38c.149.573.667 1 1.286 1a1.33 1.33 0 00.333-2.619zM17 17.626a.667.667 0 11.001-1.334.667.667 0 01-.001 1.334zm0-7.333a.333.333 0 00.334-.333v-.334a.333.333 0 10-.667 0v.334c0 .184.15.333.333.333zm0 13.334a.333.333 0 00-.333.333v.333a.333.333 0 10.667 0v-.333a.333.333 0 00-.334-.333zm7.333-7.001h-.334a.333.333 0 100 .667h.334a.333.333 0 100-.667zm-14.333 0h-.334a.333.333 0 100 .667H10a.333.333 0 100-.667zm11.95-5.088l-.236.236a.333.333 0 10.471.471l.236-.235a.333.333 0 10-.471-.472zM11.815 21.674l-.236.236a.333.333 0 10.471.47l.236-.235a.333.333 0 10-.471-.471zm10.37 0a.333.333 0 10-.471.471l.236.236a.332.332 0 00.471 0 .333.333 0 000-.472zM12.05 11.538a.333.333 0 10-.47.472l.235.235a.332.332 0 00.471 0 .333.333 0 000-.47z"/></g></svg>