<svg width="24" height="24" fill="none" xmlns="http://www.w3.org/2000/svg"><path d="M20.355 14.587a.645.645 0 00-.644.644v3.835c0 .356-.29.645-.645.645H6.434a.645.645 0 01-.645-.645v-3.835a.645.645 0 00-1.289 0v3.835C4.5 20.133 5.367 21 6.434 21h12.632A1.936 1.936 0 0021 19.066v-3.835a.645.645 0 00-.645-.644z" fill="currentColor" stroke="#fff" stroke-width=".4"/><path d="M16.3 12.552a.645.645 0 00-.912 0l-1.993 1.994V5.145a.645.645 0 00-1.29 0v9.4l-1.993-1.993a.645.645 0 00-.911.912l2.842 2.842a1 1 0 001.415 0l2.842-2.842a.645.645 0 000-.912z" fill="currentColor" stroke="#fff" stroke-width=".4"/></svg>