<svg width="24" height="24" fill="none" xmlns="http://www.w3.org/2000/svg"><path d="M18.858 7.58c-.019 0-.019-.02-.038-.038-.018-.02-.018-.038-.037-.057l-3.229-3.622c-.018-.02-.056-.038-.075-.057-.018 0-.018-.018-.037-.018a.353.353 0 00-.15-.038H7.37a2.13 2.13 0 00-2.12 2.121V18.88a2.13 2.13 0 002.12 2.121h9.386a2.131 2.131 0 002.12-2.121V7.71c0-.038-.018-.094-.018-.132zm-3.21-2.554l2.084 2.347h-2.084V5.026zm2.515 13.834a1.41 1.41 0 01-1.407 1.427H7.37a1.406 1.406 0 01-1.408-1.408V5.852c0-.788.638-1.408 1.408-1.408h7.564v3.267c0 .187.15.356.357.356h2.871V18.86z" fill="currentColor" stroke="currentColor" stroke-width=".3"/><path d="M7.783 8.067h3.135c.188 0 .357-.15.357-.356a.345.345 0 00-.357-.357H7.783a.356.356 0 100 .713zm3.135 8.616H7.783a.356.356 0 100 .713h3.135c.188 0 .357-.15.357-.357a.37.37 0 00-.357-.356zm-3.491-6.607c0 .187.15.356.356.356h8.372a.356.356 0 100-.713H7.783a.356.356 0 00-.356.357zm8.728 1.407H7.783a.356.356 0 100 .714h8.372c.188 0 .357-.15.357-.357a.345.345 0 00-.357-.357zm0 1.746H7.783a.356.356 0 100 .713h8.372c.188 0 .357-.15.357-.356a.345.345 0 00-.357-.357zm0 1.746H7.783a.356.356 0 100 .713h8.372a.356.356 0 100-.713z" fill="currentColor" stroke="currentColor" stroke-width=".3"/></svg>