<svg fill="none" height="34" width="34" xmlns="http://www.w3.org/2000/svg"><clipPath id="a"><path d="M6.75 6.75h16.5v16.5H6.75z"/></clipPath><g clip-path="url(#a)"><path d="M18.572 8.17A4.637 4.637 0 0015 9.82a4.574 4.574 0 00-3.571-1.65 4.678 4.678 0 00-4.679 4.68c0 4.428 7.728 8.751 8.041 8.918a.376.376 0 00.418 0c.067-.036.478-.262 1.082-.638l.09-1.049 4.46-2.534c1.35-1.403 2.409-3.035 2.409-4.697a4.678 4.678 0 00-4.678-4.679zM15 20.932c-1.211-.71-7.415-4.49-7.415-8.083a3.843 3.843 0 013.844-3.843 3.76 3.76 0 013.216 1.733.439.439 0 00.71 0 3.843 3.843 0 017.06 2.11c0 1.598-1.2 3.221-2.648 4.596l1.073.101-4.459 2.534c-.62.407-1.118.702-1.381.852z" fill="currentColor"/></g><g fill="currentColor"><path d="M16.7 22.654a4.24 4.24 0 007.792-3.34c-.387-.895-1.064-1.645-1.935-2.08zm7.018-.34a3.388 3.388 0 01-3.097 2.034 3.421 3.421 0 01-3.218-2.275 3.473 3.473 0 01-.194-1.113 3.398 3.398 0 013.388-3.388c2.42-.024 4.089 2.468 3.121 4.743zm-7.017.34l5.856-5.42c-2.726-1.363-5.396.314-6.026 2.564-.169.654-.118 2.18.17 2.856z"/><path d="M20.597 18.71a.434.434 0 00-.435.435v1.38h-1.38a.434.434 0 00-.435.435c0 .242.193.435.435.435h1.38v1.38c0 .242.193.435.435.435a.434.434 0 00.436-.435v-1.38h1.379a.434.434 0 00.435-.435.434.434 0 00-.435-.436h-1.38v-1.379a.434.434 0 00-.435-.435z"/></g></svg>