<svg fill="none" height="24" width="24" xmlns="http://www.w3.org/2000/svg"><path d="M3.472 13.554l.72-.208zm0-6.647l-.72-.209zm17.056 0l.72-.209zm0 6.647l-.72-.208zm-3.713 3.453l-.14-.736zm-9.63 0l.14-.736zm0-13.554l-.14-.736zm9.63 0l.14-.736zM3.52 13.721l-.72.209zm16.96 0l.72.209zm0-6.981l-.72.208zm-16.96 0l.72.208zm9.23 11.183a.75.75 0 00-1.5 0zM11.25 21a.75.75 0 001.5 0zm-1.886-.75a.75.75 0 000 1.5zm5.272 1.5a.75.75 0 100-1.5zM19.76 6.948l.049.167 1.44-.417-.048-.167zm.049 6.398l-.048.167 1.44.417.049-.167zm-15.568.167l-.048-.167-1.44.417.048.167zm-.048-6.398l.048-.167-1.44-.417-.049.167zm0 6.231a11.196 11.196 0 010-6.231l-1.44-.417a12.695 12.695 0 000 7.065zm15.616-6.231c.59 2.038.59 4.193 0 6.231l1.44.417c.67-2.31.67-4.755 0-7.065zm-3.133 9.156a25.039 25.039 0 01-9.35 0l-.28 1.473c3.273.623 6.638.623 9.91 0zM7.325 4.19a25.04 25.04 0 019.35 0l.28-1.474a26.54 26.54 0 00-9.91 0zm0 12.08c-1.492-.284-2.68-1.358-3.085-2.758l-1.44.417c.567 1.96 2.215 3.428 4.245 3.814zm9.63 1.473c2.03-.386 3.678-1.854 4.245-3.814l-1.44-.417c-.406 1.4-1.593 2.474-3.085 2.758zm-.28-13.554c1.492.284 2.68 1.358 3.085 2.758l1.44-.417c-.567-1.96-2.215-3.428-4.245-3.814zm-9.63-1.473C5.015 3.103 3.367 4.57 2.8 6.53l1.44.417c.406-1.4 1.593-2.474 3.085-2.758zm4.205 15.206V21h1.5v-3.077zM9.364 21.75h5.272v-1.5H9.364z" fill="currentColor"/></svg>