<svg fill="none" height="34" width="34" xmlns="http://www.w3.org/2000/svg"><path d="M10.543 15.593a.647.647 0 00.914 0l.835-.835a.647.647 0 000-.914l-.835-.836h11.497a1.94 1.94 0 011.939 1.939.97.97 0 00.969.969h.646a.97.97 0 00.97-.97 4.528 4.528 0 00-4.524-4.522H11.457l.835-.836a.647.647 0 000-.914l-.835-.835a.647.647 0 00-.914 0l-3.649 3.648a.323.323 0 000 .457zM11 8.296l.835.835-1.387 1.387a.323.323 0 00.229.552h12.277a3.881 3.881 0 013.877 3.877.323.323 0 01-.323.323h-.646a.323.323 0 01-.323-.323 2.588 2.588 0 00-2.585-2.585H10.677a.323.323 0 00-.229.552l1.387 1.387-.835.835-3.42-3.42zm16.383 14.176l-3.649-3.648a.647.647 0 00-.914 0l-.835.835a.646.646 0 000 .914l.835.835H11.323a1.94 1.94 0 01-1.939-1.938.97.97 0 00-.969-.97H7.77a.97.97 0 00-.97.97 4.528 4.528 0 004.524 4.523H22.82l-.835.836a.646.646 0 000 .913l.835.836a.647.647 0 00.914 0l3.649-3.649a.323.323 0 000-.457zm-4.106 3.649l-.835-.835 1.387-1.387a.323.323 0 00-.229-.552H11.323a3.881 3.881 0 01-3.877-3.877c0-.178.145-.323.323-.323h.646c.178 0 .323.145.323.323a2.588 2.588 0 002.585 2.585H23.6a.323.323 0 00.229-.552l-1.387-1.387.835-.835 3.42 3.42z" fill="currentColor"/></svg>