<svg width="24" height="24" fill="none" xmlns="http://www.w3.org/2000/svg"><path d="M5.636 20a9.21 9.21 0 01-2.463-4.69 9.31 9.31 0 01.512-5.292A9.127 9.127 0 017 5.908a8.889 8.889 0 015-1.544c1.78 0 3.52.537 5 1.543a9.126 9.126 0 013.315 4.111 9.31 9.31 0 01.512 5.292A9.212 9.212 0 0118.364 20" stroke="currentColor" stroke-width="1.5" stroke-linecap="round"/><path d="M7.757 18a5.816 5.816 0 01-1.642-3 5.729 5.729 0 01.342-3.384 5.89 5.89 0 012.21-2.629A6.104 6.104 0 0112 8c1.187 0 2.347.344 3.333.987a5.891 5.891 0 012.21 2.63A5.73 5.73 0 0117.885 15a5.815 5.815 0 01-1.642 3" stroke="currentColor" stroke-width="1.5" stroke-linecap="round"/><path d="M9.879 16a2.908 2.908 0 01-.821-1.5 2.864 2.864 0 01.17-1.692 2.945 2.945 0 011.105-1.314A3.052 3.052 0 0112 11c.593 0 1.173.172 1.667.494.493.321.878.779 1.105 1.314.227.535.286 1.124.17 1.692a2.908 2.908 0 01-.82 1.5" stroke="currentColor" stroke-width="1.5" stroke-linecap="round"/></svg>