<svg fill="none" height="34" width="34" xmlns="http://www.w3.org/2000/svg"><path d="M17 6C10.935 6 6 10.935 6 17c0 2.656.947 5.096 2.52 6.999.004.005.005.012.01.018a10.996 10.996 0 004.153 3.099l.055.024c.128.054.258.104.389.153a11.125 11.125 0 001.874.52c.083.016.166.032.25.046.116.019.233.033.35.048l.225.029c.132.014.265.024.398.033l.186.014a10.463 10.463 0 001.18 0c.063-.002.125-.009.187-.013.133-.01.266-.02.398-.033.076-.008.15-.02.226-.029.116-.015.232-.03.348-.048.084-.014.168-.03.251-.045a11.193 11.193 0 00.586-.124 12.83 12.83 0 00.574-.155 10.755 10.755 0 00.56-.184l.154-.058c.13-.049.26-.1.39-.154.018-.007.035-.016.054-.023a11 11 0 004.153-3.1c.005-.005.005-.012.01-.017A10.955 10.955 0 0028 17c0-6.065-4.935-11-11-11zm4.458 20.247l-.017.008a8.94 8.94 0 01-.398.18l-.09.04a9.874 9.874 0 01-1.027.364 9.327 9.327 0 01-.534.143c-.086.02-.172.042-.258.06-.095.02-.191.037-.286.054-.078.015-.155.03-.233.042-.107.017-.216.03-.324.044-.069.01-.137.02-.206.027-.124.013-.248.021-.373.03-.055.004-.11.01-.166.013a10.44 10.44 0 01-1.092 0c-.055-.003-.11-.009-.166-.013a9.77 9.77 0 01-.373-.03c-.069-.008-.137-.018-.206-.027a10.297 10.297 0 01-.324-.044c-.078-.012-.155-.027-.232-.042a10.239 10.239 0 01-.286-.054c-.087-.018-.173-.04-.26-.06l-.245-.06a11.03 11.03 0 01-.808-.252l-.15-.055a9.943 9.943 0 01-.356-.14l-.09-.039a10.435 10.435 0 01-.415-.188 10.316 10.316 0 01-3.327-2.565 8.093 8.093 0 015.297-5.55c.05.03.104.058.157.088l.092.052c.11.058.22.112.333.16.087.039.177.071.266.104l.053.02c.497.176 1.03.276 1.586.276s1.089-.1 1.585-.276l.053-.02c.09-.033.18-.065.266-.103a4.6 4.6 0 00.334-.161l.092-.052c.053-.03.106-.058.158-.09a8.095 8.095 0 015.296 5.552 10.328 10.328 0 01-3.326 2.564zm-8.491-12.18c0-2.224 1.81-4.034 4.033-4.034s4.033 1.81 4.033 4.034a4.03 4.03 0 01-2.288 3.63c-.018.01-.036.018-.055.027a4.125 4.125 0 01-3.38 0l-.055-.027a4.03 4.03 0 01-2.288-3.63zm12.367 8.918a8.835 8.835 0 00-5.15-5.38 4.751 4.751 0 001.583-3.538c0-2.629-2.139-4.767-4.767-4.767s-4.767 2.138-4.767 4.767a4.75 4.75 0 001.584 3.538 8.836 8.836 0 00-5.15 5.38A10.206 10.206 0 016.732 17C6.733 11.339 11.34 6.733 17 6.733S27.267 11.34 27.267 17c0 2.232-.719 4.299-1.933 5.985z" fill="currentColor" stroke="currentColor" stroke-width=".2"/></svg>