<svg width="314" height="393" fill="none" xmlns="http://www.w3.org/2000/svg"><g opacity=".7" filter="url(#filter0_f)"><path d="M73 122.533C73 95.177 95.177 73 122.533 73h10.71c27.357 0 49.534 22.177 49.534 49.533v56.324c0 13.678-11.089 24.766-24.767 24.766H97.767c-13.68 0-24.767-11.088-24.767-24.767v-56.323z" fill="#06DD69"/></g><g opacity=".7" filter="url(#filter1_f)"><path d="M241.029 270.082c0 27.357-22.176 49.534-49.533 49.534h-11.442c-27.356 0-49.533-22.177-49.533-49.534v-59.03c0-13.678 11.088-24.767 24.767-24.767h60.975c13.678 0 24.766 11.089 24.766 24.767v59.03z" fill="#00A7EF"/></g><defs><filter id="filter0_f" x=".469" y=".469" width="254.838" height="275.684" filterUnits="userSpaceOnUse" color-interpolation-filters="sRGB"><feFlood flood-opacity="0" result="BackgroundImageFix"/><feBlend in="SourceGraphic" in2="BackgroundImageFix" result="shape"/><feGaussianBlur stdDeviation="36.265" result="effect1_foregroundBlur"/></filter><filter id="filter1_f" x="57.991" y="113.755" width="255.57" height="278.392" filterUnits="userSpaceOnUse" color-interpolation-filters="sRGB"><feFlood flood-opacity="0" result="BackgroundImageFix"/><feBlend in="SourceGraphic" in2="BackgroundImageFix" result="shape"/><feGaussianBlur stdDeviation="36.265" result="effect1_foregroundBlur"/></filter></defs></svg>