<svg width="24" height="24" viewBox="0 0 24 24" fill="none" xmlns="http://www.w3.org/2000/svg">
<path d="M20.125 4H3.87501C2.84107 4 2 4.84107 2 5.87501V17.125C2 18.159 2.84107 19 3.87501 19H20.125C21.1589 19 22 18.159 22 17.125V5.87501C22 4.84107 21.1589 4 20.125 4ZM20.125 5.24999C20.2099 5.24999 20.2907 5.26761 20.3645 5.29838L12 12.548L3.63542 5.29838C3.70927 5.26765 3.79005 5.24999 3.87497 5.24999H20.125ZM20.125 17.75H3.87501C3.53017 17.75 3.24999 17.4699 3.24999 17.125V6.61901L11.5904 13.8474C11.7083 13.9493 11.8541 14 12 14C12.1459 14 12.2917 13.9494 12.4096 13.8474L20.75 6.61901V17.125C20.75 17.4699 20.4698 17.75 20.125 17.75Z" fill="#8492A6"/>
</svg>
