<svg width="10" height="10" viewBox="0 0 10 10" fill="none" xmlns="http://www.w3.org/2000/svg">
<path d="M5.5863 5.00309L9.87289 0.7165C10.0383 0.556717 10.0429 0.29308 9.88314 0.127636C9.72336 -0.0378079 9.45972 -0.0423954 9.29428 0.117387C9.29081 0.120731 9.2874 0.124147 9.28403 0.127636L4.99741 4.41423L0.710807 0.127612C0.545363 -0.0321711 0.281725 -0.0275835 0.121942 0.137861C-0.0339369 0.299254 -0.0339369 0.555107 0.121942 0.7165L4.40854 5.00309L0.121942 9.28968C-0.0406474 9.45229 -0.0406474 9.71593 0.121942 9.87854C0.284556 10.0411 0.548194 10.0411 0.710807 9.87854L4.99741 5.59195L9.28401 9.87854C9.44945 10.0383 9.71309 10.0337 9.87287 9.86829C10.0287 9.7069 10.0287 9.45105 9.87287 9.28968L5.5863 5.00309Z" fill="#273444"/>
</svg>
