<svg width="80" height="80" fill="none" xmlns="http://www.w3.org/2000/svg"><g filter="url(#filter0_b)" fill="#fff"><rect width="80" height="80" rx="24" fill-opacity=".2"/><path d="M32.14 40.016h1-1zm13.291 2.7l-.47-.884.47.883zm0 0l-.47-.884.47.883zm.004-5.407l-.471.882.47-.882zm0 0l-.471.882.47-.882zM35.64 33.21l5.503 2.94 2.68 1.43.832.445.229.122.06.032.015.008.003.002h.001l.472-.881.47-.882v-.001l-.004-.002-.016-.008-.06-.032-.228-.122-.832-.445a26478.76 26478.76 0 01-8.183-4.37l-.942 1.764zm9.321 8.621l-3.817 2.031-5.502 2.927.94 1.766 9.319-4.958-.94-1.766zm-11.817 3.57l-.003-5.387-2 .002.003 5.385h2zm-.003-5.387v-5.41h-2v5.412l2-.002zm11.823-1.824c1.383.738 1.38 2.905-.003 3.641l.94 1.766c2.797-1.488 2.8-5.679.005-7.171l-.942 1.764zm-13.82 7.211c.002 2.797 3.09 4.402 5.438 3.154l-.94-1.766c-1.138.606-2.497-.238-2.498-1.389l-2 .001zM45.9 43.598l-.94-1.766.94 1.766zm-12.76-8.994c0-1.157 1.361-2 2.499-1.393l.942-1.764c-2.353-1.256-5.442.358-5.442 3.157h2zm12.294 2.705c-.477.879-.473.88-.47.883l-.002-.001.943-1.764h.001l-.003-.001c.003.002.007.003-.47.883z"/></g><defs><filter id="filter0_b" x="-32" y="-32" width="144" height="144" filterUnits="userSpaceOnUse" color-interpolation-filters="sRGB"><feFlood flood-opacity="0" result="BackgroundImageFix"/><feGaussianBlur in="BackgroundImage" stdDeviation="16"/><feComposite in2="SourceAlpha" operator="in" result="effect1_backgroundBlur"/><feBlend in="SourceGraphic" in2="effect1_backgroundBlur" result="shape"/></filter></defs></svg>