<svg fill="none" height="51" viewBox="0 0 51 51" width="51" xmlns="http://www.w3.org/2000/svg" xmlns:xlink="http://www.w3.org/1999/xlink"><filter id="a" color-interpolation-filters="sRGB" filterUnits="userSpaceOnUse" height="51" width="51" x="0" y="0"><feFlood flood-opacity="0" result="BackgroundImageFix"/><feColorMatrix in="SourceAlpha" result="hardAlpha" type="matrix" values="0 0 0 0 0 0 0 0 0 0 0 0 0 0 0 0 0 0 127 0"/><feOffset/><feGaussianBlur stdDeviation="4"/><feComposite in2="hardAlpha" operator="out"/><feColorMatrix type="matrix" values="0 0 0 0 0 0 0 0 0 0 0 0 0 0 0 0 0 0 0.12 0"/><feBlend in2="BackgroundImageFix" mode="normal" result="effect1_dropShadow"/><feBlend in="SourceGraphic" in2="effect1_dropShadow" mode="normal" result="shape"/></filter><clipPath id="b"><path d="m21 20h10v10h-10z"/></clipPath><g filter="url(#a)"><rect fill="#fff" height="35" rx="17.5" width="35" x="8" y="8"/><g clip-path="url(#b)"><path d="m26.5863 25.0031 4.2866-4.2866c.1654-.1598.17-.4234.0102-.5889-.1597-.1654-.4234-.17-.5888-.0102-.0035.0033-.0069.0067-.0103.0102l-4.2866 4.2866-4.2866-4.2866c-.1654-.1598-.4291-.1552-.5889.0103-.1558.1614-.1558.4172 0 .5786l4.2866 4.2866-4.2866 4.2866c-.1625.1626-.1625.4262 0 .5888.1627.1626.4263.1626.5889 0l4.2866-4.2865 4.2866 4.2865c.1654.1598.4291.1552.5889-.0102.1558-.1614.1558-.4173 0-.5786z" fill="#8492a6"/></g></g></svg>