<svg fill="none" height="25" viewBox="0 0 25 25" width="25" xmlns="http://www.w3.org/2000/svg"><g fill="#000"><path d="m12.4987 4.16659c-2.2101 0-4.32976.87797-5.89256 2.44077-1.5628 1.56281-2.44078 3.68244-2.44078 5.89254 0 2.2102.87798 4.3298 2.44078 5.8926s3.68246 2.4408 5.89256 2.4408 4.3298-.878 5.8926-2.4408 2.4407-3.6824 2.4407-5.8926c0-2.2101-.8779-4.32973-2.4407-5.89254-1.5628-1.5628-3.6825-2.44077-5.8926-2.44077zm-10.41667 8.33331c0-5.75311 4.66354-10.41665 10.41667-10.41665 5.7531 0 10.4167 4.66354 10.4167 10.41665 0 5.7531-4.6636 10.4167-10.4167 10.4167-5.75313 0-10.41667-4.6636-10.41667-10.4167z"/><path d="m12.5 10.4167c.2763 0 .5412.1097.7366.3051.1953.1953.3051.4603.3051.7365v6.25c0 .2763-.1098.5413-.3051.7366-.1954.1954-.4603.3051-.7366.3051s-.5412-.1097-.7366-.3051c-.1953-.1953-.3051-.4603-.3051-.7366v-6.25c0-.2762.1098-.5412.3051-.7365.1954-.1954.4603-.3051.7366-.3051zm1.5625-2.6042c0 .4144-.1646.81183-.4576 1.10485-.2931.29303-.6905.45765-1.1049.45765s-.8118-.16462-1.1049-.45765c-.293-.29302-.4576-.69045-.4576-1.10485s.1646-.81183.4576-1.10485c.2931-.29303.6905-.45765 1.1049-.45765s.8118.16462 1.1049.45765c.293.29302.4576.69045.4576 1.10485z"/></g></svg>