<svg width="22" height="22" viewBox="0 0 22 22" fill="none" xmlns="http://www.w3.org/2000/svg">
<path d="M11.6462 3.66675H9.7047C8.68698 3.66675 7.8415 4.49658 7.8415 5.52995V6.20321H5.41464C5.25807 6.20321 5.13281 6.32846 5.13281 6.48503V6.50069L5.52424 14.6111C5.57121 15.7227 6.49498 16.5995 7.60664 16.5995H12.1002C12.6952 17.993 14.3079 18.635 15.7014 18.04C17.0949 17.445 17.7368 15.8323 17.1418 14.4389C16.8913 13.8595 16.4529 13.3742 15.8893 13.0923L16.2024 6.50069C16.2024 6.34412 16.0772 6.21886 15.9362 6.21886H13.4937V5.54561C13.4937 4.49658 12.6639 3.66675 11.6462 3.66675ZM8.40515 5.51429C8.40515 4.79406 8.98447 4.19909 9.72035 4.19909H11.6618C12.3821 4.19909 12.977 4.77841 12.977 5.51429V6.18755H8.40515V5.51429ZM16.6408 16.3803C16.2964 17.1789 15.4978 17.6955 14.6367 17.6955C13.6973 17.6955 12.8674 17.1006 12.5543 16.2238C12.476 15.9889 12.429 15.7541 12.429 15.5035C12.429 14.2979 13.4154 13.3115 14.621 13.3115C16.1868 13.2959 17.2671 14.9086 16.6408 16.3803ZM15.6544 6.73555L15.3569 12.8575C13.9008 12.4504 12.3977 13.2959 11.9906 14.752C11.881 15.1747 11.8497 15.6131 11.9437 16.0359H7.6223C6.80813 16.0359 6.11921 15.3939 6.0879 14.5798L5.71213 6.75121H7.85715V7.67498C7.85715 7.83155 7.98241 7.95681 8.13898 7.95681C8.29555 7.95681 8.42081 7.83155 8.42081 7.67498V6.75121H12.977V7.67498C12.977 7.83155 13.1023 7.95681 13.2589 7.95681C13.4154 7.95681 13.5407 7.83155 13.5407 7.67498V6.75121H15.6544V6.73555Z" fill="white"/>
<path d="M14.6202 14.0474C14.4636 14.0474 14.3383 14.1726 14.3383 14.3292V15.2216H13.4459C13.2893 15.2216 13.1641 15.3469 13.1641 15.5035C13.1641 15.66 13.2893 15.7853 13.4459 15.7853H14.3383V16.6778C14.3383 16.8343 14.4636 16.9596 14.6202 16.9596C14.7767 16.9596 14.902 16.8343 14.902 16.6778V15.7853H15.7945C15.951 15.7853 16.0763 15.66 16.0763 15.5035C16.0763 15.3469 15.951 15.2216 15.7945 15.2216H14.902V14.3292C14.902 14.1726 14.7767 14.0474 14.6202 14.0474Z" fill="white"/>
</svg>
