<svg width="120" height="40" viewBox="0 0 120 40" fill="none" xmlns="http://www.w3.org/2000/svg">
<g clip-path="url(#clip0)">
<path d="M109.693 0.00025207H9.4964C9.13117 0.00025207 8.77033 0.00025207 8.40607 0.00225207C8.10115 0.00425207 7.79866 0.0100621 7.49081 0.0149521C6.82202 0.0228539 6.1548 0.0819283 5.49495 0.191662C4.83603 0.303785 4.19775 0.515168 3.6017 0.818662C3.00638 1.12472 2.46242 1.52242 1.98955 1.99732C1.5142 2.47089 1.11796 3.01827 0.816061 3.61841C0.513331 4.21736 0.303417 4.85919 0.19357 5.52173C0.0826777 6.18344 0.0230056 6.85277 0.0150892 7.52373C0.00584643 7.83033 0.00487037 8.13795 0 8.44459V31.5589C0.00487037 31.8694 0.00584643 32.1702 0.0150892 32.4808C0.0230081 33.1517 0.0826801 33.821 0.19357 34.4827C0.303114 35.1456 0.51304 35.7878 0.816061 36.387C1.11782 36.9852 1.51412 37.5303 1.98955 38.0013C2.46063 38.4783 3.00494 38.8762 3.6017 39.18C4.19775 39.4843 4.83596 39.6969 5.49495 39.8108C6.15491 39.9196 6.82206 39.9787 7.49081 39.9876C7.79866 39.9944 8.10115 39.9983 8.40607 39.9983C8.77032 40.0003 9.13119 40.0003 9.4964 40.0003H109.693C110.051 40.0003 110.414 40.0003 110.772 39.9983C111.076 39.9983 111.387 39.9944 111.69 39.9876C112.358 39.9792 113.024 39.9201 113.682 39.8108C114.344 39.6961 114.984 39.4835 115.583 39.18C116.179 38.8761 116.723 38.4781 117.194 38.0013C117.668 37.5285 118.065 36.9837 118.371 36.387C118.671 35.7873 118.879 35.1452 118.987 34.4827C119.098 33.8209 119.16 33.1517 119.172 32.4808C119.176 32.1702 119.176 31.8694 119.176 31.5589C119.184 31.1956 119.184 30.8343 119.184 30.4651V9.53638C119.184 9.17017 119.184 8.80689 119.176 8.44459C119.176 8.13795 119.176 7.83033 119.172 7.52369C119.16 6.85268 119.098 6.18349 118.987 5.52169C118.879 4.85953 118.671 4.21776 118.371 3.61837C117.756 2.41545 116.781 1.43628 115.583 0.818572C114.984 0.515819 114.343 0.304493 113.682 0.191572C113.024 0.0813549 112.358 0.0222598 111.69 0.0148121C111.387 0.00993207 111.076 0.00407207 110.772 0.00212207C110.414 0.00012207 110.051 0.00012207 109.693 0.00012207V0.00025207Z" fill="#3C4858"/>
<path d="M8.41056 39.1253C8.10711 39.1253 7.81098 39.1214 7.5099 39.1146C6.8862 39.1064 6.26395 39.0519 5.64827 38.9515C5.07417 38.8522 4.51803 38.6676 3.99818 38.4036C3.4831 38.1418 3.0133 37.7986 2.60679 37.387C2.19439 36.9803 1.85105 36.5086 1.59037 35.9905C1.32683 35.4691 1.14443 34.9102 1.04955 34.3333C0.947091 33.7134 0.891654 33.0866 0.883722 32.4583C0.877407 32.2474 0.869141 31.5452 0.869141 31.5452V8.44465C0.869141 8.44465 0.877945 7.75324 0.883772 7.55011C0.891367 6.92279 0.946481 6.29696 1.04864 5.67804C1.14369 5.09956 1.32623 4.53905 1.58992 4.01594C1.84963 3.49825 2.19107 3.02617 2.60098 2.61799C3.01043 2.20593 3.48173 1.86091 3.99769 1.59552C4.51634 1.3324 5.07144 1.14904 5.64437 1.05158C6.26208 0.950141 6.88649 0.895301 7.51235 0.887515L8.41105 0.875305H110.767L111.676 0.888005C112.297 0.895404 112.915 0.949755 113.527 1.0506C114.106 1.14928 114.667 1.33392 115.192 1.59845C116.225 2.13329 117.066 2.97947 117.597 4.01838C117.856 4.53788 118.036 5.09381 118.13 5.6673C118.233 6.2913 118.291 6.92204 118.303 7.55451C118.306 7.83771 118.306 8.14191 118.306 8.44465C118.314 8.81965 118.314 9.17658 118.314 9.53644V30.4651C118.314 30.8284 118.314 31.1829 118.306 31.5403C118.306 31.8655 118.306 32.1634 118.302 32.47C118.29 33.0912 118.234 33.7107 118.132 34.3235C118.039 34.9046 117.857 35.4678 117.594 35.9935C117.331 36.5059 116.99 36.9736 116.582 37.3792C116.176 37.793 115.705 38.1383 115.189 38.4017C114.666 38.6677 114.106 38.8531 113.527 38.9515C112.912 39.0525 112.289 39.107 111.666 39.1146C111.374 39.1214 111.069 39.1253 110.772 39.1253L109.692 39.1273L8.41056 39.1253Z" fill="#3C4858"/>
<path d="M24.6695 20.3009C24.6803 19.4663 24.9011 18.6479 25.3114 17.9219C25.7218 17.196 26.3084 16.5861 27.0166 16.1489C26.5667 15.5037 25.9732 14.9728 25.2831 14.5982C24.5931 14.2237 23.8256 14.0158 23.0415 13.9912C21.369 13.8149 19.7476 14.996 18.8953 14.996C18.0266 14.996 16.7143 14.0087 15.3013 14.0379C14.3873 14.0675 13.4966 14.3344 12.7158 14.8125C11.9351 15.2905 11.291 15.9635 10.8463 16.7658C8.92011 20.1142 10.3569 25.0352 12.2021 27.7418C13.1253 29.0672 14.2042 30.5476 15.616 30.4951C16.9974 30.4376 17.5134 29.6107 19.181 29.6107C20.8331 29.6107 21.3172 30.4951 22.7576 30.4618C24.24 30.4376 25.174 29.1305 26.0647 27.7926C26.728 26.8483 27.2385 25.8045 27.5771 24.7001C26.7158 24.3344 25.9809 23.7222 25.4638 22.9399C24.9468 22.1576 24.6706 21.2398 24.6695 20.3009Z" fill="white"/>
<path d="M21.9484 12.2111C22.7566 11.2369 23.1548 9.98475 23.0584 8.72052C21.8236 8.85074 20.6829 9.4433 19.8637 10.3801C19.4632 10.8378 19.1564 11.3702 18.961 11.947C18.7655 12.5238 18.6852 13.1336 18.7246 13.7415C19.3422 13.7479 19.9533 13.6135 20.5117 13.3484C21.0701 13.0833 21.5613 12.6945 21.9484 12.2111Z" fill="white"/>
<path d="M42.1324 27.1398H37.4181L36.2859 30.4962H34.2891L38.7545 18.0782H40.8291L45.2945 30.4962H43.2636L42.1324 27.1398ZM37.9063 25.591H41.6432L39.8011 20.1437H39.7495L37.9063 25.591Z" fill="white"/>
<path d="M54.9375 25.97C54.9375 28.7835 53.4377 30.5911 51.1743 30.5911C50.601 30.6212 50.0308 30.4886 49.529 30.2085C49.0272 29.9283 48.6142 29.512 48.3371 29.0071H48.2943V33.4915H46.4434V21.4427H48.235V22.9485H48.269C48.5588 22.446 48.9789 22.0319 49.4845 21.75C49.99 21.4682 50.5623 21.3292 51.1403 21.3479C53.4289 21.3479 54.9375 23.1643 54.9375 25.97ZM53.035 25.97C53.035 24.137 52.0915 22.9319 50.652 22.9319C49.2378 22.9319 48.2865 24.1624 48.2865 25.97C48.2865 27.7942 49.2378 29.0159 50.652 29.0159C52.0915 29.0159 53.035 27.8196 53.035 25.97Z" fill="white"/>
<path d="M64.8632 25.9698C64.8632 28.7833 63.3634 30.5909 61.1001 30.5909C60.5267 30.621 59.9565 30.4884 59.4548 30.2083C58.953 29.9281 58.54 29.5118 58.2629 29.0069H58.2201V33.4913H56.3691V21.4425H58.1607V22.9483H58.1948C58.4846 22.4459 58.9046 22.0317 59.4102 21.7498C59.9158 21.468 60.488 21.329 61.066 21.3477C63.3547 21.3477 64.8632 23.1641 64.8632 25.9698ZM62.9607 25.9698C62.9607 24.1368 62.0173 22.9317 60.5778 22.9317C59.1636 22.9317 58.2123 24.1622 58.2123 25.9698C58.2123 27.794 59.1636 29.0157 60.5778 29.0157C62.0173 29.0157 62.9607 27.8194 62.9607 25.9698H62.9607Z" fill="white"/>
<path d="M71.4221 27.0364C71.5592 28.2678 72.7507 29.0764 74.3789 29.0764C75.939 29.0764 77.0615 28.2678 77.0615 27.1574C77.0615 26.1935 76.3845 25.6164 74.7816 25.2209L73.1787 24.8332C70.9076 24.2824 69.8532 23.216 69.8532 21.4855C69.8532 19.343 71.7129 17.8713 74.3536 17.8713C76.9671 17.8713 78.7587 19.343 78.819 21.4855H76.9506C76.8387 20.2463 75.8184 19.4982 74.3273 19.4982C72.8363 19.4982 71.816 20.2551 71.816 21.3566C71.816 22.2346 72.4677 22.7512 74.0618 23.1466L75.4245 23.4826C77.9621 24.0851 79.0165 25.1086 79.0165 26.925C79.0165 29.2482 77.1733 30.7033 74.2417 30.7033C71.4989 30.7033 69.647 29.2824 69.5273 27.0363L71.4221 27.0364Z" fill="white"/>
<path d="M83.0107 19.3V21.4426H84.7254V22.9143H83.0107V27.9055C83.0107 28.6809 83.354 29.0422 84.1078 29.0422C84.3114 29.0387 84.5146 29.0243 84.7167 28.9992V30.4621C84.3778 30.5257 84.0333 30.5545 83.6886 30.5481C81.8629 30.5481 81.151 29.8596 81.151 28.1037V22.9143H79.8398V21.4426H81.1509V19.3H83.0107Z" fill="white"/>
<path d="M85.7188 25.97C85.7188 23.1213 87.3897 21.3313 89.9955 21.3313C92.6099 21.3313 94.2731 23.1213 94.2731 25.97C94.2731 28.8264 92.6187 30.6086 89.9955 30.6086C87.3732 30.6086 85.7188 28.8264 85.7188 25.97ZM92.3872 25.97C92.3872 24.0159 91.4953 22.8625 89.9954 22.8625C88.4956 22.8625 87.6047 24.0247 87.6047 25.97C87.6047 27.9319 88.4956 29.0764 89.9954 29.0764C91.4953 29.0764 92.3871 27.9319 92.3871 25.97H92.3872Z" fill="white"/>
<path d="M95.8008 21.4427H97.5661V22.9837H97.609C97.7284 22.5024 98.0092 22.0771 98.4042 21.7792C98.7992 21.4813 99.2843 21.329 99.778 21.3479C99.9913 21.3472 100.204 21.3705 100.412 21.4173V23.1556C100.143 23.073 99.8619 23.035 99.5805 23.0433C99.3116 23.0323 99.0435 23.0799 98.7947 23.1828C98.5458 23.2857 98.3221 23.4414 98.1389 23.6393C97.9556 23.8372 97.8172 24.0726 97.7331 24.3292C97.649 24.5859 97.6213 24.8578 97.6517 25.1263V30.4964H95.8008L95.8008 21.4427Z" fill="white"/>
<path d="M108.945 27.8372C108.696 29.4807 107.102 30.6086 105.062 30.6086C102.439 30.6086 100.811 28.844 100.811 26.0129C100.811 23.1731 102.447 21.3313 104.984 21.3313C107.479 21.3313 109.048 23.052 109.048 25.7971V26.4338H102.679V26.5461C102.65 26.8793 102.691 27.215 102.801 27.5308C102.911 27.8467 103.086 28.1355 103.315 28.378C103.545 28.6206 103.823 28.8113 104.132 28.9376C104.44 29.0639 104.772 29.1229 105.105 29.1106C105.542 29.1517 105.981 29.05 106.356 28.8206C106.731 28.5911 107.023 28.2462 107.187 27.8371L108.945 27.8372ZM102.688 25.135H107.196C107.213 24.8354 107.167 24.5356 107.063 24.2544C106.959 23.9732 106.798 23.7166 106.59 23.5009C106.382 23.2851 106.133 23.1148 105.856 23.0006C105.58 22.8863 105.283 22.8307 104.984 22.8372C104.683 22.8354 104.384 22.8935 104.105 23.0082C103.826 23.123 103.573 23.292 103.359 23.5057C103.146 23.7193 102.976 23.9733 102.861 24.2529C102.746 24.5326 102.687 24.8324 102.688 25.135V25.135Z" fill="white"/>
<path d="M36.5911 11.2537H37.3857C37.5225 11.2708 37.6614 11.2593 37.7935 11.2198C37.9256 11.1804 38.0482 11.1139 38.1535 11.0245C38.2587 10.9352 38.3444 10.8249 38.4051 10.7006C38.4659 10.5763 38.5003 10.4408 38.5062 10.3025C38.5062 9.75224 38.0938 9.39677 37.3945 9.39677C37.2543 9.3771 37.1117 9.38583 36.975 9.42244C36.8382 9.45905 36.7102 9.5228 36.5984 9.60991C36.4866 9.69703 36.3933 9.80575 36.3241 9.92966C36.2548 10.0536 36.211 10.1901 36.1952 10.3313H35.3227C35.3378 10.075 35.4052 9.82458 35.5208 9.59557C35.6364 9.36656 35.7977 9.1639 35.9947 9.00019C36.1917 8.83649 36.4201 8.71525 36.6658 8.64403C36.9115 8.57281 37.1691 8.55313 37.4227 8.58622C38.5928 8.58622 39.4166 9.24393 39.4166 10.1907C39.4194 10.5079 39.3137 10.8164 39.1172 11.0648C38.9207 11.3132 38.6453 11.4864 38.337 11.5555V11.6258C38.7025 11.642 39.0467 11.803 39.2944 12.0733C39.5421 12.3437 39.6731 12.7016 39.6588 13.0686C39.6318 13.3325 39.5525 13.5883 39.4257 13.8211C39.2989 14.0538 39.1271 14.2588 38.9204 14.424C38.7137 14.5893 38.4762 14.7114 38.2218 14.7832C37.9675 14.8551 37.7014 14.8753 37.4392 14.8426C37.1765 14.8785 36.9092 14.861 36.6533 14.7911C36.3975 14.7211 36.1583 14.6001 35.95 14.4354C35.7417 14.2706 35.5685 14.0654 35.4409 13.832C35.3132 13.5986 35.2337 13.3418 35.207 13.0769H36.0931C36.1466 13.6477 36.6689 14.0159 37.4392 14.0159C38.2096 14.0159 38.7124 13.6024 38.7124 13.0194C38.7124 12.4281 38.2387 12.0638 37.411 12.0638H36.5911V11.2537Z" fill="white"/>
<path d="M40.666 13.4246C40.666 12.6141 41.2681 12.1468 42.3341 12.0804L43.5489 12.0101V11.6214C43.5489 11.1458 43.2367 10.8773 42.6308 10.8773C42.1367 10.8773 41.7953 11.0594 41.696 11.3777H40.8391C40.9296 10.6043 41.6552 10.1082 42.6726 10.1082C43.797 10.1082 44.4311 10.6702 44.4311 11.6214V14.6981H43.5781V14.0652H43.5081C43.3659 14.2922 43.1663 14.4773 42.9297 14.6015C42.693 14.7257 42.4277 14.7846 42.161 14.7722C41.9727 14.7919 41.7824 14.7717 41.6024 14.713C41.4223 14.6543 41.2565 14.5584 41.1157 14.4314C40.9748 14.3045 40.8621 14.1493 40.7846 13.9759C40.7072 13.8025 40.6668 13.6147 40.666 13.4246ZM43.5489 13.0398V12.6634L42.4537 12.7337C41.8361 12.7752 41.5559 12.9861 41.5559 13.3831C41.5559 13.7884 41.9061 14.0242 42.3876 14.0242C42.5287 14.0386 42.6712 14.0243 42.8066 13.9822C42.9421 13.9401 43.0678 13.8711 43.1761 13.7792C43.2845 13.6874 43.3733 13.5746 43.4374 13.4476C43.5014 13.3206 43.5393 13.1819 43.5489 13.0398Z" fill="white"/>
<path d="M46.7796 10.9431V14.698H45.8945V10.1951H48.8475V10.9431L46.7796 10.9431Z" fill="white"/>
<path d="M54.2116 12.4447C54.2116 13.8753 53.4909 14.7723 52.3587 14.7723C52.0808 14.7914 51.8033 14.7303 51.5588 14.5963C51.3142 14.4623 51.113 14.2609 50.9786 14.0159H50.9085V16.1951H50.0234V10.1951H50.8755V10.9393H50.9416C51.0784 10.6858 51.2823 10.4751 51.5309 10.3306C51.7794 10.1861 52.0629 10.1134 52.35 10.1205C53.4909 10.1204 54.2116 11.0135 54.2116 12.4447ZM53.3012 12.4447C53.3012 11.4935 52.8528 10.9188 52.103 10.9188C51.358 10.9188 50.892 11.5057 50.892 12.4486C50.892 13.387 51.3579 13.9744 52.0991 13.9744C52.8528 13.9744 53.3012 13.3997 53.3012 12.4447Z" fill="white"/>
<path d="M55.3908 16.3108V15.5457C55.4866 15.5579 55.5831 15.5634 55.6796 15.5623C55.8682 15.5763 56.0553 15.5199 56.205 15.4039C56.3547 15.2879 56.4565 15.1205 56.4908 14.9338L56.5569 14.7146L54.9336 10.1951H55.8975L57.0219 13.7717H57.0919L58.2124 10.1951H59.151L57.479 14.884C57.0958 15.9797 56.6718 16.3313 55.7575 16.3313C55.6835 16.3313 55.4734 16.323 55.3908 16.3108Z" fill="white"/>
<path d="M59.8398 13.4201H60.7211C60.8076 13.8171 61.1782 14.0241 61.6966 14.0241C62.286 14.0241 62.6479 13.7634 62.6479 13.3581C62.6479 12.9241 62.323 12.717 61.6966 12.717H61.0255V12.0266H61.6849C62.2199 12.0266 62.4922 11.8201 62.4922 11.4436C62.4922 11.113 62.2287 10.8606 61.6849 10.8606C61.1899 10.8606 60.8281 11.0715 60.7706 11.427H59.9177C59.9814 11.0186 60.2023 10.6515 60.5328 10.4049C60.8633 10.1583 61.277 10.0517 61.6849 10.1082C62.751 10.1082 63.3608 10.5921 63.3608 11.3528C63.3658 11.5646 63.2982 11.7718 63.1693 11.9396C63.0404 12.1074 62.8581 12.2257 62.6527 12.2747V12.345C62.8972 12.3766 63.1216 12.4973 63.2833 12.6841C63.445 12.8708 63.5328 13.1107 63.5301 13.3582C63.5301 14.2142 62.8045 14.7805 61.6966 14.7805C60.7172 14.7805 59.9216 14.3298 59.8398 13.4201Z" fill="white"/>
<path d="M64.8047 14.698V10.1951H65.682V13.2922H65.752L67.8189 10.1951H68.6963V14.698H67.8189V11.5842H67.7528L65.682 14.698L64.8047 14.698Z" fill="white"/>
<path d="M73.529 10.9431H72.1167V14.698H71.2307V10.9431H69.8184V10.1951H73.529V10.9431Z" fill="white"/>
<path d="M78.2969 13.4823C78.1763 13.8938 77.9155 14.2497 77.5601 14.4878C77.2047 14.7259 76.7773 14.8311 76.3526 14.785C76.0571 14.7928 75.7635 14.736 75.4921 14.6185C75.2206 14.5009 74.978 14.3255 74.7809 14.1044C74.5837 13.8832 74.4369 13.6217 74.3506 13.3379C74.2642 13.054 74.2404 12.7547 74.2808 12.4608C74.2415 12.1659 74.2657 11.866 74.3519 11.5813C74.438 11.2966 74.584 11.0338 74.7801 10.8108C74.9762 10.5877 75.2177 10.4095 75.4883 10.2883C75.759 10.1671 76.0524 10.1057 76.3487 10.1082C77.5966 10.1082 78.3504 10.9642 78.3504 12.3782V12.6883H75.1835V12.7381C75.1694 12.9034 75.19 13.0698 75.2439 13.2266C75.2977 13.3835 75.3836 13.5272 75.4961 13.6487C75.6086 13.7702 75.7452 13.8667 75.897 13.9321C76.0489 13.9974 76.2127 14.0301 76.3779 14.0281C76.5894 14.0535 76.8038 14.0152 76.9936 13.918C77.1834 13.8208 77.3401 13.6691 77.4439 13.4822L78.2969 13.4823ZM75.1834 12.0311H77.4477C77.4589 11.88 77.4385 11.7283 77.3878 11.5856C77.3372 11.443 77.2573 11.3125 77.1535 11.2027C77.0496 11.0928 76.924 11.006 76.7847 10.9478C76.6455 10.8896 76.4956 10.8612 76.3448 10.8646C76.1916 10.8625 76.0397 10.8912 75.8978 10.9491C75.7559 11.007 75.627 11.0929 75.5188 11.2016C75.4105 11.3104 75.3251 11.4398 75.2675 11.5823C75.2099 11.7247 75.1813 11.8773 75.1835 12.0311H75.1834Z" fill="white"/>
<path d="M82.0508 10.1951H84.0729C84.9502 10.1951 85.4647 10.6414 85.4647 11.3401C85.4661 11.5618 85.3916 11.7772 85.2537 11.9504C85.1157 12.1235 84.9228 12.2439 84.7071 12.2912V12.3615C84.969 12.3782 85.2145 12.4951 85.393 12.6883C85.5715 12.8815 85.6692 13.1362 85.6661 13.3996C85.6661 14.1853 85.0776 14.698 84.0933 14.698H82.0508V10.1951ZM82.9281 10.8772V12.0432H83.8054C84.3404 12.0432 84.5962 11.8367 84.5962 11.4558C84.5962 11.1047 84.3735 10.8772 83.9037 10.8772L82.9281 10.8772ZM82.9281 12.6965V14.0159H83.9776C84.5009 14.0159 84.781 13.7839 84.781 13.3582C84.781 12.9075 84.4639 12.6965 83.8667 12.6965L82.9281 12.6965Z" fill="white"/>
</g>
<defs>
<clipPath id="clip0">
<rect y="0.000244141" width="119.184" height="40" rx="8" fill="white"/>
</clipPath>
</defs>
</svg>
