<svg width="24" height="24" viewBox="0 0 24 24" fill="none" xmlns="http://www.w3.org/2000/svg">
<g clip-path="url(#clip0)">
<path d="M15.6184 5.3923C14.2635 2.62576 11.4293 0.796692 8.25017 0.796692C3.7012 0.796692 0.000361231 4.47653 0.000361231 8.99962C0.000361231 10.2288 0.264261 11.407 0.785124 12.5055L0.0140015 16.3616C-0.0841524 16.8525 0.348869 17.2863 0.839826 17.1892L4.74344 16.4174C5.26903 16.6667 5.81277 16.8563 6.37146 16.987C5.11913 11.0555 9.61509 5.48783 15.6184 5.3923Z" fill="white"/>
<path d="M23.2149 18.5054C23.3496 18.2213 23.4667 17.9318 23.5669 17.6376H23.5412C25.2965 12.4853 21.6051 7.07027 16.1554 6.8066C16.1553 6.80632 16.1553 6.80604 16.1552 6.80576C11.4661 6.58967 7.57031 10.3441 7.57031 14.9995C7.57031 19.5188 11.2434 23.1957 15.7612 23.2023C16.9866 23.2007 18.1612 22.9368 19.2565 22.4173C23.5317 23.2625 23.1983 23.2024 23.2965 23.2024C23.7408 23.2024 24.0727 22.7953 23.986 22.3615L23.2149 18.5054Z" fill="white"/>
</g>
<defs>
<clipPath id="clip0">
<rect width="24" height="24" fill="white"/>
</clipPath>
</defs>
</svg>
