<svg width="24" height="24" fill="none" xmlns="http://www.w3.org/2000/svg"><path d="M3.353 15.05l-.974.228.974-.228zm0-6.1l-.974-.228.974.228zm17.294 0l-.973.229.973-.229zm0 6.1l-.973-.229.973.229zm-5.597 5.597l-.229-.973.229.973zm-6.1 0l.229-.973-.229.973zm0-17.294l.229.973-.229-.973zm6.1 0l-.229.973.229-.973zm-7.024 5.34a1 1 0 00-1.414 1.413l1.414-1.414zm.333 1.747l-.707.707a1 1 0 001.414 0l-.707-.707zm2.788-1.374a1 1 0 00-1.415-1.414l1.415 1.414zm1.893-.147a1 1 0 100 2v-2zm3.641 2a1 1 0 000-2v2zm-8.655 2.975a1 1 0 00-1.414 1.414l1.414-1.414zm.333 1.747l-.707.707a1 1 0 001.414 0l-.707-.707zm2.788-1.373a1 1 0 00-1.415-1.415l1.415 1.415zm1.893-.147a1 1 0 100 2v-2zm3.641 2a1 1 0 100-2v2zm-12.355-1.3a12.354 12.354 0 010-5.642L2.38 8.722a14.354 14.354 0 000 6.556l1.947-.457zM19.674 9.18a12.356 12.356 0 010 5.642l1.947.457c.505-2.156.505-4.4 0-6.556l-1.947.457zM14.82 19.674a12.356 12.356 0 01-5.642 0l-.457 1.947c2.156.505 4.4.505 6.556 0l-.457-1.947zM9.18 4.326a12.354 12.354 0 015.642 0l.457-1.947a14.354 14.354 0 00-6.556 0l.457 1.947zm0 15.348a6.512 6.512 0 01-4.853-4.853l-1.947.457a8.511 8.511 0 006.343 6.343l.457-1.947zm6.099 1.947a8.511 8.511 0 006.343-6.343l-1.947-.457a6.512 6.512 0 01-4.853 4.853l.457 1.947zM14.82 4.326a6.512 6.512 0 014.853 4.853l1.947-.457a8.511 8.511 0 00-6.343-6.343l-.457 1.947zM8.722 2.38A8.511 8.511 0 002.38 8.722l1.947.457A6.511 6.511 0 019.18 4.326L8.722 2.38zm-2.11 7.727l1.04 1.04 1.414-1.414-1.04-1.04-1.414 1.414zm2.454 1.04l2.08-2.08-1.414-1.414-2.08 2.08 1.414 1.415zm3.974-.227h3.641v-2h-3.64v2zm-6.428 4.389l1.04 1.04 1.414-1.414-1.04-1.04-1.414 1.414zm2.454 1.04l2.08-2.08-1.414-1.415-2.08 2.08 1.414 1.415zm3.974-.227h3.641v-2h-3.64v2z" fill="#fff"/></svg>