<svg fill="none" height="24" viewBox="0 0 24 24" width="24" xmlns="http://www.w3.org/2000/svg"><g fill="#fff"><path d="m15.92 13.9426-3.0674-2.3005v-4.68627c0-.4712-.3809-.85207-.8521-.85207s-.8521.38087-.8521.85207v5.11237c0 .2683.1262.5214.3409.6816l3.4082 2.5562c.1533.115.3323.1704.5103.1704.2599 0 .5155-.1167.6826-.3417.2829-.3758.2062-.91-.1704-1.1921z"/><path d="m12 1c-6.06577 0-11 4.93423-11 11 0 6.0658 4.93423 11 11 11 6.0658 0 11-4.9342 11-11 0-6.06577-4.9342-11-11-11zm0 20.2959c-5.1251 0-9.2959-4.1708-9.2959-9.2959s4.1708-9.2959 9.2959-9.2959c5.126 0 9.2959 4.1708 9.2959 9.2959s-4.1708 9.2959-9.2959 9.2959z"/></g></svg>