<svg width="21" height="20" viewBox="0 0 21 20" fill="none" xmlns="http://www.w3.org/2000/svg">
<mask id="path-1-inside-1" fill="white">
<path d="M5.36902 8.94019C5.57328 9.14445 5.90567 9.14445 6.10994 8.94019L6.78729 8.26283C6.99156 8.05857 6.99156 7.72618 6.78729 7.52192L6.10994 6.84452H15.4319C16.2986 6.84452 17.0037 7.54962 17.0037 8.41627C17.0037 8.84962 17.3562 9.20215 17.7895 9.20215H18.3134C18.7468 9.20215 19.0993 8.84962 19.0993 8.41627C19.0993 6.39406 17.4541 4.74886 15.4319 4.74886H6.10994L6.78729 4.0715C6.99156 3.86724 6.99156 3.53485 6.78729 3.33059L6.10994 2.6532C5.90567 2.44893 5.57328 2.44893 5.36902 2.6532L2.41073 5.61149C2.3084 5.71378 2.3084 5.87964 2.41073 5.98193L5.36902 8.94019ZM5.73946 3.02367L6.41685 3.70103L5.29227 4.82561C5.12769 4.99016 5.24446 5.27278 5.4775 5.27278H15.4319C17.1652 5.27278 18.5754 6.68293 18.5754 8.41627C18.5754 8.56071 18.4579 8.67823 18.3134 8.67823H17.7895C17.6451 8.67823 17.5276 8.56071 17.5276 8.41627C17.5276 7.26071 16.5875 6.32061 15.4319 6.32061H5.4775C5.24495 6.32061 5.12736 6.6029 5.29227 6.7678L6.41685 7.89236L5.73946 8.56975L2.96644 5.79669L5.73946 3.02367Z"/>
</mask>
<path d="M5.36902 8.94019C5.57328 9.14445 5.90567 9.14445 6.10994 8.94019L6.78729 8.26283C6.99156 8.05857 6.99156 7.72618 6.78729 7.52192L6.10994 6.84452H15.4319C16.2986 6.84452 17.0037 7.54962 17.0037 8.41627C17.0037 8.84962 17.3562 9.20215 17.7895 9.20215H18.3134C18.7468 9.20215 19.0993 8.84962 19.0993 8.41627C19.0993 6.39406 17.4541 4.74886 15.4319 4.74886H6.10994L6.78729 4.0715C6.99156 3.86724 6.99156 3.53485 6.78729 3.33059L6.10994 2.6532C5.90567 2.44893 5.57328 2.44893 5.36902 2.6532L2.41073 5.61149C2.3084 5.71378 2.3084 5.87964 2.41073 5.98193L5.36902 8.94019ZM5.73946 3.02367L6.41685 3.70103L5.29227 4.82561C5.12769 4.99016 5.24446 5.27278 5.4775 5.27278H15.4319C17.1652 5.27278 18.5754 6.68293 18.5754 8.41627C18.5754 8.56071 18.4579 8.67823 18.3134 8.67823H17.7895C17.6451 8.67823 17.5276 8.56071 17.5276 8.41627C17.5276 7.26071 16.5875 6.32061 15.4319 6.32061H5.4775C5.24495 6.32061 5.12736 6.6029 5.29227 6.7678L6.41685 7.89236L5.73946 8.56975L2.96644 5.79669L5.73946 3.02367Z" fill="#0095FF"/>
<path d="M5.36902 8.94019L6.18123 8.12798L6.18122 8.12798L5.36902 8.94019ZM6.10994 8.94019L6.92214 9.7524L6.10994 8.94019ZM6.78729 8.26283L5.97509 7.45062H5.97509L6.78729 8.26283ZM6.78729 7.52192L5.97507 8.3341L5.97509 8.33412L6.78729 7.52192ZM6.10994 6.84452V5.69589H3.33699L5.29771 7.65671L6.10994 6.84452ZM6.10994 4.74886L5.29773 3.93665L3.33689 5.89749H6.10994V4.74886ZM6.78729 4.0715L7.5995 4.88371V4.88371L6.78729 4.0715ZM6.78729 3.33059L5.97507 4.14277L5.97509 4.14279L6.78729 3.33059ZM6.10994 2.6532L6.92216 1.84101L6.92214 1.84099L6.10994 2.6532ZM5.36902 2.6532L4.55681 1.84099L5.36902 2.6532ZM2.41073 5.61149L3.22281 6.42382L3.22294 6.42369L2.41073 5.61149ZM2.41073 5.98193L3.22293 5.16972L3.22281 5.16959L2.41073 5.98193ZM5.73946 3.02367L6.55165 2.21144L5.73944 1.39928L4.92726 2.21146L5.73946 3.02367ZM6.41685 3.70103L7.22906 4.51323L8.04128 3.70101L7.22904 2.8888L6.41685 3.70103ZM5.29227 4.82561L6.10439 5.6379L6.10447 5.63782L5.29227 4.82561ZM5.29227 6.7678L4.48006 7.58001L4.48007 7.58002L5.29227 6.7678ZM6.41685 7.89236L7.22906 8.70456L8.04128 7.89234L7.22905 7.08014L6.41685 7.89236ZM5.73946 8.56975L4.92725 9.38195L5.73946 10.1942L6.55167 9.38195L5.73946 8.56975ZM2.96644 5.79669L2.15423 4.98449L1.34203 5.79669L2.15423 6.60889L2.96644 5.79669ZM4.55681 9.7524C5.20965 10.4052 6.26931 10.4052 6.92214 9.7524L5.29773 8.12798C5.54204 7.88368 5.93692 7.88368 6.18123 8.12798L4.55681 9.7524ZM6.92214 9.7524L7.5995 9.07504L5.97509 7.45062L5.29773 8.12798L6.92214 9.7524ZM7.5995 9.07504C8.25233 8.42221 8.25233 7.36254 7.5995 6.70971L5.97509 8.33412C5.73078 8.08981 5.73078 7.69493 5.97509 7.45062L7.5995 9.07504ZM7.59952 6.70973L6.92216 6.03234L5.29771 7.65671L5.97507 8.3341L7.59952 6.70973ZM6.10994 7.99316H15.4319V5.69589H6.10994V7.99316ZM15.4319 7.99316C15.6642 7.99316 15.855 8.18399 15.855 8.41627H18.1523C18.1523 6.91525 16.9329 5.69589 15.4319 5.69589V7.99316ZM15.855 8.41627C15.855 9.48402 16.7219 10.3508 17.7895 10.3508V8.05351C17.9906 8.05351 18.1523 8.21521 18.1523 8.41627H15.855ZM17.7895 10.3508H18.3134V8.05351H17.7895V10.3508ZM18.3134 10.3508C19.3811 10.3508 20.2479 9.48402 20.2479 8.41627H17.9507C17.9507 8.21522 18.1124 8.05351 18.3134 8.05351V10.3508ZM20.2479 8.41627C20.2479 5.75968 18.0885 3.60023 15.4319 3.60023V5.89749C16.8198 5.89749 17.9507 7.02843 17.9507 8.41627H20.2479ZM15.4319 3.60023H6.10994V5.89749H15.4319V3.60023ZM6.92214 5.56107L7.5995 4.88371L5.97509 3.2593L5.29773 3.93665L6.92214 5.56107ZM7.5995 4.88371C8.25233 4.23088 8.25233 3.17121 7.5995 2.51838L5.97509 4.14279C5.73078 3.89849 5.73078 3.5036 5.97509 3.2593L7.5995 4.88371ZM7.59952 2.5184L6.92216 1.84101L5.29771 3.46538L5.97507 4.14277L7.59952 2.5184ZM6.92214 1.84099C6.26931 1.18816 5.20965 1.18816 4.55681 1.84099L6.18123 3.4654C5.93692 3.70971 5.54204 3.70971 5.29773 3.4654L6.92214 1.84099ZM4.55681 1.84099L1.59852 4.79928L3.22294 6.42369L6.18123 3.4654L4.55681 1.84099ZM1.59865 4.79915C1.04758 5.35005 1.04758 6.24337 1.59865 6.79427L3.22281 5.16959C3.56922 5.5159 3.56922 6.07752 3.22281 6.42382L1.59865 4.79915ZM1.59853 6.79414L4.55682 9.7524L6.18122 8.12798L3.22293 5.16972L1.59853 6.79414ZM4.92728 3.8359L5.60467 4.51325L7.22904 2.8888L6.55165 2.21144L4.92728 3.8359ZM5.60465 2.88882L4.48006 4.01341L6.10447 5.63782L7.22906 4.51323L5.60465 2.88882ZM4.48014 4.01333C3.59265 4.90065 4.21996 6.42141 5.4775 6.42141V4.12414C6.26895 4.12414 6.66274 5.07967 6.10439 5.6379L4.48014 4.01333ZM5.4775 6.42141H15.4319V4.12414H5.4775V6.42141ZM15.4319 6.42141C16.5309 6.42141 17.4268 7.3173 17.4268 8.41627H19.724C19.724 6.04856 17.7996 4.12414 15.4319 4.12414V6.42141ZM17.4268 8.41627C17.4268 7.92634 17.8235 7.5296 18.3134 7.5296V9.82686C19.0923 9.82686 19.724 9.19508 19.724 8.41627H17.4268ZM18.3134 7.5296H17.7895V9.82686H18.3134V7.5296ZM17.7895 7.5296C18.2795 7.5296 18.6762 7.92634 18.6762 8.41627H16.3789C16.3789 9.19508 17.0107 9.82686 17.7895 9.82686V7.5296ZM18.6762 8.41627C18.6762 6.62634 17.2218 5.17198 15.4319 5.17198V7.46924C15.9531 7.46924 16.3789 7.89508 16.3789 8.41627H18.6762ZM15.4319 5.17198H5.4775V7.46924H15.4319V5.17198ZM5.4775 5.17198C4.22472 5.17198 3.58938 6.68933 4.48006 7.58001L6.10447 5.9556C6.66535 6.51648 6.26519 7.46924 5.4775 7.46924V5.17198ZM4.48007 7.58002L5.60466 8.70457L7.22905 7.08014L6.10446 5.95559L4.48007 7.58002ZM5.60465 7.08015L4.92726 7.75754L6.55167 9.38195L7.22906 8.70456L5.60465 7.08015ZM6.55167 7.75755L3.77865 4.98449L2.15423 6.60889L4.92725 9.38195L6.55167 7.75755ZM3.77865 6.6089L6.55167 3.83588L4.92726 2.21146L2.15423 4.98449L3.77865 6.6089Z" fill="#0095FF" mask="url(#path-1-inside-1)"/>
<mask id="path-3-inside-2" fill="white">
<path d="M19.0226 14.518L16.0643 11.5597C15.8601 11.3555 15.5277 11.3555 15.3233 11.5597L14.646 12.2371C14.4412 12.4418 14.4412 12.7733 14.646 12.978L15.3234 13.6553H6.00139C5.13474 13.6553 4.42965 12.9503 4.42965 12.0836C4.42965 11.6503 4.07712 11.2977 3.64377 11.2977H3.11986C2.68651 11.2977 2.33398 11.6503 2.33398 12.0836C2.33398 14.1058 3.97918 15.751 6.00139 15.751H15.3234L14.646 16.4284C14.4413 16.6331 14.4412 16.9646 14.646 17.1693L15.3234 17.8467C15.5277 18.0509 15.86 18.0509 16.0643 17.8467L19.0226 14.8884C19.1249 14.7861 19.1249 14.6203 19.0226 14.518ZM15.6938 17.4762L15.0165 16.7988L16.1411 15.6743C16.3058 15.5096 16.1886 15.2271 15.9558 15.2271H6.00139C4.26805 15.2271 2.8579 13.8169 2.8579 12.0836C2.8579 11.9392 2.97542 11.8216 3.11986 11.8216H3.64377C3.78821 11.8216 3.90573 11.9392 3.90573 12.0836C3.90573 13.2392 4.84583 14.1793 6.00139 14.1793H15.9558C16.1887 14.1793 16.3056 13.8967 16.141 13.7321L15.0165 12.6075L15.6938 11.9302L18.4669 14.7032L15.6938 17.4762Z"/>
</mask>
<path d="M19.0226 14.518L16.0643 11.5597C15.8601 11.3555 15.5277 11.3555 15.3233 11.5597L14.646 12.2371C14.4412 12.4418 14.4412 12.7733 14.646 12.978L15.3234 13.6553H6.00139C5.13474 13.6553 4.42965 12.9503 4.42965 12.0836C4.42965 11.6503 4.07712 11.2977 3.64377 11.2977H3.11986C2.68651 11.2977 2.33398 11.6503 2.33398 12.0836C2.33398 14.1058 3.97918 15.751 6.00139 15.751H15.3234L14.646 16.4284C14.4413 16.6331 14.4412 16.9646 14.646 17.1693L15.3234 17.8467C15.5277 18.0509 15.86 18.0509 16.0643 17.8467L19.0226 14.8884C19.1249 14.7861 19.1249 14.6203 19.0226 14.518ZM15.6938 17.4762L15.0165 16.7988L16.1411 15.6743C16.3058 15.5096 16.1886 15.2271 15.9558 15.2271H6.00139C4.26805 15.2271 2.8579 13.8169 2.8579 12.0836C2.8579 11.9392 2.97542 11.8216 3.11986 11.8216H3.64377C3.78821 11.8216 3.90573 11.9392 3.90573 12.0836C3.90573 13.2392 4.84583 14.1793 6.00139 14.1793H15.9558C16.1887 14.1793 16.3056 13.8967 16.141 13.7321L15.0165 12.6075L15.6938 11.9302L18.4669 14.7032L15.6938 17.4762Z" fill="#0095FF"/>
<path d="M19.0226 14.518L19.8348 13.7058V13.7058L19.0226 14.518ZM16.0643 11.5597L16.8765 10.7475L16.8764 10.7474L16.0643 11.5597ZM15.3233 11.5597L14.5113 10.7473L14.5111 10.7475L15.3233 11.5597ZM14.646 12.2371L15.4581 13.0493L15.4582 13.0493L14.646 12.2371ZM14.646 12.978L15.4581 12.1658L15.4581 12.1658L14.646 12.978ZM15.3234 13.6553V14.804H18.0967L16.1355 12.8431L15.3234 13.6553ZM15.3234 15.751L16.1356 16.5632L18.0964 14.6024H15.3234V15.751ZM14.646 16.4284L15.4582 17.2406L15.4582 17.2406L14.646 16.4284ZM14.646 17.1693L15.4582 16.3571L15.4581 16.357L14.646 17.1693ZM15.3234 17.8467L14.5112 18.6589L14.5113 18.6591L15.3234 17.8467ZM16.0643 17.8467L16.8764 18.6591L16.8766 18.6589L16.0643 17.8467ZM19.0226 14.8884L19.8348 15.7007L19.8351 15.7004L19.0226 14.8884ZM15.6938 17.4762L14.8816 18.2884L15.6938 19.1007L16.506 18.2884L15.6938 17.4762ZM15.0165 16.7988L14.2043 15.9866L13.3921 16.7988L14.2043 17.611L15.0165 16.7988ZM16.1411 15.6743L15.3289 14.8621L16.1411 15.6743ZM16.141 13.7321L15.3288 14.5443L15.3288 14.5443L16.141 13.7321ZM15.0165 12.6075L14.2043 11.7953L13.3921 12.6075L14.2043 13.4197L15.0165 12.6075ZM15.6938 11.9302L16.506 11.1179L15.6938 10.3057L14.8816 11.118L15.6938 11.9302ZM18.4669 14.7032L19.2791 15.5154L20.0913 14.7032L19.2791 13.891L18.4669 14.7032ZM19.8348 13.7058L16.8765 10.7475L15.2521 12.3719L18.2104 15.3302L19.8348 13.7058ZM16.8764 10.7474C16.2236 10.0948 15.1642 10.0947 14.5113 10.7473L16.1353 12.3721C15.8912 12.6162 15.4965 12.6162 15.2522 12.372L16.8764 10.7474ZM14.5111 10.7475L13.8338 11.4249L15.4582 13.0493L16.1356 12.3719L14.5111 10.7475ZM13.8339 11.4248C13.1805 12.078 13.1803 13.1369 13.8338 13.7903L15.4581 12.1658C15.7021 12.4097 15.7019 12.8056 15.4581 13.0493L13.8339 11.4248ZM13.8338 13.7903L14.5113 14.4676L16.1355 12.8431L15.4581 12.1658L13.8338 13.7903ZM15.3234 12.5067H6.00139V14.804H15.3234V12.5067ZM6.00139 12.5067C5.76911 12.5067 5.57828 12.3159 5.57828 12.0836H3.28101C3.28101 13.5846 4.50037 14.804 6.00139 14.804V12.5067ZM5.57828 12.0836C5.57828 11.0159 4.71149 10.1491 3.64377 10.1491V12.4464C3.44275 12.4464 3.28101 12.2846 3.28101 12.0836H5.57828ZM3.64377 10.1491H3.11986V12.4464H3.64377V10.1491ZM3.11986 10.1491C2.05214 10.1491 1.18535 11.0159 1.18535 12.0836H3.48262C3.48262 12.2846 3.32089 12.4464 3.11986 12.4464V10.1491ZM1.18535 12.0836C1.18535 14.7402 3.34481 16.8996 6.00139 16.8996V14.6024C4.61355 14.6024 3.48262 13.4714 3.48262 12.0836H1.18535ZM6.00139 16.8996H15.3234V14.6024H6.00139V16.8996ZM14.5112 14.9388L13.8338 15.6162L15.4582 17.2406L16.1356 16.5632L14.5112 14.9388ZM13.8339 15.6161C13.1805 16.2693 13.1803 17.3282 13.8339 17.9816L15.4581 16.357C15.7021 16.601 15.702 16.9969 15.4582 17.2406L13.8339 15.6161ZM13.8338 17.9815L14.5112 18.6589L16.1356 17.0346L15.4582 16.3571L13.8338 17.9815ZM14.5113 18.6591C15.1642 19.3117 16.2236 19.3116 16.8764 18.6591L15.2523 17.0343C15.4964 16.7903 15.8911 16.7901 16.1355 17.0344L14.5113 18.6591ZM16.8766 18.6589L19.8348 15.7007L18.2104 14.0762L15.2521 17.0345L16.8766 18.6589ZM19.8351 15.7004C20.3855 15.1496 20.3857 14.2567 19.8348 13.7058L18.2104 15.3302C17.864 14.9839 17.8642 14.4226 18.2101 14.0765L19.8351 15.7004ZM16.5061 16.6641L15.8288 15.9867L14.2043 17.611L14.8816 18.2884L16.5061 16.6641ZM15.8287 17.611L16.9533 16.4865L15.3289 14.8621L14.2043 15.9866L15.8287 17.611ZM16.9533 16.4865C17.8422 15.5976 17.211 14.0785 15.9558 14.0785V16.3757C15.1661 16.3757 14.7694 15.4216 15.3289 14.8621L16.9533 16.4865ZM15.9558 14.0785H6.00139V16.3757H15.9558V14.0785ZM6.00139 14.0785C4.90242 14.0785 4.00653 13.1826 4.00653 12.0836H1.70927C1.70927 14.4513 3.63368 16.3757 6.00139 16.3757V14.0785ZM4.00653 12.0836C4.00653 12.5735 3.60979 12.9703 3.11986 12.9703V10.673C2.34105 10.673 1.70927 11.3048 1.70927 12.0836H4.00653ZM3.11986 12.9703H3.64377V10.673H3.11986V12.9703ZM3.64377 12.9703C3.15384 12.9703 2.7571 12.5735 2.7571 12.0836H5.05436C5.05436 11.3048 4.42258 10.673 3.64377 10.673V12.9703ZM2.7571 12.0836C2.7571 13.8735 4.21146 15.3279 6.00139 15.3279V13.0306C5.4802 13.0306 5.05436 12.6048 5.05436 12.0836H2.7571ZM6.00139 15.3279H15.9558V13.0306H6.00139V15.3279ZM15.9558 15.3279C17.2128 15.3279 17.8409 13.8076 16.9532 12.9199L15.3288 14.5443C14.7703 13.9858 15.1647 13.0306 15.9558 13.0306V15.3279ZM16.9532 12.9199L15.8287 11.7953L14.2043 13.4197L15.3288 14.5443L16.9532 12.9199ZM15.8287 13.4197L16.5061 12.7423L14.8816 11.118L14.2043 11.7953L15.8287 13.4197ZM14.8816 12.7424L17.6547 15.5154L19.2791 13.891L16.506 11.1179L14.8816 12.7424ZM17.6547 13.891L14.8816 16.664L16.506 18.2884L19.2791 15.5154L17.6547 13.891Z" fill="#0095FF" mask="url(#path-3-inside-2)"/>
</svg>
