<svg fill="none" height="10" viewBox="0 0 10 10" width="10" xmlns="http://www.w3.org/2000/svg"><path d="m9.12257 1.34494c-1.16996-1.169966-3.0634-1.169849-4.23322 0l-4.207348 4.20734c-.909336.90932-.909336 2.3889 0 3.29824.909568.90959 2.389178.90906 3.298238 0l4.20735-4.20734c.65156-.65157.65156-1.71172 0-2.36328-.65154-.65159-1.71172-.65159-2.36328 0l-3.58842 3.58841c-.13623.13623-.13623.35713 0 .49334.13623.13623.35713.13623.49334 0l3.58842-3.58841c.37953-.37954.99707-.37954 1.37658 0 .37951.37953.37951.99707 0 1.37658l-4.20733 4.20736c-.63886.63887-1.67277.63879-2.31156 0-.308709-.30871-.478729-.71916-.478729-1.15576s.17004-.84705.478729-1.15578l4.20735-4.20737c.89726-.897261 2.34935-.897143 3.24652 0 .89506.89508.89506 2.35147 0 3.24653l-1.86994 1.86994c-.13623.13623-.13623.35711 0 .49334s.35713.13623.49334 0l1.86994-1.86994c1.16995-1.16992 1.16985-3.0634.00002-4.2332z" fill="#fff"/></svg>