<svg width="15" height="14" viewBox="0 0 15 14" fill="none" xmlns="http://www.w3.org/2000/svg">
<path d="M11.9954 0H3.00458C1.62355 0 0.5 1.12355 0.5 2.50458V11.4954C0.5 12.8764 1.62355 14 3.00458 14H11.9954C13.3764 14 14.5 12.8764 14.5 11.4954V2.50458C14.5 1.12355 13.3764 0 11.9954 0ZM13.6797 11.4954C13.6797 12.4241 12.9241 13.1797 11.9954 13.1797H3.00458C2.07588 13.1797 1.32031 12.4241 1.32031 11.4954V2.50458C1.32031 1.57588 2.07588 0.820312 3.00458 0.820312H11.9954C12.9241 0.820312 13.6797 1.57588 13.6797 2.50458V11.4954Z" fill="#008CEF"/>
<path d="M12.3331 3.07517H6.08607C5.91433 2.56507 5.43185 2.19653 4.86457 2.19653C4.2973 2.19653 3.81482 2.56507 3.64307 3.07517H2.66797C2.44145 3.07517 2.25781 3.25881 2.25781 3.48533C2.25781 3.71184 2.44145 3.89548 2.66797 3.89548H3.6431C3.81485 4.40558 4.29733 4.77412 4.8646 4.77412C5.43187 4.77412 5.91436 4.40558 6.0861 3.89548H12.3331C12.5596 3.89548 12.7432 3.71184 12.7432 3.48533C12.7432 3.25881 12.5596 3.07517 12.3331 3.07517ZM4.86457 3.95381C4.60626 3.95381 4.39609 3.74364 4.39609 3.48533C4.39609 3.22701 4.60626 3.01685 4.86457 3.01685C5.12289 3.01685 5.33305 3.22701 5.33305 3.48533C5.33305 3.74364 5.12289 3.95381 4.86457 3.95381Z" fill="#008CEF"/>
<path d="M12.3331 6.58982H11.3579C11.1862 6.07972 10.7037 5.71118 10.1364 5.71118C9.56918 5.71118 9.0867 6.07972 8.91495 6.58982H2.66797C2.44145 6.58982 2.25781 6.77346 2.25781 6.99997C2.25781 7.22649 2.44145 7.41013 2.66797 7.41013H8.91495C9.0867 7.92023 9.5692 8.28877 10.1364 8.28877C10.7037 8.28877 11.1862 7.92023 11.3579 7.41013H12.3331C12.5596 7.41013 12.7432 7.22649 12.7432 6.99997C12.7432 6.77346 12.5596 6.58982 12.3331 6.58982ZM10.1364 7.46846C9.87813 7.46846 9.66797 7.25829 9.66797 6.99997C9.66797 6.74166 9.87813 6.53149 10.1364 6.53149C10.3948 6.53149 10.6049 6.74166 10.6049 6.99997C10.6049 7.25829 10.3948 7.46846 10.1364 7.46846Z" fill="#008CEF"/>
<path d="M12.3331 10.1045H7.84338C7.67163 9.59437 7.18915 9.22583 6.62188 9.22583C6.0546 9.22583 5.57212 9.59437 5.40038 10.1045H2.66797C2.44145 10.1045 2.25781 10.2881 2.25781 10.5146C2.25781 10.7411 2.44145 10.9248 2.66797 10.9248H5.40038C5.57212 11.4349 6.0546 11.8034 6.62188 11.8034C7.18915 11.8034 7.67163 11.4349 7.84338 10.9248H12.3331C12.5596 10.9248 12.7432 10.7411 12.7432 10.5146C12.7432 10.2881 12.5596 10.1045 12.3331 10.1045ZM6.62188 10.9831C6.36356 10.9831 6.15339 10.773 6.15339 10.5147C6.15339 10.2563 6.36356 10.0462 6.62188 10.0462C6.88019 10.0462 7.09036 10.2563 7.09036 10.5146C7.09036 10.7729 6.88019 10.9831 6.62188 10.9831Z" fill="#008CEF"/>
</svg>
