<svg width="135" height="40" viewBox="0 0 135 40" fill="none" xmlns="http://www.w3.org/2000/svg">
<g clip-path="url(#clip0)">
<path d="M129.889 40.0002H5.17226C2.37861 40.0002 0.183594 37.7002 0.183594 35.0002V5.00024C0.183594 2.20024 2.47838 0.000244141 5.17226 0.000244141H129.889C132.682 0.000244141 134.877 2.30024 134.877 5.00024V35.0002C134.877 37.8002 132.682 40.0002 129.889 40.0002Z" fill="#3C4858"/>
<path d="M129.889 0.800244C132.184 0.800244 134.079 2.70024 134.079 5.00024V35.0002C134.079 37.3002 132.184 39.2002 129.889 39.2002H5.17226C2.87747 39.2002 0.98178 37.3002 0.98178 35.0002V5.00024C0.98178 2.70024 2.87747 0.800244 5.17226 0.800244H129.889ZM129.889 0.000244141H5.17226C2.47838 0.000244141 0.183594 2.30024 0.183594 5.00024V35.0002C0.183594 37.8002 2.47838 40.0002 5.17226 40.0002H129.889C132.682 40.0002 134.877 37.7002 134.877 35.0002V5.00024C134.877 2.30024 132.682 0.000244141 129.889 0.000244141Z" fill="#3C4858"/>
<path d="M68.1282 21.8004C65.7337 21.8004 63.838 23.6004 63.838 26.1004C63.838 28.5004 65.7337 30.4004 68.1282 30.4004C70.5228 30.4004 72.4185 28.6004 72.4185 26.1004C72.4185 23.5004 70.5228 21.8004 68.1282 21.8004ZM68.1282 28.6004C66.8312 28.6004 65.7337 27.5004 65.7337 26.0004C65.7337 24.5004 66.8312 23.4004 68.1282 23.4004C69.4253 23.4004 70.5228 24.4004 70.5228 26.0004C70.5228 27.5004 69.4253 28.6004 68.1282 28.6004ZM58.8493 21.8004C56.4548 21.8004 54.5591 23.6004 54.5591 26.1004C54.5591 28.5004 56.4548 30.4004 58.8493 30.4004C61.2439 30.4004 63.1396 28.6004 63.1396 26.1004C63.1396 23.5004 61.2439 21.8004 58.8493 21.8004ZM58.8493 28.6004C57.5523 28.6004 56.4548 27.5004 56.4548 26.0004C56.4548 24.5004 57.5523 23.4004 58.8493 23.4004C60.1464 23.4004 61.2439 24.4004 61.2439 26.0004C61.2439 27.5004 60.1464 28.6004 58.8493 28.6004ZM47.7745 23.1004V24.9004H52.0647C51.965 25.9004 51.5659 26.7004 51.067 27.2004C50.4684 27.8004 49.4706 28.5004 47.7745 28.5004C45.0806 28.5004 43.0851 26.4004 43.0851 23.7004C43.0851 21.0004 45.1804 18.9004 47.7745 18.9004C49.1713 18.9004 50.2688 19.5004 51.067 20.2004L52.3641 18.9004C51.2666 17.9004 49.8697 17.1004 47.8743 17.1004C44.2824 17.1004 41.1895 20.1004 41.1895 23.7004C41.1895 27.3004 44.2824 30.3004 47.8743 30.3004C49.8697 30.3004 51.2666 29.7004 52.4638 28.4004C53.6611 27.2004 54.0602 25.5004 54.0602 24.2004C54.0602 23.8004 54.0602 23.4004 53.9604 23.1004H47.7745ZM93.0715 24.5004C92.6725 23.5004 91.6747 21.8004 89.4797 21.8004C87.2847 21.8004 85.4888 23.5004 85.4888 26.1004C85.4888 28.5004 87.2847 30.4004 89.6793 30.4004C91.5749 30.4004 92.7722 29.2004 93.1713 28.5004L91.7745 27.5004C91.2756 28.2004 90.677 28.7004 89.6793 28.7004C88.6815 28.7004 88.0829 28.3004 87.584 27.4004L93.2711 25.0004L93.0715 24.5004ZM87.2847 25.9004C87.2847 24.3004 88.5818 23.4004 89.4797 23.4004C90.1781 23.4004 90.8765 23.8004 91.0761 24.3004L87.2847 25.9004ZM82.5954 30.0004H84.491V17.5004H82.5954V30.0004ZM79.6022 22.7004C79.1033 22.2004 78.3051 21.7004 77.3074 21.7004C75.2121 21.7004 73.2167 23.6004 73.2167 26.0004C73.2167 28.4004 75.1124 30.2004 77.3074 30.2004C78.3051 30.2004 79.1033 29.7004 79.5024 29.2004H79.6022V29.8004C79.6022 31.4004 78.7042 32.3004 77.3074 32.3004C76.2099 32.3004 75.4117 31.5004 75.2121 30.8004L73.6158 31.5004C74.1146 32.6004 75.3119 34.0004 77.4072 34.0004C79.6022 34.0004 81.3981 32.7004 81.3981 29.6004V22.0004H79.6022V22.7004ZM77.4072 28.6004C76.1101 28.6004 75.0126 27.5004 75.0126 26.0004C75.0126 24.5004 76.1101 23.4004 77.4072 23.4004C78.7042 23.4004 79.7019 24.5004 79.7019 26.0004C79.7019 27.5004 78.7042 28.6004 77.4072 28.6004ZM101.752 17.5004H97.262V30.0004H99.1577V25.3004H101.752C103.847 25.3004 105.843 23.8004 105.843 21.4004C105.843 19.0004 103.847 17.5004 101.752 17.5004ZM101.852 23.5004H99.1577V19.2004H101.852C103.248 19.2004 104.047 20.4004 104.047 21.3004C103.947 22.4004 103.149 23.5004 101.852 23.5004ZM113.326 21.7004C111.929 21.7004 110.532 22.3004 110.033 23.6004L111.729 24.3004C112.128 23.6004 112.727 23.4004 113.425 23.4004C114.423 23.4004 115.321 24.0004 115.421 25.0004V25.1004C115.121 24.9004 114.323 24.6004 113.525 24.6004C111.729 24.6004 109.933 25.6004 109.933 27.4004C109.933 29.1004 111.43 30.2004 113.026 30.2004C114.323 30.2004 114.922 29.6004 115.421 29.0004H115.521V30.0004H117.316V25.2004C117.117 23.0004 115.421 21.7004 113.326 21.7004ZM113.126 28.6004C112.527 28.6004 111.629 28.3004 111.629 27.5004C111.629 26.5004 112.727 26.2004 113.625 26.2004C114.423 26.2004 114.822 26.4004 115.321 26.6004C115.121 27.8004 114.124 28.6004 113.126 28.6004ZM123.602 22.0004L121.507 27.4004H121.407L119.212 22.0004H117.217L120.509 29.6004L118.614 33.8004H120.509L125.598 22.0004H123.602ZM106.84 30.0004H108.736V17.5004H106.84V30.0004Z" fill="white"/>
<path d="M10.5592 7.50024C10.2599 7.80024 10.1602 8.30024 10.1602 8.90024V31.0002C10.1602 31.6002 10.3597 32.1002 10.659 32.4002L10.7588 32.5002L23.1307 20.1002V20.0002V19.9002L10.5592 7.50024Z" fill="url(#paint0_linear)"/>
<path d="M27.122 24.3002L23.0312 20.2002V20.0002V19.9002L27.122 15.8002L27.2217 15.9002L32.1106 18.7002C33.5074 19.5002 33.5074 20.8002 32.1106 21.6002L27.122 24.3002Z" fill="url(#paint1_linear)"/>
<path d="M27.2207 24.2002L23.0302 20.0002L10.5586 32.5002C11.0575 33.0002 11.7559 33.0002 12.6538 32.6002L27.2207 24.2002Z" fill="url(#paint2_linear)"/>
<path d="M27.2207 15.8002L12.6538 7.50023C11.7559 7.00023 11.0575 7.10023 10.5586 7.60023L23.0302 20.0002L27.2207 15.8002Z" fill="url(#paint3_linear)"/>
<path opacity="0.25" d="M12.6545 7.60021L32.1103 18.7002C32.7089 19.1002 33.108 19.5002 33.108 20.0002C33.108 19.5002 32.8087 19.0002 32.1103 18.6002L12.6545 7.50021C11.2577 6.70021 10.1602 7.30021 10.1602 8.90021V9.00021C10.1602 7.50021 11.2577 6.80021 12.6545 7.60021Z" fill="white"/>
<path d="M42.1886 14.3002H41.4902V12.3002H42.0889C42.5877 11.9002 42.8871 11.1002 42.8871 10.0002V7.00024H46.878V12.3002H47.5764V14.3002H46.878V13.0002H42.2884V14.3002H42.1886ZM43.5855 10.0002C43.5855 10.9002 43.3859 11.7002 42.9868 12.3002H45.98V7.70024H43.4857V10.0002H43.5855Z" fill="white" stroke="white" stroke-width="0.2" stroke-miterlimit="10"/>
<path d="M53.4638 12.2002C52.8651 12.8002 52.1667 13.1002 51.2688 13.1002C50.3708 13.1002 49.6724 12.8002 49.0737 12.2002C48.4751 11.6002 48.1758 10.9002 48.1758 10.0002C48.1758 9.10021 48.4751 8.40021 49.0737 7.80021C49.6724 7.20021 50.3708 6.90021 51.2688 6.90021C52.1667 6.90021 52.8651 7.20021 53.4638 7.80021C54.0624 8.40021 54.3617 9.10021 54.3617 10.0002C54.3617 10.9002 54.0624 11.6002 53.4638 12.2002ZM49.6724 11.7002C50.0715 12.1002 50.6701 12.4002 51.2688 12.4002C51.8674 12.4002 52.466 12.2002 52.8651 11.7002C53.2642 11.3002 53.5636 10.7002 53.5636 10.0002C53.5636 9.30021 53.364 8.70021 52.8651 8.30021C52.466 7.90021 51.8674 7.60021 51.2688 7.60021C50.6701 7.60021 50.0715 7.80021 49.6724 8.30021C49.2733 8.70021 48.974 9.30021 48.974 10.0002C48.974 10.7002 49.1735 11.3002 49.6724 11.7002Z" fill="white" stroke="white" stroke-width="0.2" stroke-miterlimit="10"/>
<path d="M58.2512 13.1002C57.3532 13.1002 56.6548 12.8002 56.0562 12.2002C55.4575 11.6002 55.1582 10.9002 55.1582 10.0002C55.1582 9.10021 55.4575 8.40021 56.0562 7.80021C56.6548 7.20021 57.3532 6.90021 58.2512 6.90021C59.1491 6.90021 59.8475 7.20021 60.4462 7.90021L59.9473 8.40021C59.5482 7.90021 58.9496 7.60021 58.2512 7.60021C57.5528 7.60021 57.0539 7.80021 56.555 8.30021C56.0562 8.70021 55.8566 9.30021 55.8566 10.0002C55.8566 10.7002 56.0562 11.3002 56.555 11.7002C56.9541 12.1002 57.5528 12.4002 58.2512 12.4002C58.9496 12.4002 59.5482 12.1002 60.0471 11.5002L60.546 12.0002C60.2466 12.3002 59.9473 12.6002 59.5482 12.8002C59.1491 13.0002 58.75 13.1002 58.2512 13.1002Z" fill="white" stroke="white" stroke-width="0.2" stroke-miterlimit="10"/>
<path d="M63.7404 13.0002H62.9422V7.70024H61.2461V7.00024H65.3368V7.70024H63.6407V13.0002H63.7404Z" fill="white" stroke="white" stroke-width="0.2" stroke-miterlimit="10"/>
<path d="M70.6231 7.00024L68.3283 12.1002C68.029 12.8002 67.5301 13.2002 66.9315 13.2002C66.7319 13.2002 66.5324 13.2002 66.3328 13.1002L66.5324 12.4002C66.6322 12.5002 66.8317 12.5002 66.9315 12.5002C67.131 12.5002 67.2308 12.5002 67.3306 12.4002C67.4304 12.3002 67.5301 12.2002 67.6299 12.0002L67.8294 11.5002L65.834 7.10024H66.7319L68.2285 10.5002L69.7251 7.00024H70.6231Z" fill="white" stroke="white" stroke-width="0.2" stroke-miterlimit="10"/>
<path d="M71.5215 13.0002V7.00024H75.8117V13.0002H75.0135V7.70024H72.2199V13.0002H71.5215Z" fill="white" stroke="white" stroke-width="0.2" stroke-miterlimit="10"/>
<path d="M77.209 13.0002V7.00024H78.0072V9.60024H81.0004V7.00024H81.7986V13.0002H81.0004V10.3002H78.0072V13.0002H77.209Z" fill="white" stroke="white" stroke-width="0.2" stroke-miterlimit="10"/>
<path d="M88.0849 12.2002C87.4862 12.8002 86.7878 13.1002 85.8899 13.1002C84.9919 13.1002 84.2935 12.8002 83.6948 12.2002C83.0962 11.6002 82.7969 10.9002 82.7969 10.0002C82.7969 9.10021 83.0962 8.40021 83.6948 7.80021C84.2935 7.20021 84.9919 6.90021 85.8899 6.90021C86.7878 6.90021 87.4862 7.20021 88.0849 7.80021C88.6835 8.40021 88.9828 9.10021 88.9828 10.0002C88.8831 10.9002 88.5837 11.6002 88.0849 12.2002ZM84.1937 11.7002C84.5928 12.1002 85.1914 12.4002 85.7901 12.4002C86.3887 12.4002 86.9874 12.2002 87.3865 11.7002C87.7856 11.3002 88.0849 10.7002 88.0849 10.0002C88.0849 9.30021 87.8853 8.70021 87.3865 8.30021C86.9874 7.90021 86.3887 7.60021 85.7901 7.60021C85.1914 7.60021 84.5928 7.80021 84.1937 8.30021C83.7946 8.70021 83.4953 9.30021 83.4953 10.0002C83.4953 10.7002 83.7946 11.3002 84.1937 11.7002Z" fill="white" stroke="white" stroke-width="0.2" stroke-miterlimit="10"/>
<path d="M92.0762 13.0002V7.00024H94.2712C94.7701 7.00024 95.1692 7.20024 95.4685 7.50024C95.7678 7.80024 95.9673 8.20024 95.9673 8.60024C95.9673 8.90024 95.8676 9.10024 95.7678 9.40024C95.668 9.60024 95.4685 9.80024 95.1692 9.90024C95.4685 10.0002 95.668 10.2002 95.8676 10.4002C96.0671 10.6002 96.1669 10.9002 96.1669 11.3002C96.1669 11.8002 95.9673 12.2002 95.668 12.5002C95.2689 12.8002 94.8698 13.0002 94.371 13.0002H92.0762ZM92.8744 9.60024H94.2712C94.5705 9.60024 94.7701 9.50024 94.9696 9.30024C95.1692 9.10024 95.2689 8.90024 95.2689 8.70024C95.2689 8.50024 95.0694 8.20024 94.9696 8.00024C94.7701 7.80024 94.5705 7.70024 94.2712 7.70024H92.8744V9.60024ZM92.8744 12.3002H94.4707C94.7701 12.3002 94.9696 12.2002 95.1692 12.0002C95.3687 11.8002 95.4685 11.6002 95.4685 11.3002C95.4685 11.1002 95.3687 10.8002 95.1692 10.6002C94.9696 10.4002 94.7701 10.3002 94.4707 10.3002H92.9741V12.3002H92.8744Z" fill="white" stroke="white" stroke-width="0.2" stroke-miterlimit="10"/>
</g>
<defs>
<linearGradient id="paint0_linear" x1="21.933" y1="8.71004" x2="5.15065" y2="25.4543" gradientUnits="userSpaceOnUse">
<stop stop-color="#00A0FF"/>
<stop offset="0.00657445" stop-color="#00A1FF"/>
<stop offset="0.2601" stop-color="#00BEFF"/>
<stop offset="0.5122" stop-color="#00D2FF"/>
<stop offset="0.7604" stop-color="#00DFFF"/>
<stop offset="1" stop-color="#00E3FF"/>
</linearGradient>
<linearGradient id="paint1_linear" x1="33.9408" y1="20.0017" x2="9.79871" y2="20.0017" gradientUnits="userSpaceOnUse">
<stop stop-color="#FFE000"/>
<stop offset="0.4087" stop-color="#FFBD00"/>
<stop offset="0.7754" stop-color="#FFA500"/>
<stop offset="1" stop-color="#FF9C00"/>
</linearGradient>
<linearGradient id="paint2_linear" x1="24.9528" y1="22.2964" x2="2.19453" y2="45.0031" gradientUnits="userSpaceOnUse">
<stop stop-color="#FF3A44"/>
<stop offset="1" stop-color="#C31162"/>
</linearGradient>
<linearGradient id="paint3_linear" x1="7.46283" y1="0.176535" x2="17.6254" y2="10.316" gradientUnits="userSpaceOnUse">
<stop stop-color="#32A071"/>
<stop offset="0.0685" stop-color="#2DA771"/>
<stop offset="0.4762" stop-color="#15CF74"/>
<stop offset="0.8009" stop-color="#06E775"/>
<stop offset="1" stop-color="#00F076"/>
</linearGradient>
<clipPath id="clip0">
<rect x="0.183594" y="0.000244141" width="134.694" height="40" rx="8" fill="white"/>
</clipPath>
</defs>
</svg>
