<svg width="126" height="26" viewBox="0 0 126 26" fill="none" xmlns="http://www.w3.org/2000/svg">
<path d="M0 2.54181C0 1.04123 1.06035 0 2.54484 0C4.08993 0 5.15028 1.04123 5.15028 2.54181C5.15028 3.95053 4.08993 4.99176 2.54484 4.99176C1.06035 4.99176 0 3.95053 0 2.54181ZM0.545323 7.65607H4.54436V25.51H0.545323V7.65607Z" fill="#1F2D3D"/>
<path d="M27.7505 7.65607L20.2675 25.51H15.9655L8.48242 7.65607H12.845L15.299 13.7809L18.1165 21.3451L20.9946 13.7809L23.4485 7.65607H27.7505Z" fill="#1F2D3D"/>
<path d="M31.0527 2.54181C31.0527 1.07185 32.1131 0 33.5976 0C35.1427 0 36.203 1.04123 36.203 2.54181C36.203 3.95053 35.1427 4.99176 33.5976 4.99176C32.1434 4.99176 31.0527 3.95053 31.0527 2.54181ZM31.5981 7.65607H35.5971V25.51H31.5981V7.65607Z" fill="#1F2D3D"/>
<path d="M59.0461 0.214355V25.51H55.4712L55.4409 23.1213C54.0776 24.8669 51.7145 25.9081 48.9273 25.9081C43.9285 25.9081 40.2324 22.2332 40.2324 16.5984C40.2324 10.9635 43.9285 7.28856 48.9273 7.28856C51.4722 7.28856 53.6535 8.14604 55.0471 9.61601V0.214355H59.0461ZM55.0471 16.5984C55.0471 13.2603 52.8355 10.9635 49.6544 10.9635C46.4734 10.9635 44.2618 13.2909 44.2618 16.5984C44.2618 19.9058 46.4734 22.2332 49.6544 22.2332C52.8355 22.2332 55.0471 19.9058 55.0471 16.5984Z" fill="#1F2D3D"/>
<path d="M81.8893 18.0989H67.7715C68.1047 20.702 70.2254 22.3557 73.3459 22.3557C75.3454 22.3557 77.3449 21.6207 78.4356 20.5183L80.8592 22.9069C79.1021 24.8363 76.2846 26 73.255 26C67.4382 26 63.6816 22.2638 63.6816 16.5677C63.6816 11.0247 67.3776 7.28857 72.8309 7.28857C79.0415 7.28857 82.4649 11.4229 81.8893 18.0989ZM67.8018 14.9753H78.072C77.7994 12.4335 75.8604 10.8104 72.9218 10.8104C70.1346 10.8104 68.3168 12.311 67.8018 14.9753Z" fill="#1F2D3D"/>
<path d="M85.2832 16.5984C85.2832 11.2391 88.9793 7.28857 94.7355 7.28857C100.462 7.28857 104.127 11.2697 104.127 16.5984C104.127 21.927 100.431 25.9081 94.7355 25.9081C88.9793 25.9081 85.2832 21.927 85.2832 16.5984ZM100.128 16.5984C100.128 13.5053 98.0074 10.9635 94.7355 10.9635C91.403 10.9635 89.3126 13.5053 89.3126 16.5984C89.3126 19.6914 91.4333 22.2332 94.7355 22.2332C98.0074 22.2332 100.128 19.6914 100.128 16.5984Z" fill="#1F2D3D"/>
<path d="M126 15.649V25.51H122.001V15.894C122.001 12.7397 120.395 10.9329 117.699 10.9329C114.76 10.9329 112.73 13.1072 112.73 16.1084V25.51H108.762V7.65605H112.337L112.367 10.0141C113.882 8.20728 115.972 7.31918 118.487 7.31918C123.001 7.28855 126 10.5654 126 15.649Z" fill="#1F2D3D"/>
</svg>
