<svg width="98" height="20" fill="none" xmlns="http://www.w3.org/2000/svg"><g clip-path="url(#clip0)"><path d="M0 1.955C0 .802.82 0 1.97 0c1.195 0 2.015.8 2.015 1.955 0 1.084-.82 1.885-2.016 1.885C.82 3.84 0 3.038 0 1.955zM.422 5.89h3.095v13.734H.422V5.89zm21.051 0l-5.789 13.734h-3.329L6.565 5.89H9.94l1.899 4.712 2.18 5.818 2.227-5.818 1.9-4.712h3.328zm2.556-3.934C24.03.825 24.85 0 26 0c1.195 0 2.015.8 2.015 1.955 0 1.084-.82 1.885-2.015 1.885-1.126 0-1.97-.8-1.97-1.885zm.423 3.934h3.093v13.734h-3.093V5.89zM45.69.165v19.458h-2.766l-.023-1.838c-1.055 1.343-2.883 2.144-5.04 2.144-3.87 0-6.728-2.827-6.728-7.161s2.86-7.162 6.728-7.162c1.969 0 3.657.66 4.736 1.79V.166h3.093zm-3.094 12.603c0-2.568-1.711-4.334-4.172-4.334-2.462 0-4.174 1.79-4.174 4.334 0 2.544 1.712 4.334 4.173 4.334 2.461 0 4.173-1.79 4.173-4.334zm20.771 1.154H52.442c.258 2.003 1.898 3.275 4.313 3.275 1.548 0 3.094-.566 3.939-1.414l1.875 1.838C61.209 19.105 59.03 20 56.685 20c-4.5 0-7.407-2.874-7.407-7.255 0-4.264 2.86-7.139 7.08-7.139 4.805 0 7.454 3.18 7.009 8.316zM52.466 11.52h7.947c-.211-1.954-1.712-3.204-3.985-3.204-2.157 0-3.564 1.155-3.962 3.204zm13.526 1.249c0-4.123 2.86-7.162 7.315-7.162 4.43 0 7.267 3.063 7.267 7.162s-2.86 7.161-7.267 7.161c-4.454 0-7.315-3.062-7.315-7.161zm11.487 0c0-2.38-1.64-4.334-4.172-4.334-2.58 0-4.197 1.955-4.197 4.334 0 2.379 1.641 4.334 4.197 4.334 2.532 0 4.172-1.955 4.172-4.334zm20.021-.73v7.585h-3.094v-7.397c0-2.426-1.243-3.816-3.33-3.816-2.274 0-3.844 1.672-3.844 3.98v7.233h-3.07V5.89h2.765l.024 1.814c1.172-1.39 2.79-2.073 4.735-2.073 3.493-.023 5.814 2.497 5.814 6.408z" fill="#fff"/></g><defs><clipPath id="clip0"><path fill="#fff" d="M0 0h97.5v20H0z"/></clipPath></defs></svg>