<svg width="20" height="20" viewBox="0 0 20 20" fill="none" xmlns="http://www.w3.org/2000/svg">
<path d="M13.6582 2.5C12.2025 2.50225 10.8388 3.21226 10.002 4.40337C9.16512 3.21226 7.80143 2.50225 6.3457 2.5C3.96507 2.5 1.87695 4.71493 1.87695 7.23958C1.87695 9.70009 3.2663 12.2343 5.89502 14.5683C7.11298 15.6477 8.44903 16.586 9.87764 17.3655C9.95567 17.4057 10.0482 17.4057 10.1263 17.3655C11.5544 16.586 12.89 15.6476 14.1076 14.5683C16.7376 12.2343 18.127 9.70009 18.127 7.23958C18.127 4.71493 16.0388 2.5 13.6582 2.5ZM10.002 16.817C9.00722 16.2681 2.41862 12.433 2.41862 7.23958C2.41862 5.00336 4.25349 3.04167 6.3457 3.04167C7.76308 3.04418 9.06964 3.80881 9.76603 5.04343C9.81814 5.12304 9.90687 5.17091 10.002 5.17091C10.097 5.17091 10.1858 5.12304 10.2379 5.04343C10.9343 3.80881 12.2408 3.04418 13.6582 3.04167C15.7504 3.04167 17.5853 5.00336 17.5853 7.23958C17.5853 12.433 10.9967 16.2681 10.002 16.817Z" fill="#008CEF" stroke="#008CEF" stroke-width="0.0833333"/>
</svg>
