<svg width="13" height="13" viewBox="0 0 13 13" fill="none" xmlns="http://www.w3.org/2000/svg">
<g clip-path="url(#clip0)">
<path d="M8.30119 10.3647L7.66338 9.64312L7.13655 10.1088L8.27835 11.4006L10.1283 9.48489L9.62252 8.99647L8.30119 10.3647Z" fill="white"/>
<path d="M8.66091 7.21775C8.59681 7.21774 8.53325 7.22005 8.47017 7.22417L8.26684 3.73463L6.60326 3.73438L6.60336 3.05586C6.60351 1.92156 5.68082 0.998585 4.54651 0.998416C3.4122 0.998246 2.48923 1.92094 2.48906 3.05525L2.48896 3.73377L0.825356 3.73352L0.454892 10.0586C0.42606 10.5511 0.596569 11.02 0.935024 11.3789C1.27348 11.7378 1.73156 11.9355 2.22488 11.9356L6.42283 11.9362C6.95326 12.5844 7.7591 12.9989 8.66004 12.999C10.2539 12.9993 11.5509 11.7027 11.5511 10.1088C11.5513 8.51492 10.2548 7.21799 8.66091 7.21775ZM3.19216 3.05535C3.19227 2.30875 3.79977 1.70143 4.54638 1.70154C5.29298 1.70166 5.90032 2.30915 5.90021 3.05576L5.90011 3.73428L3.19206 3.73387L3.19216 3.05535ZM2.22498 11.2325C1.92728 11.2324 1.65082 11.1131 1.44657 10.8965C1.24233 10.6799 1.13943 10.3969 1.15682 10.0998L1.48849 4.43677L2.48883 4.43692L2.4887 5.31789L3.19182 5.318L3.19195 4.43702L5.9 4.43743L5.89987 5.3184L6.603 5.31851L6.60313 4.43753L7.60347 4.43768L7.77359 7.35714C6.61241 7.73235 5.77004 8.82352 5.76985 10.108C5.76979 10.5068 5.85094 10.8871 5.99761 11.2331L2.22498 11.2325L2.22498 11.2325ZM8.66015 12.2959C7.45396 12.2957 6.4728 11.3143 6.47298 10.1081C6.47316 8.90186 7.45461 7.9207 8.6608 7.92088C9.867 7.92106 10.8482 8.90252 10.848 10.1087C10.8478 11.3149 9.86634 12.2961 8.66015 12.2959Z" fill="white"/>
</g>
<defs>
<clipPath id="clip0">
<rect width="12" height="12" fill="white" transform="translate(0.00390625 0.997803) rotate(0.00857914)"/>
</clipPath>
</defs>
</svg>
