<svg width="13" height="13" viewBox="0 0 13 13" fill="none" xmlns="http://www.w3.org/2000/svg">
<g clip-path="url(#clip0)">
<path d="M11.1352 2.47424C10.9638 2.47421 5.50044 2.47339 5.32918 2.47337C4.88457 2.4733 4.51081 2.80648 4.45977 3.24839L3.84479 8.5755C3.78487 9.09472 4.19102 9.55132 4.71392 9.5514L10.52 9.55227C10.9646 9.55234 11.3383 9.21916 11.3894 8.77725L12.0044 3.45014C12.0643 2.93094 11.6581 2.47432 11.1352 2.47424ZM8.92933 3.17703L8.75231 4.43541L7.44112 4.43522L7.61814 3.17684L8.92933 3.17703ZM11.3059 3.36953L10.6909 8.69662C10.6808 8.78359 10.6074 8.84916 10.5201 8.84915L4.71402 8.84828C4.61085 8.84826 4.5315 8.75811 4.54328 8.65613L5.15826 3.32905C5.1683 3.24207 5.24174 3.1765 5.32907 3.17652L6.90808 3.17675L6.6885 4.73777C6.65877 4.94939 6.82327 5.13827 7.03658 5.1383L9.0578 5.13861C9.23307 5.13863 9.38156 5.00956 9.40599 4.83601L9.63932 3.17714L11.1351 3.17736C11.2383 3.17738 11.3176 3.26753 11.3059 3.36953Z" fill="white"/>
<path d="M2.81991 7.16326L0.359375 7.16289C0.165219 7.16287 0.00778893 7.32025 0.00775986 7.5144C0.00773079 7.70856 0.165113 7.86599 0.35927 7.86602L2.81981 7.86639C3.01397 7.86642 3.1714 7.70903 3.17142 7.51488C3.17145 7.32072 3.01409 7.16329 2.81991 7.16326Z" fill="white"/>
<path d="M2.82041 5.6632L0.757812 5.66289C0.563656 5.66287 0.406226 5.82025 0.406197 6.0144C0.406168 6.20856 0.563551 6.36599 0.757707 6.36602L2.8203 6.36633C3.01446 6.36636 3.17189 6.20897 3.17192 6.01482C3.17195 5.82066 3.01459 5.66323 2.82041 5.6632Z" fill="white"/>
<path d="M2.82038 4.16315L1.13281 4.16289C0.938656 4.16287 0.781226 4.32025 0.781197 4.5144C0.781168 4.70856 0.938551 4.86599 1.13271 4.86602L2.82028 4.86627C3.01443 4.8663 3.17186 4.70892 3.17189 4.51476C3.17192 4.32061 3.01456 4.16318 2.82038 4.16315Z" fill="white"/>
</g>
<defs>
<clipPath id="clip0">
<rect width="12" height="12" fill="white" transform="translate(0.0078125 0.0117188) rotate(0.00857914)"/>
</clipPath>
</defs>
</svg>
