<svg width="13" height="13" viewBox="0 0 13 13" fill="none" xmlns="http://www.w3.org/2000/svg">
<g clip-path="url(#clip0)">
<path d="M1.10478 11.8619C1.1866 9.29458 3.35118 7.22678 6.00589 7.22717C8.66 7.22757 10.824 9.29601 10.905 11.8634L9.98851 11.8632C9.90735 9.79438 8.14835 8.14342 6.00515 8.1431C3.86192 8.14278 2.10305 9.79381 2.02129 11.862L1.10478 11.8619Z" fill="white" stroke="#008CEF" stroke-width="0.3"/>
<path d="M2.82138 3.34667L2.82138 3.34662C2.82106 1.59103 4.25028 0.162199 6.00593 0.162462C7.76221 0.162725 9.19101 1.59141 9.19074 3.34762C9.19048 5.10384 7.76126 6.53209 6.00497 6.53183C4.24998 6.53157 2.82111 5.10174 2.82138 3.34667ZM6.00579 1.07839C4.75444 1.0782 3.73688 2.09546 3.7367 3.34681C3.73651 4.59816 4.75376 5.61572 6.00511 5.6159C7.25704 5.61609 8.27463 4.59886 8.27482 3.34749C8.275 2.09605 7.25645 1.07858 6.00579 1.07839Z" fill="white" stroke="#008CEF" stroke-width="0.3"/>
</g>
<defs>
<clipPath id="clip0">
<rect width="12" height="12" fill="white" transform="translate(0.00390625 0.0117188) rotate(0.00857914)"/>
</clipPath>
</defs>
</svg>
