<svg width="14" height="14" viewBox="0 0 14 14" fill="none" xmlns="http://www.w3.org/2000/svg">
<path d="M8.42273 3L1.8094 9.61369C1.77612 9.64706 1.7521 9.6892 1.74066 9.73448L1.00764 12.6766C0.985708 12.7652 1.01173 12.8594 1.07637 12.924C1.12528 12.9729 1.19192 13 1.26008 13C1.28096 13 1.30231 12.9974 1.3231 12.9922L4.2653 12.2591C4.31116 12.2476 4.35282 12.2237 4.38609 12.1904L11 5.57722L8.42273 3Z" fill="#008CEF"/>
<path d="M12.605 2.14872L11.8422 1.38343C11.3323 0.871943 10.4437 0.872438 9.93445 1.38343L9 2.32087L11.6706 5L12.605 4.06256C12.8597 3.80716 13 3.46723 13 3.10569C13 2.74415 12.8597 2.40422 12.605 2.14872Z" fill="#008CEF"/>
</svg>
