<svg fill="none" height="32" viewBox="0 0 32 32" width="32" xmlns="http://www.w3.org/2000/svg"><path d="m4.4705 11.9339c.86866-3.70322 3.76018-6.59474 7.4634-7.4634 2.6744-.62733 5.4578-.62733 8.1322 0 3.7032.86866 6.5947 3.76018 7.4634 7.4634.6273 2.6744.6273 5.4578 0 8.1322-.8687 3.7032-3.7602 6.5947-7.4634 7.4634-2.6744.6273-5.4578.6273-8.1322 0-3.70322-.8687-6.59473-3.7602-7.4634-7.4634-.62733-2.6744-.62733-5.4578 0-8.1322z" stroke="#008cef" stroke-width="1.5"/><rect height="8" rx="4" stroke="#008cef" stroke-width="1.5" width="8" x="12" y="12"/><ellipse cx="21.3333" cy="9.33333" fill="#008cef" rx="1.33333" ry="1.33333"/></svg>