<svg width="32" height="32" viewBox="0 0 32 32" fill="none" xmlns="http://www.w3.org/2000/svg">
<path d="M21.1669 25.9832L21.4076 25.8167C22.1609 25.2958 22.5376 25.0353 22.8746 24.756C24.7056 23.2385 25.9354 21.1232 26.3447 18.7874C26.42 18.3575 26.4592 17.9028 26.5375 16.9933L26.5779 16.523C26.7075 15.0175 26.6946 13.5033 26.5394 12.0003L26.4913 11.5352C26.2196 8.90493 24.6049 6.59962 22.2189 5.43551C18.2959 3.5215 13.7035 3.5215 9.78046 5.43551C7.39445 6.59962 5.77973 8.90493 5.50804 11.5352L5.45999 12.0003C5.30474 13.5033 5.29182 15.0175 5.4214 16.523L5.46188 16.9933C5.54017 17.9028 5.57932 18.3575 5.65465 18.7874C6.06396 21.1232 7.29375 23.2385 9.12474 24.756C9.4617 25.0353 9.83848 25.2958 10.5918 25.8167L10.8325 25.9832C11.8566 26.6914 12.3688 27.0455 12.882 27.2916C14.8521 28.2361 17.1473 28.2361 19.1173 27.2916C19.6306 27.0455 20.1427 26.6914 21.1669 25.9832Z" stroke="#008CEF" stroke-width="1.5"/>
<path d="M12.333 15.6668L14.9997 18.3335L19.6663 13.3335" stroke="#008CEF" stroke-width="1.5" stroke-linecap="round" stroke-linejoin="round"/>
</svg>
