<svg width="32" height="32" viewBox="0 0 32 32" fill="none" xmlns="http://www.w3.org/2000/svg">
<path d="M11.333 20.9879C11.333 19.6767 12.2778 18.5598 13.5619 18.3531C15.1769 18.0932 16.8225 18.0932 18.4375 18.3531C19.7215 18.5598 20.6663 19.6767 20.6663 20.9879V21.2782C20.6663 22.0451 20.0499 22.6667 19.2894 22.6667H12.7099C11.9495 22.6667 11.333 22.0451 11.333 21.2782V20.9879Z" stroke="#008CEF" stroke-width="1.5"/>
<path d="M18.7219 12.0785C18.7219 13.5945 17.5031 14.8236 15.9997 14.8236C14.4962 14.8236 13.2775 13.5945 13.2775 12.0785C13.2775 10.5624 14.4962 9.33337 15.9997 9.33337C17.5031 9.33337 18.7219 10.5624 18.7219 12.0785Z" stroke="#008CEF" stroke-width="1.5"/>
<path d="M28 9.33333C28 6.38781 25.0152 4 21.3333 4M4 21.3333C4 25.0152 6.38781 28 9.33333 28M9.33333 4C6.38781 4 4 6.38781 4 9.33333M21.3333 28C25.0152 28 28 25.0152 28 21.3333" stroke="#008CEF" stroke-width="1.5" stroke-linecap="round"/>
</svg>
