<svg width="24" height="24" viewBox="0 0 24 24" fill="none" xmlns="http://www.w3.org/2000/svg">
<g clip-path="url(#clip0)">
<path d="M22.2756 12.3984C22.1181 12.1563 22.1181 11.8437 22.2756 11.6016L23.1521 10.2544C23.9505 9.02734 23.4125 7.37876 22.048 6.85643L20.5471 6.28175C20.2774 6.17843 20.0935 5.92545 20.0787 5.63703L19.996 4.03204C19.9206 2.5703 18.5165 1.55227 17.1054 1.93196L15.5534 2.34924C15.2746 2.42414 14.9771 2.32754 14.7956 2.10296L13.7852 0.853044C12.865 -0.285262 11.1309 -0.283434 10.2122 0.853044L9.20182 2.10301C9.02032 2.32763 8.7229 2.42414 8.44399 2.34929L6.89192 1.93201C5.47804 1.55176 4.07649 2.57316 4.0013 4.03209L3.91857 5.63708C3.90366 5.92545 3.71987 6.17848 3.45019 6.28175L1.94936 6.85643C0.581977 7.37983 0.0483551 9.02978 0.845179 10.2545L1.72169 11.6016C1.87914 11.8436 1.87914 12.1564 1.72169 12.3984L0.845319 13.7455C0.0468552 14.9727 0.584977 16.6214 1.94941 17.1436L3.45034 17.7182C3.72001 17.8216 3.90385 18.0745 3.91871 18.363L4.00144 19.9679C4.07682 21.43 5.48118 22.4476 6.89207 22.068L8.44404 21.6508C8.72299 21.5759 9.02036 21.6725 9.20191 21.897L10.2123 23.1469C11.1327 24.2855 12.8667 24.2832 13.7852 23.1469L14.7956 21.897C14.9771 21.6725 15.2747 21.576 15.5534 21.6508L17.1055 22.068C18.519 22.4484 19.9209 21.4271 19.9961 19.9679L20.0789 18.363C20.0938 18.0746 20.2776 17.8216 20.5472 17.7183L22.0481 17.1436C23.4154 16.6202 23.949 14.9703 23.1523 13.7455L22.2756 12.3984ZM21.4879 15.6806L19.9869 16.2552C19.139 16.5799 18.561 17.3755 18.5142 18.2822L18.4315 19.8872C18.4075 20.3523 17.9611 20.6757 17.5122 20.5551L15.9601 20.1379C15.0833 19.902 14.1479 20.2061 13.5772 20.9121L12.5669 22.162C12.2742 22.5241 11.7227 22.5234 11.4306 22.162L10.4203 20.9121C9.97787 20.3648 9.31638 20.0591 8.63285 20.0591C8.43462 20.0591 8.23446 20.0848 8.03726 20.1379L6.48519 20.5551C6.03538 20.6759 5.58989 20.3513 5.56589 19.8872L5.48315 18.2822C5.43642 17.3755 4.85831 16.5798 4.01044 16.2552L2.50951 15.6805C2.07466 15.514 1.90502 14.9894 2.15842 14.5999L3.03488 13.2528C3.53002 12.4917 3.53002 11.5082 3.03488 10.7472L2.15842 9.40009C1.90445 9.00981 2.07555 8.48561 2.50956 8.31944L4.01049 7.74475C4.85841 7.4201 5.43646 6.62445 5.4832 5.71775L5.56593 4.11276C5.58988 3.64772 6.03637 3.32428 6.48524 3.44484L8.03731 3.86212C8.9141 4.09795 9.84948 3.79392 10.4202 3.08784L11.4306 1.83793C11.7233 1.47587 12.2748 1.47662 12.5669 1.83793L13.5773 3.08789C14.1481 3.79396 15.0833 4.09799 15.9602 3.86212L17.5123 3.44484C17.962 3.32405 18.4076 3.64865 18.4316 4.11276L18.5142 5.71775C18.561 6.62445 19.1391 7.42015 19.9869 7.74475L21.4879 8.31948C21.9227 8.48589 22.0924 9.01061 21.839 9.40009L20.9626 10.7472C20.4674 11.5082 20.4674 12.4917 20.9625 13.2528L21.839 14.5999C22.0929 14.9902 21.9219 15.5144 21.4879 15.6806Z" fill="white"/>
<path d="M15.9117 8.00832C15.6058 7.70247 15.1098 7.70247 14.8039 8.00832L7.49306 15.3192C7.1872 15.6251 7.1872 16.121 7.49311 16.4269C7.64606 16.5799 7.84654 16.6564 8.04698 16.6564C8.24741 16.6564 8.44794 16.5799 8.60085 16.4269L15.9117 9.11602C16.2176 8.81021 16.2176 8.31423 15.9117 8.00832Z" fill="white"/>
<path d="M8.83223 7.77893C7.96837 7.77893 7.26562 8.48172 7.26562 9.34553C7.26562 10.2094 7.96846 10.9121 8.83223 10.9121C9.69608 10.9121 10.3988 10.2093 10.3988 9.34553C10.3989 8.48172 9.69608 7.77893 8.83223 7.77893Z" fill="white"/>
<path d="M14.5764 13.5231C13.7125 13.5231 13.0098 14.2259 13.0098 15.0897C13.0098 15.9535 13.7126 16.6563 14.5764 16.6563C15.4402 16.6563 16.143 15.9535 16.143 15.0897C16.143 14.2259 15.4402 13.5231 14.5764 13.5231Z" fill="white"/>
</g>
<defs>
<clipPath id="clip0">
<rect width="24" height="24" fill="white"/>
</clipPath>
</defs>
</svg>
