<svg width="24" height="24" viewBox="0 0 24 24" fill="none" xmlns="http://www.w3.org/2000/svg">
<path d="M6.78905 13.0687L7.51923 12.8975L6.78905 13.0687ZM6.78905 9.7945L7.51923 9.96577L6.78905 9.7945ZM16.0732 9.7945L16.8034 9.62322L16.0732 9.7945ZM16.0732 13.0687L16.8034 13.24L16.0732 13.0687ZM13.0682 16.0737L12.897 15.3435L13.0682 16.0737ZM9.79401 16.0737L9.62273 16.8039L9.79401 16.0737ZM9.79401 6.78953L9.62273 6.05935L9.79401 6.78953ZM13.0682 6.78953L13.2395 6.05935L13.0682 6.78953ZM16.8693 17.9304C17.1622 18.2233 17.637 18.2233 17.9299 17.9304C18.2228 17.6375 18.2228 17.1627 17.9299 16.8698L16.8693 17.9304ZM7.51923 12.8975C7.29307 11.9333 7.29307 10.9299 7.51923 9.96577L6.05887 9.62322C5.77986 10.8127 5.77986 12.0506 6.05887 13.24L7.51923 12.8975ZM15.343 9.96578C15.5692 10.9299 15.5692 11.9333 15.343 12.8974L16.8034 13.24C17.0824 12.0506 17.0824 10.8127 16.8034 9.62322L15.343 9.96578ZM12.897 15.3435C11.9328 15.5697 10.9294 15.5697 9.96529 15.3435L9.62273 16.8039C10.8122 17.0829 12.0501 17.0829 13.2395 16.8039L12.897 15.3435ZM9.96529 7.51972C10.9294 7.29356 11.9328 7.29356 12.897 7.51971L13.2395 6.05935C12.0501 5.78035 10.8122 5.78035 9.62273 6.05935L9.96529 7.51972ZM9.96529 15.3435C8.75159 15.0588 7.80392 14.1111 7.51923 12.8975L6.05887 13.24C6.47366 15.0083 7.8544 16.3891 9.62273 16.8039L9.96529 15.3435ZM13.2395 16.8039C15.0079 16.3891 16.3886 15.0083 16.8034 13.24L15.343 12.8974C15.0583 14.1111 14.1107 15.0588 12.897 15.3435L13.2395 16.8039ZM12.897 7.51971C14.1107 7.80441 15.0583 8.75208 15.343 9.96578L16.8034 9.62322C16.3886 7.85488 15.0079 6.47415 13.2395 6.05935L12.897 7.51971ZM9.62273 6.05935C7.85439 6.47415 6.47366 7.85488 6.05887 9.62322L7.51923 9.96577C7.80392 8.75208 8.75159 7.80441 9.96529 7.51972L9.62273 6.05935ZM14.6704 15.7315L16.8693 17.9304L17.9299 16.8698L15.731 14.6709L14.6704 15.7315Z" fill="#008CEF"/>
</svg>
