<svg fill="none" height="25" viewBox="0 0 24 25" width="24" xmlns="http://www.w3.org/2000/svg"><path d="m3.31573 14.2254.73018-.1713zm0-5.45707.73018.17128zm15.47357.00001.7302-.17128zm0 5.45706.7302.1713zm-5.0083 5.0083-.1712-.7302zm-5.457 0-.17127.7301zm0-15.47364-.17128-.73018zm5.457 0 .1713-.73018zm6.6887 18.21464c.2929.2929.7677.2929 1.0606 0s.2929-.7678 0-1.0607zm-16.42379-7.9206c-.39455-1.682-.39455-3.4325 0-5.11449l-1.46036-.34255c-.4474 1.90734-.4474 3.89224 0 5.79964zm14.01319-5.11448c.3946 1.68198.3946 3.43248 0 5.11448l1.4604.3426c.4474-1.9074.4474-3.8923 0-5.79964zm-4.4493 9.56388c-1.682.3945-3.4325.3945-5.11452 0l-.34255 1.4603c1.90727.4474 3.89227.4474 5.79957 0zm-5.11452-14.01326c1.68202-.39454 3.43252-.39454 5.11452 0l.3425-1.46036c-1.9073-.44739-3.8923-.44739-5.79958 0zm0 14.01326c-2.20771-.5179-3.93151-2.2417-4.44937-4.4494l-1.46036.3426c.64796 2.7623 2.80483 4.9192 5.56718 5.5671zm5.45702 1.4603c2.7624-.6479 4.9192-2.8048 5.5672-5.5671l-1.4604-.3426c-.5178 2.2077-2.2416 3.9315-4.4493 4.4494zm-.3425-15.47356c2.2077.51786 3.9315 2.24166 4.4493 4.44938l1.4604-.34256c-.648-2.76235-2.8048-4.91922-5.5672-5.56718zm-5.45708-1.46036c-2.76235.64796-4.91921 2.80483-5.56717 5.56718l1.46036.34255c.51786-2.20771 2.24166-3.93151 4.44937-4.44937zm8.65208 15.27992 3.6649 3.6649 1.0606-1.0607-3.6648-3.6649z" fill="#fff"/></svg>