<svg fill="none" height="12" viewBox="0 0 12 12" width="12" xmlns="http://www.w3.org/2000/svg"><path d="m1.65786 6.89053.73019-.17128zm0-2.72853.73019.17128zm7.7368 0 .73014-.17128zm0 2.72852.73014.17128zm-2.50414 2.50414-.17127-.73018zm-2.72852 0-.17128.73014zm0-7.7368-.17128-.730177zm2.72852 0 .17128-.730177zm3.07915 9.37244c.29293.2929.76773.2929 1.06063 0s.2929-.7677 0-1.06063zm-7.58162-4.31105c-.18407-.78468-.18407-1.6013 0-2.38597l-1.460367-.34256c-.236911 1.00999-.236911 2.0611 0 3.07108zm6.27643-2.38597c.18406.78467.18406 1.60129 0 2.38597l1.46032.34255c.237-1.00998.237-2.06109 0-3.07108zm-1.94523 4.3312c-.78468.18406-1.6013.18406-2.38597 0l-.34256 1.46032c1.00999.237 2.0611.237 3.07108 0zm-2.38597-6.27644c.78467-.18405 1.60129-.18405 2.38597 0l.34255-1.460357c-1.00998-.236911-2.06109-.23691-3.07108 0zm0 6.27644c-.9652-.2264-1.71883-.98004-1.94523-1.94523l-1.460367.34255c.356507 1.51984 1.543207 2.70654 3.063037 3.063zm2.72852 1.46032c1.51984-.35646 2.70654-1.54316 3.063-3.063l-1.46032-.34255c-.2264.96519-.98004 1.71883-1.94523 1.94523zm-.34255-7.73676c.96519.22641 1.71883.98004 1.94523 1.94524l1.46032-.34256c-.35646-1.51983-1.54316-2.70653-3.063-3.063037zm-2.72853-1.460357c-1.51983.356507-2.70653 1.543207-3.063037 3.063037l1.460367.34256c.2264-.9652.98003-1.71883 1.94523-1.94524zm4.14652 8.270217 1.83243 1.8324 1.06063-1.06063-1.8324-1.83243z" fill="#008cef"/></svg>