<svg width="40" height="40" viewBox="0 0 40 40" fill="none" xmlns="http://www.w3.org/2000/svg">
<path d="M26.4593 32.479L26.7602 32.2709C27.7019 31.6198 28.1728 31.2941 28.594 30.945C30.8827 29.0481 32.42 26.404 32.9316 23.4842C33.0258 22.9469 33.0747 22.3784 33.1726 21.2416L33.2232 20.6537C33.3851 18.7719 33.369 16.8792 33.1749 15.0004L33.1149 14.419C32.7753 11.1312 30.7569 8.24952 27.7743 6.79438C22.8706 4.40187 17.1301 4.40187 12.2263 6.79438C9.24379 8.24952 7.22539 11.1312 6.88578 14.419L6.82572 15.0004C6.63165 16.8792 6.6155 18.7719 6.77749 20.6537L6.82809 21.2416C6.92595 22.3785 6.97488 22.9469 7.06904 23.4842C7.58068 26.404 9.11792 29.0481 11.4067 30.945C11.8279 31.2941 12.2988 31.6198 13.2404 32.2709L13.5413 32.479C14.8215 33.3642 15.4617 33.8069 16.1032 34.1145C18.5658 35.2952 21.4348 35.2952 23.8974 34.1145C24.539 33.8069 25.1791 33.3643 26.4593 32.479Z" stroke="white" stroke-width="1.5"/>
<path d="M15.417 19.5835L18.7503 22.9169L24.5837 16.6669" stroke="white" stroke-width="1.5" stroke-linecap="round" stroke-linejoin="round"/>
</svg>
