<svg width="126" height="55" viewBox="0 0 126 55" fill="none" xmlns="http://www.w3.org/2000/svg">
<g clip-path="url(#clip0)">
<path d="M64.7768 28.9278C64.6103 28.2728 64.2217 26.9083 62.279 26.9083C61.1134 26.9083 59.3926 27.727 59.3926 30.8927C59.3926 32.9122 60.2808 34.7679 62.279 34.7679C63.6112 34.7679 64.4993 34.0038 64.7768 32.5847H67.1636C66.7195 35.0408 65.0543 36.7328 62.2235 36.7328C59.1706 36.7328 57.0059 34.7133 57.0059 30.8381C57.0059 26.9083 59.2816 24.9434 62.2235 24.9434C65.6094 24.9434 66.9971 27.2358 67.1081 28.9278H64.7768Z" fill="#8492A6"/>
<path d="M70.0484 31.3294L72.8237 28.1637H75.5435L72.6017 31.384L75.6545 36.46H72.9902L70.992 32.9122L70.0484 33.8401V36.46H67.8281V28.1637H70.0484V31.3294Z" fill="#8492A6"/>
<path d="M83.7031 32.3118C83.7031 35.3138 81.6494 36.6783 79.4291 36.6783C77.1534 36.6783 75.0996 35.3138 75.0996 32.3118C75.0996 29.3099 77.1534 27.9454 79.4291 27.9454C81.7049 27.9454 83.7031 29.3099 83.7031 32.3118ZM77.3754 32.3118C77.3754 33.4035 77.7084 34.8771 79.4291 34.8771C81.1498 34.8771 81.4274 33.4035 81.4274 32.3664C81.4274 31.3294 81.0943 29.8557 79.4291 29.8557C77.7084 29.8011 77.3754 31.2202 77.3754 32.3118Z" fill="#8492A6"/>
<path d="M92.0296 28.1637V36.46H89.8094V29.9103H87.4226V32.4756C87.4226 35.6413 86.4235 36.6783 84.8693 36.6783C84.4807 36.6783 83.8701 36.6237 83.5371 36.5146V34.8772C83.5926 34.9317 83.8701 34.9317 84.2032 34.9317C84.8693 34.9317 85.2023 34.6042 85.2023 32.0935V28.2183H92.0296V28.1637Z" fill="#8492A6"/>
<path d="M95.4156 31.3294L98.1909 28.1637H100.911L97.9134 31.384L100.966 36.46H98.3019L96.3037 32.9122L95.4156 33.8401V36.46H93.1953V28.1637H95.4156V31.3294Z" fill="#8492A6"/>
<path d="M109.071 32.3118C109.071 35.3138 107.017 36.6783 104.742 36.6783C102.466 36.6783 100.412 35.3138 100.412 32.3118C100.412 29.3099 102.466 27.9454 104.742 27.9454C107.017 27.9454 109.071 29.3099 109.071 32.3118ZM102.743 32.3118C102.743 33.4035 103.076 34.8771 104.797 34.8771C106.518 34.8771 106.795 33.4035 106.795 32.3664C106.795 31.3294 106.462 29.8557 104.797 29.8557C103.076 29.8011 102.743 31.2202 102.743 32.3118Z" fill="#8492A6"/>
<path d="M109.793 28.1637H113.623C115.51 28.1637 116.898 28.9278 116.898 30.2924C116.898 31.2748 116.232 31.8752 115.344 32.0935C116.176 32.3118 117.175 32.8577 117.175 34.1676C117.175 35.6959 116.01 36.46 114.067 36.46H109.848V28.1637H109.793ZM112.013 31.5477H113.456C114.178 31.5477 114.733 31.2748 114.733 30.6198C114.733 29.9103 114.233 29.692 113.512 29.692H112.069V31.5477H112.013ZM112.013 34.9863H113.623C114.456 34.9863 114.955 34.7134 114.955 33.8947C114.955 33.1851 114.4 32.8031 113.623 32.8031H112.013V34.9863Z" fill="#8492A6"/>
<path d="M126 32.3118C126 35.3138 123.946 36.6783 121.726 36.6783C119.45 36.6783 117.396 35.3138 117.396 32.3118C117.396 29.3099 119.45 27.9454 121.726 27.9454C123.946 27.9454 126 29.3099 126 32.3118ZM119.617 32.3118C119.617 33.4035 119.95 34.8771 121.67 34.8771C123.391 34.8771 123.669 33.4035 123.669 32.3664C123.669 31.3294 123.336 29.8557 121.67 29.8557C119.95 29.8011 119.617 31.2202 119.617 32.3118Z" fill="#8492A6"/>
<path d="M15.4308 37.3333C17.3181 37.3333 21.9806 37.0058 25.422 34.4951V36.4055H32.4159V28.1092L35.3577 25.1072L41.741 36.4055H50.1225L40.4643 20.3041L49.8449 10.152H41.2414L32.4159 20.0858V0.927875H25.422V3.98441C23.2573 1.69201 19.8159 0 14.4317 0C2.71982 0 0.555066 6.98635 0.555066 10.9162C0.555066 16.3197 3.49692 19.2671 8.60353 20.5224L15.8749 22.269C19.7048 23.1969 22.4247 23.9064 22.4247 26.6901C22.4247 30.4016 18.4282 31.2749 14.8758 31.2749C8.32599 31.2203 7.21586 27.4542 7.21586 25.4893H0C0 29.8557 2.27577 37.3333 15.4308 37.3333ZM20.2044 16.1559L11.4344 14.0273C9.93568 13.6998 7.60441 13.0994 7.60441 10.3158C7.60441 7.1501 11.0458 6.05848 13.9322 6.05848C20.4819 6.05848 21.0925 9.82456 21.259 11.4074H25.422V18.0117C23.8678 17.193 22.0361 16.6472 20.2044 16.1559Z" fill="#8492A6"/>
</g>
<path d="M58.2 44.6H61.08C61.632 44.6 62.112 44.664 62.52 44.792C62.928 44.92 63.264 45.1 63.528 45.332C63.8 45.556 64 45.828 64.128 46.148C64.256 46.46 64.32 46.804 64.32 47.18C64.32 47.556 64.256 47.904 64.128 48.224C64 48.536 63.8 48.808 63.528 49.04C63.264 49.264 62.928 49.44 62.52 49.568C62.112 49.696 61.632 49.76 61.08 49.76H59.328V53H58.2V44.6ZM61.02 48.776C61.42 48.776 61.756 48.74 62.028 48.668C62.308 48.588 62.532 48.48 62.7 48.344C62.876 48.208 63 48.04 63.072 47.84C63.152 47.64 63.192 47.42 63.192 47.18C63.192 46.94 63.152 46.72 63.072 46.52C63 46.32 62.876 46.152 62.7 46.016C62.532 45.88 62.308 45.776 62.028 45.704C61.756 45.624 61.42 45.584 61.02 45.584H59.328V48.776H61.02ZM68.3461 53.12C67.9381 53.12 67.5501 53.056 67.1821 52.928C66.8141 52.8 66.4901 52.604 66.2101 52.34C65.9301 52.068 65.7061 51.728 65.5381 51.32C65.3701 50.912 65.2861 50.432 65.2861 49.88V49.64C65.2861 49.112 65.3661 48.656 65.5261 48.272C65.6861 47.88 65.8981 47.556 66.1621 47.3C66.4341 47.036 66.7461 46.84 67.0981 46.712C67.4581 46.584 67.8341 46.52 68.2261 46.52C69.1621 46.52 69.8861 46.776 70.3981 47.288C70.9101 47.8 71.1661 48.524 71.1661 49.46V50.132H66.3421C66.3421 50.508 66.4021 50.824 66.5221 51.08C66.6421 51.336 66.7981 51.544 66.9901 51.704C67.1821 51.864 67.3941 51.98 67.6261 52.052C67.8661 52.124 68.1061 52.16 68.3461 52.16C68.8261 52.16 69.1941 52.08 69.4501 51.92C69.7141 51.76 69.9021 51.54 70.0141 51.26H71.0461C70.9821 51.564 70.8661 51.832 70.6981 52.064C70.5381 52.296 70.3381 52.492 70.0981 52.652C69.8661 52.804 69.5981 52.92 69.2941 53C68.9981 53.08 68.6821 53.12 68.3461 53.12ZM68.2861 47.48C68.0381 47.48 67.7981 47.516 67.5661 47.588C67.3341 47.652 67.1261 47.76 66.9421 47.912C66.7661 48.056 66.6221 48.24 66.5101 48.464C66.3981 48.688 66.3421 48.956 66.3421 49.268H70.1701C70.1621 48.94 70.1061 48.664 70.0021 48.44C69.9061 48.208 69.7741 48.024 69.6061 47.888C69.4381 47.744 69.2381 47.64 69.0061 47.576C68.7821 47.512 68.5421 47.48 68.2861 47.48ZM74.827 53.12C74.027 53.12 73.399 52.952 72.943 52.616C72.487 52.28 72.235 51.808 72.187 51.2H73.243C73.299 51.512 73.463 51.752 73.735 51.92C74.015 52.08 74.379 52.16 74.827 52.16C75.379 52.16 75.779 52.068 76.027 51.884C76.283 51.692 76.411 51.464 76.411 51.2C76.411 50.888 76.307 50.644 76.099 50.468C75.891 50.284 75.531 50.192 75.019 50.192H73.927V49.328H74.947C75.387 49.328 75.699 49.244 75.883 49.076C76.075 48.908 76.171 48.672 76.171 48.368C76.171 48.128 76.059 47.92 75.835 47.744C75.611 47.568 75.275 47.48 74.827 47.48C74.339 47.48 73.983 47.56 73.759 47.72C73.543 47.872 73.411 48.092 73.363 48.38H72.307C72.331 48.116 72.403 47.872 72.523 47.648C72.651 47.416 72.823 47.216 73.039 47.048C73.255 46.88 73.511 46.752 73.807 46.664C74.111 46.568 74.451 46.52 74.827 46.52C75.235 46.52 75.587 46.568 75.883 46.664C76.187 46.752 76.439 46.88 76.639 47.048C76.839 47.208 76.987 47.4 77.083 47.624C77.179 47.848 77.227 48.096 77.227 48.368C77.227 48.672 77.151 48.94 76.999 49.172C76.847 49.396 76.603 49.572 76.267 49.7C76.715 49.82 77.027 50.012 77.203 50.276C77.379 50.54 77.467 50.848 77.467 51.2C77.467 51.464 77.411 51.712 77.299 51.944C77.187 52.176 77.019 52.38 76.795 52.556C76.579 52.724 76.303 52.86 75.967 52.964C75.639 53.068 75.259 53.12 74.827 53.12ZM78.9717 46.64H80.0277V51.44L83.3157 46.64H84.3717V53H83.3157V48.2L80.0277 53H78.9717V46.64ZM85.5759 52.064H86.3559C86.4439 51.944 86.5239 51.76 86.5959 51.512C86.6679 51.264 86.7319 50.972 86.7879 50.636C86.8439 50.3 86.8839 49.936 86.9079 49.544C86.9399 49.144 86.9559 48.736 86.9559 48.32V46.64H91.3959V52.064H92.2959V54.5H91.2879V53H86.5839V54.5H85.5759V52.064ZM90.3399 52.064V47.576H87.9879V48.56C87.9879 48.896 87.9759 49.232 87.9519 49.568C87.9279 49.896 87.8919 50.212 87.8439 50.516C87.7959 50.812 87.7359 51.096 87.6639 51.368C87.5999 51.632 87.5239 51.864 87.4359 52.064H90.3399ZM96.2016 53.12C95.7936 53.12 95.4056 53.056 95.0376 52.928C94.6696 52.8 94.3456 52.604 94.0656 52.34C93.7856 52.068 93.5616 51.728 93.3936 51.32C93.2256 50.912 93.1416 50.432 93.1416 49.88V49.64C93.1416 49.112 93.2216 48.656 93.3816 48.272C93.5416 47.88 93.7536 47.556 94.0176 47.3C94.2896 47.036 94.6016 46.84 94.9536 46.712C95.3136 46.584 95.6896 46.52 96.0816 46.52C97.0176 46.52 97.7416 46.776 98.2536 47.288C98.7656 47.8 99.0216 48.524 99.0216 49.46V50.132H94.1976C94.1976 50.508 94.2576 50.824 94.3776 51.08C94.4976 51.336 94.6536 51.544 94.8456 51.704C95.0376 51.864 95.2496 51.98 95.4816 52.052C95.7216 52.124 95.9616 52.16 96.2016 52.16C96.6816 52.16 97.0496 52.08 97.3056 51.92C97.5696 51.76 97.7576 51.54 97.8696 51.26H98.9016C98.8376 51.564 98.7216 51.832 98.5536 52.064C98.3936 52.296 98.1936 52.492 97.9536 52.652C97.7216 52.804 97.4536 52.92 97.1496 53C96.8536 53.08 96.5376 53.12 96.2016 53.12ZM96.1416 47.48C95.8936 47.48 95.6536 47.516 95.4216 47.588C95.1896 47.652 94.9816 47.76 94.7976 47.912C94.6216 48.056 94.4776 48.24 94.3656 48.464C94.2536 48.688 94.1976 48.956 94.1976 49.268H98.0256C98.0176 48.94 97.9616 48.664 97.8576 48.44C97.7616 48.208 97.6296 48.024 97.4616 47.888C97.2936 47.744 97.0936 47.64 96.8616 47.576C96.6376 47.512 96.3976 47.48 96.1416 47.48ZM100.523 46.64H101.579V49.292H104.867V46.64H105.923V53H104.867V50.228H101.579V53H100.523V46.64ZM109.299 47.576H107.127V46.64H112.527V47.576H110.355V53H109.299V47.576Z" fill="#8492A6"/>
<defs>
<clipPath id="clip0">
<rect width="126" height="37.3333" fill="white"/>
</clipPath>
</defs>
</svg>
