<svg width="17" height="12" viewBox="0 0 17 12" fill="none" xmlns="http://www.w3.org/2000/svg">
<path d="M8.94936 11.2004H8.93338C8.88382 11.2004 3.92551 11.1908 2.67454 10.851C1.98665 10.6657 1.44943 10.1282 1.26451 9.44021C1.03956 8.17114 0.930927 6.88419 0.939975 5.59538C0.934163 4.30446 1.04573 3.01568 1.2733 1.74496C1.46331 1.05634 1.99816 0.516333 2.68493 0.319736C3.90153 0 8.72315 0 8.92778 0H8.94457C8.99492 0 13.966 0.00959207 15.2042 0.349312C15.8906 0.535565 16.4268 1.07199 16.6126 1.75855C16.8447 3.03233 16.9537 4.3255 16.938 5.62016C16.9436 6.90952 16.8317 8.19671 16.6038 9.46578C16.4165 10.1529 15.879 10.6893 15.1914 10.875C13.9764 11.1972 9.15399 11.2004 8.94936 11.2004ZM7.35068 3.20136L7.34669 7.9974L11.5128 5.59938L7.35068 3.20136Z" fill="white"/>
</svg>
