<svg width="12" height="18" viewBox="0 0 12 18" fill="none" xmlns="http://www.w3.org/2000/svg">
<path fill-rule="evenodd" clip-rule="evenodd" d="M10.3261 8.80005C10.1309 8.80005 9.86962 8.9304 9.5222 9.1042C8.82645 9.45189 7.7842 9.97338 6.21945 9.97338C4.6547 9.97338 3.61245 9.45189 2.9167 9.1042C2.56929 8.9304 2.30804 8.80005 2.11279 8.80005C1.46745 8.80005 0.939453 9.32805 0.939453 9.97338C0.939453 10.56 1.29145 10.8534 1.52612 10.9707C2.23012 11.3814 4.45945 12.32 4.45945 12.32L1.93679 15.488C1.93679 15.488 1.46745 16.016 1.46745 16.4267C1.46745 17.072 1.99545 17.6 2.64079 17.6C3.22745 17.6 3.52079 17.1894 3.52079 17.1894L6.21945 14.08L8.85945 17.1894C8.85945 17.1894 9.15279 17.6 9.73945 17.6C10.3848 17.6 10.9128 17.072 10.9128 16.4267C10.9128 16.0747 10.4435 15.488 10.4435 15.488L7.97945 12.32C7.97945 12.32 10.2088 11.3814 10.9128 10.9707L10.9449 10.9468C11.1786 10.7731 11.4995 10.5338 11.4995 9.97338C11.4995 9.32805 10.9715 8.80005 10.3261 8.80005Z" fill="white"/>
<path fill-rule="evenodd" clip-rule="evenodd" d="M2.11328 4.10667C2.11328 1.81867 3.93195 0 6.21995 0C8.50795 0 10.3266 1.81867 10.3266 4.10667C10.3266 6.39467 8.50795 8.21333 6.21995 8.21333C3.93195 8.21333 2.11328 6.39467 2.11328 4.10667Z" fill="white"/>
<path fill-rule="evenodd" clip-rule="evenodd" d="M4.16602 4.10668C4.16602 5.22134 5.10468 6.16001 6.21935 6.16001C7.33402 6.16001 8.27268 5.22134 8.27268 4.10668C8.27268 2.99201 7.33402 2.05334 6.21935 2.05334C5.10468 2.05334 4.16602 2.99201 4.16602 4.10668Z" fill="#8492A6"/>
</svg>
