<svg width="15" height="12" viewBox="0 0 15 12" fill="none" xmlns="http://www.w3.org/2000/svg">
<path fill-rule="evenodd" clip-rule="evenodd" d="M7.47826 2.96453C7.39093 1.71535 8.15949 0.573963 9.37567 0.131416C9.82329 -0.0260046 10.5825 -0.0455081 11.079 0.091948C11.274 0.15092 11.6432 0.347818 11.906 0.524769L12.383 0.849798L12.9082 0.68219C13.2002 0.593902 13.5894 0.446232 13.7644 0.347818C13.9302 0.259121 14.076 0.210362 14.076 0.239617C14.076 0.40679 13.7156 0.977528 13.4143 1.29237C13.0051 1.73486 13.1222 1.77439 13.9492 1.47905C14.4452 1.31187 14.4554 1.31187 14.3579 1.49899C14.2993 1.59746 13.998 1.94156 13.6766 2.2564C13.1319 2.79736 13.1027 2.85631 13.1027 3.30907C13.1027 4.00701 12.7721 5.46333 12.4409 6.25967C11.8275 7.75543 10.5143 9.29995 9.20057 10.0773C7.35192 11.169 4.88987 11.4448 2.81736 10.8054C2.1269 10.5886 0.939453 10.0378 0.939453 9.93982C0.939453 9.91013 1.2994 9.8706 1.7377 9.86085C2.65254 9.84186 3.56737 9.5864 4.3456 9.13321L4.8708 8.81837L4.26758 8.61219C3.41135 8.31685 2.64279 7.63797 2.44819 6.99853C2.38968 6.7914 2.40918 6.78164 2.95388 6.78164L3.51809 6.77189L3.04122 6.54577C2.47657 6.26019 1.96112 5.77861 1.70801 5.28641C1.52316 4.93203 1.29008 4.03723 1.35791 3.96801C1.37741 3.93875 1.58168 3.99778 1.81528 4.07623C2.48632 4.32238 2.57409 4.26334 2.18489 3.85011C1.45542 3.10245 1.23157 1.99075 1.58168 0.937999L1.74702 0.465736L2.38924 1.10517C3.70294 2.39432 5.25025 3.1614 7.02088 3.3876L7.50751 3.44655L7.47826 2.96453Z" fill="white"/>
</svg>
