<svg width="17" height="9" viewBox="0 0 17 9" fill="none" xmlns="http://www.w3.org/2000/svg">
<path fill-rule="evenodd" clip-rule="evenodd" d="M7.13521 0.00485358C7.87595 0.00485358 8.40127 0.00387097 9.22515 1.60955e-05C9.40278 -0.000815348 9.63407 0.0304016 9.77995 0.131838C9.78373 0.134256 9.78751 0.136751 9.79053 0.139169C9.89711 0.212488 10.0301 0.304249 10.0317 0.630099C10.0339 1.06237 10.0332 1.47273 10.0324 1.87976C10.0309 2.51045 10.0301 3.13312 10.04 3.81687C10.0619 4.05103 10.2146 4.14892 10.3582 4.14824C10.5018 4.14756 10.6666 4.05761 10.7898 3.9366C11.458 3.28089 12.2267 1.70364 12.6983 0.670008C12.8639 0.306592 13.1254 0.307423 13.4232 0.30833C13.4413 0.30833 13.4602 0.308406 13.4784 0.308406C14.1276 0.307423 14.5434 0.312185 14.9931 0.317401C15.2864 0.320802 15.5948 0.324279 15.9916 0.326546C16.176 0.327529 16.3363 0.482707 16.3884 0.595027C16.433 0.692079 16.4648 0.973711 16.2199 1.37144C15.467 2.59503 14.7747 3.58006 13.9364 4.74325C13.8843 4.81664 13.8336 4.9044 13.8351 4.9948C13.8366 5.07749 13.8797 5.15867 13.9364 5.21861C14.1163 5.40727 14.2977 5.59638 14.4799 5.78671C15.0573 6.38913 15.6477 7.00424 16.2289 7.66154C16.4542 7.91641 16.3136 8.30968 16.2516 8.41989C16.2047 8.50333 15.9931 8.71747 15.8502 8.7186C15.5668 8.72087 15.4368 8.72064 15.0248 8.71996C14.6817 8.71943 14.1412 8.7186 13.1518 8.7186C12.8298 8.7186 12.7006 8.62442 12.5305 8.44529C11.9462 7.83191 11.8707 7.75073 11.4829 7.33546C11.3695 7.21392 11.2289 7.06381 11.0415 6.86335C10.9341 6.74831 10.7202 6.60319 10.5169 6.69525C10.5041 6.70077 10.4912 6.70651 10.4776 6.71248C10.3 6.79079 10.0271 6.9115 10.0271 7.20681V8.3183C10.0271 8.52004 9.71041 8.67023 9.51994 8.67023H8.03846C7.34156 8.67023 6.73763 8.5025 6.40354 8.34007C4.96212 7.64007 4.10498 6.66562 3.16847 5.04317C2.36802 3.65784 1.67187 2.29298 0.986535 0.863508C0.909891 0.703795 0.85494 0.353153 1.42697 0.353153C1.69757 0.353153 1.96061 0.350507 2.25086 0.347559C2.60913 0.343931 3.00898 0.33985 3.51692 0.33985C3.786 0.33985 3.95456 0.394196 4.06794 0.476509C4.17603 0.554513 4.23045 0.657007 4.28336 0.75542C4.28638 0.760786 4.28865 0.766229 4.29167 0.771595C4.52599 1.2078 4.71268 1.56011 4.86764 1.85361C5.47005 2.9923 5.6046 3.24688 6.25312 4.08656C6.33022 4.18573 6.44133 4.201 6.52296 4.20145C6.62425 4.20205 6.71797 4.18512 6.79658 4.12163C6.96136 3.98837 7.00822 3.84597 7.00822 3.64151V1.48996C7.00822 1.24333 6.84042 0.878171 6.65524 0.76313C6.60762 0.735843 6.55244 0.708557 6.49651 0.680892C6.32644 0.596312 6.14881 0.508179 6.15637 0.405156C6.16771 0.255571 6.5154 0.00485358 7.13521 0.00485358Z" fill="white"/>
</svg>
