<svg fill="none" height="24" viewBox="0 0 24 24" width="24" xmlns="http://www.w3.org/2000/svg"><g fill="#273444"><path clip-rule="evenodd" d="m12.5145 2.14251c-.3167-.19001-.7123-.19001-1.029 0l-10.00002 6c-.29049.17429-.47298.48379-.48489.82234-.011907.33856.1484.66012.42592.85438l9.99999 6.99997c.3443.2411.8026.2411 1.1469 0l10-6.99997c.2776-.19426.4379-.51582.426-.85438-.012-.33855-.1944-.64805-.4849-.82234zm-.5145 12.63679-8.16399-5.71473 8.16399-4.89838 8.1639 4.89838z" fill-rule="evenodd"/><path d="m2.57343 13.1808c-.45245-.3168-1.07598-.2067-1.3927.2457-.316713.4525-.206678 1.076.24577 1.3927l10 7c.3443.241.8026.241 1.1469 0l10-7c.4525-.3167.5625-.9402.2458-1.3927-.3167-.4524-.9402-.5625-1.3927-.2457l-9.4265 6.5985z"/></g></svg>