<svg fill="none" height="42" viewBox="0 0 42 42" width="42" xmlns="http://www.w3.org/2000/svg"><g fill="#008cef"><path d="m21 0c-11.57908 0-21 9.42012-21 21 0 11.5799 9.42092 21 21 21 11.5791 0 21-9.4201 21-21 0-11.57988-9.4209-21-21-21zm0 40.3846c-10.6882 0-19.38462-8.6964-19.38462-19.3846s8.69642-19.38462 19.38462-19.38462 19.3846 8.69642 19.3846 19.38462-8.6964 19.3846-19.3846 19.3846z"/><path d="m30.8951 12.3868-12.4135 13.965-7.4784-5.9826c-.3473-.2787-.8569-.2213-1.13479.126-.27865.3489-.22211.8569.126 1.1356l8.07689 6.4615c.1487.1188.3272.1769.5048.1769.223 0 .4451-.0921.6042-.2714l12.9231-14.5384c.2964-.3328.2665-.8441-.0671-1.1397-.3343-.2972-.844-.2673-1.1412.0671z"/></g></svg>