<svg fill="none" height="19" viewBox="0 0 19 19" width="19" xmlns="http://www.w3.org/2000/svg"><g fill="#3c4858"><path d="m6.53125 6.53125c.15747 0 .30849.06256.41984.17391s.17391.26237.17391.41984v7.125c0 .1575-.06256.3085-.17391.4198-.11135.1114-.26237.174-.41984.174s-.30849-.0626-.41984-.174c-.11135-.1113-.17391-.2623-.17391-.4198v-7.125c0-.15747.06256-.30849.17391-.41984s.26237-.17391.41984-.17391zm2.96875 0c.15747 0 .3085.06256.41985.17391s.17395.26237.17395.41984v7.125c0 .1575-.0626.3085-.17395.4198-.11135.1114-.26238.174-.41985.174s-.30849-.0626-.41984-.174c-.11135-.1113-.17391-.2623-.17391-.4198v-7.125c0-.15747.06256-.30849.17391-.41984s.26237-.17391.41984-.17391zm3.5625.59375c0-.15747-.0626-.30849-.1739-.41984-.1114-.11135-.2624-.17391-.4198-.17391-.1575 0-.3085.06256-.4199.17391-.1113.11135-.1739.26237-.1739.41984v7.125c0 .1575.0626.3085.1739.4198.1114.1114.2624.174.4199.174.1574 0 .3084-.0626.4198-.174.1113-.1113.1739-.2623.1739-.4198z"/><path clip-rule="evenodd" d="m17.2188 3.5625c0 .31494-.1252.61699-.3479.83969s-.5247.34781-.8397.34781h-.5937v10.6875c0 .6299-.2502 1.234-.6956 1.6794s-1.0495.6956-1.6794.6956h-7.125c-.62989 0-1.23398-.2502-1.67938-.6956s-.69562-1.0495-.69562-1.6794v-10.6875h-.59375c-.31494 0-.61699-.12511-.83969-.34781s-.34781-.52475-.34781-.83969v-1.1875c0-.31494.12511-.61699.34781-.83969s.52475-.34781.83969-.34781h4.15625c0-.314945.12511-.61699.34781-.839689.2227-.2227.52475-.347811.83969-.347811h2.375c.3149 0 .617.125111.8397.347811.2227.222699.3478.524744.3478.839689h4.1562c.315 0 .617.12511.8397.34781s.3479.52475.3479.83969zm-12.32867 1.1875-.14013.07006v10.61744c0 .3149.12511.617.34781.8397s.52475.3478.83969.3478h7.125c.3149 0 .617-.1251.8397-.3478s.3478-.5248.3478-.8397v-10.61744l-.1401-.07006zm-1.92138-1.1875v-1.1875h13.06245v1.1875z" fill-rule="evenodd"/></g></svg>