<svg width="40" height="40" viewBox="0 0 40 40" fill="none" xmlns="http://www.w3.org/2000/svg">
<path d="M14.167 26.2349C14.167 24.5958 15.348 23.1997 16.9531 22.9414C18.9718 22.6165 21.0288 22.6165 23.0476 22.9414C24.6526 23.1997 25.8337 24.5958 25.8337 26.2349V26.5977C25.8337 27.5563 25.0631 28.3334 24.1125 28.3334H15.8881C14.9376 28.3334 14.167 27.5563 14.167 26.5977V26.2349Z" stroke="white" stroke-width="1.5"/>
<path d="M23.4031 15.0981C23.4031 16.9932 21.8796 18.5294 20.0003 18.5294C18.121 18.5294 16.5975 16.9932 16.5975 15.0981C16.5975 13.203 18.121 11.6667 20.0003 11.6667C21.8796 11.6667 23.4031 13.203 23.4031 15.0981Z" stroke="white" stroke-width="1.5"/>
<path d="M35 11.6667C35 7.98477 31.269 5 26.6667 5M5 26.6667C5 31.269 7.98477 35 11.6667 35M11.6667 5C7.98477 5 5 7.98477 5 11.6667M26.6667 35C31.269 35 35 31.269 35 26.6667" stroke="white" stroke-width="1.5" stroke-linecap="round"/>
</svg>
