<svg fill="none" height="16" viewBox="0 0 16 16" width="16" xmlns="http://www.w3.org/2000/svg" xmlns:xlink="http://www.w3.org/1999/xlink"><clipPath id="a"><path d="m0 0h16v16h-16z"/></clipPath><g clip-path="url(#a)"><path d="m8.00071 5.42505c-1.42065 0-2.57493 1.15428-2.57493 2.57492 0 1.42065 1.15428 2.57493 2.57493 2.57493 1.42064 0 2.57489-1.15428 2.57489-2.57493 0-1.42064-1.15425-2.57492-2.57489-2.57492zm-.19534 1.81132c-.31965 0-.58602.26638-.58602.58602h-.85239c.01776-.79911.65705-1.4384 1.43841-1.4384z" fill="#008cef"/><path d="m15.8135 7.46743c-.8701-1.08324-3.9778-4.61709-7.8135-4.61709-3.83574 0-6.9434 3.53385-7.81354 4.61709-.2486132.30189-.2486132.74584 0 1.06549.87014 1.08324 3.9778 4.61708 7.81354 4.61708 3.8357 0 6.9434-3.53384 7.8135-4.61708.2487-.30189.2487-.74584 0-1.06549zm-7.8135 4.26197c-2.05993 0-3.72919-1.6693-3.72919-3.72922 0-2.05994 1.66926-3.72919 3.72919-3.72919 2.0599 0 3.7292 1.66925 3.7292 3.72919 0 2.05992-1.6693 3.72922-3.7292 3.72922z" fill="#008cef"/></g></svg>