<svg width="24" height="24" fill="none" xmlns="http://www.w3.org/2000/svg"><path d="M10.87 3.147l-.255-.967.255.967zm2.26 0l-.255.967.255-.967zM3.383 16.403l.962-.274-.961.274zm-.003-5.467l.962.274-.962-.274zm17.24 0l.962-.274-.962.274zm-.004 5.467l.962.274-.962-.274zm-4.623 4.216l-.19-.982.19.982zm-7.986 0l.19-.982-.19.982zM8.773 6.56l.19.982-.19-.982zm6.454 0l.19-.982-.19.982zm1.074.207l-.19.982.19-.982zm4.226 3.843l-.962.275.962-.275zM7.699 6.767l-.189-.982.19.982zM3.473 10.61l-.962-.274.962.274zm7.652-6.496a3.426 3.426 0 011.75 0l.51-1.934a5.426 5.426 0 00-2.77 0l.51 1.934zm6.052 2.95c0-2.298-1.563-4.295-3.792-4.884l-.51 1.934a3.063 3.063 0 012.302 2.95h2zm-8.354 0c0-1.374.936-2.59 2.302-2.95l-.51-1.934c-2.228.589-3.792 2.586-3.792 4.883h2zm-.934.685l1.073-.207-.378-1.964-1.074.207.379 1.964zm7.149-.207l1.073.207.379-1.964-1.074-.207-.378 1.964zm4.527 3.343l.093.325 1.924-.548-.093-.326-1.924.549zm-15.223.325l.093-.325-1.924-.55-.093.327 1.924.548zm.003 4.919a8.978 8.978 0 01-.003-4.919l-1.924-.548a10.978 10.978 0 00.004 6.015l1.923-.548zm15.313-4.919a8.978 8.978 0 01-.003 4.919l1.923.548c.56-1.961.564-4.051.004-6.015l-1.924.548zm-3.854 8.427a20.097 20.097 0 01-7.608 0L7.818 21.6c2.762.532 5.602.532 8.364 0l-.378-1.964zM8.962 7.542a16.05 16.05 0 016.076 0l.378-1.964a18.05 18.05 0 00-6.832 0l.378 1.964zm-.766 12.095a4.987 4.987 0 01-3.85-3.508l-1.924.548a6.986 6.986 0 005.396 4.924l.378-1.964zm7.986 1.964a6.986 6.986 0 005.396-4.924l-1.923-.548a4.987 4.987 0 01-3.851 3.508l.378 1.964zm-.07-13.852a4.455 4.455 0 013.453 3.136l1.924-.55c-.666-2.332-2.604-4.088-5-4.55l-.378 1.964zM7.51 5.785c-2.395.462-4.333 2.218-4.999 4.55l1.924.55a4.455 4.455 0 013.454-3.136L7.51 5.785zM3.3 12.026a25.1 25.1 0 0017.402 0l-.694-1.876a23.1 23.1 0 01-16.014 0L3.3 12.026z" fill="#fff"/><path d="M8 10.5V14m8-3.5V14" stroke="#fff" stroke-width="2" stroke-linecap="round"/></svg>