<svg width="24" height="24" viewBox="0 0 24 24" fill="none" xmlns="http://www.w3.org/2000/svg">
<path d="M23.7943 18.5397L21.2178 15.9629C20.9521 16.5221 20.4439 16.9517 19.7992 17.1049L19.4482 17.1882L19.3648 17.5395C19.2223 18.1395 18.5523 19.2693 17.142 19.1546L16.7819 19.1254L16.5941 19.4336C16.278 19.9523 15.7474 20.3069 15.1575 20.412L18.5399 23.7941C18.7122 23.9664 18.9615 24.0372 19.1987 23.9812C19.4358 23.9253 19.6271 23.7504 19.7042 23.5193L20.6579 20.6577L23.5195 19.7039C23.7507 19.6268 23.9255 19.4356 23.9815 19.1984C24.0375 18.9612 23.9666 18.712 23.7943 18.5397Z" fill="#008CEF"/>
<path d="M7.40639 19.4336L7.21861 19.1254L6.85856 19.1546C5.44824 19.2693 4.7782 18.1395 4.63575 17.5395L4.55236 17.1883L4.20136 17.1049C3.55659 16.9517 3.04842 16.5221 2.78274 15.9629L0.206204 18.5397C0.0338919 18.712 -0.0369362 18.9612 0.0190795 19.1984C0.0750482 19.4356 0.249892 19.6268 0.481033 19.7039L3.34266 20.6577L4.29642 23.5193C4.37349 23.7505 4.56474 23.9253 4.80192 23.9812C5.03911 24.0372 5.28834 23.9664 5.46066 23.7941L8.84311 20.412C8.25314 20.3068 7.72252 19.9523 7.40639 19.4336Z" fill="#008CEF"/>
<path d="M15.3932 18.7017L16.032 17.6536L17.2555 17.753C17.6008 17.781 17.9163 17.5525 17.9964 17.2146L18.2801 16.0203L19.474 15.7367C19.8118 15.6565 20.0405 15.3417 20.0124 14.9957L19.913 13.7725L20.9611 13.1338C21.2575 12.9532 21.3777 12.5832 21.2441 12.2628L20.7718 11.13L21.5711 10.1987C21.7972 9.93531 21.7973 9.54629 21.5712 9.28286L20.7718 8.35122L21.2441 7.21834C21.3777 6.89795 21.2575 6.52797 20.9611 6.34731L19.913 5.70859L20.0124 4.48543C20.0404 4.1394 19.8118 3.82464 19.474 3.74439L18.2801 3.46084L17.9964 2.26651C17.9162 1.92868 17.6008 1.70017 17.2555 1.72815L16.032 1.82753L15.3932 0.779402C15.2126 0.482871 14.8424 0.362824 14.5221 0.496371L13.3894 0.968965L12.4582 0.169559C12.1948 -0.0565195 11.8057 -0.0565195 11.5423 0.169559L10.6111 0.968871L9.47837 0.496277C9.15789 0.362637 8.78795 0.482824 8.60724 0.779309L7.96848 1.82743L6.74499 1.72806C6.39896 1.70036 6.08424 1.92859 6.00404 2.26642L5.7204 3.46075L4.52645 3.74439C4.18871 3.82464 3.96001 4.1394 3.98813 4.48543L4.08751 5.70859L3.03943 6.34731C2.74299 6.52797 2.62276 6.8979 2.75635 7.21834L3.22867 8.35122L2.42926 9.28286C2.20323 9.54629 2.20328 9.93531 2.42935 10.1987L3.22867 11.13L2.75645 12.2628C2.62285 12.5832 2.74309 12.9532 3.03953 13.1338L4.0876 13.7725L3.98823 14.9957C3.96015 15.3417 4.18881 15.6565 4.52654 15.7367L5.72049 16.0203L6.00413 17.2146C6.08438 17.5525 6.3991 17.7807 6.74509 17.753L7.96857 17.6536L8.60734 18.7017C8.78799 18.9982 9.15798 19.1184 9.47846 18.9848L10.6112 18.5122L11.5424 19.3114C11.8058 19.5375 12.1949 19.5375 12.4583 19.3114L13.3895 18.5122L14.5222 18.9848C14.8424 19.1183 15.2126 18.9982 15.3932 18.7017ZM11.7443 14.7566C11.4698 15.0311 11.0245 15.0312 10.7499 14.7566L6.60774 10.6144C6.33315 10.3398 6.33315 9.89462 6.60774 9.62003L8.73793 7.48979C9.01248 7.2152 9.4577 7.2152 9.73229 7.48979L11.2471 9.00456L14.6447 5.60697C14.9192 5.33237 15.3645 5.33237 15.6391 5.60697L17.7692 7.73715C18.0438 8.01175 18.0438 8.45692 17.7692 8.73151L11.7443 14.7566Z" fill="#008CEF"/>
<path d="M11.7439 10.4962C11.4693 10.7708 11.0241 10.7708 10.7495 10.4962L9.2347 8.98146L8.09888 10.1173L11.2467 13.2651L16.2773 8.23446L15.1415 7.09863L11.7439 10.4962Z" fill="#008CEF"/>
</svg>
