<svg width="24" height="24" viewBox="0 0 24 24" fill="none" xmlns="http://www.w3.org/2000/svg">
<path d="M23.924 10.6678C23.8861 10.3304 23.4927 10.0767 23.1524 10.0767C22.0529 10.0767 21.077 9.4313 20.6678 8.43241C20.25 7.40955 20.5196 6.21688 21.3388 5.46533C21.5968 5.22941 21.6283 4.83438 21.412 4.56016C20.849 3.84545 20.2094 3.19977 19.5109 2.64023C19.2376 2.42102 18.8361 2.45154 18.5989 2.71402C17.8837 3.50616 16.5988 3.80051 15.606 3.38628C14.5732 2.95171 13.9212 1.90476 13.9853 0.781012C14.0063 0.42781 13.7481 0.120899 13.3962 0.0799012C12.4997 -0.0238902 11.5954 -0.0269002 10.6963 0.0728434C10.3488 0.111246 10.0908 0.410892 10.1023 0.759631C10.1413 1.87238 9.48198 2.90085 8.45911 3.31985C7.47818 3.72059 6.20227 3.42842 5.4885 2.64324C5.25258 2.38459 4.85807 2.35283 4.58292 2.56737C3.86385 3.13168 3.20986 3.77778 2.64171 4.48668C2.42032 4.76224 2.45301 5.16163 2.71322 5.39838C3.54864 6.15492 3.81797 7.35786 3.38423 8.39266C2.9701 9.3792 1.94578 10.0147 0.773253 10.0147C0.392754 10.0025 0.121962 10.2581 0.0799263 10.6041C-0.0255257 11.5054 -0.0266674 12.4241 0.0748406 13.3327C0.112724 13.6715 0.517822 13.9231 0.861787 13.9231C1.90697 13.8965 2.9098 14.5431 3.33109 15.5672C3.7503 16.5901 3.48044 17.7823 2.65987 18.5348C2.40319 18.7708 2.3704 19.1649 2.58711 19.4388C3.14437 20.149 3.78455 20.7951 4.48515 21.3594C4.76019 21.5809 5.1602 21.5499 5.39861 21.2871C6.11664 20.4931 7.40127 20.1992 8.39009 20.6143C9.42593 21.0477 10.0775 22.0946 10.0139 23.2186C9.99304 23.5718 10.2519 23.8797 10.6026 23.9198C11.0614 23.9734 11.5225 24 11.9851 24C12.4242 24 12.8633 23.976 13.3024 23.9271C13.6503 23.8887 13.908 23.5888 13.8962 23.2399C13.8561 22.1277 14.5168 21.0991 15.5384 20.6809C16.5259 20.2776 17.7961 20.5728 18.5103 21.3568C18.7474 21.615 19.1396 21.6463 19.4159 21.4326C20.1337 20.8697 20.7864 20.2239 21.3571 19.5132C21.5787 19.2381 21.5472 18.8382 21.2855 18.6011C20.4503 17.845 20.1795 16.6416 20.6133 15.6078C21.021 14.6346 22.0072 13.9811 23.068 13.9811L23.2164 13.985C23.5608 14.013 23.8772 13.7478 23.9188 13.3964C24.0248 12.4944 24.026 11.5767 23.924 10.6678ZM11.9995 18.9181C8.17867 18.9181 5.08143 15.8209 5.08143 12.0001C5.08143 8.17937 8.17877 5.08213 11.9995 5.08213C15.8203 5.08213 18.9177 8.17937 18.9177 12.0001C18.9177 13.297 18.5601 14.51 17.9391 15.5473L14.9099 12.518C15.1292 12.0009 15.245 11.4403 15.2449 10.8618C15.2449 9.72887 14.8037 8.66387 14.0025 7.86291C13.2015 7.06195 12.1365 6.62084 11.0039 6.62084C10.6259 6.62084 10.2496 6.67107 9.88562 6.77019C9.7262 6.81368 9.59583 6.94508 9.55338 7.10482C9.51 7.26818 9.55889 7.4356 9.68655 7.56337C9.68655 7.56337 11.1821 9.07042 11.6825 9.57069C11.7349 9.62311 11.7348 9.74818 11.7274 9.79322L11.7227 9.82612C11.6723 10.3762 11.575 11.0365 11.4948 11.2903C11.484 11.301 11.4738 11.31 11.4628 11.321C11.4513 11.3326 11.4407 11.3437 11.4296 11.3551C11.1725 11.4376 10.502 11.536 9.94322 11.586L9.94333 11.583L9.91821 11.5893C9.91375 11.5899 9.90544 11.5905 9.89444 11.5905C9.83404 11.5905 9.74519 11.5736 9.66444 11.4929C9.14362 10.9721 7.70673 9.54547 7.70673 9.54547C7.57782 9.41698 7.44559 9.38999 7.35747 9.38999C7.15207 9.38999 6.96815 9.53841 6.91023 9.75129C6.51468 11.2151 6.934 12.7896 8.00482 13.8605C8.80598 14.6616 9.87109 15.1027 11.004 15.1027C11.5825 15.1027 12.1431 14.9869 12.6601 14.7676L15.7222 17.8298C14.6472 18.5177 13.3705 18.9181 11.9995 18.9181Z" fill="#008CEF"/>
</svg>
