<svg width="40" height="40" fill="none" xmlns="http://www.w3.org/2000/svg"><path d="M20 0C8.954 0 0 8.954 0 20s8.954 20 20 20 20-8.954 20-20S31.046 0 20 0zm12.094 14.666c.01.236.014.473.014.71 0 8.544-6.5 17.381-17.38 17.381-3.325 0-6.563-.949-9.364-2.745a.148.148 0 01.098-.272c.47.056.95.084 1.427.084 2.587 0 5.036-.8 7.108-2.318a6.202 6.202 0 01-5.385-4.287.15.15 0 01.03-.144.15.15 0 01.138-.047c.689.13 1.388.14 2.063.03A6.224 6.224 0 016.48 17.13l.001-.08a.148.148 0 01.22-.126 5.93 5.93 0 002.165.7A6.197 6.197 0 016.53 12.77c0-1.097.29-2.176.84-3.119a.147.147 0 01.117-.073.145.145 0 01.126.054 17.109 17.109 0 0012.183 6.263 6.211 6.211 0 016.085-7.426c1.682 0 3.307.691 4.472 1.9a11.961 11.961 0 003.72-1.436.148.148 0 01.216.173 6.195 6.195 0 01-2.181 3.064 11.923 11.923 0 002.795-.848.148.148 0 01.183.218 12.368 12.368 0 01-2.993 3.125z" fill="#008CEF"/></svg>