<svg width="40" height="40" fill="none" xmlns="http://www.w3.org/2000/svg"><path d="M20.018 16.576a3.424 3.424 0 003.424-3.455A3.43 3.43 0 0020 9.68a3.437 3.437 0 00-3.45 3.482 3.432 3.432 0 003.468 3.413z" fill="#008CEF"/><path d="M20 0C8.954 0 0 8.955 0 20s8.954 20 20 20 20-8.955 20-20S31.046 0 20 0zm.029 6.082c3.895.01 7.022 3.197 7.002 7.136-.02 3.848-3.197 6.966-7.087 6.953-3.85-.013-7.006-3.204-6.983-7.06.021-3.898 3.18-7.04 7.068-7.029zm7.89 16.857c-.861.884-1.898 1.524-3.05 1.97-1.088.423-2.281.635-3.462.777.179.194.263.289.374.4 1.602 1.611 3.213 3.214 4.81 4.83.544.55.657 1.233.358 1.872-.327.7-1.06 1.16-1.78 1.11-.457-.03-.812-.257-1.128-.575-1.21-1.217-2.442-2.412-3.626-3.652-.346-.361-.511-.292-.816.021a241.4 241.4 0 01-3.697 3.712c-.558.551-1.223.651-1.871.336-.689-.333-1.127-1.037-1.093-1.744.024-.477.258-.843.587-1.17 1.586-1.583 3.168-3.171 4.75-4.758.105-.105.202-.217.355-.38-2.158-.226-4.104-.757-5.77-2.06-.207-.162-.42-.318-.608-.5-.73-.7-.803-1.502-.226-2.328.494-.707 1.322-.896 2.183-.49.167.078.326.177.478.282 3.104 2.133 7.37 2.192 10.486.096.308-.236.639-.43 1.021-.528.743-.192 1.437.082 1.836.733.456.743.45 1.468-.111 2.046z" fill="#008CEF"/></svg>