<svg fill="none" height="101" width="88" xmlns="http://www.w3.org/2000/svg"><filter id="a" color-interpolation-filters="sRGB" filterUnits="userSpaceOnUse" height="75.419" width="70.084" x=".933" y=".126"><feFlood flood-opacity="0" result="BackgroundImageFix"/><feBlend in="SourceGraphic" in2="BackgroundImageFix" result="shape"/><feGaussianBlur result="effect1_foregroundBlur" stdDeviation="11.755"/></filter><filter id="b" color-interpolation-filters="sRGB" filterUnits="userSpaceOnUse" height="76.008" width="70.238" x="16.796" y="24.755"><feFlood flood-opacity="0" result="BackgroundImageFix"/><feBlend in="SourceGraphic" in2="BackgroundImageFix" result="shape"/><feGaussianBlur result="effect1_foregroundBlur" stdDeviation="11.755"/></filter><g filter="url(#a)" opacity=".7"><path d="M24.443 35.168c0-6.369 5.163-11.532 11.532-11.532S47.506 28.8 47.506 35.168v8.838a8.028 8.028 0 01-8.028 8.028h-7.007a8.028 8.028 0 01-8.028-8.027z" fill="#06dd69"/></g><g filter="url(#b)" opacity=".7"><path d="M63.523 65.643c0 6.411-5.197 11.609-11.608 11.609s-11.608-5.197-11.608-11.609v-9.35a8.028 8.028 0 018.028-8.028h7.16a8.028 8.028 0 018.028 8.028z" fill="#00a7ef"/></g></svg>