<svg width="16" height="16" fill="none" xmlns="http://www.w3.org/2000/svg"><g clip-path="url(#clip0)"><path d="M13.818 5.09h-2.182V2.183H1.455A1.451 1.451 0 000 3.636v8h1.455c0 1.204.978 2.182 2.181 2.182a2.184 2.184 0 002.182-2.182h4.364c0 1.204.978 2.182 2.182 2.182a2.184 2.184 0 002.181-2.182H16V8l-2.182-2.91zM3.636 12.728a1.09 1.09 0 01-1.09-1.09 1.09 1.09 0 112.182 0 1.09 1.09 0 01-1.092 1.09zm8.728 0a1.09 1.09 0 01-1.091-1.09 1.09 1.09 0 112.182 0 1.09 1.09 0 01-1.091 1.09zM11.636 8V6.182h1.819L14.883 8h-3.248z" fill="#008CEF"/></g><defs><clipPath id="clip0"><path fill="#fff" d="M0 0h16v16H0z"/></clipPath></defs></svg>