<svg width="32" height="32" fill="none" xmlns="http://www.w3.org/2000/svg"><path d="M7.515 26.666a12.281 12.281 0 01-3.284-6.253 12.414 12.414 0 01.682-7.056 12.169 12.169 0 014.42-5.48A11.852 11.852 0 0116 5.817c2.373 0 4.693.716 6.667 2.058a12.169 12.169 0 014.42 5.481 12.414 12.414 0 01.682 7.056 12.281 12.281 0 01-3.284 6.253" stroke="#3C4858" stroke-width="1.5" stroke-linecap="round"/><path d="M10.343 24a7.755 7.755 0 01-2.19-4 7.639 7.639 0 01.456-4.512 7.854 7.854 0 012.946-3.505A8.138 8.138 0 0116 10.667c1.582 0 3.129.458 4.445 1.316a7.854 7.854 0 012.946 3.505 7.639 7.639 0 01.455 4.513A7.755 7.755 0 0121.656 24" stroke="#3C4858" stroke-width="1.5" stroke-linecap="round"/><path d="M13.172 21.334a3.877 3.877 0 01-1.095-2 3.818 3.818 0 01.228-2.256 3.926 3.926 0 011.473-1.753A4.07 4.07 0 0116 14.667a4.07 4.07 0 012.222.658 3.926 3.926 0 011.473 1.753 3.81 3.81 0 01.228 2.256 3.877 3.877 0 01-1.095 2" stroke="#3C4858" stroke-width="1.5" stroke-linecap="round"/></svg>